<?xml version="1.0" encoding="utf-8"?>
<!-- Generator: Adobe Illustrator 28.0.0, SVG Export Plug-In . SVG Version: 6.00 Build 0)  -->
<svg version="1.1" id="圖層_1" xmlns="http://www.w3.org/2000/svg" xmlns:xlink="http://www.w3.org/1999/xlink" x="0px" y="0px"
	 viewBox="0 0 500 200" style="enable-background:new 0 0 500 200;" xml:space="preserve">
<style type="text/css">
	.st0{fill:#FFFFFF;}
</style>
<g>
	<g>
		<path class="st0" d="M153.1,42.3L47.5,158.1h27l8.4-9.2c9.7-9.7,32.8-23.3,68.2-31.4h-39.5l40.1-40.2l-0.6,40.2V158h13.1V42.3
			H153.1z"/>
		<path class="st0" d="M200.3,111.6c-3.3-3.5-10.4-7.9-22.3,1l11.9-15.4L178,80.4v32.2v32.2l-10,12.9V41.9l45.6,58.3l-6.8,8.8
			l-4.3,5.6L200.3,111.6"/>
	</g>
	<g>
		<path class="st0" d="M241.4,42.3c4.6,2.8,9.6,6.3,15.1,10.5l-3.3,4.3c-2-1.6-4-3.2-5.6-4.5v3.5h-14v-2.2c-2.6,2.2-5.6,4.3-8.9,6.6
			l-3.3-4.6c6.6-4.1,12.2-8.6,16.5-13.6C237.9,42.3,241.4,42.3,241.4,42.3z M253.3,96.2H248v-2h-11.1v2.1h-5.1V80
			c-1.1,6.1-3.1,11.6-6,16.3l-4.3-3.9c3.8-5.8,5.8-13.3,5.8-22.5v-11h25.3v17.4h-20.3c-0.1,1.2-0.3,2.3-0.5,3.3h21.3L253.3,96.2
			L253.3,96.2z M232.8,69.9c0,0.8,0,1.6,0,2.4h14.6v-2.9h-14.5L232.8,69.9L232.8,69.9z M247.3,63h-14.5v2.8h14.5V63z M246.7,51.9
			c-2.5-2-4.7-3.5-6.5-4.6c-1.3,1.5-2.8,3-4.5,4.6H246.7z M248,89.8V84h-11.1v5.7H248z M259.6,95.8l-1.3-5.4
			c2.8,0.2,5.6,0.3,8.1,0.3c1.4,0,2.1-0.7,2.1-2.1V42.3h5.6V90c0,3.9-2,5.8-5.7,5.8H259.6z M263.7,46.2v37.7h-5.3V46.2H263.7z"/>
		<path class="st0" d="M305.4,42v8.6h4.9V42h5.4v8.6h4.1c1.6-2.5,3-5,4.1-7.7l5.2,2c-1.3,2.2-2.5,4.1-3.7,5.8h8.4v4.9h-16.5l4.6,1.6
			c-0.8,1.3-1.6,2.6-2.6,3.8h11.8v4.9h-20.3V69h17.5v4.6h-17.5v3.3h23v4.9h-23v14.8h-5.6V81.8h-23v-4.9h23v-3.3h-17.5V69h17.5v-3.3
			h-20.3v-4.9h11.8c-0.8-1.4-1.6-2.7-2.6-4l3.8-1.4h-15.7v-4.8h8.4c-1-2-2.1-4-3.4-5.7l5.3-2c1.3,2.1,2.5,4.7,3.6,7.6h4.1V42H305.4z
			 M299.6,86.2c-3.6,3.6-8.1,6.8-13.4,9.6l-3.5-4.5c5.2-2.3,9.6-5.2,13.2-8.4L299.6,86.2z M299.6,55.5c1,1.6,2,3.3,2.8,5.3h10.7
			c1.3-1.8,2.3-3.5,3.3-5.3H299.6z M333,91.7l-4,4c-3-2.9-7-5.9-12.3-9.2l3.6-3.5C325.3,85.9,329.6,88.8,333,91.7z"/>
		<path class="st0" d="M361.5,47.7v-5.8h5.6v5.8h13.1v5.3h-13.1v5.7h6.9c5.6-3.9,10.2-8.3,14.2-12.9l4.2,3.1c-3,3.6-6.2,6.9-9.6,9.9
			h10.6V64h-17.6c-0.7,0.5-1.4,0.9-2.1,1.3c-2.2,1.3-4.6,2.6-7.5,4h20v27.2h-5.6v-2.3h-23.7v2.3h-5.6V75.7c-3,1-6,2.2-9.2,3.3
			l-2.3-5.2c9.2-2.1,17.8-5.3,25.9-9.9h-25v-5.3h20.9v-5.7h-16v-5.2H361.5z M380.6,74.1h-23.7v5.1h23.7V74.1z M356.9,89.4h23.7V84
			h-23.7V89.4z"/>
	</g>
	<g>
		<path class="st0" d="M244.4,143.1c-4.9,5.5-10.9,10.2-18,14.4l-3.9-5.1c7-3.8,12.9-8.1,17.7-13.2L244.4,143.1z M235.8,114.5v-11.7
			h5.6v11.7h15.3v-11.4h5.6v11.4h10.3v5.4h-10.3v12.8h13.2v5.5h-52.9v-5.5h13.2V120h-10.2v-5.4L235.8,114.5L235.8,114.5z
			 M256.7,132.7V120h-15.3v12.8H256.7z M275.7,153l-4.5,4.5c-4-4.3-9.6-9-16.8-14.1l4.1-4C265.3,144,271,148.5,275.7,153z"/>
		<path class="st0" d="M300.3,103.3c4.6,2.8,9.6,6.3,15.1,10.5l-3.3,4.3c-2-1.6-4-3.2-5.6-4.5v3.5h-14v-2.2
			c-2.6,2.2-5.6,4.3-8.9,6.6l-3.3-4.6c6.6-4.1,12.2-8.6,16.5-13.6L300.3,103.3L300.3,103.3z M312.1,157.2h-5.3v-2h-11.1v2.1h-5.1
			V141c-1.1,6.1-3.1,11.6-6,16.3l-4.3-3.9c3.8-5.8,5.8-13.3,5.8-22.5v-11h25.3v17.4h-20.3c-0.1,1.2-0.3,2.3-0.5,3.3h21.3
			L312.1,157.2L312.1,157.2z M291.7,130.9c0,0.8,0,1.6,0,2.4h14.6v-2.9h-14.5L291.7,130.9L291.7,130.9z M306.2,124h-14.5v2.8h14.5
			V124z M305.6,112.9c-2.5-2-4.7-3.5-6.5-4.6c-1.3,1.5-2.8,3-4.5,4.6H305.6z M306.9,150.8v-5.7h-11.1v5.7H306.9z M318.4,156.8
			l-1.3-5.4c2.8,0.2,5.6,0.3,8.1,0.3c1.4,0,2.1-0.7,2.1-2.1v-46.3h5.6V151c0,3.9-2,5.8-5.7,5.8L318.4,156.8L318.4,156.8z
			 M322.6,107.2v37.7h-5.3v-37.7H322.6z"/>
		<path class="st0" d="M390.9,105.3v5.5h-21.4v20.8h23.7v5.3h-23.7v20.4h-5.6V137h-23.2v-5.3h23.2v-20.8H343v-5.5L390.9,105.3
			L390.9,105.3z M357.4,126.7l-5.3,2.6c-2-5-4-9.4-6.2-13.2l5.3-2.5C353.4,117.5,355.4,121.9,357.4,126.7z M388.1,115.7
			c-1.7,4.6-4,8.9-6.6,13.3l-5.1-2.6c2.8-4.5,4.9-8.9,6.6-13.2L388.1,115.7z"/>
		<path class="st0" d="M400.8,121.7c4.5-1,10.6-7.3,18.5-18.8l5.8,2c-4.8,6.6-9.6,12.2-14.5,16.6c10-0.3,19.7-1,29-1.9
			c-1.9-2.8-3.8-5.4-5.8-7.9l5.1-2.4c4.8,5.9,9.3,12.4,13.6,19.5l-5.5,2.7c-1.4-2.5-2.8-4.8-4.1-6.9c-12.3,1-26,1.9-41.1,2.5
			L400.8,121.7z M445.9,157.5h-5.6V155h-29v2.4h-5.6v-25H446L445.9,157.5L445.9,157.5z M440.3,149.7v-11.9h-29v11.9H440.3z"/>
	</g>
</g>
</svg>
