<?xml version="1.0" encoding="utf-8"?>
<!-- Generator: Adobe Illustrator 28.0.0, SVG Export Plug-In . SVG Version: 6.00 Build 0)  -->
<svg version="1.1" id="圖層_1" xmlns="http://www.w3.org/2000/svg" xmlns:xlink="http://www.w3.org/1999/xlink" x="0px" y="0px"
	 viewBox="0 0 500 200" style="enable-background:new 0 0 500 200;" xml:space="preserve">
<style type="text/css">
	.st0{fill:#FFFFFF;}
	.st1{fill:#FF5100;}
</style>
<g>
	<g>
		<path class="st0" d="M160.8,93.9l0.1-0.8c2.9-38.6,30.2-70.7,67.8-79.9l0.6-0.1L253.9,78L160.8,93.9z M228.4,14.6
			c-36.5,9.2-62.9,40.3-66.1,77.7l89.8-15.4L228.4,14.6z"/>
		<path class="st0" d="M252.5,78.2l-24.6-64.8l0.7-0.2c7-1.7,14.2-2.6,21.4-2.6c34.3,0,66,20,80.7,51l0.4,0.8l-1.1,0.2L252.5,78.2z
			 M229.7,14.3l23.7,62.4l75.8-15.3c-14.7-30.1-45.7-49.5-79.2-49.5C243.1,11.9,236.3,12.7,229.7,14.3z"/>
		<path class="st0" d="M332.2,135.3l-16.4-14.7l0.1-0.4l13.5-58.8l1.2-0.2l0.2,0.5c5.7,12,8.7,24.9,8.7,38.4v0.1
			c0,11.9-2.3,23.5-6.9,34.4L332.2,135.3z M317.2,120.1l14.5,13c4.2-10.5,6.4-21.6,6.4-33l0.7-0.1l-0.7,0c0-12.7-2.7-25-7.9-36.5
			L317.2,120.1z"/>
		<path class="st0" d="M272,186.7l-0.3-0.2l-41.5-35.4l86.4-31.5l16.1,14.4l-0.2,0.4c-10.7,25.7-33.2,45.2-60.2,52.2L272,186.7z
			 M232.8,151.5l39.5,33.7c26.2-6.9,48.2-25.8,58.8-50.9l-14.8-13.3L232.8,151.5z"/>
		<path class="st0" d="M193.3,169.1l-0.3-0.3c-20.6-17.1-32.4-42.2-32.4-68.9l0-2.4l72.2,53.8L193.3,169.1z M161.9,100.2
			c0.1,26.1,11.6,50.6,31.6,67.4l36.7-16.4L161.9,100.2z"/>
		<path class="st0" d="M250,189.4L250,189.4c-20.8,0-41-7.3-57-20.5l-0.8-0.7l39.5-17.7l41.9,35.7l-1.2,0.3
			C265.1,188.4,257.6,189.4,250,189.4z M194.7,168.5c15.6,12.6,35.2,19.5,55.3,19.6l0,0.7v-0.7c7,0,14-0.8,20.7-2.5l-39.3-33.5
			L194.7,168.5z"/>
		<path class="st0" d="M231.9,152.4l-71.3-53.2l0-0.3c0-2,0.1-4,0.2-5.8l0-0.5l93-16L231.9,152.4z M161.9,98.6l69.2,51.6L252,78.3
			l-89.9,15.4C162,95.3,162,96.9,161.9,98.6z"/>
		<path class="st0" d="M316.9,121.4l-65.6-44.3l79.4-16L316.9,121.4z M254.6,77.8l61.4,41.4L329,62.8L254.6,77.8z"/>
		<path class="st0" d="M230.5,152.4l22-76l65.3,44.1L230.5,152.4z M253.3,78.5l-20.8,71.7l82.5-30.1L253.3,78.5z"/>
		<path class="st0" d="M271.8,186.7l-0.3-0.2l-41.3-35.4l87.9-32.1l-45.2,67.4L271.8,186.7z M232.8,151.5l39.3,33.7l42.7-63.6
			L232.8,151.5z"/>
	</g>
	<g>
		<g>
			<path class="st1" d="M272.4,106.5c0.1-2.1,0.7-3.9,1.6-5.3c0.9-1.4,2.1-2.5,3.6-3.4c1.4-0.8,3.1-1.4,4.9-1.8
				c1.8-0.4,3.6-0.5,5.4-0.5c1.7,0,3.3,0.1,5,0.3c1.7,0.2,3.2,0.7,4.6,1.4c1.4,0.7,2.5,1.6,3.4,2.8c0.9,1.2,1.3,2.8,1.3,4.8V122
				c0,1.5,0.1,2.9,0.3,4.3c0.2,1.4,0.5,2.4,0.9,3h-9.1c-0.2-0.5-0.3-1-0.4-1.6c-0.1-0.5-0.2-1.1-0.2-1.6c-1.4,1.5-3.1,2.5-5.1,3.1
				c-1.9,0.6-3.9,0.9-6,0.9c-1.6,0-3-0.2-4.4-0.6c-1.4-0.4-2.5-1-3.6-1.8c-1-0.8-1.8-1.8-2.4-3c-0.6-1.2-0.9-2.7-0.9-4.4
				c0-1.9,0.3-3.4,1-4.6c0.7-1.2,1.5-2.2,2.5-2.9c1-0.7,2.2-1.3,3.6-1.6c1.3-0.4,2.7-0.6,4-0.9c1.4-0.2,2.7-0.4,4-0.5
				c1.3-0.1,2.5-0.3,3.5-0.6c1-0.3,1.8-0.6,2.4-1.1c0.6-0.5,0.9-1.2,0.8-2.1c0-1-0.2-1.7-0.5-2.3c-0.3-0.6-0.7-1-1.3-1.3
				c-0.5-0.3-1.1-0.5-1.8-0.6c-0.7-0.1-1.5-0.2-2.3-0.2c-1.8,0-3.2,0.4-4.2,1.1c-1,0.8-1.6,2-1.8,3.8H272.4z M293.2,113.2
				c-0.4,0.3-0.9,0.6-1.4,0.8c-0.6,0.2-1.2,0.3-1.8,0.5c-0.7,0.1-1.3,0.2-2.1,0.3c-0.7,0.1-1.4,0.2-2.2,0.3c-0.7,0.1-1.3,0.3-2,0.5
				c-0.7,0.2-1.2,0.5-1.7,0.9c-0.5,0.4-0.9,0.8-1.2,1.4c-0.3,0.6-0.4,1.2-0.4,2.1c0,0.8,0.1,1.5,0.4,2c0.3,0.6,0.7,1,1.2,1.3
				c0.5,0.3,1.1,0.5,1.8,0.7c0.7,0.1,1.4,0.2,2.1,0.2c1.8,0,3.2-0.3,4.1-0.9c1-0.6,1.7-1.3,2.2-2.1c0.5-0.8,0.8-1.7,0.9-2.5
				c0.1-0.8,0.2-1.5,0.2-2V113.2z"/>
			<path class="st0" d="M282.5,131c-1.6,0-3.2-0.2-4.6-0.6c-1.5-0.4-2.8-1.1-3.9-1.9c-1.1-0.9-2-2-2.6-3.4c-0.6-1.3-0.9-2.9-0.9-4.8
				c0-2,0.4-3.7,1.1-5c0.7-1.3,1.7-2.4,2.8-3.2c1.1-0.8,2.4-1.4,3.8-1.7c1.4-0.4,2.7-0.7,4.1-0.9c1.4-0.2,2.7-0.4,4.1-0.5
				c1.3-0.1,2.4-0.3,3.4-0.5c0.9-0.2,1.6-0.5,2.1-0.9c0.2-0.2,0.5-0.5,0.5-1.4c0-0.9-0.1-1.5-0.4-1.9c-0.2-0.4-0.6-0.8-1-1
				c-0.4-0.3-0.9-0.4-1.5-0.5c-0.7-0.1-1.4-0.1-2.1-0.1c-1.6,0-2.8,0.3-3.7,1c-0.8,0.6-1.3,1.7-1.4,3.2l-0.1,0.8h-10.8l0.1-0.9
				c0.1-2.3,0.7-4.2,1.7-5.7c1-1.5,2.3-2.7,3.8-3.6c1.5-0.9,3.2-1.5,5.1-1.9c3.5-0.7,7.1-0.7,10.7-0.2c1.8,0.2,3.4,0.7,4.9,1.4
				c1.5,0.7,2.8,1.8,3.8,3.1c1,1.4,1.5,3.1,1.5,5.3V122c0,1.4,0.1,2.8,0.2,4.1c0.2,1.2,0.4,2.1,0.8,2.7l0.8,1.3h-11.4l-0.2-0.6
				c-0.2-0.5-0.3-1.1-0.4-1.7c0,0,0,0,0,0c-1.2,1-2.6,1.7-4.2,2.2C286.7,130.7,284.6,131,282.5,131z M287.4,100.7
				c0.8,0,1.6,0.1,2.4,0.2c0.8,0.1,1.5,0.4,2.2,0.7c0.7,0.4,1.2,1,1.6,1.7c0.4,0.7,0.6,1.6,0.6,2.7c0.1,1.5-0.6,2.3-1.1,2.8
				c-0.7,0.6-1.6,1-2.8,1.3c-1.1,0.3-2.3,0.5-3.6,0.6c-1.3,0.1-2.6,0.3-4,0.5c-1.3,0.2-2.6,0.5-3.9,0.8c-1.2,0.3-2.3,0.8-3.3,1.5
				c-0.9,0.6-1.7,1.5-2.3,2.6c-0.6,1.1-0.9,2.5-0.9,4.2c0,1.6,0.3,2.9,0.8,4c0.5,1.1,1.2,2,2.1,2.7c0.9,0.7,2,1.3,3.2,1.6
				c2.9,0.8,6.6,0.7,9.9-0.3c1.8-0.5,3.4-1.5,4.7-2.9l1.4-1.4l0.1,2c0,0.5,0.1,1,0.2,1.5c0.1,0.3,0.1,0.6,0.2,0.8h7.2
				c-0.2-0.6-0.3-1.3-0.4-2.1c-0.2-1.4-0.3-2.8-0.3-4.4v-17.1c0-1.8-0.4-3.2-1.2-4.3c-0.8-1.1-1.8-1.9-3.1-2.6
				c-1.3-0.6-2.8-1.1-4.4-1.3c-3.5-0.5-6.8-0.5-10.2,0.2c-1.7,0.3-3.2,0.9-4.6,1.7c-1.3,0.8-2.4,1.8-3.3,3.1
				c-0.7,1.1-1.2,2.4-1.4,3.9h7.3c0.3-1.6,1-2.8,2-3.6C283.8,101.1,285.4,100.7,287.4,100.7z M285.9,125c-0.8,0-1.5-0.1-2.3-0.2
				c-0.8-0.1-1.5-0.4-2.1-0.8c-0.6-0.4-1.1-0.9-1.5-1.6c-0.4-0.7-0.5-1.5-0.5-2.4c0-1,0.2-1.8,0.5-2.5c0.4-0.7,0.8-1.2,1.4-1.7
				c0.6-0.4,1.2-0.7,2-1c0.7-0.2,1.4-0.4,2.1-0.5c0.7-0.1,1.5-0.2,2.2-0.3c0.7-0.1,1.4-0.2,2-0.3c0.6-0.1,1.2-0.3,1.7-0.4
				c0.5-0.2,0.8-0.4,1.1-0.6l1.5-1.3v5.3c0,0.6-0.1,1.3-0.2,2.1c-0.1,1-0.4,1.9-1,2.8c-0.5,1-1.4,1.8-2.5,2.4
				C289.4,124.7,287.9,125,285.9,125z M292.3,114.7c-0.1,0-0.2,0.1-0.3,0.1c-0.6,0.2-1.3,0.4-2,0.5c-0.7,0.1-1.4,0.2-2.1,0.3
				c-0.7,0.1-1.4,0.2-2.1,0.3c-0.6,0.1-1.3,0.3-1.9,0.5c-0.6,0.2-1.1,0.4-1.5,0.7c-0.4,0.3-0.7,0.6-0.9,1.1c-0.2,0.4-0.3,1-0.3,1.7
				c0,0.7,0.1,1.2,0.3,1.6c0.2,0.4,0.5,0.7,0.9,1c0.4,0.3,0.9,0.4,1.5,0.5c0.6,0.1,1.3,0.2,1.9,0.2c1.6,0,2.8-0.3,3.7-0.8
				c0.8-0.5,1.5-1.1,1.9-1.8c0.4-0.7,0.7-1.5,0.7-2.2c0.1-0.8,0.2-1.5,0.2-1.9V114.7z"/>
		</g>
		<g>
			<path class="st1" d="M338.7,100c0-1.5,0-3-0.1-4.5h-10.2c-1.1,0-2.2,0.2-3.3,0.5c-1.1,0.3-2.1,0.8-3,1.4
				c-0.9,0.6-1.8,1.4-2.5,2.2c-0.7,0.9-1.3,1.8-1.7,2.8h-0.1v-6.1h-8.6v32.8h9v-14.8c0-1.5,0.1-2.9,0.4-4.1c0.3-1.3,0.8-2.4,1.5-3.3
				c0.7-1,1.6-1.7,2.8-2.3c1.1-0.5,2.5-0.8,4.2-0.8h11.5C338.7,102.6,338.7,101.3,338.7,100L338.7,100z"/>
			<path class="st0" d="M319.1,130.1h-10.8V95.5h10.3v3.9c0.1-0.1,0.2-0.2,0.3-0.4c0.8-0.9,1.7-1.7,2.7-2.4c1-0.7,2.1-1.2,3.2-1.5
				c1.1-0.4,2.3-0.6,3.6-0.6h11.1l0,0.8c0.1,1.5,0.1,3,0.1,4.5v0c0,1.3,0,2.6-0.1,4l0,0.8h-12.4c-1.5,0-2.8,0.2-3.8,0.7
				c-1,0.5-1.8,1.1-2.4,2c-0.6,0.9-1.1,1.9-1.3,3c-0.3,1.2-0.4,2.5-0.4,3.9V130.1z M310.1,128.4h7.3v-13.9c0-1.5,0.2-3,0.5-4.3
				c0.3-1.4,0.9-2.6,1.6-3.7c0.8-1.1,1.8-1.9,3.1-2.5c1.3-0.6,2.8-0.9,4.6-0.9h10.7c0-1,0.1-2,0.1-3v0c0-1.2,0-2.4-0.1-3.6h-9.4
				c-1,0-2.1,0.2-3,0.5c-1,0.3-1.9,0.8-2.8,1.3c-0.9,0.6-1.6,1.3-2.3,2.1c-0.7,0.8-1.2,1.7-1.6,2.6l-0.2,0.5H317l-0.1-0.9v-5.2h-6.8
				V128.4z"/>
		</g>
		<g>
			<path class="st1" d="M223.1,158.3c1.4,1.3,3.3,2,5.8,2c1.8,0,3.4-0.5,4.7-1.4c1.3-0.9,2.1-1.9,2.4-2.9h7.9
				c-1.3,3.9-3.2,6.8-5.8,8.4c-2.6,1.7-5.8,2.5-9.5,2.5c-2.6,0-4.9-0.4-7-1.2c-2.1-0.8-3.8-2-5.3-3.5c-1.4-1.5-2.6-3.3-3.3-5.5
				c-0.8-2.1-1.2-4.4-1.2-7c0-2.5,0.4-4.7,1.2-6.9c0.8-2.1,1.9-3.9,3.4-5.5c1.5-1.5,3.2-2.8,5.3-3.7c2.1-0.9,4.3-1.3,6.8-1.3
				c2.8,0,5.2,0.5,7.3,1.6c2.1,1.1,3.8,2.5,5.1,4.4c1.3,1.8,2.3,3.9,2.9,6.2c0.6,2.3,0.8,4.8,0.6,7.3h-23.7
				C221,154.9,221.7,157,223.1,158.3z M233.3,141.1c-1.1-1.2-2.7-1.8-4.9-1.8c-1.4,0-2.6,0.2-3.6,0.7c-1,0.5-1.7,1.1-2.3,1.8
				c-0.6,0.7-1,1.5-1.2,2.3c-0.2,0.8-0.4,1.5-0.4,2.2h14.7C235.1,144,234.3,142.3,233.3,141.1z"/>
			<path class="st0" d="M228.6,167.9c-2.7,0-5.1-0.4-7.3-1.3c-2.2-0.9-4.1-2.1-5.6-3.7c-1.5-1.6-2.7-3.5-3.5-5.8
				c-0.8-2.2-1.2-4.7-1.2-7.3c0-2.6,0.4-5,1.3-7.2c0.8-2.2,2.1-4.2,3.6-5.8c1.6-1.6,3.4-2.9,5.6-3.9c2.2-0.9,4.6-1.4,7.2-1.4
				c2.9,0,5.5,0.6,7.7,1.7c2.2,1.1,4,2.7,5.4,4.6c1.4,1.9,2.4,4.1,3,6.5c0.6,2.4,0.8,5,0.7,7.6l-0.1,0.8h-23.6
				c0.2,2.2,0.8,3.8,1.9,4.8h0c1.2,1.1,2.9,1.7,5.2,1.7c1.6,0,3-0.4,4.2-1.2c1.1-0.8,1.8-1.6,2.1-2.4l0.2-0.6h9.8l-0.4,1.1
				c-1.3,4.1-3.4,7.1-6.2,8.9C235.8,167,232.5,167.9,228.6,167.9z M228.6,133.4c-2.4,0-4.5,0.4-6.5,1.3c-1.9,0.8-3.6,2-5,3.5
				c-1.4,1.5-2.5,3.2-3.2,5.2c-0.8,2-1.1,4.2-1.1,6.5c0,2.4,0.4,4.7,1.1,6.7c0.7,2,1.8,3.7,3.1,5.2c1.3,1.4,3,2.5,5,3.3
				c2,0.8,4.2,1.2,6.7,1.2c3.5,0,6.6-0.8,9.1-2.4c2.2-1.4,3.9-3.7,5.1-6.8h-6.1c-0.5,1-1.3,1.9-2.5,2.7c-1.5,1-3.2,1.5-5.2,1.5
				c-2.8,0-4.9-0.7-6.5-2.2l0,0c-1.5-1.5-2.4-3.8-2.5-6.9l0-0.9h23.8c0.1-2.1-0.1-4.2-0.7-6.2c-0.6-2.2-1.5-4.2-2.7-5.9
				c-1.2-1.7-2.9-3.1-4.8-4.1C233.5,133.9,231.2,133.4,228.6,133.4z M236.6,147.2h-16.7l0.1-0.9c0-0.7,0.2-1.5,0.4-2.3
				c0.3-0.9,0.7-1.8,1.4-2.6c0.6-0.8,1.5-1.5,2.6-2c1.1-0.5,2.4-0.8,4-0.8c2.4,0,4.3,0.7,5.6,2.1l0,0c1.2,1.3,2,3.2,2.5,5.6
				L236.6,147.2z M221.8,145.4h12.6c-0.4-1.6-1-2.9-1.8-3.7l0,0c-0.9-1-2.3-1.5-4.3-1.5c-1.3,0-2.4,0.2-3.2,0.6
				c-0.8,0.4-1.5,1-2,1.6c-0.5,0.6-0.9,1.3-1,2C222,144.7,221.9,145.1,221.8,145.4z"/>
		</g>
		<g>
			<path class="st1" d="M265.6,139.3c-1.4,0-2.6,0.3-3.6,1c-1,0.7-1.8,1.5-2.4,2.5c-0.6,1-1,2.2-1.3,3.4c-0.3,1.2-0.4,2.5-0.4,3.7
				c0,1.2,0.1,2.4,0.4,3.6c0.3,1.2,0.7,2.3,1.2,3.3c0.6,1,1.3,1.8,2.3,2.4c1,0.6,2.2,1,3.6,1c2.2,0,3.8-0.6,5-1.8
				c1.2-1.2,1.9-2.8,2.2-4.9h8.7c-0.6,4.4-2.3,7.7-5.1,10c-2.8,2.3-6.4,3.4-10.7,3.4c-2.5,0-4.7-0.4-6.8-1.2c-2.1-0.8-3.8-2-5.2-3.5
				c-1.4-1.5-2.6-3.2-3.4-5.3c-0.8-2.1-1.2-4.3-1.2-6.8c0-2.5,0.4-4.9,1.1-7.1c0.7-2.2,1.8-4.1,3.3-5.7c1.4-1.6,3.2-2.8,5.3-3.7
				c2.1-0.9,4.4-1.3,7.1-1.3c1.9,0,3.8,0.3,5.6,0.8c1.8,0.5,3.4,1.3,4.8,2.3c1.4,1,2.6,2.3,3.5,3.9c0.9,1.5,1.4,3.4,1.5,5.5h-8.8
				C271.6,141.2,269.4,139.3,265.6,139.3z"/>
			<path class="st0" d="M265.4,167.9c-2.6,0-4.9-0.4-7.1-1.3c-2.2-0.9-4-2.1-5.5-3.7c-1.5-1.6-2.7-3.4-3.6-5.6
				c-0.8-2.1-1.3-4.5-1.3-7.1c0-2.6,0.4-5.1,1.2-7.4c0.8-2.3,1.9-4.3,3.5-6c1.5-1.7,3.4-3,5.6-3.9c2.2-0.9,4.7-1.4,7.5-1.4
				c2,0,4,0.3,5.9,0.8c1.9,0.5,3.6,1.4,5.1,2.5c1.5,1.1,2.8,2.5,3.7,4.1c1,1.7,1.5,3.6,1.6,5.9l0.1,0.9h-10.5l-0.1-0.7
				c-0.5-3.3-2.4-4.9-5.8-4.9c-1.3,0-2.3,0.3-3.1,0.8c-0.9,0.6-1.6,1.3-2.1,2.3c-0.6,0.9-1,2-1.2,3.2c-0.2,1.2-0.4,2.4-0.4,3.5
				c0,1.1,0.1,2.3,0.4,3.4c0.2,1.1,0.6,2.2,1.1,3.1c0.5,0.9,1.2,1.6,2,2.1c0.8,0.5,1.9,0.8,3.1,0.8c1.9,0,3.4-0.5,4.4-1.5
				c1-1.1,1.7-2.5,2-4.4l0.1-0.8h10.5l-0.1,1c-0.6,4.6-2.4,8.1-5.4,10.5C273.8,166.7,270,167.9,265.4,167.9z M265.6,133.4
				c-2.5,0-4.8,0.4-6.8,1.3c-1.9,0.8-3.6,2-5,3.5c-1.4,1.5-2.4,3.3-3.1,5.3c-0.7,2.1-1.1,4.4-1.1,6.8c0,2.3,0.4,4.5,1.1,6.4
				c0.8,1.9,1.8,3.6,3.2,5c1.3,1.4,3,2.5,4.9,3.3c1.9,0.8,4.1,1.2,6.4,1.2c4.1,0,7.6-1.1,10.2-3.2c2.4-2,3.9-4.8,4.6-8.4h-6.9
				c-0.4,1.9-1.2,3.4-2.3,4.6c-1.3,1.4-3.2,2.1-5.6,2.1c-1.6,0-2.9-0.4-4-1.1c-1.1-0.7-2-1.6-2.6-2.7c-0.6-1.1-1.1-2.3-1.3-3.6
				c-0.3-1.3-0.4-2.6-0.4-3.8c0-1.3,0.1-2.6,0.4-3.9c0.3-1.3,0.7-2.6,1.4-3.7c0.7-1.1,1.6-2.1,2.6-2.8c1.1-0.8,2.5-1.1,4.1-1.1
				c4,0,6.6,2,7.4,5.7h7.1c-0.2-1.6-0.6-3-1.3-4.2c-0.8-1.4-1.9-2.6-3.2-3.6c-1.3-1-2.9-1.7-4.5-2.2
				C269.3,133.6,267.5,133.4,265.6,133.4z"/>
		</g>
		<g>
			<path class="st1" d="M316.9,152.1c-0.4-1.7-1-3.1-1.9-4.3c-0.9-1.2-2.1-2.1-3.7-2.7c-1.5-0.7-3.5-1-5.9-1c-1.7,0-3.4,0.4-5.2,1.3
				c-1.8,0.9-3.2,2.3-4.4,4.2h-0.2v-17.1h-9v48.4c3.1-1.4,6.1-3,9-4.7v-15.5c0-3.3,0.5-5.7,1.7-7.2c1.1-1.5,2.9-2.2,5.3-2.2
				c2.2,0,3.7,0.7,4.5,2c0.8,1.3,1.3,3.4,1.3,6.1v7.5c3.2-2.8,6.2-5.9,9-9.1v-0.1C317.4,155.6,317.2,153.8,316.9,152.1z"/>
			<path class="st0" d="M285.7,182.2v-50.6h10.8v15.5c1-1.1,2.1-1.9,3.3-2.5c1.9-0.9,3.8-1.4,5.6-1.4c2.5,0,4.6,0.4,6.3,1.1
				c1.7,0.7,3,1.7,4,3c1,1.3,1.6,2.8,2,4.6c0.4,1.7,0.6,3.7,0.6,5.7v0.3l-0.2,0.3c-2.8,3.3-5.9,6.4-9.1,9.2l-1.5,1.3v-9.5
				c0-2.5-0.4-4.4-1.1-5.6c-0.7-1.1-1.9-1.6-3.8-1.6c-2.2,0-3.7,0.6-4.6,1.8c-1,1.3-1.5,3.5-1.5,6.7v16l-0.4,0.3
				c-2.9,1.8-6,3.4-9.1,4.8L285.7,182.2z M287.5,133.4v46.1c2.5-1.2,4.9-2.5,7.3-3.9v-15c0-3.6,0.6-6.1,1.8-7.7
				c1.3-1.7,3.3-2.5,6-2.5c2.5,0,4.2,0.8,5.3,2.4c0.9,1.5,1.4,3.6,1.4,6.5v5.5c2.6-2.3,5-4.8,7.3-7.5c0-1.9-0.2-3.6-0.5-5.1
				c-0.3-1.5-0.9-2.9-1.7-3.9c-0.8-1-1.9-1.9-3.3-2.5c-1.4-0.6-3.3-0.9-5.6-0.9c-1.5,0-3.2,0.4-4.8,1.2c-1.6,0.8-3,2.1-4,3.8
				l-0.3,0.4h-1.6v-17.1H287.5z"/>
		</g>
		<g>
			<path class="st1" d="M202.6,129.3l22.8,0V97.4h0.1l11.1,31.8h7.7l11.1-32.1h0.1v32.1h9.3V83.9h-14l-10,31.2h-0.1l-10.6-31.2h0
				l-21.3-62.5c-4.5,2.4-8.8,5.1-12.8,8.2c-0.1,0-0.1,0.1-0.2,0.1c-0.4,0.3-0.9,0.7-1.3,1c-0.1,0.1-0.2,0.1-0.3,0.2
				c-0.4,0.3-0.8,0.7-1.2,1c-0.1,0.1-0.2,0.2-0.3,0.2c-0.4,0.3-0.8,0.7-1.2,1c-0.1,0.1-0.2,0.2-0.3,0.2c-0.4,0.4-0.8,0.7-1.2,1.1
				c-0.1,0.1-0.1,0.1-0.2,0.2c-1.8,1.7-3.6,3.5-5.3,5.3l-18.1,53.2h14l7.9-23.1h23.1l4.7,13.7h0v37h-52.3c0.7,2.9,1.5,5.7,2.5,8.4
				h26.4v38.4c1.2,1,2.4,1.9,3.6,2.9c0,0,0,0,0.1,0.1c0.4,0.3,0.8,0.6,1.2,0.9c0,0,0,0,0.1,0c1.2,0.9,2.4,1.7,3.6,2.5
				c0.1,0.1,0.2,0.1,0.3,0.2c0.4,0.2,0.8,0.5,1.1,0.7V129.3z M191.7,60.1l8.1-23.8l8.1,23.8H191.7z"/>
			<path class="st0" d="M203.5,176.6l-1.4-0.9c-0.4-0.2-0.8-0.5-1.2-0.7l-0.3-0.2c-1.2-0.8-2.5-1.7-3.6-2.5
				c-0.5-0.3-0.9-0.6-1.3-0.9c-1.3-1-2.5-2-3.7-3l-0.3-0.3v-38h-26.2l-0.2-0.6c-1-2.8-1.8-5.6-2.5-8.5l-0.3-1.1h52.6V84l-4.4-12.9
				h-21.9L181,94.2h-15.9l18.6-54.6l0.1-0.1c1.7-1.8,3.5-3.6,5.3-5.4l0.2-0.2c0.4-0.4,0.8-0.7,1.2-1.1l0.3-0.2
				c0.4-0.4,0.8-0.7,1.2-1l0.3-0.2c0.4-0.3,0.8-0.7,1.3-1l0.3-0.2c0.4-0.4,0.9-0.7,1.3-1l0.2-0.1c4.1-3.1,8.4-5.9,13-8.3l0.9-0.5
				l31.5,92.3l9.5-29.5h15.6v47.1h-11.1V102l-9.7,28.2H236l-9.7-27.9v27.9h-22.8V176.6z M193.5,167.3c1.1,0.9,2.1,1.8,3.2,2.6
				c0.5,0.4,0.9,0.6,1.3,0.9c1.2,0.9,2.4,1.7,3.6,2.5l0.1,0.1v-45h22.8V96.6h1.5l0.3,0.6l10.9,31.2h6.4l11.1-32.1h1.5l0.1,0.9v31.3
				h7.6V84.8h-12.5l-10,31.2h-1.3l-0.3-0.6l-31.6-92.7c-4.1,2.2-8.1,4.8-11.8,7.7l-0.2,0.1c-0.4,0.3-0.9,0.7-1.3,1l-0.3,0.2
				c-0.4,0.3-0.8,0.7-1.2,1l-0.3,0.2c-0.4,0.3-0.8,0.7-1.2,1l-0.3,0.2c-0.4,0.4-0.8,0.7-1.2,1.1l-0.2,0.1c-1.8,1.6-3.5,3.4-5.1,5.1
				l-17.7,51.9h12.1l7.9-23.1h24.4l5.3,15.5H217v37h-52.1c0.6,2.2,1.2,4.5,2,6.6h26.7V167.3z M209.2,60.9h-18.7l9.4-27.4L209.2,60.9
				z M193,59.2h13.8L199.9,39L193,59.2z"/>
		</g>
	</g>
	<g>
		<path class="st0" d="M272.4,106.5c0.1-2.1,0.7-3.9,1.6-5.3c0.9-1.4,2.1-2.5,3.6-3.4c1.4-0.8,3.1-1.4,4.9-1.8
			c1.8-0.4,3.6-0.5,5.4-0.5c1.7,0,3.3,0.1,5,0.3c1.7,0.2,3.2,0.7,4.6,1.4c1.4,0.7,2.5,1.6,3.4,2.8c0.9,1.2,1.3,2.8,1.3,4.8V122
			c0,1.5,0.1,2.9,0.3,4.3c0.2,1.4,0.5,2.4,0.9,3h-9.1c-0.2-0.5-0.3-1-0.4-1.6c-0.1-0.5-0.2-1.1-0.2-1.6c-1.4,1.5-3.1,2.5-5.1,3.1
			c-1.9,0.6-3.9,0.9-6,0.9c-1.6,0-3-0.2-4.4-0.6c-1.4-0.4-2.5-1-3.6-1.8c-1-0.8-1.8-1.8-2.4-3c-0.6-1.2-0.9-2.7-0.9-4.4
			c0-1.9,0.3-3.4,1-4.6c0.7-1.2,1.5-2.2,2.5-2.9c1-0.7,2.2-1.3,3.6-1.6c1.3-0.4,2.7-0.6,4-0.9c1.4-0.2,2.7-0.4,4-0.5
			c1.3-0.1,2.5-0.3,3.5-0.6c1-0.3,1.8-0.6,2.4-1.1c0.6-0.5,0.9-1.2,0.8-2.1c0-1-0.2-1.7-0.5-2.3c-0.3-0.6-0.7-1-1.3-1.3
			c-0.5-0.3-1.1-0.5-1.8-0.6c-0.7-0.1-1.5-0.2-2.3-0.2c-1.8,0-3.2,0.4-4.2,1.1c-1,0.8-1.6,2-1.8,3.8H272.4z M293.2,113.2
			c-0.4,0.3-0.9,0.6-1.4,0.8c-0.6,0.2-1.2,0.3-1.8,0.5c-0.7,0.1-1.3,0.2-2.1,0.3c-0.7,0.1-1.4,0.2-2.2,0.3c-0.7,0.1-1.3,0.3-2,0.5
			c-0.7,0.2-1.2,0.5-1.7,0.9c-0.5,0.4-0.9,0.8-1.2,1.4c-0.3,0.6-0.4,1.2-0.4,2.1c0,0.8,0.1,1.5,0.4,2c0.3,0.6,0.7,1,1.2,1.3
			c0.5,0.3,1.1,0.5,1.8,0.7c0.7,0.1,1.4,0.2,2.1,0.2c1.8,0,3.2-0.3,4.1-0.9c1-0.6,1.7-1.3,2.2-2.1c0.5-0.8,0.8-1.7,0.9-2.5
			c0.1-0.8,0.2-1.5,0.2-2V113.2z"/>
		<path class="st0" d="M338.7,100c0-1.5,0-3-0.1-4.5h-10.2c-1.1,0-2.2,0.2-3.3,0.5c-1.1,0.3-2.1,0.8-3,1.4c-0.9,0.6-1.8,1.4-2.5,2.2
			c-0.7,0.9-1.3,1.8-1.7,2.8h-0.1v-6.1h-8.6v32.8h9v-14.8c0-1.5,0.1-2.9,0.4-4.1c0.3-1.3,0.8-2.4,1.5-3.3c0.7-1,1.6-1.7,2.8-2.3
			c1.1-0.5,2.5-0.8,4.2-0.8h11.5C338.7,102.6,338.7,101.3,338.7,100L338.7,100z"/>
		<path class="st0" d="M223.1,158.3c1.4,1.3,3.3,2,5.8,2c1.8,0,3.4-0.5,4.7-1.4c1.3-0.9,2.1-1.9,2.4-2.9h7.9
			c-1.3,3.9-3.2,6.8-5.8,8.4c-2.6,1.7-5.8,2.5-9.5,2.5c-2.6,0-4.9-0.4-7-1.2c-2.1-0.8-3.8-2-5.3-3.5c-1.4-1.5-2.6-3.3-3.3-5.5
			c-0.8-2.1-1.2-4.4-1.2-7c0-2.5,0.4-4.7,1.2-6.9c0.8-2.1,1.9-3.9,3.4-5.5c1.5-1.5,3.2-2.8,5.3-3.7c2.1-0.9,4.3-1.3,6.8-1.3
			c2.8,0,5.2,0.5,7.3,1.6c2.1,1.1,3.8,2.5,5.1,4.4c1.3,1.8,2.3,3.9,2.9,6.2c0.6,2.3,0.8,4.8,0.6,7.3h-23.7
			C221,154.9,221.7,157,223.1,158.3z M233.3,141.1c-1.1-1.2-2.7-1.8-4.9-1.8c-1.4,0-2.6,0.2-3.6,0.7c-1,0.5-1.7,1.1-2.3,1.8
			c-0.6,0.7-1,1.5-1.2,2.3c-0.2,0.8-0.4,1.5-0.4,2.2h14.7C235.1,144,234.3,142.3,233.3,141.1z"/>
		<path class="st0" d="M265.6,139.3c-1.4,0-2.6,0.3-3.6,1c-1,0.7-1.8,1.5-2.4,2.5c-0.6,1-1,2.2-1.3,3.4c-0.3,1.2-0.4,2.5-0.4,3.7
			c0,1.2,0.1,2.4,0.4,3.6c0.3,1.2,0.7,2.3,1.2,3.3c0.6,1,1.3,1.8,2.3,2.4c1,0.6,2.2,1,3.6,1c2.2,0,3.8-0.6,5-1.8
			c1.2-1.2,1.9-2.8,2.2-4.9h8.7c-0.6,4.4-2.3,7.7-5.1,10c-2.8,2.3-6.4,3.4-10.7,3.4c-2.5,0-4.7-0.4-6.8-1.2c-2.1-0.8-3.8-2-5.2-3.5
			c-1.4-1.5-2.6-3.2-3.4-5.3c-0.8-2.1-1.2-4.3-1.2-6.8c0-2.5,0.4-4.9,1.1-7.1c0.7-2.2,1.8-4.1,3.3-5.7c1.4-1.6,3.2-2.8,5.3-3.7
			c2.1-0.9,4.4-1.3,7.1-1.3c1.9,0,3.8,0.3,5.6,0.8c1.8,0.5,3.4,1.3,4.8,2.3c1.4,1,2.6,2.3,3.5,3.9c0.9,1.5,1.4,3.4,1.5,5.5h-8.8
			C271.6,141.2,269.4,139.3,265.6,139.3z"/>
		<path class="st0" d="M316.9,152.1c-0.4-1.7-1-3.1-1.9-4.3c-0.9-1.2-2.1-2.1-3.7-2.7c-1.5-0.7-3.5-1-5.9-1c-1.7,0-3.4,0.4-5.2,1.3
			c-1.8,0.9-3.2,2.3-4.4,4.2h-0.2v-17.1h-9v48.4c3.1-1.4,6.1-3,9-4.7v-15.5c0-3.3,0.5-5.7,1.7-7.2c1.1-1.5,2.9-2.2,5.3-2.2
			c2.2,0,3.7,0.7,4.5,2c0.8,1.3,1.3,3.4,1.3,6.1v7.5c3.2-2.8,6.2-5.9,9-9.1v-0.1C317.4,155.6,317.2,153.8,316.9,152.1z"/>
		<path class="st0" d="M202.6,129.3l22.8,0V97.4h0.1l11.1,31.8h7.7l11.1-32.1h0.1v32.1h9.3V83.9h-14l-10,31.2h-0.1l-10.6-31.2h0
			l-21.3-62.5c-4.5,2.4-8.8,5.1-12.8,8.2c-0.1,0-0.1,0.1-0.2,0.1c-0.4,0.3-0.9,0.7-1.3,1c-0.1,0.1-0.2,0.1-0.3,0.2
			c-0.4,0.3-0.8,0.7-1.2,1c-0.1,0.1-0.2,0.2-0.3,0.2c-0.4,0.3-0.8,0.7-1.2,1c-0.1,0.1-0.2,0.2-0.3,0.2c-0.4,0.4-0.8,0.7-1.2,1.1
			c-0.1,0.1-0.1,0.1-0.2,0.2c-1.8,1.7-3.6,3.5-5.3,5.3l-18.1,53.2h14l7.9-23.1h23.1l4.7,13.7h0v37h-52.3c0.7,2.9,1.5,5.7,2.5,8.4
			h26.4v38.4c1.2,1,2.4,1.9,3.6,2.9c0,0,0,0,0.1,0.1c0.4,0.3,0.8,0.6,1.2,0.9c0,0,0,0,0.1,0c1.2,0.9,2.4,1.7,3.6,2.5
			c0.1,0.1,0.2,0.1,0.3,0.2c0.4,0.2,0.8,0.5,1.1,0.7V129.3z M191.7,60.1l8.1-23.8l8.1,23.8H191.7z"/>
	</g>
	<path class="st0" d="M250,190.5c-49.9,0-90.5-40.6-90.5-90.5S200.1,9.5,250,9.5c49.9,0,90.5,40.6,90.5,90.5S299.9,190.5,250,190.5z
		 M250,13c-48,0-87,39-87,87s39,87,87,87c48,0,87-39,87-87S298,13,250,13z"/>
</g>
</svg>
