<?xml version="1.0" encoding="utf-8"?>
<!-- Generator: Adobe Illustrator 28.0.0, SVG Export Plug-In . SVG Version: 6.00 Build 0)  -->
<svg version="1.1" id="Layer_1" xmlns="http://www.w3.org/2000/svg" xmlns:xlink="http://www.w3.org/1999/xlink" x="0px" y="0px"
	 viewBox="0 0 400 136" style="enable-background:new 0 0 400 136;" xml:space="preserve">
<style type="text/css">
	.st0{fill:#FFFFFF;}
	.st1{fill:#9E9E9F;}
	.st2{fill:#E6CB53;}
</style>
<g>
	<g>
		<g>
			<path class="st0" d="M169.9,93.7c0-1.1,0-36.4,0-37.5c-1,0-8.2,0-9.2,0c0,1.1,0,36.4,0,37.5C161.7,93.7,168.9,93.7,169.9,93.7z"
				/>
			<path class="st0" d="M169.9,50c0-1,0-7.3,0-8.3c-1,0-8.2,0-9.2,0c0,1,0,7.3,0,8.3C161.7,50,168.9,50,169.9,50z"/>
		</g>
		<path class="st0" d="M198.9,87.6c-0.2,0-0.4,0.1-0.4,0.1l-1,0c-3,0-3.8-0.4-4.1-0.8c-0.5-0.5-0.8-1.6-0.8-3.4V62.2
			c0,0,5.4,0,6.4,0c0-0.9,0-5.1,0-6c-1,0-6.4,0-6.4,0s0-13.4,0-14.4c-1,0-8,0-9,0c0,1.1,0,14.4,0,14.4s-7.2,0-8.1,0c0,0.9,0,5.1,0,6
			c1,0,8.1,0,8.1,0v24.7c0,2.3,0.5,4,1.6,5c1.6,1.7,4.8,2.5,9.5,2.3c0,0,3.5-0.2,4.3-0.2C198.9,93.1,198.9,88.6,198.9,87.6z"/>
		<path class="st0" d="M151.8,86.4c1.5-2.4,2.3-5.1,2.3-8.1c0-2.9-0.7-5.4-2-7.4c-1.3-2-3.3-3.5-5.8-4.4L145,66l1.2-0.6
			c1.7-0.9,3-1.8,3.8-2.9c1.5-1.8,2.3-4.3,2.3-7.4c0-3-0.8-5.6-2.3-7.7c-2.5-3.5-7-5.3-13.2-5.4c0,0-21.6,0-22.7,0
			c0,1.1,0,50.5,0,51.6c1.1,0,21,0,21,0c2.6,0,5.1-0.2,7.3-0.7c2.2-0.5,4.1-1.3,5.7-2.6C149.6,89.3,150.8,88,151.8,86.4z M123.5,50
			h0.6h9.3c2.6,0,4.7,0.3,6.4,0.9c2.1,0.9,3.2,2.7,3.2,5.4c0,2.4-0.8,4.1-2.4,5.1c-1.5,0.9-3.5,1.4-5.9,1.4h-11.2V50z M140.3,84.7
			c-1.3,0.7-3.2,1-5.6,1h-11.2V70.4h0.6h10.8c2.4,0,4.2,0.3,5.5,1c2.5,1.1,3.7,3.2,3.7,6.2C144.1,81,142.8,83.4,140.3,84.7z"/>
		<path class="st0" d="M89.8,55.4c-10.4,0-18.8,8.4-18.8,18.8c0,10.4,8.5,18.8,18.8,18.8c7.4,0,14.2-4.5,17.2-11.2
			c-1.5,0-8.7,0-9.1,0c-2.1,2.2-5,3.5-8.1,3.5c-4.3,0-8.3-2.5-10.1-6.5l-0.4-0.8c0,0,28.1,0,28.9,0c0.3-1.3,0.5-2.6,0.5-3.9
			C108.6,63.8,100.1,55.4,89.8,55.4z M79.3,70.3l0.4-0.8c1.8-3.9,5.8-6.5,10.1-6.5c4.3,0,8.3,2.5,10.1,6.5l0.4,0.8H79.3z"/>
		<path class="st0" d="M47.7,55.4c-4.3,0-8.4,1.4-11.8,4.2l-0.9,0.8c0,0,0-16.5,0-17.6c-0.9,0-6.8,0-7.7,0c0,1.1,0,49.6,0,50.8
			c0.9,0,6.8,0,7.7,0c0-0.9,0-5.4,0-5.4l0.9,0.8c3.4,2.7,7.5,4.2,11.8,4.2c10.4,0,18.8-8.5,18.8-18.8C66.5,63.8,58.1,55.4,47.7,55.4
			z M47.7,85.3c-6.1,0-11.1-5-11.1-11.1c0-6.1,5-11.1,11.1-11.1c6.1,0,11.1,5,11.1,11.1C58.8,80.3,53.8,85.3,47.7,85.3z"/>
	</g>
	<g>
		<g>
			<path class="st1" d="M227.6,93H217V51.6h-13.5v-8.9h37.6v8.9h-13.5V93z"/>
			<path class="st1" d="M274.3,93h-28.7V42.7h28.7v8.7h-18.1v11h16.9v8.7h-16.9v13h18.1V93z"/>
		</g>
		<g>
			<path class="st1" d="M372.8,93h-10.5V71.3h-19.7V93H332V42.7h10.6v19.7h19.7V42.7h10.5V93z"/>
		</g>
		<g>
			<path class="st1" d="M314.9,76.3c-2.7,3.9-7.1,6.4-12.1,6.4c-8.1,0-14.7-6.6-14.7-14.8c0-8.2,6.6-14.8,14.7-14.8
				c3.1,0,5.9,0.9,8.3,2.5h13.4c-4.3-7.6-12.3-12.8-21.7-12.8c-13.8,0-25,11.3-25,25.1s11.2,25.1,25,25.1c10.9,0,20-7,23.5-16.8
				H314.9z"/>
			<g>
				<path class="st2" d="M302.8,82.7c-8.1,0-14.7-6.6-14.8-14.8h-10.3c0,13.9,11.2,25.1,25,25.1c13.8,0,25-11.2,25-25.1h-10.2
					C317.5,76,310.9,82.7,302.8,82.7z"/>
			</g>
		</g>
	</g>
</g>
</svg>
