<?xml version="1.0" encoding="utf-8"?>
<!-- Generator: Adobe Illustrator 28.0.0, SVG Export Plug-In . SVG Version: 6.00 Build 0)  -->
<svg version="1.1" id="圖層_1" xmlns="http://www.w3.org/2000/svg" xmlns:xlink="http://www.w3.org/1999/xlink" x="0px" y="0px"
	 viewBox="0 0 500 200" style="enable-background:new 0 0 500 200;" xml:space="preserve">
<style type="text/css">
	.st0{fill:#FFFFFF;}
</style>
<g>
	<path class="st0" d="M291.3,85.3c0.9-0.2,1.4-0.2,1.9-0.7l0,0c-3.3-1.9-6.4-3.5-9.6-5.4c-0.5,2.3-1.3,4.6-2.3,6.8
		c-2.1,5.4-4.2,10.3-7,15c-1.4,2.3-3.3,6.1-5.4,7.7c1.9,3.7,3.5,7.7,4.7,11.7l0,0c1.2-1.2,3.9-4.9,4.5-6.3c0.1,0,0.2-0.1,0.2-0.2
		l0,0v36.7l9.1-1.4v-48.7c1.2-0.2,1.4-0.5,1.9-1.2c-0.9-0.2-1.7-0.7-2.6-0.9C287.3,93.9,290.6,89.7,291.3,85.3z M263.7,128.3
		c0.5-1.4,0.7-2.8,1.2-4c0.7-3,1.2-6.1,1.9-9.1c0.5-3.3,0.7-6.8,1.2-10.1c0.5-0.2,1.7,0,2.3,0v-8.4c-3.3-0.2-6.6-0.7-9.9-0.9
		c-0.2-0.2,0-1.4,0-1.9c0.2-2.2,0.5-4.4,0.9-6.6c0.5-0.2,0.9-0.2,1.2-0.5v-0.5c-2.6-1.2-5.2-2.1-7.7-3.3c0,6.3-1.4,14-2.8,19.4
		c-0.7,2.6-0.9,5.4-2.1,7.5v-0.7c-3.3,0-6.6-0.2-10.1-0.2v-1.7c3,0,6.1,0.2,9.1,0.2v-7.3c1.2,0,2.3,0.2,3.5,0.2v-6.8
		c-1.2-0.2-2.1-0.2-3.3-0.5v-7.3c-3-0.5-6.1-0.9-9.1-1.2c0-3,0.5-1.4,1.7-3v-0.2c-3-0.7-5.8-1.4-8.9-2.1l0,0v4.2
		c-3.3-0.5-6.8-0.9-10.1-1.4v7.9c-1.4-0.2-2.8-0.2-4.2-0.5v7.9l0,0c1.4,0.2,2.8,0.2,4.2,0.5v8.2c3.3,0.2,6.6,0.2,10.1,0.5l0,0v1.4
		c-3.7,0-7.5-0.2-11.4-0.2v15.5c2.8,0,5.8-0.2,8.7-0.2c-0.2,0.7-0.7,1.4-0.9,2.1c-3.7,0.2-7.5,0.5-11,0.7l2.1,9.1
		c0.9,0,1.2-0.5,1.4-1.2c1.2-0.2,2.3-0.2,3.5-0.5c-0.9,1.9-1.9,3.5-2.8,5.4l7.7,1.4c0-0.2,0-0.2,0.2-0.5c0.5,0.2,0.9,0.2,1.7,0.5
		c-1.4,1.2-8.7,3.3-11.2,3.5l0,0c1.4,2.1,3.3,5.2,3.3,7.9c4-0.5,14-5.6,15.9-7.7c2.6,0.5,4,2.8,6.1,3.5c1.4-1.9,2.6-3.7,4-5.8
		c0.1,0,0.2-0.1,0.2-0.2l0,0c0.9,1.7,2.1,3.5,2.6,5.4h0.2c2.6-3.3,6.6-5.8,7.9-9.9l0,0l2.1,3.5c1.2,1.4,2.6,2.6,3.7,4h0.2
		c1.4-2.8,2.6-5.4,4.2-7.7C267.9,135.3,264.4,131.1,263.7,128.3z M239.3,91.1c0.7,0,1.4,0.2,2.1,0.2V93c-0.7,0-1.4,0-2.1-0.2V91.1z
		 M239.3,98.8c0.7,0,1.4,0,2.1,0.2v1.7h-2.1V98.8z M231.8,116.9h-3.5v-2.1h3.3C231.8,115.5,231.9,116.1,231.8,116.9L231.8,116.9z
		 M231.6,100.2c-0.7,0-1.4,0-2.1-0.2v-1.6l0,0c0.7,0,1.4,0,2.1,0.2l0,0C231.8,99.1,231.8,99.7,231.6,100.2L231.6,100.2z M231.8,92
		c-0.7,0-1.7-0.2-2.3-0.2V90c0.7,0,1.4,0.2,2.1,0.2l0,0C231.8,90.4,231.8,92,231.8,92L231.8,92z M239.3,114.7h3.3v1.9h-3.3V114.7z
		 M239.1,131.8c-0.5,0.9-0.9,1.9-1.4,2.8c-1.7-0.5-3.3-1.2-4.9-1.7v-0.2c0.7-0.7,4.5-0.5,5.6-0.9H239.1z M255.5,130.9
		c-1.9,3.3-4.2,6.6-7.5,8.7c-1.2-0.7-2.6-1.4-3.7-2.1c0.5-0.9,0.9-1.9,1.2-2.8c0.5-1.4,0.9-2.8,1.4-4.2c1.4-0.2,3-0.5,4.5-0.7
		c0.5-0.5,0.5-4.9,0.2-6.1c-5.2,0.2-10.1,0.7-15.2,0.9l0.7-1.4c3-0.9,8.2-0.9,12.2-0.9v-5.6c1.2,0.7,2.3,3,2.8,4.2h0.2
		c0.5-0.9,0.9-2.1,1.7-3h0.2c0.5,2.8,1.2,5.4,1.7,8.2c0.2,1,0.5,1.9,0.9,2.8C256.2,129.5,255.8,130.1,255.5,130.9L255.5,130.9z
		 M260.2,116.6L260.2,116.6c-1-4-1.6-8.1-1.9-12.2c1.2,0,2.3,0,3.5,0.2C261.6,108.6,260.4,112.6,260.2,116.6L260.2,116.6z M395,99.8
		c-0.2-1.2,3-7.7,3.7-9.4c0.2-0.9,0.7-2.1,0.9-3c0.6,0.1,1.2,0,1.7-0.5v-0.2c-3.3-1.9-6.4-3.5-9.6-5.4c-0.4,1.6-1,3.2-1.7,4.7
		c-1.3,3.6-2.7,7-4.5,10.3c-1.8,3.7-3.9,7.3-6.4,10.8c-0.9,1.2-2.1,2.6-3,3.7c-0.2,0.5,0.9,2.3,1.2,2.8c0.9,2.1,3.3,6.4,3.5,8.7l0,0
		c2.3-1.7,3.5-4.9,5.4-7.3v35.1c3-0.5,5.8-0.9,8.9-1.2v-47.2c0.9-0.2,1.7-0.5,1.7-1.4C396.6,100.2,395.7,100,395,99.8L395,99.8z
		 M325,81.5c0.2,20.3,0.7,41,0.9,61.3c2.8-0.2,5.6-0.7,8.2-0.9v-6.8c3.7-0.2,7.5-0.7,11-0.9V84.3C338.6,83.4,331.8,82.4,325,81.5z
		 M333.9,92.7c1.2,0,2.3,0.2,3.5,0.2v11.4c-1.2,0-2.3,0-3.5-0.2V92.7z M334.3,126c0-4-0.2-7.9-0.2-12h3.5v11.7
		C336.5,125.7,335.4,125.8,334.3,126L334.3,126z M364.5,98.3c2.8,0.2,5.8,0.5,8.7,0.7c0-2.6,0-5.4,0.2-7.9c-2.8-0.2-5.8-0.7-8.7-0.9
		v-4.7c0.7-0.2,1.2-0.5,1.4-0.9c-0.2-0.5-7.3-2.1-8.4-2.3v7c-3.3-0.5-6.6-0.7-9.9-1.2v8.9c3.3,0.2,6.4,0.5,9.6,0.7
		c0.2,0.2,0,3.7,0,4.7l-11.2-0.7v9.1c5.6,0,11.4,0.2,17.1,0.2v4.5h-16.9v8.9c5.6-0.2,11.2-0.4,16.9-0.9v9.2
		c-0.2,1.2,0.2,2.6-0.2,3.5c-0.5,0.5-4.7,0.9-6.1,0.9c0.7,2.6,1.9,5.2,2.1,8.4c3.9-0.5,7.5-1.7,9.1-4c1.9-3,1.4-13.3,1.4-18
		c1.4,0,2.6-0.2,3.9-0.2c0-2.6,0.2-5.2,0.2-7.7h-3.9v-2.6c0.7-0.2,1.2-0.5,1.2-1.4c-1.1,0-2.2,0-3.3-0.2h5.8c0-2.6,0.2-5.2,0.2-7.9
		c-3.3-0.2-6.4-0.5-9.6-0.7L364.5,98.3L364.5,98.3z M291,102.3c10.3,0.5,20.6,1.2,30.9,1.7v-8.4c-3.7-0.5-7.5-0.7-11-1.2v-8.9
		c0.7-0.5,0.9-0.2,1.4-0.9v-0.2l-8.9-1.9v11.4c-4.2-0.5-8.2-0.7-12.4-1.2L291,102.3L291,102.3z M425.2,127.6
		c-0.7-0.7-1.3-1.5-1.9-2.3V125c0,1.4-0.2,2.8-0.2,4.2c-0.5,2.1-0.5,4.5-1.2,6.1c-0.1,0-0.2,0.1-0.2,0.2l0,0
		c-1.9-0.2-2.3-3.7-2.8-5.4c-1.6-5.9-2.5-12-2.8-18c3.9-0.5,7.9-0.9,12-1.2c-0.2-2.8-0.2-5.6-0.5-8.4l0,0l-12,0.7
		c0-5.4-0.2-10.5-0.2-15.9c0.5,0,0.7-0.2,1.2-0.2c0.2-0.2,0.2-0.5,0.5-0.7v-0.5c-3-0.7-6.4-1.4-9.4-2.1c0,6.8,0.5,13.3,0.5,19.7
		l-10.5,0.7c0.2,3.3,0.5,6.6,0.9,9.9c3.5-0.5,7-0.7,10.5-1.2l0,0c0,3.3,0.4,6.6,1.2,9.9c1.2,5.6,1.7,11,3.7,15.7
		c1.2,2.8,2.6,6.4,6.4,6.8c0.8,0,1.6-0.2,2.3-0.5c4.5-1.4,4.7-6.1,5.6-10.5c0.2-1.4,0.2-2.8,0.5-4.2
		C427.5,129.3,426.1,128.5,425.2,127.6L425.2,127.6z M423.1,101.4c1.4-1.2,2.9-2.3,4.5-3.3l0.9-0.7c-0.2-0.7-0.7-1.4-0.9-2.1
		c-0.9-2.3-2.3-4.5-3.5-6.6c-0.5-0.7-0.9-2.1-1.7-2.6c-1.7,1.2-3.3,2.3-4.9,3.3l-0.2,0.2c0.7,0.7,1.2,2.1,1.9,3
		C420.3,95.3,422.1,98.1,423.1,101.4L423.1,101.4z M305.1,130.8c0-3.9-0.4-7.8-1.2-11.7c-0.5-2.6-0.7-5.4-1.2-7.9
		c-0.5-2.1-0.7-4.2-1.2-6.1h-0.5l-7,1.4c0.9,3.5,0.9,7.3,1.7,10.8c1,5.3,1.4,10.7,1.4,16.1C299.8,132.7,302.5,131.9,305.1,130.8z
		 M309.8,124.8c-0.5,2-0.9,4-1.2,6.1c2.1,0.7,4.2,1.2,6.4,1.9c0.7-3,1.4-6.3,2.1-9.4l1.4-8.4c0.2-1.9,0.5-3.7,0.7-5.6
		c0.7-0.2,1.2-0.4,1.4-0.9c-2.8-0.9-5.4-1.9-8.2-3c-0.2,3-0.7,6.1-0.9,8.9C310.7,117.8,310.3,121.3,309.8,124.8L309.8,124.8z
		 M354,124.1c-2.1,1.7-4,3.3-6.1,4.9c2.1,3.3,4.5,6.6,5.6,10.5c2.1-1.9,4.2-3.5,6.1-5.4C359.2,131.8,355.6,125.5,354,124.1
		L354,124.1z M290.1,145.8c11-1.4,21.7-3,32.8-4.5v-8.7c-11,0.9-21.7,2.1-32.8,3V145.8z"/>
	<path class="st0" d="M98.2,91.3h-2.6v9.6c0.7,0.2,1.4,0.2,2.6,0.2c3.3,0,6.4-1.2,6.4-4.9C104.3,92.7,101.3,91.3,98.2,91.3z
		 M103.6,85L103.6,85c0-2.8-2.1-4-5.4-4c-1.4,0-2.1,0-2.6,0.2v8.2h2.8C101.5,89.4,103.6,87.6,103.6,85z M171.5,87.6
		c-3,0-4.5,3-4.7,5.4h9.1C175.9,90.6,175,87.6,171.5,87.6L171.5,87.6z M195.8,90.2c0,1.4,0.9,2.1,3.3,3c2.1,0.9,3.5,1.9,4,3.5
		l-2.3-8.7c-0.6-0.3-1.4-0.5-2.1-0.5C196.8,87.6,195.8,88.8,195.8,90.2L195.8,90.2z M203.3,97.5v0.9c0,3-2.3,5.2-6.1,5.2
		c-1.6,0-3.1-0.4-4.5-1.2l0.7-2.1c0.9,0.5,2.3,1.2,3.7,1.2c2.3,0,3.5-1.2,3.5-2.8s-0.9-2.6-3.3-3.3c-2.8-1.2-4.5-2.8-4.5-4.9
		c0-2.6,2.1-4.9,5.6-4.9h1.2l-16.8-64.1L71.3,51.3L93,132.7v-26.7h10.5l7.5,14.3c1.9,3.5,4.5,8.7,5.8,12.6l0,0
		c-0.5-4.7-0.9-11-0.9-17.6v-9.4h8.9v40H115l-7.3-14.5c-2.1-3.7-4.5-9.1-6.1-13.1h-0.2c0.2,4.7,0.5,10.8,0.5,17.8v9.9h-5.4l6.3,23.2
		l88.7-23.7c-4.5-2.1-4.7-7.3-4.7-9.9v-12.2h-3.9v-6.3l-8.9,13.8l9.1,15h-11l-2.6-5.2c-0.7-1.4-1.4-2.9-1.9-4.5h-0.2
		c-0.5,1.5-1.1,3-1.9,4.5l-2.3,5.2h-10.5l8.9-14.7l-8.9-14.5H164l2.3,4.9l2.1,4.5h0.2c0.7-1.4,1.2-3,1.9-4.7l2.1-4.7h14.3v-5.4
		l9.8-2.6v7.9h6.6v6.5h-6.5v11c0,3.5,1.2,4.7,3.5,4.7c0.8,0,1.7,0,2.6-0.2v3.5l11.7-3L203.3,97.5z M105.2,101
		c-1.7,1.7-4.2,2.3-7.7,2.3c-1.9,0-3.5-0.2-4.5-0.2V79.7c1.7-0.3,3.4-0.4,5.2-0.5c3,0,4.9,0.5,6.4,1.7c1.2,0.9,1.9,2.3,1.9,4.2
		c0,2.4-1.7,4.5-4,5.2l0,0c3,0.5,5.1,3.1,4.9,6.1C107.1,98.3,106.4,100,105.2,101L105.2,101z M121.3,103.1l-0.2-2.6l0,0
		c-1.1,1.9-3.2,3.1-5.4,3c-2.6,0-5.6-1.4-5.6-7.3V86.2h2.6v9.6c0,3.3,0.9,5.6,3.7,5.6c2.5,0,4.5-2.1,4.5-4.6c0,0,0-0.1,0-0.1V86.2
		h2.6v12.4c0,1.5,0,3,0.2,4.5L121.3,103.1z M141.7,79.4c0.9,0,1.6,0.7,1.7,1.6v0c0,1.2-0.7,1.9-1.7,1.9s-1.7-0.7-1.7-1.9
		C140.1,80.1,140.8,79.4,141.7,79.4L141.7,79.4z M143.2,85.9V103h-2.6V85.9H143.2z M131.7,95.3c-2.8-1.2-4.5-2.8-4.5-4.9
		c0-2.6,2.1-4.9,5.6-4.9c1.4,0,2.8,0.3,4,0.9l-0.7,1.9c-1-0.6-2.1-0.9-3.3-0.9c-1.9,0-2.8,1.2-2.8,2.6c0,1.4,0.9,2.1,3.3,3
		c2.8,1.2,4.5,2.6,4.5,5.2c0,3-2.3,5.2-6.1,5.2c-1.6,0-3.1-0.4-4.5-1.2l0.7-2.1c0.9,0.5,2.3,1.2,3.7,1.2c2.3,0,3.5-1.2,3.5-2.8
		C134.7,96.9,133.8,96,131.7,95.3z M153.7,130.8c0,1.4,0,2.8-0.2,3.7h-17.8c0.2,3.5,3.5,5.2,7.7,5.2c2.5,0,5.1-0.4,7.5-1.2l1.4,6.4
		c-2.8,1.2-6.8,1.7-10.5,1.7c-10.1,0-15.7-5.4-15.7-14.5c0-8.4,5.4-15.7,14.7-15.7C148.5,116.4,153.7,121.1,153.7,130.8L153.7,130.8
		z M161.2,103h-2.6V93c0-2.8-0.9-5.2-4-5.2c-2.1,0-4.5,1.9-4.5,4.9v10.5h-2.6V90.6c0-1.5,0-3-0.2-4.5h2.3L150,89l0,0
		c1.1-2,3.2-3.2,5.4-3.3c2.1,0,5.8,1.2,5.8,7L161.2,103z M178.3,94.8h-11.7c0,4.7,2.8,6.6,5.8,6.6c1.5,0,3.1-0.3,4.5-0.9l0.4,1.9
		c-1.7,0.8-3.5,1.2-5.4,1.2c-4.9,0-7.9-3.5-7.9-8.6c0-5.4,3-9.1,7.5-9.1c5.2,0,6.6,4.9,6.6,7.7C178.5,93.9,178.3,94.4,178.3,94.8
		L178.3,94.8z M184.8,103.3c-1.6,0-3.1-0.4-4.5-1.2l0.7-2.1c0.9,0.5,2.3,1.2,3.7,1.2c2.3,0,3.5-1.2,3.5-2.8c0-1.7-0.9-2.6-3.3-3.3
		c-2.8-1.2-4.5-2.8-4.5-4.9c0-2.6,2.1-4.9,5.6-4.9c1.4,0,2.8,0.3,4,0.9l-0.7,1.9c-1-0.6-2.1-0.9-3.3-0.9c-1.9,0-2.8,1.2-2.8,2.6
		s0.9,2.1,3.3,3c2.8,1.2,4.5,2.6,4.5,5.2C190.9,101.4,188.6,103.3,184.8,103.3L184.8,103.3z M140.3,122.7c-3.3,0-4.7,3.5-4.9,5.8
		h9.1C144.8,126,143.8,122.7,140.3,122.7z"/>
	<path class="st0" d="M106,174.4l1.2,2.1c0.2,0.4,0.4,0.8,0.7,1.2l0,0v-3.7l0.7-0.2l1.2,1.9l0.7,1.4l0,0v-3.7l0.7-0.2l-0.2,4.7
		l-0.7,0.2l-1.2-1.9l-0.6-1.4l0,0v1.6l-0.2,2.1l-0.5,0.2l-2.3-4L106,174.4z"/>
	<path class="st0" d="M112.3,172.8l1.2,2.1c0.2,0.4,0.4,0.8,0.7,1.2l0,0v-3.7l0.7-0.2l1.2,1.9l0.7,1.4l0,0v-3.7l0.7-0.2l-0.2,4.7
		l-0.7,0.2l-1.2-1.9l-0.7-1.4l0,0v1.7l-0.2,2.1l-0.7,0.2l-2.3-4L112.3,172.8z"/>
	<path class="st0" d="M118.6,170.9l1.2,2.1c0.2,0.4,0.4,0.8,0.7,1.2l0,0v-1.4l0.2-2.3l0.7-0.2l1.2,1.9l0.7,1.4l0,0v-3.7l0.7-0.2
		l-0.2,4.7l-0.7,0.2l-1.2-1.9l-0.7-1.4l0,0v1.4l-0.2,2.3l-0.7,0.2l-2.3-4L118.6,170.9z"/>
	<path class="st0" d="M125.8,173.7c-0.2,0-0.5,0-0.7-0.5c0-0.2,0-0.7,0.5-0.7c0.2,0,0.5,0,0.7,0.5
		C126.3,173.5,126.1,173.7,125.8,173.7z"/>
	<path class="st0" d="M125.4,166.9l0.7-0.2l0.7,2.6l0,0c0.3-0.9,1.3-1.5,2.2-1.2c0.7,0.2,1.2,0.9,1.3,1.7c0.5,1.7-0.5,2.6-1.4,2.8
		c-0.6,0.2-1.3,0-1.7-0.5l0,0l0.2,0.7l-0.7,0.2c-0.1-0.4-0.2-0.7-0.2-1.2L125.4,166.9z M127.5,171.3v0.2c0.2,0.5,0.9,0.7,1.4,0.7
		c0.7-0.2,1.2-0.9,0.9-2.1c-0.2-0.9-0.9-1.4-1.7-1.2c-0.4,0.2-0.9,0.7-0.9,1.2v0.2L127.5,171.3z"/>
	<path class="st0" d="M131,168.8c-0.2-0.4-0.3-0.7-0.2-1.2l0.7-0.2l0.2,0.7l0,0c0-0.5,0.5-0.9,1.2-1.2c0.7-0.2,1.7,0,2.1,1.4
		l0.7,2.6l-0.7,0.2l-0.7-2.6c-0.2-0.7-0.7-1.2-1.4-0.9c-0.4,0.3-0.7,0.7-0.9,1.2v0.5l0.7,2.6l-0.7,0.2L131,168.8z"/>
	<path class="st0" d="M136.6,168.6c0.2,0.8,1,1.4,1.8,1.2h0c0.5-0.2,0.9-0.2,1.2-0.5l0.2,0.5c-0.4,0.3-0.9,0.6-1.4,0.7
		c-1.4,0.5-2.3-0.2-2.6-1.7s0.2-2.6,1.4-2.8c1.4-0.5,2.1,0.7,2.3,1.7v0.4L136.6,168.6z M138.7,167.4c-0.2-0.5-0.5-1.2-1.4-0.9
		c-0.7,0.2-0.9,0.9-0.9,1.7L138.7,167.4z"/>
	<path class="st0" d="M139.9,165.3l0.9,0.7c0.2,0.2,0.5,0.5,0.7,0.5l0,0c0-0.2,0.2-0.5,0.2-0.9l0.5-1.2l0.7,0.2l-0.9,2.3l2.1,1.9
		l-0.9,0.2l-0.9-0.7l-0.7-0.7l0,0c0,0.2-0.2,0.5-0.2,0.9l-0.5,1.2l-0.9,0.2l0.9-2.6l-2.1-1.7L139.9,165.3z"/>
	<path class="st0" d="M144.3,163l0.2,0.9l1.2-0.2l0.2,0.7l-1.2,0.2l0.7,2.3c0.2,0.5,0.5,0.7,0.7,0.7s0.2,0,0.5-0.2l0.2,0.5
		c-0.2,0-0.5,0.2-0.7,0.2h-0.9c-0.3-0.3-0.5-0.6-0.7-0.9l-0.7-2.3l-0.7,0.2l-0.2-0.7l0.7-0.2l-0.2-0.7L144.3,163z"/>
	<path class="st0" d="M147.8,167.8c-0.2,0-0.5,0-0.7-0.5c0-0.2,0-0.7,0.5-0.7c0.2,0,0.5,0,0.7,0.5
		C148.3,167.4,148.1,167.8,147.8,167.8z"/>
	<path class="st0" d="M152,166.5c-0.4,0.3-0.7,0.5-1.2,0.7c-1.4,0.2-2.3-0.2-2.8-1.7c-0.5-1.4,0.2-2.6,1.7-2.8
		c0.4-0.2,0.8-0.2,1.2,0v0.7h-0.9c-0.9,0.2-1.4,1.2-1.2,2.1v0c0.2,0.8,1,1.4,1.8,1.2h0c0.5-0.2,0.7-0.2,0.9-0.5L152,166.5z"/>
	<path class="st0" d="M156,163.2c0.5,1.7-0.5,2.6-1.7,2.8c-1.2,0.2-2.3-0.2-2.6-1.7c-0.5-1.4,0.2-2.6,1.4-2.8
		C154.6,161.3,155.8,162,156,163.2z M152.7,164.1c0.2,0.8,0.8,1.4,1.7,1.4c0.7-0.2,1.2-0.9,0.9-2.1c-0.2-0.7-0.7-1.7-1.7-1.4
		C152.5,162.5,152.5,163.4,152.7,164.1z"/>
	<path class="st0" d="M156.5,162c-0.2-0.4-0.3-0.7-0.2-1.2l0.7-0.2l0.2,0.7l0,0c0.2-0.6,0.6-1,1.2-1.2c0.5-0.2,1.1,0,1.4,0.5l0,0
		c0-0.2,0.2-0.5,0.2-0.7c0.2-0.3,0.6-0.4,0.9-0.5c0.5-0.2,1.4,0,1.9,1.4l0.7,2.6l-0.7,0.2l-0.7-2.3c-0.2-0.9-0.7-1.2-1.2-1.2
		c-0.5,0.2-0.7,0.5-0.7,0.9v0.5l0.7,2.6l-0.9,0.4l-0.7-2.6c-0.2-0.7-0.7-1.2-1.2-0.9c-0.4,0.2-0.6,0.5-0.7,0.9v0.5l0.7,2.6l-0.7,0.2
		L156.5,162z"/>
	<path class="st0" d="M164.9,163.2c-0.2,0-0.5,0-0.7-0.5c0-0.2,0-0.7,0.5-0.7c0.2,0,0.4,0,0.7,0.5
		C165.4,163,165.2,163.2,164.9,163.2z"/>
	<path class="st0" d="M165.6,157.3l0.2,0.9l1.2-0.2l0.2,0.7l-1.2,0.2l0.7,2.3c0.2,0.5,0.5,0.7,0.7,0.7c0.2,0,0.2,0,0.5-0.2l0.2,0.5
		c-0.2,0-0.5,0.2-0.7,0.2h-0.9c-0.3-0.3-0.5-0.6-0.7-0.9l-0.7-2.3l-0.7,0.2l-0.2-0.7l0.7-0.2l-0.2-0.7L165.6,157.3z"/>
	<path class="st0" d="M168.2,157.8l1.2,2.1c0.2,0.4,0.4,0.8,0.7,1.2l0,0v-3.7l0.7-0.2l1.2,1.9l0.7,1.4l0,0v-3.7l0.7-0.2l-0.2,4.7
		l-0.7,0.2l-1.2-1.9l-0.7-1.4l0,0v1.4l-0.2,2.1l-0.7,0.2l-2.3-4H168.2L168.2,157.8L168.2,157.8L168.2,157.8z"/>
</g>
</svg>
