<?xml version="1.0" encoding="utf-8"?>
<!-- Generator: Adobe Illustrator 28.0.0, SVG Export Plug-In . SVG Version: 6.00 Build 0)  -->
<svg version="1.1" id="圖層_1" xmlns="http://www.w3.org/2000/svg" xmlns:xlink="http://www.w3.org/1999/xlink" x="0px" y="0px"
	 viewBox="0 0 400 136" style="enable-background:new 0 0 400 136;" xml:space="preserve">
<style type="text/css">
	.st0{fill:#242D3C;}
</style>
<g>
	<path class="st0" d="M110.6,96.4c2-2.6,3.5-5.3,4.6-8.3s1.7-5.7,1.7-8.3c0-2.8-0.8-5-2.4-6.7c-1.6-1.6-3.7-2.4-6.5-2.4l-13.7,33.6
		l0,0h1.2c0.2,0,0.4,0,0.7,0C101.9,104.2,106.7,101.5,110.6,96.4z"/>
	<path class="st0" d="M44.9,78.7c-1.2,2-1.8,4-1.8,6c0,1.8,0.6,3.4,1.8,4.7c1.2,1.3,2.6,2,4.3,2c2.9,0,5.5-1.9,7.7-5.8l8.6-14.8H63
		c-5.5,0-9.9,1-13.2,3.1C47.8,75.1,46.2,76.8,44.9,78.7z"/>
	<path class="st0" d="M79.4,61.8l-1.2,2h7l4.2-10.3c-2,0.1-3.8,0.8-5.2,2C82.7,56.6,81.1,58.8,79.4,61.8z"/>
	<path class="st0" d="M113.4,104.4C113.5,104.4,113.5,104.4,113.4,104.4L113.4,104.4L113.4,104.4z"/>
	<path class="st0" d="M135.4,81.2c0-12.8-10.4-23.1-23.1-23.1c-0.8,0-1.7,0-2.5,0.1c-1.2-14.9-13.6-26.6-28.9-26.6
		c-12.4,0-22.9,7.8-27.1,18.7c-0.6,0-1.3-0.1-1.9-0.1c-14.9,0-27.1,12.1-27.1,27.1s12.1,27.1,27.1,27.1c0.4,0,1.1,0,1.1,0h33.2
		l13.6-33.6h-9.4l-3.2,7.9l-1.3,3.2c-0.6,1.3-1.9,2.2-3.4,2.2c-2.1,0-3.7-1.7-3.7-3.7c0-0.1,0-0.4,0-0.5c0.2-0.9,0.5-2.1,1.1-3.4
		l2.3-5.7h-8l-9.6,16.6c-4.5,7.9-9.9,11.8-16.1,11.8c-3.8,0-7-1.4-9.6-4.1S35,89,35,84.9c0-3.3,1-6.4,3-9.5c2-3,4.7-5.6,8.1-7.6
		c2.6-1.5,5.4-2.5,8.6-3.1c3.1-0.6,7.3-0.9,12.5-0.9h2.1l2.3-4.2c3.2-5.9,7.1-9.8,11.7-11.7c3-1.3,6.8-1.9,11.6-1.9
		c1.2,0,2.2,0.3,2.9,0.8c0.7,0.5,1,1.3,1,2.3c0,0.4-0.1,1-0.3,1.6l-0.3,0.7l-5,12.5h13.5c5.7,0,10,1.4,13.1,4.1
		c3,2.7,4.6,6.6,4.6,11.7c0,7.7-2.6,14.9-7.7,21.3c-1,1.3-2.2,2.5-3.3,3.5l0,0C125.6,103.7,135.4,93.6,135.4,81.2z"/>
	<g>
		<path class="st0" d="M165,104.1c1.8,0.3,3.7,0.4,5.6,0.1l0,0c6.4-0.5,11.6-5.1,12.6-6.1l-3.7-5.7c-0.8,0.7-1.9,2.1-4.9,3.5
			c-1.1,0.5-2.2,0.9-3.4,1c-4.3,0.4-7.1-1.1-8.7-2.6c-2.6-2.4-3.8-6.2-3.3-10.2c0.6-4.1,3-8,6.5-10.4c3.2-2.2,6.9-2.9,10.8-1.9
			c3,0.4,5.2,2.1,6,2.8l4.4-4.7c-0.8-1.1-4.5-5.2-10.6-5.7c-0.7-0.1-1.5-0.1-2.3-0.1c-1.1,0-2.2,0.1-3.3,0.3
			c-9.6,1.5-18.1,10.3-19.5,20.1C149.8,93.8,155.9,102.6,165,104.1z"/>
		<path class="st0" d="M215,104.4c7.8,0,15.5-6.7,16.6-14.4c0.5-3.6-0.6-7.2-2.9-10c-2.4-2.8-5.8-4.3-9.6-4.3
			c-7.8,0-15.6,6.7-16.7,14.4c-0.5,3.6,0.6,7.2,2.9,9.9C207.7,102.8,211.2,104.4,215,104.4z M209.7,90c0.6-4.4,4.1-7.7,8.3-7.7
			c1.9,0,3.6,0.7,4.8,2c1.3,1.4,1.8,3.5,1.5,5.7c-0.6,4.4-4.1,7.7-8.3,7.7h-0.1c-1.9,0-3.5-0.7-4.7-2
			C209.9,94.3,209.4,92.3,209.7,90z"/>
		<path class="st0" d="M247,104.4c7.6,0,13.2-4.4,14.7-10.9c0.2-0.7,0.3-1.5,0.4-2.2l0.1-0.5l2.2-15h-7.2l-1.8,12.7
			c-0.2,1.3-0.4,2.7-0.7,4c-0.7,3.5-3.1,5.7-6.6,5.7c-1.8,0-3.2-0.5-4.1-1.4c-0.9-0.9-1.2-2.7-1.1-4.4c0-0.4,0.1-0.8,0.1-1.2
			c0.1-0.9,0.2-1.9,0.4-2.8l1.8-12.5H238l-2.3,16.3c-0.5,3.4,0.1,6.7,1.9,8.8C239.4,103.1,242.7,104.3,247,104.4z"/>
		<path class="st0" d="M304.9,104.4l4.4-8.3h17.1l2.2,8.3h8.2l-11.3-40.5h-6.4l-22.3,40.5H304.9z M320.7,74.8l3.9,14.4h-11.4
			L320.7,74.8z"/>
		<path class="st0" d="M356.3,104.1c10,0,17.2-8.7,18.6-20.3c0.6-5.3-0.4-10.3-3.3-14c-2.4-3.1-5.8-5.1-9.6-5.6
			c-1.4-0.2-2.8-0.3-4.3-0.3h-11.8l-5.7,40.5h11.6C353.4,104.4,354.8,104.1,356.3,104.1z M348.8,97.4l0.1-0.4l3.7-26.2h0.3
			c2.7,0,5.2,0.2,7.6,0.5l0,0c5.2,1,7.6,5.6,6.6,12.6s-4.7,12-10,13c-2.7,0.3-5.2,0.5-7.8,0.5H348.8z"/>
		<polygon class="st0" points="200.4,63.8 193.2,63.8 187.8,104.4 195,104.4 		"/>
		<polygon class="st0" points="285.8,104.4 285.8,104.4 293.2,104.4 293.2,104.4 		"/>
		<path class="st0" d="M298.9,63.8h-7.2l-1.8,13.3l-0.5-0.2c-1.8-0.8-3.9-1.2-5.9-1.2c-1.5,0-2.8,0.1-3.7,0.3
			c-6.2,0.9-11.8,6.3-13.2,12.7c-0.2,0.7-0.3,1.4-0.3,2.3c-0.3,3.7,0.7,7.1,2.9,9.6c1.9,2.2,4.4,3.4,7.4,3.6
			c0.9,0.1,1.8,0.1,2.7,0.1c2.2-0.1,4.3-0.6,6.3-1.4l0.7-0.3l-0.3,1.7h7.4L298.9,63.8z M287.8,91.6c-1.1,3.9-4.2,6.3-7.9,6.3
			c-2,0-3.6-0.7-4.8-2c-1.3-1.4-1.7-3.5-1.4-6c0.7-4.6,4.1-7.8,8.3-7.8c3.8,0.1,6.2,2.6,6.2,6.5L287.8,91.6z"/>
	</g>
</g>
</svg>
