<?xml version="1.0" encoding="utf-8"?>
<!-- Generator: Adobe Illustrator 28.0.0, SVG Export Plug-In . SVG Version: 6.00 Build 0)  -->
<svg version="1.1" id="圖層_1" xmlns="http://www.w3.org/2000/svg" xmlns:xlink="http://www.w3.org/1999/xlink" x="0px" y="0px"
	 viewBox="0 0 500 200" style="enable-background:new 0 0 500 200;" xml:space="preserve">
<style type="text/css">
	.st0{fill:#FFFFFF;}
	.st1{fill:#E50012;}
</style>
<g>
	<g>
		<g>
			<path class="st0" d="M109.2,67.1l2.5,21.9c0.6,5,1.1,8.6,1.4,11.8h0.2c1.1-3.2,2.1-6.4,4.2-11.7l8.7-21.9h15l-17.4,36.1
				c-6.3,12.9-12.2,21.9-18.7,28c-5.3,5-11.6,7.4-14.7,8L87,127c2.3-0.8,5.4-2,8.1-3.9c3.3-2.3,6.1-5.2,7.8-8.4
				c0.4-0.7,0.4-1.3,0.2-2.3l-9-45.2H109.2z"/>
			<path class="st0" d="M159.2,48.5l-5,24.6l0.2,0c3.5-4.3,8.7-7,14.6-7c10.1,0,14.2,8.6,14.2,16.8c0,16.5-10.5,34.9-31.9,34.9
				c-11.3,0-16.9-4.8-16.8-13.4c0-3,0.5-6,1-8.7l9.4-47.1H159.2z M149.7,96.2c-0.3,1.6-0.7,3.4-0.5,5.4c0.1,3.4,2,5.2,5.2,5.2
				c8.1,0,13.8-12.5,13.8-20.8c0-4.7-1.7-8.3-6-8.3c-4.9,0-9.7,5.2-11.3,13.2L149.7,96.2z"/>
			<path class="st0" d="M258.1,66.1c-4.3,0-11.4,2.7-14.9,8.3H243c0.7-3.5,0.9-4.4,1.5-7.2l-12.9-0.1c-0.7,4.4-1.6,12.2-3,19.4
				l-1.7,9c-4.7,6.1-16.8,10.9-21.7,10.9c-4.1,0-7.2-1.3-9-3.7c-1-1.5-1.5-3.7-1.5-5.1c18.8,0.5,30.9-4.2,30.9-16.9
				c0-8.8-6.7-14.7-16.6-14.7c-17.6,0-28,16.1-28,31c0,12.6,6.8,20.5,20.7,20.6c6.9,0,17-3.7,22.5-7.6l-1.3,6.6h14.4l3.6-19.1
				c1.8-9.5,6.2-17.4,14.9-17.4c0.8,0,1.6,0,2.2,0.1l2.8-14C259.9,66.1,259,66.1,258.1,66.1z M207.1,76.7c3.1,0,5,1.7,5,4.1v0.1
				c0,4.6-5.6,6.3-16.1,6.2C197.1,82.2,200.9,76.7,207.1,76.7z"/>
			<path class="st0" d="M269.1,48.5h14.4l-10.6,55.7h24.6l-2.4,12.5h-38.9L269.1,48.5z"/>
			<path class="st0" d="M299.2,116.7l9.4-49.5H323l-9.4,49.5H299.2z"/>
			<path class="st0" d="M320.6,116.7l6.3-33.4c1.2-6.2,2-11.7,2.7-16.2h12.6l-0.9,7.9h0.2c4.4-6.1,10.3-9,16.6-9
				c8,0,12.2,5,12.2,13.1c0,2.3-0.4,5.9-0.9,8.5l-5.5,29h-14.4l5.3-27.9c0.3-1.7,0.5-3.7,0.5-5.5c0-3.3-1.1-5.6-4.6-5.6
				c-4.4,0-9.7,5.7-11.7,16.3l-4.3,22.7H320.6z"/>
			<path class="st0" d="M369.7,116.7l13-68.2H397l-6.9,35.9h0.2c1.5-1.9,15.7-17.3,15.7-17.3h17.3l-20.2,20.7l12.7,28.9H400
				l-10.8-26.1l-5.2,26.1H369.7z"/>
			<path class="st0" d="M317.7,60.6c-4.3,0-7.3-3.1-7.3-7.6c0-5.1,4-8.8,8.8-8.8c4.6,0,7.7,3.1,7.7,7.6c0,5.6-4.2,8.8-9,8.8H317.7z"
				/>
		</g>
		<g>
			<path class="st0" d="M93.5,50c-3.9-1.6-8.1-2.4-13.7-2.4c-10.8,0-18.7,2.7-26.2,9.2c-4.3,3.6-7.8,8-10.4,13
				C40.5,75.5,39,81.6,39,87.6c0,18.7,11.7,29.9,31.3,29.9c3.4,0,6.6-0.3,10.3-1c4.3-0.8,6.4-1.7,11.2-3.9l0.6-0.3l-3.1-11.8
				l-0.9,0.4c-3.7,1.6-5.2,2.2-8,2.8c-2.4,0.5-4.6,0.8-6.7,0.8c-11.8,0-19.1-6.8-19.1-17.8c0-14.9,10.9-26.5,24.8-26.5
				c2.7,0,5.8,0.5,8.2,1.4c1.9,0.7,2.9,1.3,4.8,2.7l6.7-11C96.9,51.6,95.5,50.8,93.5,50z"/>
		</g>
	</g>
	<path class="st1" d="M423.5,102.3c23.5,5.8,37.5,12.4,37.5,21.1c0,17.9-62.5,32.5-139.5,32.5c-62.9,0-113.9-11.4-133.2-24l0.5-2.1
		c22.8,8.1,66.9,13.5,117.7,13.5c74,0,134.1-11.7,134.1-26c0-4.8-6.6-9.2-18.1-13.1L423.5,102.3z"/>
</g>
</svg>
