<?xml version="1.0" encoding="utf-8"?>
<!-- Generator: Adobe Illustrator 28.0.0, SVG Export Plug-In . SVG Version: 6.00 Build 0)  -->
<svg version="1.1" id="圖層_1" xmlns="http://www.w3.org/2000/svg" xmlns:xlink="http://www.w3.org/1999/xlink" x="0px" y="0px"
	 viewBox="0 0 400 136" style="enable-background:new 0 0 400 136;" xml:space="preserve">
<style type="text/css">
	.st0{fill:#F7271B;}
</style>
<g>
	<g>
		<path class="st0" d="M177.6,60.5c-3.3,0-5.4,2.1-6,5h11.7C182.9,62.4,180.7,60.5,177.6,60.5z"/>
		<path class="st0" d="M146.2,61.8c-4.2,0-6.8,2.9-6.8,6.9c0,4,2.7,7,6.8,7c4.1,0,6.9-2.8,6.9-7C153.2,64.6,150.4,61.8,146.2,61.8z"
			/>
		<path class="st0" d="M230.9,55.1c-6.3,0-11.2,2.5-12,9c-0.1,0,0,0,0,0c-2-29.6-25.3-53-55.4-53c-23.8,0-44.1,14.6-52.6,35.3H131
			l-1,6.8h-15.8v7.2h14.3l-1.1,6.5h-13.2v4.2c0,2.5,1.1,3.7,3.2,3.7h13.5l-1.1,6.8h-15c-0.7,0-1.4-0.1-2.1-0.2v0
			c0,0-2.6-0.3-4.2-2.4c0,0-0.7-0.8-1-2.1c-0.1-0.3-0.1-0.4-0.2-0.6c0.1,0.8,0.3,2,0.4,2.4c0.5,2.4,1,4.4,1.1,4.5
			c6.7,23.9,28.6,41.4,54.6,41.4c26.6,0,49.1-18.3,55.2-43h-7.6V67.9c0-3.7-1.4-6.1-5.1-6.1c-3.7,0-5.1,2.4-5.1,6.1v13.9h-7.6V66
			c0-7.5,5.5-10.9,12.8-10.9c7.3,0,12.8,3.3,12.8,10.9l0,15.8h7.7V67.9c0-3.7,1-6.1,4.6-6.1c1.1,0,2.5,0.3,3,0.6l1.4-6.7
			C234.7,55.6,232.5,55.1,230.9,55.1z M160.9,67.2c0,9.5-5.6,15.1-15,15.1c-8.6,0-14.5-5.8-14.5-13.6c0-8.1,5.5-13.6,13.8-13.6
			c3.8,0,6.6,1.5,8,3V46.6h7.6V67.2z M180.1,76.5c2.2,0,4.3-0.6,6.3-1.5l-0.6,6c-2.2,0.9-4.8,1.2-7.5,1.2c-8.8,0-15-5.1-15-13.9
			c0-7.6,5.5-13.3,14-13.3c9.6,0,14.4,6.1,14.2,15.5h-19.8C172.5,74.9,176.6,76.5,180.1,76.5z"/>
		<path class="st0" d="M248.2,55.1c-8.5,0-14,5.7-14,13.3c0,8.7,6.2,13.9,15,13.9c2.6,0,5.3-0.3,7.5-1.2l0.6-6
			c-1.9,0.9-4,1.5-6.3,1.5c-3.5,0-7.6-1.6-8.4-5.9h19.8C262.6,61.2,257.8,55.1,248.2,55.1z M242.4,65.5c0.6-2.8,2.7-5,6-5
			c3.1,0,5.3,1.8,5.7,5H242.4z"/>
		<path class="st0" d="M285,46.6v11.6c-1.4-1.5-4.2-3-8-3c-8.3,0-13.8,5.4-13.8,13.6c0,7.8,5.8,13.6,14.5,13.6c9.3,0,15-5.6,15-15.1
			V46.6H285z M278,75.7c-4.1,0-6.8-3-6.8-7c0-4,2.6-6.9,6.8-6.9c4.1,0,6.9,2.8,6.9,6.9C285,72.9,282.2,75.7,278,75.7z"/>
	</g>
</g>
</svg>
