<?xml version="1.0" encoding="utf-8"?>
<!-- Generator: Adobe Illustrator 28.0.0, SVG Export Plug-In . SVG Version: 6.00 Build 0)  -->
<svg version="1.1" id="圖層_1" xmlns="http://www.w3.org/2000/svg" xmlns:xlink="http://www.w3.org/1999/xlink" x="0px" y="0px"
	 viewBox="0 0 500 200" style="enable-background:new 0 0 500 200;" xml:space="preserve">
<style type="text/css">
	.st0{fill:#FFFFFF;}
</style>
<g>
	<g>
		<path class="st0" d="M217.9,89.3c-4.7,0-7.8,3-8.7,7.1h16.8C225.6,92,222.3,89.3,217.9,89.3z"/>
		<path class="st0" d="M173.1,91c-6.1,0-9.7,4.3-9.7,10c0,6,3.9,10.1,9.7,10.1c6,0,10-4.3,10-10.1C183,95.2,178.9,91,173.1,91z"/>
		<path class="st0" d="M294.6,81.4c-8.9,0-16.2,3.5-17.1,13.1l0,0c-3-42.4-36.4-75.9-79.8-75.9c-33.9,0-63.3,21.1-75.5,50.8H151
			l-1.6,9.7h-22.8v10.4h20.6l-1.6,9.5h-19v5.7c0,3.6,1.6,5.4,4.5,5.4h19.6l-1.6,9.7h-21.5c-1.2,0-2-0.1-3-0.1l0,0
			c0,0-3.6-0.3-6.1-3.4c0,0-1-1.2-1.6-3c-0.1-0.5-0.1-0.5-0.1-1c0.1,1.2,0.3,2.8,0.5,3.4c0.5,3.4,1.6,6.2,1.6,6.5
			c9.7,33.9,41.2,59.3,78.5,59.3c38.2,0,70.3-26.3,79.3-61.6h-10.9V99.8c0-5.4-2-8.8-7.2-8.8c-5.2,0-7.2,3.4-7.2,8.8v19.8h-11V97.2
			c0-10.9,7.9-15.4,18.4-15.4s18.4,4.8,18.4,15.4v22.7h11V99.8c0-5.4,1.6-8.8,6.7-8.8c1.7,0,3.6,0.5,4.4,1l2-9.6
			C299.9,82.2,296.8,81.4,294.6,81.4z M193.8,98.9c0,13.6-8,21.6-21.5,21.6c-12.3,0-20.7-8.2-20.7-19.6c0-11.6,7.9-19.6,19.8-19.6
			c5.4,0,9.5,2,11.5,4.4V69.2h11L193.8,98.9L193.8,98.9z M221.7,112.3c3.2,0,6.2-1,8.9-2.2l-1,8.7c-3.2,1.3-7,1.8-10.6,1.8
			c-12.6,0-21.5-7.2-21.5-19.8c0-10.9,7.9-19,20.1-19c13.6,0,20.6,8.8,20.3,22.3h-28.4C210.7,109.9,216.6,112.3,221.7,112.3z"/>
		<path class="st0" d="M319.4,81.4c-12.2,0-20.1,8.2-20.1,19c0,12.6,8.8,19.8,21.5,19.8c3.6,0,7.8-0.5,10.6-1.8l1-8.7
			c-2.8,1.3-6,2.2-8.9,2.2c-5.1,0-11-2.4-11.9-8.7H340C340.2,90.3,333.2,81.4,319.4,81.4z M311.2,96.4c1-4.3,3.9-7.1,8.7-7.1
			c4.5,0,7.8,2.7,8.2,7.1H311.2z"/>
		<path class="st0" d="M372.3,69.2v16.7c-2-2-6.1-4.4-11.5-4.4c-11.8,0-19.8,7.9-19.8,19.6c0,11.3,8.4,19.6,20.7,19.6
			c13.5,0,21.5-8,21.5-21.6V69.2H372.3z M362.2,110.9c-6.1,0-9.7-4.4-9.7-10.1s3.6-10,9.7-10s10,3.9,10,10
			C372.2,107,368.3,110.9,362.2,110.9z"/>
	</g>
</g>
</svg>
