<?xml version="1.0" encoding="utf-8"?>
<!-- Generator: Adobe Illustrator 28.0.0, SVG Export Plug-In . SVG Version: 6.00 Build 0)  -->
<svg version="1.1" id="圖層_1" xmlns="http://www.w3.org/2000/svg" xmlns:xlink="http://www.w3.org/1999/xlink" x="0px" y="0px"
	 viewBox="0 0 400 136" style="enable-background:new 0 0 400 136;" xml:space="preserve">
<style type="text/css">
	.st0{fill:url(#SVGID_1_);}
	.st1{fill:url(#SVGID_00000097458366159997894410000015359045255999575196_);}
	.st2{fill:url(#SVGID_00000029733494634430063650000009439217219454281917_);}
	.st3{fill:url(#SVGID_00000062882865180715372160000015634046291002790328_);}
	.st4{fill:url(#SVGID_00000000935674010294502520000003948315077286048171_);}
	.st5{fill:url(#SVGID_00000043451284284322527010000005716837526147768974_);}
	.st6{fill:url(#SVGID_00000000927713839957519010000007887917627253797279_);}
	.st7{fill:url(#SVGID_00000176014400757186325210000012862069255245103539_);}
	.st8{fill:url(#SVGID_00000026881488958795804110000006860307729183360952_);}
	.st9{fill:url(#SVGID_00000144329850110804671040000002933218074601839551_);}
	.st10{fill:url(#SVGID_00000077314547020007772910000018320849220203428229_);}
	.st11{fill:url(#SVGID_00000039110060696851656970000001808590896660220344_);}
	.st12{fill:url(#SVGID_00000001635561792960130060000016878339406889275782_);}
	.st13{fill:url(#SVGID_00000082353157479022882300000002704293187248123782_);}
	.st14{fill:#EE3E33;}
	.st15{fill:#0073BA;}
</style>
<g>
	<g>
		
			<linearGradient id="SVGID_1_" gradientUnits="userSpaceOnUse" x1="81.281" y1="56.0194" x2="81.281" y2="56.0194" gradientTransform="matrix(1 0 0 -1 0 137.3228)">
			<stop  offset="0" style="stop-color:#0155A4"/>
			<stop  offset="1" style="stop-color:#80D2EC"/>
		</linearGradient>
		<path class="st0" d="M81.3,81.3"/>
		
			<linearGradient id="SVGID_00000004521750029615396390000008261310700554184071_" gradientUnits="userSpaceOnUse" x1="68.7672" y1="31.3585" x2="67.6496" y2="56.0731" gradientTransform="matrix(0.9983 -5.901947e-02 -5.901947e-02 -0.9983 54.0489 118.464)">
			<stop  offset="0" style="stop-color:#005DAB"/>
			<stop  offset="1" style="stop-color:#65CDF5"/>
		</linearGradient>
		<path style="fill:url(#SVGID_00000004521750029615396390000008261310700554184071_);" d="M91.5,82.1c0,0,31.5-36.2,49.8-22.4
			c16.2,12.3,1.5,25.7,1.5,25.7l-16.6,3.2c0,0,15.5-10.1,12.4-20.7C135.6,57.7,104.4,73,91.5,82.1z"/>
		
			<linearGradient id="SVGID_00000075865414041539194120000016665435036823444111_" gradientUnits="userSpaceOnUse" x1="-642.1061" y1="1819.6439" x2="-686.4525" y2="1806.802" gradientTransform="matrix(-1 0 0 1 -538.5942 -1750.6049)">
			<stop  offset="0" style="stop-color:#447EC0"/>
			<stop  offset="1" style="stop-color:#84D2EA"/>
		</linearGradient>
		<path style="fill:url(#SVGID_00000075865414041539194120000016665435036823444111_);" d="M142.4,60.8c0,0-11.9-14.5-45,15
			C97.5,75.9,127.4,45.8,142.4,60.8z"/>
		
			<linearGradient id="SVGID_00000119816739465633076530000009718288624239280549_" gradientUnits="userSpaceOnUse" x1="-713.7201" y1="1774.5199" x2="-714.9048" y2="1800.7224" gradientTransform="matrix(-0.9983 5.901947e-02 5.901947e-02 0.9983 -753.878 -1657.6858)">
			<stop  offset="0" style="stop-color:#005DAB"/>
			<stop  offset="1" style="stop-color:#65CDF5"/>
		</linearGradient>
		<path style="fill:url(#SVGID_00000119816739465633076530000009718288624239280549_);" d="M95,79.8c0,0-37.7,28.8-53.1,17.3
			c-15.8-11.9-3.4-26.8-3.4-26.8l13.3-3.8c0,0-11.5,11.2-6.7,21.9C50,98.8,80.8,87,95,79.8z"/>
		
			<linearGradient id="SVGID_00000128472558157301260720000004058140304106585217_" gradientUnits="userSpaceOnUse" x1="-48.5946" y1="20.5997" x2="66.5603" y2="20.5997" gradientTransform="matrix(0.9946 -0.1041 -0.1041 -0.9946 85.0903 101.904)">
			<stop  offset="0" style="stop-color:#68CCE9"/>
			<stop  offset="0.2545" style="stop-color:#0155A4"/>
			<stop  offset="0.5498" style="stop-color:#447EC0"/>
			<stop  offset="0.6067" style="stop-color:#529DD0"/>
			<stop  offset="0.6683" style="stop-color:#5EB7DE"/>
			<stop  offset="0.7238" style="stop-color:#65C6E6"/>
			<stop  offset="0.7672" style="stop-color:#68CCE9"/>
			<stop  offset="1" style="stop-color:#0155A4"/>
		</linearGradient>
		<path style="fill:url(#SVGID_00000128472558157301260720000004058140304106585217_);" d="M148.9,72c1.1,10.3-3.2,16.9-6.8,20.6
			c-4.3,4.4-10.2,7.2-16.8,7.9c-5.4,0.6-11.1-0.5-17.7-3.2c-5.6-2.3-11.6-6-19.8-10.4c-3.8-2-14-9.5-25.3-14.2
			c-12.9-5.3-28.3-1.9-28.2,12c-0.6-5.3,0.9-10.7,4.1-14.9c2.6-3.6,7.7-8,16.7-8.9c10.6-1.1,24.3,3.2,39,12.4
			c15,9.4,20.8,14.6,34.5,14.3C135.8,87.2,148.8,84.9,148.9,72z"/>
		
			<linearGradient id="SVGID_00000010293346711191432080000015993415347046397341_" gradientUnits="userSpaceOnUse" x1="19.8526" y1="12.8783" x2="63.4647" y2="12.8783" gradientTransform="matrix(0.9946 -0.1041 -0.1041 -0.9946 85.0903 101.904)">
			<stop  offset="0" style="stop-color:#447EC0"/>
			<stop  offset="0.1412" style="stop-color:#529DD0"/>
			<stop  offset="0.2941" style="stop-color:#5EB7DE"/>
			<stop  offset="0.4316" style="stop-color:#65C6E6"/>
			<stop  offset="0.5394" style="stop-color:#68CCE9"/>
			<stop  offset="1" style="stop-color:#447EC0"/>
		</linearGradient>
		<path style="fill:url(#SVGID_00000010293346711191432080000015993415347046397341_);" d="M102.6,78.9l1.3,0.8l1.3,0.8
			c0.8,0.6,1.8,1,2.6,1.6c1.8,1,3.6,2.1,5.4,3c1.9,0.9,3.7,1.9,5.6,2.7c1.9,0.8,3.8,1.6,5.8,2.2c2,0.7,3.9,1.1,6,1.3
			c2.1,0.3,4.1,0.3,6.1-0.1c2.1-0.4,4-1,5.7-2.2c0.8-0.6,1.7-1.2,2.4-2c0.4-0.4,0.8-0.8,1-1.1c0.4-0.4,0.7-0.8,0.9-1.2
			c-1.1,1.8-2.5,3.4-4.2,4.6c-0.8,0.6-1.8,1.1-2.7,1.5c-0.9,0.4-2,0.7-3,0.8c-2.1,0.4-4.2,0.4-6.3,0.1c-2.1-0.3-4.1-0.8-6.1-1.3
			c-4-1.2-7.8-3-11.5-5c-1.8-1-3.7-2.1-5.4-3.2c-0.8-0.6-1.8-1.1-2.6-1.7l-1.3-0.8L102.6,78.9z"/>
		
			<linearGradient id="SVGID_00000091004396955682031420000002830486874129182593_" gradientUnits="userSpaceOnUse" x1="-541.7392" y1="1867.0692" x2="-426.2594" y2="1867.0692" gradientTransform="matrix(-0.9946 0.1041 0.1041 0.9946 -584.3236 -1728.918)">
			<stop  offset="0" style="stop-color:#65CDF5"/>
			<stop  offset="0.2545" style="stop-color:#005DAB"/>
			<stop  offset="0.5498" style="stop-color:#378BCB"/>
			<stop  offset="0.5895" style="stop-color:#449ED7"/>
			<stop  offset="0.6578" style="stop-color:#56B8E7"/>
			<stop  offset="0.7191" style="stop-color:#61C7F1"/>
			<stop  offset="0.7672" style="stop-color:#65CDF5"/>
			<stop  offset="0.9996" style="stop-color:#005DAB"/>
		</linearGradient>
		<path style="fill:url(#SVGID_00000091004396955682031420000002830486874129182593_);" d="M34.3,86.3c-1.8-10,3-17,6.6-20.7
			c4.3-4.4,10.2-7.2,16.8-7.9c5.4-0.6,11.1,0.5,17.7,3.2c5.6,2.3,11.6,6,19.8,10.4c3.7,2,13.9,9.6,25.3,14.2
			c12.9,5.3,28.6,0.5,28.5-13.5c0.6,5.3-1.3,12.2-4.4,16.4c-2.6,3.6-7.7,8-16.7,8.9c-10.6,1.1-24.3-3.2-39-12.4
			c-15-9.4-21.2-13.4-34.1-14.9C47.5,69.3,34.4,73.4,34.3,86.3z"/>
		
			<linearGradient id="SVGID_00000115491459825501877770000001373054860276736650_" gradientUnits="userSpaceOnUse" x1="-533.1403" y1="1851.0085" x2="-487.5886" y2="1851.0085" gradientTransform="matrix(-1.0015 0.1406 0.109 1.041 -586.2368 -1774.2847)">
			<stop  offset="0" style="stop-color:#80D2EC"/>
			<stop  offset="1" style="stop-color:#0155A4"/>
		</linearGradient>
		<path style="fill:url(#SVGID_00000115491459825501877770000001373054860276736650_);" d="M103,76.3l1.5,0.9l1.5,0.8
			c1,0.6,2.1,1.1,3.1,1.7c2.1,1.1,4.1,2.2,6.3,3.2c1,0.5,2.2,0.9,3.2,1.4c0.6,0.2,1.1,0.5,1.6,0.7c0.6,0.2,1.1,0.4,1.7,0.6
			c2.3,0.8,4.5,1.2,6.9,1.5c2.3,0.2,4.7,0.2,7-0.3c2.3-0.4,4.6-1.2,6.6-2.5c1-0.7,2-1.4,2.7-2.3c0.8-0.9,1.5-1.9,2.1-3
			s0.9-2.3,1.2-3.5c0.1-0.6,0.2-1.2,0.3-1.8c0.1-0.7,0.1-1.2,0.1-1.9c0,0.7,0,1.2,0,1.9c0,0.7-0.1,1.2-0.2,1.9
			c-0.2,1.2-0.6,2.4-1.1,3.6c-0.6,1.1-1.2,2.2-2.1,3.1c-0.8,0.9-1.8,1.8-2.8,2.4c-1,0.7-2.2,1.2-3.3,1.7c-1.1,0.5-2.3,0.8-3.5,1
			c-2.3,0.5-4.8,0.5-7.1,0.3s-4.7-0.8-6.9-1.5c-0.6-0.2-1.1-0.4-1.7-0.7c-0.6-0.2-1.1-0.5-1.6-0.7c-1.1-0.5-2.2-0.9-3.2-1.5
			c-2.2-1-4.2-2.2-6.3-3.4c-1-0.6-2.1-1.2-3-1.9c-0.5-0.3-1-0.7-1.5-0.9L103,76.3z"/>
		<g>
			
				<linearGradient id="SVGID_00000018225426459510969610000016484774065678671265_" gradientUnits="userSpaceOnUse" x1="-414.7631" y1="-19.5815" x2="-366.6004" y2="-19.5815" gradientTransform="matrix(1.0716 -0.3729 -0.5888 -0.8409 495.2161 -115.8486)">
				<stop  offset="0" style="stop-color:#447EC0"/>
				<stop  offset="1" style="stop-color:#84D2EA"/>
			</linearGradient>
			<path style="fill:url(#SVGID_00000018225426459510969610000016484774065678671265_);" d="M84,37.2c9.8-3,20.8-1.5,28.9,5.5
				c6.6,5.6,9.4,11.3,9.4,11.3C116.9,29.6,91.9,24.8,80,29.6c-5.3,2.1-10.1,4.8-13.4,8.8c-3.2,3.8-5,9.7-5.8,14.6
				C60.7,52.9,70.9,41.2,84,37.2z"/>
			
				<linearGradient id="SVGID_00000107586464094659017180000000186873161954362000_" gradientUnits="userSpaceOnUse" x1="-211.2219" y1="-13.3991" x2="-245.6744" y2="-18.5995" gradientTransform="matrix(1.1666 -0.2 -0.3662 -0.8979 346.8174 -13.5352)">
				<stop  offset="6.820437e-04" style="stop-color:#65CDF5"/>
				<stop  offset="0.3855" style="stop-color:#457FC0"/>
				<stop  offset="0.4838" style="stop-color:#407DBF"/>
				<stop  offset="0.5934" style="stop-color:#3376BB"/>
				<stop  offset="0.708" style="stop-color:#1D6BB4"/>
				<stop  offset="0.8188" style="stop-color:#005DAB"/>
			</linearGradient>
			<path style="fill:url(#SVGID_00000107586464094659017180000000186873161954362000_);" d="M83.6,36.8c9.8-3,21.1-1,29.3,5.9
				c6.6,5.6,9.4,11.3,9.4,11.3c-5.6-25.5-30.8-28.5-42.7-23.8c-5.3,2.1-9.8,4.8-13.1,8.8c-3.2,3.8-5,9-5.8,13.9
				C60.7,52.9,70.5,40.8,83.6,36.8z"/>
			
				<linearGradient id="SVGID_00000126291064571185511260000014703649535557325952_" gradientUnits="userSpaceOnUse" x1="-266.8039" y1="-108.7582" x2="-285.3569" y2="-74.2486" gradientTransform="matrix(1.2317 -0.2897 -0.4216 -0.8039 408.5673 -115.1183)">
				<stop  offset="0" style="stop-color:#447EC0"/>
				<stop  offset="1" style="stop-color:#84D2EA"/>
			</linearGradient>
			<path style="fill:url(#SVGID_00000126291064571185511260000014703649535557325952_);" d="M81.2,29.1c2.3-0.8,4.8-1.1,7.2-1.2
				c2.5-0.1,5.1,0,7.5,0.4s4.9,1,7.1,1.9s4.4,2,6.4,3.2c2,1.3,3.7,2.7,5.2,4.3c1.5,1.6,2.8,3.3,3.8,5.1c2.1,3.6,3.3,7.4,3.8,11.3
				c-0.9-3.8-2.3-7.5-4.4-11c-0.6-0.8-1.1-1.7-1.8-2.5c-0.7-0.8-1.3-1.6-2.1-2.3c-1.5-1.5-3.2-2.9-5.1-4.1c-1.9-1.2-3.9-2.3-6.1-3.1
				c-2.2-0.8-4.5-1.5-6.9-2c-1.2-0.2-2.4-0.4-3.7-0.5c-1.2-0.1-2.4-0.2-3.7-0.1C86.1,28.3,83.6,28.5,81.2,29.1z"/>
		</g>
		
			<linearGradient id="SVGID_00000114056590538939774930000003007960036760437902_" gradientUnits="userSpaceOnUse" x1="28.5744" y1="26.6932" x2="28.5744" y2="26.6932" gradientTransform="matrix(0.9983 -5.901947e-02 -5.901947e-02 -0.9983 54.0489 118.464)">
			<stop  offset="0" style="stop-color:#0155A4"/>
			<stop  offset="1" style="stop-color:#80D2EC"/>
		</linearGradient>
		<path style="fill:url(#SVGID_00000114056590538939774930000003007960036760437902_);" d="M81,90.1"/>
		
			<linearGradient id="SVGID_00000054259681759153509240000017450148272422736781_" gradientUnits="userSpaceOnUse" x1="64.0674" y1="39.6843" x2="109.6192" y2="39.6843" gradientTransform="matrix(1.0898 -0.1013 1.948739e-03 -1.022 -35.5662 126.1768)">
			<stop  offset="0" style="stop-color:#005DAB"/>
			<stop  offset="1" style="stop-color:#65CDF5"/>
		</linearGradient>
		<path style="fill:url(#SVGID_00000054259681759153509240000017450148272422736781_);" d="M84,82.1l-1.5-0.9L81,80.3
			c-1-0.7-2.1-1.2-3.1-1.8c-2.1-1.2-4.2-2.3-6.4-3.4c-1.1-0.6-2.2-1-3.3-1.5c-0.6-0.3-1.1-0.5-1.7-0.8c-0.6-0.2-1.1-0.5-1.7-0.7
			c-2.3-0.8-4.7-1.4-7.1-1.7s-5-0.4-7.5,0c-2.5,0.3-5.1,1-7.3,2.3c-1.1,0.6-2.3,1.3-3.2,2.2c-0.9,0.8-1.9,1.8-2.5,2.8
			c-0.8,1-1.3,2.2-1.7,3.4c-0.2,0.6-0.4,1.2-0.5,1.8c-0.1,0.6-0.3,1.2-0.3,1.8c0.1-0.6,0.1-1.2,0.3-1.8c0.1-0.6,0.3-1.2,0.5-1.8
			c0.4-1.2,0.9-2.3,1.6-3.5s1.6-2.1,2.5-3c0.9-0.8,2.1-1.7,3.3-2.3c1.1-0.7,2.4-1.1,3.7-1.5c1.2-0.4,2.5-0.7,3.8-0.8
			c2.6-0.4,5.2-0.4,7.7,0c2.5,0.3,5,0.9,7.3,1.8c0.6,0.2,1.1,0.5,1.7,0.7c0.6,0.3,1.1,0.5,1.7,0.8c1.1,0.5,2.2,1,3.3,1.6
			c2.2,1.1,4.2,2.3,6.3,3.5c1,0.7,2.1,1.2,3.1,1.9c0.5,0.3,1,0.7,1.5,0.9L84,82.1z"/>
		
			<linearGradient id="SVGID_00000048480685158149801910000008584028268605663393_" gradientUnits="userSpaceOnUse" x1="79.0998" y1="49.0065" x2="34.8794" y2="36.201" gradientTransform="matrix(1 0 0 -1 0 137.3228)">
			<stop  offset="0" style="stop-color:#447EC0"/>
			<stop  offset="1" style="stop-color:#84D2EA"/>
		</linearGradient>
		<path style="fill:url(#SVGID_00000048480685158149801910000008584028268605663393_);" d="M39.9,95c0,0,9.4,15.2,46.5-9.4
			C86.4,85.7,54.1,108.1,39.9,95z"/>
	</g>
	<g>
		<g>
			<path class="st14" d="M187.8,94.3l-14.1-0.1c-2.3,0-4.1-1.9-4.1-4.1V57.9c0-2.3,1.9-4,4.1-4h14.1c1.2,0,2.3,1,2.3,2.3
				c0,1.3-1,2.3-2.3,2.3h-12.2c-0.5,0-0.8,0.4-0.8,0.8v8.6c0,0.4,0.4,0.8,0.8,0.8H186c1.3,0,2.3,1,2.3,2.3s-1,2.3-2.3,2.3h-10.4
				c-0.5,0-0.8,0.4-0.8,0.8v14.4c0,0.4,0.4,0.8,0.8,0.8h12.2c1.2,0,2.3,1,2.3,2.3C190,93.2,188.9,94.3,187.8,94.3z"/>
			<path class="st14" d="M209.8,94.1h-9c-0.5,0-0.8,0.4-0.8,0.8v10.7c0,1.4-1,2.5-2.5,2.5c-1.4,0-2.4-1.1-2.4-2.5V68.7
				c0-2.3,1.8-4,4-4h12c2.3,0,4.1,1.8,4.1,4v19.9C215.3,91.6,212.8,94.1,209.8,94.1z M200,70v18.8c0,0.5,0.4,0.8,0.8,0.8h8.7
				c0.4,0,0.8-0.4,0.8-0.8V70c0-0.5-0.4-0.8-0.8-0.8h-8.7C200.3,69.2,200,69.6,200,70z"/>
			<path class="st14" d="M226.8,59.9c0,1.3-1,2.3-2.3,2.3h-0.4c-1.2,0-2.3-1-2.3-2.3c0-1.2,1-2.3,2.3-2.3h0.4
				C225.8,57.5,226.8,58.6,226.8,59.9z M226.8,67.2v24.4c0,1.4-1,2.5-2.4,2.5c-1.4,0-2.4-1.1-2.4-2.5V67.2c0-1.3,1-2.4,2.4-2.4
				C225.7,64.8,226.8,65.9,226.8,67.2z"/>
		</g>
		<g>
			<path class="st15" d="M281.8,94.2c-1.4,0-2.4-1.1-2.4-2.5V57.2c0-1.4,1-2.5,2.4-2.5c1.4,0,2.4,1.1,2.4,2.5v34.5
				C284.3,92.9,283.3,94.2,281.8,94.2z"/>
			<path class="st15" d="M306.4,94.2h-11.3c-2.3,0-4-1.9-4-4.1V68.8c0-2.3,1.8-4,4-4h12.6c2.1,0.8,3.9,1.8,3.9,4v19.9
				C311.7,91.7,309.4,94.2,306.4,94.2z M295.6,70.2v18.4c0,0.4,0.4,0.8,0.8,0.8h9.8c0.5,0,0.8-0.4,0.8-0.8V70.2
				c0-0.4-0.4-0.8-0.8-0.8h-9.8C296,69.4,295.6,69.8,295.6,70.2z"/>
			<path class="st15" d="M322.5,94.2c-2.2,0-3.9-1.9-3.9-4.1V67c0-1.2,0.9-2.3,2.2-2.3c1.2,0,2.3,1,2.3,2.3v21.6
				c0,0.5,0.4,0.8,0.8,0.8h9.9c0.5,0,0.8-0.3,0.8-0.8V67c0-1.2,1-2.3,2.3-2.3s2.3,1,2.3,2.3v21.7c0,3-2.3,5.4-5.4,5.4H322.5z"/>
			<path class="st15" d="M360.6,94.2h-10.7c-2.3,0-4-1.9-4-4.1V68.8c0-2.3,1.8-4,4-4h10.3c0.5,0,0.8-0.4,0.8-0.8v-6.8
				c0-1.4,1.1-2.5,2.5-2.5c1.4,0,2.5,1,2.5,2.5v31.5C366,91.7,363.5,94.2,360.6,94.2z M350.7,70.1v18.8c0,0.5,0.4,0.8,0.8,0.8h8.7
				c0.5,0,0.8-0.4,0.8-0.8V70.1c0-0.5-0.4-0.8-0.8-0.8h-8.7C351,69.3,350.7,69.6,350.7,70.1z"/>
		</g>
		<g>
			<path class="st14" d="M259.8,68.8c-1.5-0.7-3-1-4.5-1c-1,0-2,0.1-2.8,0.4c0.6,0.2,1.1,0.4,1.7,0.7c1.5,0.7,2.7,1.6,3.7,2.8h5.6
				l0,0C262.4,70.4,261.2,69.5,259.8,68.8z"/>
			<path class="st14" d="M253.9,88c-0.5,0.2-0.9,0.4-1.4,0.6c0.9,0.3,1.9,0.4,2.8,0.4c1.5,0,2.9-0.3,4.2-0.9
				c1.3-0.7,2.5-1.5,3.7-2.6h-5.6C256.4,86.5,255.2,87.3,253.9,88z"/>
			<path class="st14" d="M239.3,78.2c0,0,0-0.1,0-0.2l0,0c0-4.3,1.6-8.1,4.7-11.2c2.4-2.4,5.3-3.9,8.4-4.5c-0.9-0.2-1.9-0.3-2.8-0.3
				c-4.3,0-8.1,1.6-11.2,4.7c-3.1,3.1-4.6,6.9-4.7,11.2l0,0c0,0.1,0,0.1,0,0.2c0,4.4,1.6,8.3,4.7,11.5c3.2,3.2,6.9,4.8,11.4,4.8
				c0.9,0,1.9-0.1,2.8-0.3c-3.2-0.6-6-2.1-8.5-4.5C240.9,86.5,239.3,82.7,239.3,78.2z"/>
			<g>
				<g>
					<path class="st15" d="M273,71.6h-6.6c-0.9-1.1-2.2-2.1-3.7-2.8c-1.5-0.7-3-1-4.5-1c-2.8,0-5.2,1-7.1,3.2c-2,2.1-3,4.6-3,7.5
						c0,2.7,1,5.2,3,7.3c2.1,2.1,4.4,3.2,7.2,3.2c1.5,0,2.9-0.3,4.2-0.9c1.3-0.7,2.5-1.5,3.7-2.6h6.7c-1.1,2.7-3.1,5-5.7,6.7
						c-2.7,1.7-5.5,2.5-8.6,2.5c-4.4,0-8.2-1.6-11.4-4.8c-3.1-3.2-4.7-7-4.7-11.5c0-4.4,1.6-8.2,4.7-11.4c3.1-3.2,6.9-4.7,11.2-4.7
						c3.2,0,6.1,0.8,8.8,2.5C269.8,66.5,271.8,68.7,273,71.6z"/>
				</g>
			</g>
		</g>
	</g>
</g>
</svg>
