<?xml version="1.0" encoding="utf-8"?>
<!-- Generator: Adobe Illustrator 28.0.0, SVG Export Plug-In . SVG Version: 6.00 Build 0)  -->
<svg version="1.1" id="圖層_1" xmlns="http://www.w3.org/2000/svg" xmlns:xlink="http://www.w3.org/1999/xlink" x="0px" y="0px"
	 viewBox="0 0 500 200" style="enable-background:new 0 0 500 200;" xml:space="preserve">
<style type="text/css">
	.st0{fill:#FFFFFF;}
</style>
<g>
	<g>
		<g>
			<polygon class="st0" points="234.8,95.1 243.9,95.1 243.9,87.8 234.8,87.8 234.8,77.1 247.2,77.1 247.2,69.7 227.1,69.7 
				227.1,113.2 234.8,113.2 			"/>
			<path class="st0" d="M260,113.7c3.1,0,5.7-1,7.9-3c2.2-2,3.3-4.6,3.3-7.5V69.7h-7.9V103c0,0.9-0.3,1.6-1,2.3
				c-0.7,0.6-1.5,1-2.4,1c-1,0-1.8-0.3-2.5-1c-0.7-0.6-1-1.4-1-2.3V69.7h-7.5v33.4c0,2.9,1.1,5.4,3.3,7.5
				C254.2,112.6,256.9,113.7,260,113.7z"/>
			<polygon class="st0" points="279.8,113.2 287.4,113.2 287.4,77.1 294.6,77.1 294.6,69.7 272.6,69.7 272.6,77.1 279.8,77.1 			"/>
			<path class="st0" d="M307.3,113.7c3.1,0,5.7-1,7.9-3c2.2-2,3.3-4.6,3.3-7.5V69.7h-7.9V103c0,0.9-0.3,1.6-1,2.3
				c-0.7,0.6-1.5,1-2.4,1c-1,0-1.8-0.3-2.5-1c-0.7-0.6-1-1.4-1-2.3V69.7h-7.5v33.4c0,2.9,1.1,5.4,3.3,7.5
				C301.6,112.6,304.2,113.7,307.3,113.7z"/>
			<path class="st0" d="M328.2,97.2h3.7l4.1,16h8.2l-5.1-18.9c2.4-2.1,3.6-4.8,3.6-7.8v-6.2c0-3.2-0.8-5.7-2.4-7.5
				c-1.8-2.1-4.7-3.1-8.6-3.1h-11.1v43.5h7.6V97.2z M335.2,80.4v6.2c0,0.9-0.3,1.7-1,2.3c-0.7,0.6-1.5,1-2.4,1h-3.6V77.2h3.6
				C334.1,77.2,335.2,78.2,335.2,80.4z"/>
			<polygon class="st0" points="366,105.9 353.5,105.9 353.5,95.1 362.7,95.1 362.7,87.8 353.5,87.8 353.5,77.1 366,77.1 366,69.7 
				345.9,69.7 345.9,113.2 366,113.2 			"/>
		</g>
		<g>
			<path class="st0" d="M236.9,121.1c-3.1,0-5.7,1-7.9,3.1c-2.2,2.1-3.3,4.6-3.3,7.5V155c0,2.9,1.1,5.5,3.3,7.5
				c2.2,2.1,4.8,3.1,7.9,3.1c3,0,5.7-1,7.9-3.1c2.2-2,3.3-4.6,3.3-7.5v-6.4h-7.9v6.3c0,0.9-0.3,1.6-1,2.3c-0.7,0.6-1.5,1-2.5,1
				c-1,0-1.8-0.3-2.4-1c-0.7-0.6-1-1.4-1-2.3v-23.3c0-0.9,0.3-1.7,1-2.3c0.7-0.6,1.5-1,2.4-1s1.8,0.3,2.5,1c0.7,0.6,1,1.4,1,2.3v5.4
				h7.9v-5.3c0-2.9-1.1-5.5-3.2-7.5C242.6,122.2,239.9,121.1,236.9,121.1z"/>
			<path class="st0" d="M261.9,121.1c-3,0-5.7,1-7.9,3.1c-2.2,2.1-3.3,4.6-3.3,7.5v23.2c0,2.9,1.1,5.5,3.2,7.5
				c2.2,2.1,4.8,3.1,7.9,3.1c3.1,0,5.7-1,7.9-3.1c2.2-2.1,3.3-4.6,3.3-7.5v-23.2c0-2.9-1.1-5.5-3.3-7.5
				C267.6,122.1,265,121.1,261.9,121.1z M258.3,131.6c0-0.9,0.3-1.6,1-2.3c0.7-0.6,1.5-0.9,2.5-0.9c1,0,1.8,0.3,2.4,0.9
				c0.7,0.6,1,1.4,1,2.3v23.3c0,0.9-0.3,1.7-1,2.3c-0.7,0.6-1.5,0.9-2.4,0.9c-1,0-1.8-0.3-2.5-0.9c-0.7-0.6-1-1.4-1-2.3V131.6z"/>
			<polygon class="st0" points="292.3,150.4 286.3,121.6 275.8,121.6 275.8,165.1 283.5,165.1 283.5,141.6 289.2,165.1 295.4,165.1 
				300.5,141.9 300.5,165.1 308.1,165.1 308.1,121.6 298,121.6 			"/>
			<polygon class="st0" points="327.3,150.4 321.4,121.6 310.9,121.6 310.9,165.1 318.5,165.1 318.5,141.6 324.3,165.1 330.4,165.1 
				335.5,141.9 335.5,165.1 343.1,165.1 343.1,121.6 333,121.6 			"/>
			<polygon class="st0" points="345.9,165.1 366,165.1 366,157.7 353.5,157.7 353.5,147 362.7,147 362.7,139.7 353.5,139.7 
				353.5,128.9 366,128.9 366,121.6 345.9,121.6 			"/>
			<path class="st0" d="M392,138.4v-6.2c0-3.2-0.8-5.7-2.4-7.5c-1.8-2.1-4.7-3.1-8.6-3.1h-11.1v43.5h7.6v-16h3.7l4.1,16h8.2
				l-5.1-18.9C390.8,144.1,392,141.4,392,138.4z M384.5,132.3v6.2c0,0.9-0.3,1.7-1,2.3c-0.7,0.6-1.5,1-2.4,1h-3.6V129h3.6
				C383.4,129,384.5,130.1,384.5,132.3z"/>
			<path class="st0" d="M407.3,121.1c-3.1,0-5.7,1-7.9,3.1c-2.2,2.1-3.3,4.6-3.3,7.5V155c0,2.9,1.1,5.5,3.3,7.5
				c2.2,2.1,4.8,3.1,7.9,3.1c3,0,5.7-1,7.9-3.1c2.2-2,3.3-4.6,3.3-7.5v-6.4h-7.9v6.3c0,0.9-0.3,1.6-1,2.3c-0.7,0.6-1.5,1-2.5,1
				c-1,0-1.8-0.3-2.4-1c-0.7-0.6-1-1.4-1-2.3v-23.3c0-0.9,0.3-1.7,1-2.3c0.7-0.6,1.5-1,2.4-1c1,0,1.8,0.3,2.5,1c0.7,0.6,1,1.4,1,2.3
				v5.4h7.9v-5.3c0-2.9-1.1-5.5-3.2-7.5C413,122.2,410.4,121.1,407.3,121.1z"/>
			<polygon class="st0" points="441.3,128.9 441.3,121.6 421.2,121.6 421.2,165.1 441.3,165.1 441.3,157.7 428.8,157.7 428.8,147 
				438,147 438,139.7 428.8,139.7 428.8,128.9 			"/>
		</g>
	</g>
	<g>
		<polygon class="st0" points="175.2,89.8 175.2,80.4 174.3,79 148.8,68.5 147.9,69 147.9,118.2 148.8,119.5 174.3,130.9 
			175.2,130.4 175.2,117.7 176,117.1 199.7,127.8 200.6,129.1 200.6,163.9 199.4,165.6 199.4,165.6 189.8,160.8 123.6,131.3 
			122.7,130 122.7,113.6 139.3,106.6 141.8,102.8 141.8,79.3 137,76.2 122.7,82.1 122.7,65.3 160,51.1 199.8,68 200.6,69.1 
			200.6,101.2 199.7,101.8 176,91.2 		"/>
		<g>
			<polygon class="st0" points="136.6,80.8 137.8,81.5 137.8,101.6 136.6,103.3 119.7,110.5 91.5,122.3 90.3,124 90.3,162.6 
				89.2,164.3 59.5,150.5 58.7,149.2 58.7,60.1 60.1,58.5 120.5,34.4 154.1,48.6 91.4,73.1 90.3,74.7 90.3,98.4 91.5,99.1 
				119.7,87.7 			"/>
		</g>
	</g>
</g>
</svg>
