<?xml version="1.0" encoding="utf-8"?>
<!-- Generator: Adobe Illustrator 28.0.0, SVG Export Plug-In . SVG Version: 6.00 Build 0)  -->
<svg version="1.1" id="Layer_1" xmlns="http://www.w3.org/2000/svg" xmlns:xlink="http://www.w3.org/1999/xlink" x="0px" y="0px"
	 viewBox="0 0 400 136" style="enable-background:new 0 0 400 136;" xml:space="preserve">
<style type="text/css">
	.st0{fill:#01385A;}
	.st1{fill:#E29227;}
	.st2{fill:#EB9620;}
</style>
<g>
	<g>
		<path class="st0" d="M184.7,113.9c-1,1.4-2.3,2.4-4,3.3c2.1,0.6,4.3,0.9,6.8,1.1c-0.3,0.4-0.6,0.9-0.8,1.3
			c-2.9-0.3-5.5-0.8-7.9-1.6c-2.4,0.9-5.1,1.4-7.9,1.7c-0.1-0.3-0.5-0.9-0.8-1.2c2.4-0.2,4.8-0.6,7-1.2c-1.1-0.5-2.2-1.1-3-1.8
			c-0.9,0.5-1.8,1-2.7,1.4c-0.2-0.3-0.7-0.7-1-1c0.9-0.4,1.9-0.8,2.7-1.3c-0.5-0.5-1-1-1.4-1.6l1.2-0.5c0.4,0.5,0.8,1,1.3,1.4
			c0.9-0.6,1.7-1.2,2.3-1.9c-0.8-0.2-1.1-0.5-1.1-1.5v-1.9h1.4v1.9c0,0.4,0.1,0.5,1,0.5h2.9c0.6,0,0.7-0.2,0.8-1.3
			c0.3,0.2,0.8,0.4,1.2,0.4c-0.1,1.6-0.5,2-1.8,2h-3.1l0.3,0.1c-0.3,0.4-0.7,0.8-1.1,1.2h6.7l0.3-0.1L184.7,113.9z M172,109.7h-1.4
			v-3.4h3.5c-0.2-0.6-0.7-1.3-1.1-1.9l1-0.4c-0.8,0-1.7,0.1-2.5,0.1c0-0.3-0.2-0.8-0.3-1.1c4.8-0.1,10.6-0.5,13.7-1.2l1,1
			c-2,0.4-4.7,0.7-7.5,0.9c0.5,0.6,0.9,1.5,1.1,2.1l-1.2,0.4c-0.1-0.6-0.6-1.5-1-2.2l1.1-0.4c-1.3,0.1-2.8,0.2-4.1,0.3
			c0.5,0.6,1.1,1.4,1.2,2l-0.7,0.3h7.2c0.6-0.8,1.4-2,1.8-2.8l1.4,0.5c-0.5,0.8-1.1,1.7-1.7,2.3h3.5v3.5h-1.4v-2.3h-7.4
			c0.9,0.4,1.9,1,2.5,1.5l-0.8,0.9c-0.6-0.5-1.9-1.3-2.9-1.7l0.6-0.6H172V109.7z M171.3,111.5c1.1-0.6,1.8-1.8,2.1-2.9l1.1,0.5
			c-0.4,1.2-1.1,2.5-2.2,3.2L171.3,111.5z M175.1,114.7c1.1,0.8,2.4,1.4,3.8,1.9c1.4-0.6,2.6-1.3,3.5-2.2h-6.9L175.1,114.7z
			 M183.4,108.4c1.1,0.9,2.5,2.1,3,3l-1,0.8c-0.6-0.9-1.9-2.2-3-3.1L183.4,108.4z"/>
		<path class="st0" d="M198.2,102.6h8v1.2h-2.4v2.5h2.1v12.9h-1.2v-1.1h-5.2v1.4h-1.1v-13.2h2.1v-2.5h-2.4V102.6z M204.9,117v-5.2
			h-0.1h-1c-0.8,0-1-0.2-1-1.1v-3.1h-1.1v1.5c0,1.2-0.3,2.6-1.5,3.7c-0.1-0.1-0.3-0.4-0.5-0.5v4.7H204.9z M199.7,107.6v4.5
			c1-0.9,1.2-2.1,1.2-3.1v-1.5H199.7z M200.5,113.9h3.6v1.2h-3.6V113.9z M202.8,103.9h-1.1v2.5h1.1V103.9z M204.9,107.6h-1.3v3
			c0,0.3,0,0.3,0.3,0.3h0.7c0.2,0,0.3,0,0.3,0V107.6z M216,109.3v1.3h-9.3v-1.3h4.2v-3.1h-2.2c-0.3,0.9-0.6,1.6-0.9,2.3
			c-0.3-0.2-0.9-0.5-1.2-0.6c0.8-1.3,1.4-3.4,1.7-5.4l1.3,0.2c-0.1,0.8-0.3,1.5-0.5,2.2h1.8v-3.1h1.4v3.1h3.3v1.3h-3.3v3.1H216z
			 M207.4,112.3h7.9v7.3h-1.4v-0.9h-5.2v0.9h-1.3V112.3z M208.7,113.6v3.7h5.2v-3.7H208.7z"/>
		<path class="st0" d="M234.1,111.1c-0.6-0.5-2-1.5-3-2.2c-0.7,1.1-1.8,2.2-3.9,3.1c-0.2-0.3-0.6-0.8-0.9-1c2.5-1,3.5-2.3,3.9-3.5
			h-3.7v-1.2h4c0-0.3,0-0.5,0-0.7v-1.1h-1.6c-0.4,0.7-0.8,1.3-1.2,1.7c-0.3-0.2-0.8-0.5-1.2-0.7c1-1,1.8-2.4,2.2-3.9l1.3,0.3
			c-0.1,0.5-0.3,1-0.5,1.4h5.3v1.2h-2.9v1.1c0,0.2,0,0.4,0,0.7h3.4v1.2h-3.6c0,0.1-0.1,0.2-0.1,0.3c0.8,0.4,3,1.8,3.6,2.2
			L234.1,111.1z M229.3,111.6h11.9v8h-1.5v-0.7h-9v0.7h-1.4V111.6z M230.7,112.8v1.8h9v-1.8H230.7z M239.8,117.7v-1.9h-9v1.9H239.8z
			 M242.9,103.4v6.8h-6.8v-6.8H242.9z M241.5,104.7h-4v4.1h4V104.7z"/>
		<path class="st0" d="M262.7,118.1c0,0.7-0.2,1.1-0.7,1.3c-0.5,0.2-1.3,0.2-2.6,0.2c-0.1-0.4-0.3-0.9-0.5-1.2c0.9,0,1.7,0,2,0
			c0.3,0,0.3-0.1,0.3-0.3v-3c-1.3,0.8-2.6,1.5-3.7,2.1l-0.5-1.2c-0.2,1.3-0.6,2.6-1.4,3.7c-0.2-0.3-0.7-0.8-1-1
			c1.1-1.5,1.2-3.5,1.2-5.2v-4.8h6.8V118.1z M261.4,103.2c1,1.3,2.1,3.2,2.6,4.3l-1.2,0.6c-0.2-0.4-0.4-0.8-0.6-1.3
			c-5.3,0.4-6,0.5-6.4,0.7c-0.1-0.3-0.3-1-0.5-1.4c0.3-0.1,0.6-0.4,1-0.8c0.4-0.4,1.7-2,2.5-3.6l1.4,0.5c-0.8,1.3-1.8,2.6-2.7,3.6
			l4-0.3c-0.4-0.7-0.8-1.3-1.2-1.9L261.4,103.2z M257.2,113.5c0,0.7,0,1.6-0.2,2.5c1.1-0.5,2.6-1.3,4.2-2V110h-4V113.5z
			 M258.1,111.1c1,0.6,2.4,1.5,3.1,2l-0.8,0.8c-0.7-0.6-2-1.5-3.1-2.1L258.1,111.1z M266.6,110.2c-1.7,0-2.2-0.6-2.2-2.2v-6.1h1.4
			v2.7h5.3v1.3h-5.3v2.2c0,0.7,0.2,0.9,0.8,0.9h3.6c0.5,0,1.2,0,1.6-0.1c0,0.4,0.1,0.9,0.2,1.3c-0.3,0.1-1,0.1-1.7,0.1H266.6z
			 M270.2,118.2c0.8,0,1-0.4,1.1-2.5c0.3,0.2,0.9,0.4,1.3,0.5c-0.2,2.5-0.6,3.2-2.2,3.2h-3.5c-1.9,0-2.4-0.4-2.4-2.1v-6.6h1.4v2.3
			h5.5v1.3h-5.5v2.9c0,0.6,0.2,0.8,1.1,0.8H270.2z"/>
		<path class="st0" d="M289.3,113.5c-0.3-0.6-1.2-1.9-1.8-2.9v9h-1.4V111c-0.8,2-1.8,3.9-2.8,5.1c-0.1-0.4-0.5-1-0.7-1.3
			c1.2-1.4,2.6-3.9,3.4-6.1h-3.1v-1.4h3.3v-2.9c-0.9,0.2-1.8,0.3-2.7,0.4c-0.1-0.3-0.3-0.8-0.4-1.1c2.2-0.4,4.7-0.9,6.2-1.6l0.9,1.2
			c-0.7,0.3-1.6,0.6-2.6,0.8v3.3h2.9v1.4h-2.9v0.3c0.6,0.7,2.3,2.8,2.7,3.4L289.3,113.5z M298.2,114.5v5.1h-1.4v-4.9l-6.4,1.1
			l-0.2-1.4l6.6-1.1v-11.6h1.4v11.3l2.3-0.3l0.2,1.3L298.2,114.5z M294.4,111.9c-0.7-0.9-2.2-2.1-3.4-2.8l0.9-0.9
			c1.2,0.8,2.8,1.9,3.5,2.8L294.4,111.9z M294.8,106.8c-0.6-0.8-2-2-3.1-2.8l0.9-0.8c1.2,0.7,2.5,1.9,3.2,2.7L294.8,106.8z"/>
		<path class="st0" d="M317.4,111.7c-0.8,0.2-1.6,0.5-2.3,0.7v5.5c0,0.8-0.2,1.2-0.7,1.4c-0.5,0.2-1.3,0.3-2.6,0.3
			c-0.1-0.4-0.3-0.9-0.5-1.3c0.9,0,1.8,0,2,0c0.3,0,0.4-0.1,0.4-0.4v-5.1l-2.3,0.7l-0.4-1.4c0.8-0.2,1.7-0.4,2.8-0.7v-4.3h-2.5v-1.4
			h2.5v-3.9h1.4v3.9h2.2v1.4h-2.2v3.9c0.7-0.2,1.4-0.4,2.2-0.6L317.4,111.7z M327.8,109.5c-0.8,2.7-2.2,4.8-4,6.4
			c1.4,1.2,3.1,2,5,2.5c-0.3,0.3-0.7,0.9-0.9,1.2c-2-0.6-3.8-1.6-5.2-2.8c-1.7,1.3-3.6,2.2-5.5,2.8c-0.2-0.4-0.5-1-0.8-1.3
			c1.9-0.5,3.7-1.3,5.3-2.5c-1.4-1.5-2.4-3.3-3.2-5.4l0.1,0h-0.6v-1.3h4.2v-2.9h-4.6v-1.3h4.6v-3.1h1.4v3.1h4.7v1.3h-4.7v2.9h3.1
			l0.2-0.1L327.8,109.5z M319.9,110.5c0.7,1.7,1.6,3.2,2.9,4.5c1.3-1.2,2.4-2.7,3.1-4.5H319.9z"/>
	</g>
	<g>
		<path class="st0" d="M192.1,73.8c-0.9-0.9-1.9-1.7-2.9-2.2c-1-0.5-2.1-0.8-3.5-0.8c-1.2,0-2.3,0.3-3.3,0.8
			c-0.9,0.5-1.7,1.2-2.4,2.1c-0.6,0.9-1.1,1.8-1.5,2.9c-0.4,1.1-0.5,2.2-0.5,3.3c0,1.2,0.2,2.3,0.6,3.4c0.4,1.1,0.9,2,1.6,2.8
			c0.7,0.8,1.5,1.4,2.5,1.9c1,0.5,2.1,0.7,3.3,0.7c1.2,0,2.3-0.3,3.3-0.8c1-0.5,1.9-1.2,2.7-2.1V94c-1.2,0.7-2.4,1.1-3.7,1.4
			c-1.2,0.3-2.5,0.4-3.8,0.4c-2.2,0-4.3-0.4-6.2-1.3c-1.9-0.9-3.5-2-4.9-3.5c-1.4-1.5-2.4-3.2-3.2-5.1c-0.8-1.9-1.1-4-1.1-6.2
			c0-2.3,0.4-4.4,1.2-6.4c0.8-2,1.9-3.7,3.3-5.2c1.4-1.5,3.1-2.6,5-3.5c1.9-0.8,4-1.3,6.3-1.3c1.2,0,2.4,0.2,3.6,0.5
			c1.2,0.3,2.4,0.8,3.4,1.5V73.8z"/>
		<path class="st0" d="M218.2,73.8c-0.9-0.9-1.9-1.7-2.9-2.2c-1-0.5-2.1-0.8-3.5-0.8c-1.2,0-2.3,0.3-3.3,0.8
			c-0.9,0.5-1.7,1.2-2.4,2.1c-0.6,0.9-1.1,1.8-1.5,2.9c-0.4,1.1-0.5,2.2-0.5,3.3c0,1.2,0.2,2.3,0.6,3.4c0.4,1.1,0.9,2,1.6,2.8
			c0.7,0.8,1.5,1.4,2.5,1.9c1,0.5,2.1,0.7,3.3,0.7c1.2,0,2.3-0.3,3.3-0.8c1-0.5,1.9-1.2,2.7-2.1V94c-1.2,0.7-2.4,1.1-3.7,1.4
			c-1.2,0.3-2.5,0.4-3.8,0.4c-2.2,0-4.3-0.4-6.2-1.3c-1.9-0.9-3.5-2-4.9-3.5c-1.4-1.5-2.4-3.2-3.2-5.1c-0.8-1.9-1.1-4-1.1-6.2
			c0-2.3,0.4-4.4,1.2-6.4c0.8-2,1.9-3.7,3.3-5.2c1.4-1.5,3.1-2.6,5-3.5c1.9-0.8,4-1.3,6.3-1.3c1.2,0,2.4,0.2,3.6,0.5
			c1.2,0.3,2.4,0.8,3.4,1.5V73.8z"/>
		<path class="st0" d="M232.1,64.5V81c0,0.9,0.1,1.8,0.2,2.7c0.1,0.9,0.3,1.7,0.7,2.4c0.3,0.7,0.8,1.3,1.5,1.8
			c0.6,0.5,1.5,0.7,2.6,0.7c1.1,0,2-0.2,2.6-0.7c0.6-0.5,1.1-1.1,1.5-1.8c0.3-0.7,0.6-1.5,0.7-2.4c0.1-0.9,0.2-1.8,0.2-2.7V64.5h8.7
			v17.9c0,4.5-1.1,7.8-3.4,10.1c-2.3,2.3-5.7,3.4-10.2,3.4c-4.5,0-7.9-1.1-10.2-3.4c-2.3-2.3-3.4-5.6-3.4-10.1V64.5H232.1z"/>
		<path class="st0" d="M282.8,67.6V49.3h9.1v46.6h-9.1V75.1H266v20.8h-9.1V49.3h9.1v18.4H282.8z"/>
		<path class="st1" d="M303.1,49.3c1.3,0,2.4,0.5,3.3,1.4c0.9,0.9,1.4,2,1.4,3.3c0,1.3-0.5,2.4-1.4,3.3c-0.9,0.9-2,1.4-3.3,1.4
			c-1.3,0-2.4-0.5-3.4-1.4s-1.4-2-1.4-3.3c0-1.3,0.5-2.4,1.4-3.3C300.7,49.7,301.8,49.3,303.1,49.3z"/>
		<rect x="298.8" y="65.5" class="st0" width="8.7" height="30.4"/>
		<polygon class="st0" points="329.1,65.5 324.9,65.5 324.9,55.3 316.2,55.3 316.2,65.5 312.1,65.5 312.1,72.8 316.2,72.8 
			316.2,95.9 324.9,95.9 324.9,72.8 329.1,72.8 		"/>
	</g>
	<polygon class="st2" points="109.2,95.9 70.9,95.9 123.3,16.3 141.9,46.3 122.5,75.7 144.1,75.7 152.2,63.4 162.7,80.6 152.6,95.9 
		130.8,95.9 139.2,83.2 117.6,83.2 	"/>
</g>
</svg>
