<?xml version="1.0" encoding="utf-8"?>
<!-- Generator: Adobe Illustrator 28.0.0, SVG Export Plug-In . SVG Version: 6.00 Build 0)  -->
<svg version="1.1" id="圖層_1" xmlns="http://www.w3.org/2000/svg" xmlns:xlink="http://www.w3.org/1999/xlink" x="0px" y="0px"
	 viewBox="0 0 500 200" style="enable-background:new 0 0 500 200;" xml:space="preserve">
<style type="text/css">
	.st0{fill:#FFFFFF;}
	.st1{fill:#55C3C3;}
</style>
<g>
	<g>
		<path class="st0" d="M84.2,33.9h15.7v103.6H84.2V33.9z"/>
		<path class="st0" d="M242.8,33.9h36.2c13.7,0,24.9,6.1,31.6,17.5c5.1,8.7,5.5,12.7,5.5,34.3c0,23.3-1.2,27.4-5.8,34.6
			c-6.1,9.6-16.9,17.2-32.3,17.2h-35.2V33.9z M258.5,122.7h18.8c8.9,0,15.1-3.1,19.2-9c3.5-5.2,3.9-8.2,3.9-27.4
			c0-18.6-0.4-23.1-4.7-28.8c-4.8-6.6-10-8.7-18.5-8.7h-18.8V122.7z"/>
		<path class="st0" d="M391.2,114.4h-39.3l-8,23.1h-16.6L365,33.9h13.1l37.7,103.6h-16.6L391.2,114.4z M386.7,100.4l-15-45.3h-0.3
			l-15,45.3H386.7z"/>
		<g>
			<path class="st1" d="M173.2,54.7c-0.9,0.9-2.4,0.9-3.3,0l-9.3-9.3c-0.9-0.9-0.9-2.4,0-3.3l9.3-9.3c0.9-0.9,2.4-0.9,3.3,0l9.3,9.3
				c0.9,0.9,0.9,2.4,0,3.3L173.2,54.7z"/>
		</g>
		<g>
			<path class="st1" d="M125.7,59.2c0,0.2,0,0.4,0,0.6V59.2z"/>
			<path class="st1" d="M138.7,137.6c0.4,0,0.7,0,1,0H138.7z"/>
			<path class="st1" d="M201.9,46.3c0,0,0.1-0.1,0.1-0.1C202,46.2,201.9,46.2,201.9,46.3z"/>
			<path class="st1" d="M202.7,45.9L202.7,45.9L202.7,45.9z"/>
			<path class="st1" d="M140.6,137.4c-0.1,0-0.3,0.1-0.5,0.1C140.3,137.5,140.4,137.5,140.6,137.4z"/>
			<path class="st1" d="M125.7,60.4c0,0.1,0,0.1,0,0.1C125.8,60.5,125.7,60.5,125.7,60.4z"/>
			<path class="st1" d="M125.7,123.5c0,0.3,0,0.6,0,1V123.5z"/>
			<path class="st1" d="M202.3,137.4c0.2,0.1,0.5,0.1,0.8,0.2C202.8,137.5,202.5,137.5,202.3,137.4z"/>
			<path class="st1" d="M141.6,136.9c-0.2,0.2-0.4,0.3-0.6,0.4C141.1,137.2,141.4,137.1,141.6,136.9z"/>
			<path class="st1" d="M217.4,123.3v1.2C217.4,124.1,217.4,123.7,217.4,123.3z"/>
			<path class="st1" d="M204.4,137.6h-1.2C203.6,137.6,204,137.6,204.4,137.6z"/>
			<path class="st1" d="M200.8,135.3v-12c0-1.2,1-2.3,2.3-2.3h12c0.9,0,1.7,0.6,2.1,1.4c-0.1-0.3-0.3-0.5-0.5-0.8l-28.2-28.2
				c-0.9-0.9-0.9-2.4,0-3.3l28-28c0.1-0.1,0.1-0.1,0.2-0.2c-0.4,0.4-0.9,0.6-1.5,0.6h-12c-1.2,0-2.3-1-2.3-2.3v-12
				c0-0.6,0.2-1.1,0.6-1.5c0,0-0.1,0.1-0.1,0.1l-28.2,28.1c-0.9,0.9-2.4,0.9-3.3,0l-28.2-28.1c0,0-0.1,0-0.1-0.1
				c0.4,0.4,0.6,0.9,0.6,1.5l0,12c0,1.2-1,2.3-2.3,2.3h-12c-0.6,0-1.1-0.2-1.5-0.6c0,0,0,0,0,0.1l28.1,28.2c0.9,0.9,0.9,2.4,0,3.3
				l-28.2,28.2c-0.3,0.3-0.4,0.5-0.5,0.8c0.4-0.8,1.1-1.4,2.1-1.4h12c1.2,0,2.3,1,2.3,2.3l0,12c0,0.6-0.3,1.2-0.7,1.6
				c0,0,0.1,0,0.1-0.1l28.2-28.2c0.9-0.9,2.4-0.9,3.3,0l28.2,28.2c0.3,0.3,0.5,0.4,0.8,0.5C201.4,137,200.8,136.2,200.8,135.3z"/>
			<path class="st1" d="M217.2,122.4c0.1,0.3,0.2,0.6,0.2,0.9C217.4,122.9,217.3,122.7,217.2,122.4z"/>
			<path class="st1" d="M125.8,122.5c-0.1,0.2-0.1,0.4-0.1,0.7C125.7,123,125.8,122.7,125.8,122.5z"/>
		</g>
		<g>
			<path class="st0" d="M140,45.9h-12c-1.2,0-2.3,1-2.3,2.3v12c0,1.2,1,2.3,2.3,2.3h12c1.2,0,2.3-1,2.3-2.3l0-12
				C142.2,46.9,141.2,45.9,140,45.9z"/>
			<path class="st0" d="M215.1,45.9h-12c-1.2,0-2.3,1-2.3,2.3v12c0,1.2,1,2.3,2.3,2.3h12c1.2,0,2.3-1,2.3-2.3v-12
				C217.4,46.9,216.4,45.9,215.1,45.9z"/>
			<path class="st0" d="M140,121h-12c-1.2,0-2.3,1-2.3,2.3v12c0,1.2,1,2.3,2.3,2.3h12c1.2,0,2.3-1,2.3-2.3l0-12
				C142.2,122,141.2,121,140,121z"/>
			<path class="st0" d="M215.1,121h-12c-1.2,0-2.3,1-2.3,2.3v12c0,1.2,1,2.3,2.3,2.3h12c1.2,0,2.3-1,2.3-2.3v-12
				C217.4,122,216.4,121,215.1,121z"/>
		</g>
	</g>
	<g>
		<g>
			<path class="st0" d="M88.9,153.4h-4.6v-2.3h11.7v2.3h-4.6v14.5h-2.5V153.4z"/>
			<path class="st0" d="M155.4,164.2H149l-1.3,3.7h-2.7l6.1-16.8h2.1l6.1,16.8h-2.7L155.4,164.2z M154.7,161.9l-2.4-7.3h0l-2.4,7.3
				H154.7z"/>
			<path class="st0" d="M211.9,151.2h2.5v16.8h-2.5V151.2z"/>
			<path class="st0" d="M267.1,151.2h2.7l2.6,11.9h0l3.2-11.9h1.8l3.2,11.9h0l2.6-11.9h2.7l-4.2,16.8h-2.1l-3.2-12.1h0l-3.2,12.1
				h-2.1L267.1,151.2z"/>
			<path class="st0" d="M346.6,164.2h-6.4l-1.3,3.7h-2.7l6.1-16.8h2.1l6.1,16.8h-2.7L346.6,164.2z M345.9,161.9l-2.4-7.3h0l-2.4,7.3
				H345.9z"/>
			<path class="st0" d="M403.1,151.2h2.4l7.6,11.9h0v-11.9h2.5v16.8h-2.4l-7.6-11.9h0v11.9h-2.5V151.2z"/>
		</g>
	</g>
</g>
</svg>
