<?xml version="1.0" encoding="utf-8"?>
<!-- Generator: Adobe Illustrator 28.0.0, SVG Export Plug-In . SVG Version: 6.00 Build 0)  -->
<svg version="1.1" id="圖層_1" xmlns="http://www.w3.org/2000/svg" xmlns:xlink="http://www.w3.org/1999/xlink" x="0px" y="0px"
	 viewBox="0 0 500 200" style="enable-background:new 0 0 500 200;" xml:space="preserve">
<style type="text/css">
	.st0{fill:#FFFFFF;}
</style>
<g>
	<path class="st0" d="M295.9,143.3c-1.4,1.1-3.1,1.6-5.2,1.6c-1.3,0-2.5-0.2-3.5-0.7c-1-0.4-1.9-1.1-2.6-1.9c-0.7-0.8-1.3-1.8-1.6-3
		c-0.4-1.2-0.6-2.5-0.6-3.9c0-1.4,0.2-2.7,0.6-3.8c0.4-1.1,1-2.1,1.7-2.9c0.7-0.8,1.6-1.4,2.7-1.9c1-0.4,2.2-0.6,3.5-0.6
		c2,0,3.7,0.5,5,1.6c1.3,1.1,2.2,2.7,2.6,4.7h-3c-0.3-1.2-0.8-2.2-1.7-2.8c-0.8-0.6-1.8-0.9-3-0.9c-0.7,0-1.4,0.1-2,0.4
		c-0.6,0.3-1.2,0.7-1.6,1.3c-0.5,0.6-0.8,1.3-1.1,2.1c-0.3,0.8-0.4,1.8-0.4,2.9c0,1.1,0.1,2.1,0.4,2.9c0.3,0.8,0.6,1.6,1.1,2.1
		c0.5,0.6,1,1,1.6,1.3c0.6,0.3,1.3,0.4,2,0.4c1.2,0,2.3-0.3,3.1-0.9c0.8-0.6,1.4-1.6,1.7-2.8h3C298.1,140.7,297.2,142.2,295.9,143.3
		"/>
	<path class="st0" d="M309,131.4c0.8,0.3,1.5,0.7,2.1,1.3c0.6,0.6,1.1,1.3,1.5,2.2c0.4,0.9,0.6,1.9,0.6,3.1c0,1.2-0.2,2.3-0.6,3.1
		c-0.4,0.9-0.9,1.6-1.5,2.2c-0.6,0.6-1.3,1-2.1,1.3c-0.8,0.3-1.6,0.4-2.4,0.4c-0.8,0-1.6-0.1-2.4-0.4c-0.8-0.3-1.5-0.7-2.1-1.3
		c-0.6-0.6-1.1-1.3-1.5-2.2c-0.4-0.9-0.6-1.9-0.6-3.1c0-1.2,0.2-2.3,0.6-3.1c0.4-0.9,0.9-1.6,1.5-2.2c0.6-0.6,1.3-1,2.1-1.3
		c0.8-0.3,1.6-0.4,2.4-0.4C307.4,130.9,308.2,131.1,309,131.4 M303.3,140c0.2,0.6,0.4,1,0.8,1.4c0.3,0.4,0.7,0.7,1.1,0.8
		c0.4,0.2,0.9,0.3,1.3,0.3c0.5,0,0.9-0.1,1.3-0.3c0.4-0.2,0.8-0.5,1.1-0.8c0.3-0.4,0.6-0.8,0.8-1.4c0.2-0.6,0.3-1.3,0.3-2
		c0-0.8-0.1-1.4-0.3-2c-0.2-0.6-0.4-1.1-0.8-1.4c-0.3-0.4-0.7-0.7-1.1-0.9c-0.4-0.2-0.9-0.3-1.3-0.3c-0.5,0-0.9,0.1-1.3,0.3
		c-0.4,0.2-0.8,0.5-1.1,0.9c-0.3,0.4-0.6,0.9-0.8,1.4c-0.2,0.6-0.3,1.3-0.3,2C303,138.7,303.1,139.4,303.3,140"/>
	<path class="st0" d="M315.1,144.7v-13.4h3v1.9c0.4-0.7,0.9-1.2,1.6-1.6c0.7-0.4,1.4-0.6,2.3-0.6c1,0,1.9,0.2,2.5,0.6
		c0.6,0.4,1.1,1,1.4,1.7c0.6-0.8,1.2-1.5,2-1.8c0.7-0.4,1.5-0.5,2.4-0.5c0.8,0,1.5,0.1,2,0.4c0.6,0.3,1,0.6,1.4,1.1
		c0.4,0.5,0.6,1,0.8,1.7c0.2,0.7,0.2,1.4,0.2,2.2v8.4h-3v-7.7c0-0.4,0-0.9-0.1-1.3c0-0.4-0.1-0.8-0.3-1.2c-0.2-0.3-0.4-0.6-0.7-0.8
		c-0.3-0.2-0.7-0.3-1.3-0.3c-0.5,0-1,0.1-1.4,0.3c-0.4,0.2-0.7,0.5-0.9,0.9c-0.2,0.4-0.4,0.8-0.5,1.3c-0.1,0.5-0.2,1.1-0.2,1.7v7.1
		h-3v-7.7c0-0.4,0-0.9-0.1-1.3c0-0.4-0.1-0.8-0.3-1.2c-0.2-0.3-0.4-0.6-0.7-0.8c-0.3-0.2-0.8-0.3-1.3-0.3c-0.6,0-1,0.1-1.4,0.3
		c-0.4,0.2-0.7,0.5-0.9,0.9c-0.2,0.4-0.4,0.8-0.5,1.3c-0.1,0.5-0.1,1.1-0.1,1.7v7.1H315.1z"/>
	<path class="st0" d="M337.3,144.7v-13.4h3v1.9c0.4-0.7,0.9-1.2,1.6-1.6c0.7-0.4,1.4-0.6,2.3-0.6c1.1,0,1.9,0.2,2.5,0.6
		c0.6,0.4,1.1,1,1.4,1.7c0.6-0.8,1.2-1.5,2-1.8c0.7-0.4,1.5-0.5,2.4-0.5c0.8,0,1.5,0.1,2,0.4c0.6,0.3,1,0.6,1.4,1.1
		c0.3,0.5,0.6,1,0.8,1.7c0.2,0.7,0.2,1.4,0.2,2.2v8.4h-3v-7.7c0-0.4,0-0.9-0.1-1.3c0-0.4-0.1-0.8-0.3-1.2c-0.2-0.3-0.4-0.6-0.7-0.8
		c-0.3-0.2-0.7-0.3-1.3-0.3c-0.5,0-1,0.1-1.4,0.3c-0.4,0.2-0.7,0.5-0.9,0.9c-0.2,0.4-0.4,0.8-0.5,1.3c-0.1,0.5-0.2,1.1-0.2,1.7v7.1
		h-3v-7.7c0-0.4,0-0.9-0.1-1.3c0-0.4-0.1-0.8-0.3-1.2c-0.2-0.3-0.4-0.6-0.7-0.8c-0.3-0.2-0.7-0.3-1.3-0.3s-1,0.1-1.4,0.3
		c-0.4,0.2-0.7,0.5-0.9,0.9c-0.2,0.4-0.4,0.8-0.5,1.3c-0.1,0.5-0.2,1.1-0.2,1.7v7.1H337.3z"/>
	<path class="st0" d="M366.1,144.4c-0.7,0.4-1.5,0.6-2.4,0.6c-0.8,0-1.5-0.1-2-0.4c-0.6-0.2-1-0.6-1.4-1.1c-0.4-0.5-0.6-1-0.8-1.7
		c-0.2-0.6-0.3-1.4-0.3-2.2v-8.5h3v7.7c0,0.4,0,0.9,0.1,1.3c0.1,0.4,0.2,0.8,0.3,1.2c0.2,0.3,0.4,0.6,0.7,0.8
		c0.3,0.2,0.8,0.3,1.3,0.3c0.6,0,1-0.1,1.4-0.3c0.4-0.2,0.7-0.5,0.9-0.9c0.2-0.4,0.4-0.8,0.5-1.3c0.1-0.5,0.2-1.1,0.2-1.7v-7.2h3
		v13.4h-3v-1.8C367.3,143.5,366.7,144,366.1,144.4"/>
	<path class="st0" d="M378,131.5c0.7-0.4,1.5-0.6,2.5-0.6c0.8,0,1.5,0.1,2.1,0.4c0.6,0.2,1,0.6,1.4,1.1c0.4,0.5,0.6,1,0.8,1.7
		c0.2,0.6,0.3,1.4,0.3,2.2v8.4h-3v-7.7c0-0.4,0-0.9-0.1-1.3c0-0.4-0.2-0.8-0.3-1.2c-0.2-0.3-0.4-0.6-0.8-0.8
		c-0.3-0.2-0.8-0.3-1.4-0.3c-0.6,0-1,0.1-1.4,0.3c-0.4,0.2-0.7,0.5-1,0.9c-0.3,0.4-0.4,0.8-0.5,1.3c-0.1,0.5-0.2,1.1-0.2,1.7v7.1h-3
		v-13.4h3v1.9C376.8,132.4,377.4,131.9,378,131.5"/>
	<path class="st0" d="M390.6,129.6h-3v-3h3V129.6z M390.6,144.7h-3v-13.4h3V144.7z"/>
	<path class="st0" d="M401.2,131.3c0.7,0.2,1.3,0.6,1.8,1c0.5,0.4,1,0.9,1.3,1.5c0.4,0.6,0.6,1.3,0.8,2h-2.9c-0.1-0.7-0.5-1.3-1-1.7
		c-0.6-0.4-1.3-0.7-2.1-0.7c-0.5,0-0.9,0.1-1.3,0.3c-0.4,0.2-0.8,0.4-1.1,0.8c-0.3,0.4-0.6,0.8-0.8,1.4c-0.2,0.6-0.3,1.2-0.3,2
		c0,0.8,0.1,1.5,0.3,2.1c0.2,0.6,0.4,1,0.8,1.4c0.3,0.4,0.7,0.6,1.1,0.8c0.4,0.2,0.8,0.3,1.3,0.3c0.4,0,0.7,0,1.1-0.1
		c0.3-0.1,0.7-0.2,1-0.4c0.3-0.2,0.6-0.5,0.8-0.8c0.2-0.3,0.4-0.7,0.5-1.1h2.9c-0.1,0.8-0.4,1.5-0.8,2.1c-0.4,0.6-0.9,1.1-1.4,1.5
		c-0.6,0.4-1.2,0.7-1.9,0.9c-0.7,0.2-1.4,0.3-2.1,0.3c-1,0-1.9-0.2-2.7-0.5c-0.8-0.4-1.5-0.8-2-1.5c-0.6-0.6-1-1.4-1.3-2.2
		c-0.3-0.9-0.5-1.8-0.5-2.8c0-1,0.2-1.9,0.5-2.8c0.3-0.9,0.8-1.6,1.3-2.2c0.6-0.6,1.3-1.1,2.1-1.5c0.8-0.4,1.7-0.5,2.7-0.5
		C399.9,130.9,400.6,131,401.2,131.3"/>
	<path class="st0" d="M409.1,144.7c-0.6-0.2-1.1-0.5-1.6-0.8c-0.4-0.3-0.8-0.8-1-1.3c-0.2-0.5-0.4-1-0.4-1.7c0-0.8,0.2-1.5,0.7-2.1
		c0.5-0.5,1.1-1,2-1.3c0.8-0.4,1.8-0.6,2.9-0.8c1.1-0.2,2.2-0.3,3.5-0.5V136c0-0.6-0.1-1-0.2-1.4c-0.2-0.4-0.4-0.7-0.6-0.9
		c-0.3-0.2-0.6-0.4-0.9-0.5c-0.3-0.1-0.7-0.1-1.1-0.1c-0.8,0-1.4,0.2-1.9,0.6c-0.5,0.4-0.8,1-0.8,1.8h-2.9c0-0.7,0.2-1.3,0.5-1.9
		c0.3-0.6,0.7-1.1,1.2-1.5c0.5-0.4,1.1-0.7,1.8-0.9c0.7-0.2,1.4-0.3,2.2-0.3c0.8,0,1.5,0.1,2.2,0.3c0.7,0.2,1.3,0.5,1.8,1
		c0.5,0.4,0.9,1,1.2,1.8c0.3,0.7,0.4,1.6,0.4,2.7c0,0.2,0,0.4,0,0.6c0,0.3,0,0.6,0,0.9c0,0.3,0,0.6,0,1c0,0.3,0,0.7,0,1
		c0,0.8,0,1.7,0.1,2.5c0.1,0.8,0.2,1.5,0.3,2.1h-2.7c0-0.3-0.1-0.5-0.1-0.8c0-0.2-0.1-0.6-0.1-1c-0.4,0.7-1,1.3-1.8,1.6
		c-0.8,0.3-1.6,0.5-2.6,0.5C410.3,145,409.7,144.9,409.1,144.7 M412.5,138.7c-0.7,0.1-1.4,0.3-1.8,0.5c-0.5,0.2-0.8,0.4-1.1,0.7
		c-0.2,0.3-0.3,0.6-0.3,1c0,0.6,0.2,1,0.7,1.4c0.4,0.3,1,0.5,1.8,0.5c1.1,0,2-0.3,2.6-0.8c0.6-0.6,0.9-1.4,0.9-2.6v-1
		C414.2,138.4,413.2,138.6,412.5,138.7"/>
	<path class="st0" d="M424,127.7v3.5h2.7v2.1H424v7.3c0,0.7,0.1,1.1,0.3,1.4c0.2,0.2,0.6,0.3,1.3,0.3h1.1v2.3h-2.2
		c-0.7,0-1.3-0.1-1.7-0.2c-0.4-0.1-0.8-0.3-1-0.6c-0.2-0.3-0.4-0.6-0.5-1.1c-0.1-0.5-0.1-1-0.1-1.7v-7.8h-2v-2.1h2v-3.5H424z"/>
	<path class="st0" d="M431.6,129.6h-3v-3h3V129.6z M431.6,144.7h-3v-13.4h3V144.7z"/>
	<path class="st0" d="M442.5,131.4c0.8,0.3,1.5,0.7,2.1,1.3c0.6,0.6,1.1,1.3,1.5,2.2c0.4,0.9,0.6,1.9,0.6,3.1c0,1.2-0.2,2.3-0.6,3.1
		c-0.4,0.9-0.9,1.6-1.5,2.2c-0.6,0.6-1.3,1-2.1,1.3c-0.8,0.3-1.6,0.4-2.4,0.4c-0.8,0-1.6-0.1-2.4-0.4c-0.8-0.3-1.5-0.7-2.1-1.3
		c-0.6-0.6-1.1-1.3-1.5-2.2c-0.4-0.9-0.6-1.9-0.6-3.1c0-1.2,0.2-2.3,0.6-3.1c0.4-0.9,0.9-1.6,1.5-2.2c0.6-0.6,1.3-1,2.1-1.3
		c0.8-0.3,1.6-0.4,2.4-0.4C440.9,130.9,441.7,131.1,442.5,131.4 M436.9,140c0.2,0.6,0.4,1,0.8,1.4c0.3,0.4,0.7,0.7,1.1,0.8
		c0.4,0.2,0.9,0.3,1.3,0.3c0.5,0,0.9-0.1,1.3-0.3c0.4-0.2,0.8-0.5,1.1-0.8c0.3-0.4,0.6-0.8,0.8-1.4c0.2-0.6,0.3-1.3,0.3-2
		c0-0.8-0.1-1.4-0.3-2c-0.2-0.6-0.4-1.1-0.8-1.4c-0.3-0.4-0.7-0.7-1.1-0.9c-0.4-0.2-0.9-0.3-1.3-0.3c-0.5,0-0.9,0.1-1.3,0.3
		c-0.4,0.2-0.8,0.5-1.1,0.9c-0.3,0.4-0.6,0.9-0.8,1.4c-0.2,0.6-0.3,1.3-0.3,2C436.6,138.7,436.7,139.4,436.9,140"/>
	<path class="st0" d="M453.2,131.5c0.7-0.4,1.5-0.6,2.5-0.6c0.8,0,1.5,0.1,2.1,0.4c0.6,0.2,1,0.6,1.4,1.1c0.4,0.5,0.6,1,0.8,1.7
		c0.2,0.6,0.3,1.4,0.3,2.2v8.4h-3v-7.7c0-0.4,0-0.9-0.1-1.3c-0.1-0.4-0.2-0.8-0.3-1.2c-0.2-0.3-0.4-0.6-0.8-0.8
		c-0.3-0.2-0.8-0.3-1.4-0.3c-0.6,0-1,0.1-1.4,0.3c-0.4,0.2-0.7,0.5-1,0.9c-0.3,0.4-0.4,0.8-0.5,1.3c-0.1,0.5-0.2,1.1-0.2,1.7v7.1h-3
		v-13.4h3v1.9C452,132.4,452.5,131.9,453.2,131.5"/>
	<path class="st0" d="M469.5,133.6c-0.5-0.3-1.2-0.4-1.9-0.4c-0.6,0-1.2,0.1-1.7,0.4c-0.5,0.3-0.8,0.6-0.8,1.1c0,0.4,0.2,0.8,0.5,1
		c0.3,0.2,0.8,0.4,1.3,0.5l1.9,0.4c0.7,0.1,1.3,0.3,1.9,0.5c0.6,0.2,1.1,0.4,1.5,0.7c0.4,0.3,0.8,0.7,1,1.1c0.2,0.4,0.4,1,0.4,1.6
		c0,0.7-0.2,1.3-0.5,1.9c-0.3,0.5-0.7,1-1.2,1.4c-0.5,0.4-1.1,0.6-1.8,0.8c-0.7,0.2-1.4,0.3-2.2,0.3c-0.8,0-1.6-0.1-2.3-0.3
		c-0.7-0.2-1.3-0.5-1.8-0.9c-0.5-0.4-0.9-0.9-1.2-1.4c-0.3-0.5-0.5-1.1-0.6-1.8h2.9c0.1,0.7,0.4,1.2,0.9,1.6
		c0.5,0.4,1.2,0.6,2.1,0.6c0.8,0,1.4-0.2,1.9-0.5c0.5-0.3,0.8-0.7,0.8-1.3s-0.2-1-0.7-1.2c-0.4-0.3-1-0.5-1.7-0.6l-2-0.4
		c-0.6-0.1-1.1-0.3-1.6-0.5c-0.5-0.2-0.9-0.4-1.3-0.7c-0.4-0.3-0.7-0.7-0.9-1.1c-0.2-0.4-0.3-1-0.3-1.6c0-0.6,0.1-1.1,0.4-1.6
		c0.3-0.5,0.7-0.9,1.2-1.2c0.5-0.3,1.1-0.6,1.7-0.8c0.7-0.2,1.4-0.3,2.1-0.3c0.6,0,1.3,0.1,1.9,0.2c0.6,0.2,1.2,0.4,1.7,0.7
		c0.5,0.3,0.9,0.7,1.3,1.2c0.4,0.5,0.6,1.1,0.7,1.7h-2.8C470.3,134.3,470,133.8,469.5,133.6"/>
	<polygon class="st0" points="116.3,116.9 129.9,97.8 142.5,97.8 128.3,117.3 148.5,145.3 136.2,145.3 121.3,124.7 116.3,130.1 
		116.3,145.3 105.8,145.3 105.8,81.3 116.3,81.3 	"/>
	<rect x="149.7" y="81.3" class="st0" width="10.5" height="64"/>
	<path class="st0" d="M179,91.9h-10.5V81.3H179V91.9z M179,145.3h-10.5V97.8H179V145.3z"/>
	<path class="st0" d="M215.1,98c2.4,0.8,4.5,2,6.4,3.5c1.9,1.5,3.5,3.3,4.8,5.4c1.3,2.1,2.2,4.5,2.6,7.1h-10.2
		c-0.5-2.5-1.7-4.6-3.7-6.2c-2-1.6-4.4-2.4-7.3-2.4c-1.6,0-3.2,0.3-4.7,0.9c-1.5,0.6-2.8,1.6-4,2.9c-1.1,1.3-2.1,3-2.7,5
		c-0.7,2-1,4.4-1,7.2c0,2.8,0.3,5.2,1,7.3c0.7,2,1.6,3.7,2.7,5c1.1,1.3,2.5,2.3,3.9,2.9c1.5,0.6,3,0.9,4.5,0.9
		c1.3,0,2.6-0.1,3.8-0.4c1.2-0.3,2.4-0.8,3.4-1.5c1.1-0.7,2-1.6,2.7-2.7c0.8-1.1,1.3-2.4,1.7-4h10.2c-0.5,2.8-1.5,5.2-2.9,7.4
		c-1.4,2.2-3.1,4-5.1,5.5c-2,1.5-4.2,2.6-6.6,3.4c-2.4,0.8-4.9,1.1-7.4,1.1c-3.5,0-6.6-0.6-9.4-1.9c-2.8-1.3-5.2-3-7.2-5.2
		c-2-2.2-3.5-4.8-4.6-7.9c-1.1-3-1.6-6.3-1.6-9.8c0-3.5,0.5-6.8,1.6-9.8c1.1-3,2.6-5.7,4.7-7.9c2-2.2,4.5-4,7.4-5.2
		c2.9-1.3,6.1-1.9,9.6-1.9C210.3,96.8,212.8,97.2,215.1,98"/>
	<polygon class="st0" points="244.4,116.9 259.1,98.5 271.7,98.5 256.4,117.3 276.6,145.3 264.4,145.3 249.5,124.7 244.4,130.1 
		244.4,145.3 233.9,145.3 233.9,81.3 244.4,81.3 	"/>
	<polygon class="st0" points="298.6,53.4 309,53.4 309,117.4 298.6,117.4 298.6,102.2 293.5,96.8 278.6,117.4 266.4,117.4 
		286.6,89.4 272.3,69.9 284.9,69.9 298.6,89 	"/>
	<rect x="317.9" y="53.6" class="st0" width="10.5" height="64"/>
	<path class="st0" d="M344,117.7c-2.1-0.7-4-1.6-5.6-2.9c-1.6-1.2-2.8-2.7-3.6-4.5c-0.9-1.7-1.3-3.7-1.3-5.9c0-2.9,0.9-5.4,2.6-7.3
		c1.7-1.9,4-3.5,6.9-4.8c2.9-1.2,6.3-2.2,10.1-2.8c3.9-0.6,8-1.2,12.3-1.7v-0.9c0-2-0.3-3.7-0.8-5.1c-0.5-1.4-1.3-2.5-2.2-3.3
		c-0.9-0.8-2-1.4-3.2-1.7c-1.2-0.4-2.5-0.5-3.7-0.5c-2.6,0-4.9,0.7-6.7,2.1c-1.8,1.4-2.8,3.6-2.9,6.4h-10.3c0.2-2.4,0.8-4.6,1.9-6.6
		c1.1-2,2.5-3.7,4.2-5.2c1.8-1.4,3.8-2.6,6.2-3.4c2.4-0.8,5-1.2,7.9-1.2c2.8,0,5.5,0.4,7.9,1.1c2.5,0.7,4.6,1.9,6.4,3.4
		c1.8,1.6,3.2,3.7,4.2,6.3c1,2.6,1.5,5.8,1.4,9.6c0,0.6,0,1.4,0,2.3c0,0.9,0,2,0,3.1c0,1.1,0,2.3,0,3.5c0,1.2,0,2.3,0,3.4
		c0,3,0.1,6,0.4,8.9c0.2,2.9,0.6,5.4,1.1,7.4h-9.6c-0.2-1-0.3-1.9-0.5-2.7c-0.1-0.8-0.3-2.1-0.4-3.7c-1.5,2.6-3.6,4.5-6.3,5.7
		c-2.7,1.2-5.8,1.9-9.3,1.9C348.5,118.7,346.1,118.4,344,117.7 M356.1,96.5c-2.6,0.5-4.8,1.1-6.5,1.8c-1.7,0.7-3,1.5-3.7,2.5
		c-0.8,1-1.2,2.1-1.2,3.5c0,2.1,0.8,3.7,2.4,4.9c1.6,1.2,3.7,1.8,6.4,1.8c3.9,0,6.9-1,9.1-3c2.2-2,3.3-5,3.3-9v-3.6
		C362,95.6,358.8,96,356.1,96.5"/>
	<path class="st0" d="M411.7,70.3c2.4,0.8,4.5,2,6.4,3.5c1.9,1.5,3.5,3.3,4.8,5.4c1.3,2.1,2.2,4.5,2.6,7.1h-10.2
		c-0.5-2.5-1.7-4.6-3.7-6.2c-2-1.6-4.4-2.4-7.3-2.4c-1.6,0-3.2,0.3-4.7,0.9c-1.5,0.6-2.8,1.6-4,2.9c-1.1,1.3-2.1,3-2.7,5
		c-0.7,2-1,4.4-1,7.2c0,2.8,0.3,5.2,1,7.3c0.7,2,1.6,3.7,2.7,5c1.1,1.3,2.5,2.3,3.9,2.9c1.5,0.6,3,0.9,4.5,0.9
		c1.3,0,2.6-0.1,3.8-0.4c1.2-0.3,2.4-0.8,3.4-1.5c1.1-0.7,2-1.6,2.7-2.7c0.8-1.1,1.3-2.4,1.7-4h10.2c-0.5,2.8-1.5,5.2-2.9,7.4
		c-1.4,2.2-3.1,4-5.1,5.5c-2,1.5-4.2,2.6-6.6,3.4c-2.4,0.8-4.9,1.1-7.4,1.1c-3.5,0-6.6-0.6-9.4-1.9c-2.8-1.3-5.2-3-7.2-5.2
		c-2-2.2-3.5-4.8-4.6-7.9c-1.1-3-1.6-6.3-1.6-9.8c0-3.5,0.5-6.8,1.6-9.8c1.1-3,2.6-5.7,4.7-7.9c2-2.2,4.5-4,7.4-5.2
		c2.9-1.3,6.1-1.9,9.6-1.9C406.8,69.1,409.3,69.5,411.7,70.3"/>
	<polygon class="st0" points="441.3,89.2 458.8,70.1 471.4,70.1 453.3,89.6 473.5,117.6 461.2,117.6 446.3,97 441.3,102.4 
		441.3,117.6 430.8,117.6 430.8,53.6 441.3,53.6 	"/>
	<path class="st0" d="M60.4,146.6c-18.7,0-33.9-15.2-33.9-33.9s15.2-33.9,33.9-33.9c18.7,0,33.9,15.2,33.9,33.9S79,146.6,60.4,146.6
		 M60.4,81.7c-17.1,0-31,13.9-31,31s13.9,31,31,31c17.1,0,31-13.9,31-31S77.4,81.7,60.4,81.7"/>
	<path class="st0" d="M60.4,135.4c-12.5,0-22.7-10.2-22.7-22.7c0-12.5,10.2-22.7,22.7-22.7C72.9,90,83,100.2,83,112.7
		C83,125.2,72.9,135.4,60.4,135.4 M60.4,92.9c-10.9,0-19.8,8.9-19.8,19.8c0,10.9,8.9,19.8,19.8,19.8c10.9,0,19.8-8.9,19.8-19.8
		C80.1,101.8,71.2,92.9,60.4,92.9"/>
	<path class="st0" d="M60.4,125.1c-6.8,0-12.4-5.6-12.4-12.4c0-6.8,5.6-12.4,12.4-12.4c6.8,0,12.4,5.6,12.4,12.4
		C72.7,119.5,67.2,125.1,60.4,125.1 M60.4,103.2c-5.2,0-9.5,4.2-9.5,9.5c0,5.2,4.2,9.5,9.5,9.5c5.2,0,9.5-4.2,9.5-9.5
		C69.8,107.5,65.6,103.2,60.4,103.2"/>
</g>
</svg>
