<?xml version="1.0" encoding="utf-8"?>
<!-- Generator: Adobe Illustrator 28.0.0, SVG Export Plug-In . SVG Version: 6.00 Build 0)  -->
<svg version="1.1" id="圖層_1" xmlns="http://www.w3.org/2000/svg" xmlns:xlink="http://www.w3.org/1999/xlink" x="0px" y="0px"
	 viewBox="0 0 400 136" style="enable-background:new 0 0 400 136;" xml:space="preserve">
<style type="text/css">
	.st0{fill:#E8A900;}
	.st1{fill:#00226D;}
	.st2{fill:#231815;}
</style>
<g>
	<g>
		<g>
			<g>
				<g>
					<path class="st0" d="M187.1,51.6V40.4c0-7.4,3.5-13.9,8.6-16.2v-1.3c-6.6,1.6-11.8,6.9-13.3,13.6l0,0c-0.6,2.4-0.9,5.2-0.9,9.5
						s0.2,7.1,0.9,9.5l0,0c1.8,8,9,14.1,17.7,14.1v-5.1C192.9,64.5,187.1,58.7,187.1,51.6"/>
					<path class="st0" d="M218.5,46c0-4.3-0.2-7.1-0.9-9.5l0,0c-1.8-8-9-14.1-17.7-14.1v5.1c7.1,0,12.9,5.7,12.9,12.9v11.2
						c0,7.4-3.5,13.9-8.6,16.2v1.3c6.7-1.6,11.8-6.9,13.3-13.6l0,0C218.3,53.1,218.5,50.3,218.5,46"/>
					<path class="st0" d="M195.7,51.6L195.7,51.6v-9c0-2.3-1.9-4.3-4.3-4.3v4.3v9c0,4.7,3.9,8.6,8.6,8.6v-1.5
						C197.6,58.2,195.7,55.2,195.7,51.6"/>
					<path class="st0" d="M208.5,53.7V40.4c0-4.7-3.9-8.6-8.6-8.6v1.5c2.4,0.6,4.3,3.5,4.3,7.2v9C204.3,51.9,206.2,53.7,208.5,53.7"
						/>
				</g>
				<polygon class="st1" points="47.8,29.6 58.1,29.6 58.1,62 75.2,62 75.2,64.4 47.8,64.4 				"/>
				<path class="st1" d="M105.6,51.6v1.2H86.9c0.1,6.5,2.8,9.3,7.4,9.3c4.5,0,7.3-1.5,9.9-3.7l1.3,0.9c-2.2,2.6-5.6,5.5-12.8,5.5
					c-9.5,0-15.5-4.5-15.5-12.5c0-7.2,4.7-12.3,14.1-12.3C101.2,40,105.6,45,105.6,51.6 M86.9,51.1h9.4c-0.1-7.1-2.2-9.5-4.9-9.5
					C88.6,41.6,87,44.1,86.9,51.1"/>
				<path class="st1" d="M121.4,40.7h6.6v2.2h-6.6V58c0,4,1.6,4.7,3.3,4.7c1,0,2.7-0.2,3.8-1l0.7,1.3c-2.7,1.3-4,1.8-7.2,1.8
					c-7.1,0-10.4-2.4-10.4-8.3V42.9h-3.5v-2.2h3.5l7.9-8.5h1.9v8.5H121.4z"/>
				<polygon class="st1" points="132.8,38.1 136.3,29.6 146.4,29.6 134.4,38.1 				"/>
				<path class="st1" d="M159.2,42.7l-1,1.3c-1.9-1.1-5.1-1.6-7.8-1.6c-2.9,0-5.1,0.7-5.1,2.3c0,3,16.1,1.9,16.1,11.4
					c0,4.1-3.3,8.8-12.3,8.8c-4.6,0-8.4-1.1-11.4-3.7l1.1-1.1c1.8,1.3,5.5,2.6,9.6,2.6c3.9,0,6.5-1.2,6.5-3.2
					c0-4.3-16.1-2.2-16.1-11.9c0-4.7,4.3-7.6,11.1-7.6C153.8,40,156.6,41,159.2,42.7"/>
				<path class="st1" d="M259.8,62c2.7,0,5.1-0.6,7.6-2.1l0.9,1.2c-3.8,2.8-7.8,3.8-12.3,3.8c-11.4,0-19.7-6.6-19.7-17.9
					c0-11.2,8.2-17.9,20-17.9c5.8,0,8.8,1.6,11.7,3.9l-1.1,1.1c-2.4-1.6-5.1-2.1-7.4-2.1c-7.4,0-12.2,5.4-12.2,14.9
					C247.1,56.5,252.1,62,259.8,62"/>
				<path class="st1" d="M292,64.7l-1.7-3.5c-1.2,2.7-4.3,3.8-8.8,3.8c-7.4,0-9.9-3.3-9.9-6.6c0-4.9,4.9-7.2,16-7.2h2.3v-1
					c0-6.2-2.9-7.8-6.7-7.8c-3,0-5.4,1-7.1,2.4l-1.1-1.1c2.6-1.9,5.8-3.5,10.8-3.5c6.3,0,13.6,2.7,13.6,11.8v12.8H292V64.7z
					 M289.8,55.3v-2.6h-2.3c-3.7,0-6,1.6-6,5.7c0,2.6,1.1,4.1,3.4,4.1C287.3,62.5,289.8,60.9,289.8,55.3"/>
				<path class="st1" d="M316.6,35.2v5.5h5.6v2.2h-5.6v21.6h-9.9V42.9h-3.4v-2.2h3.4v-4.1c0-6,3.7-9.4,11.1-9.4
					c3.3,0,4.9,0.4,7.3,1.3l-0.6,1.3c-0.9-0.4-2.2-0.5-3.3-0.5C318.5,29.3,316.6,30.4,316.6,35.2"/>
				<path class="st1" d="M352.2,51.6v1.2h-18.8c0.1,6.5,2.8,9.3,7.4,9.3c4.5,0,7.3-1.5,9.9-3.7l1.3,0.9c-2.2,2.6-5.6,5.5-12.8,5.5
					c-9.5,0-15.5-4.5-15.5-12.5c0-7.2,4.7-12.3,14.1-12.3C348,40,352.2,45,352.2,51.6 M333.5,51.1h9.4c-0.1-7.1-2.2-9.5-4.9-9.5
					C335.3,41.6,333.7,44.1,333.5,51.1 M336.2,38.1l3.5-8.5h10.1l-12.1,8.5H336.2z"/>
			</g>
		</g>
		<g>
			<polygon class="st2" points="125.7,86.1 125.7,109.3 130.5,109.3 130.5,99.2 140.3,99.2 140.3,94.7 130.5,94.7 130.5,90.6 
				140.4,90.6 140.4,86.1 			"/>
			<path class="st2" d="M154.2,106.1c0-1.9,0-5.6,0-7.6c0-2.4-1.3-5.6-6.7-5.6c-2.2,0-3.9,0.5-5.1,1V98c1.3-0.9,2.8-1.3,4.5-1.3
				c1.5,0,2.9,0.5,2.9,2.2V99c-0.7-0.2-1.7-0.5-2.6-0.5c-3.8,0-6.5,1.9-6.5,5.7s3,5.2,5.5,5.2c1.6,0,2.9-0.5,3.8-1.2
				c0.1,0.5,0.2,0.9,0.4,1.1h4.9C154.7,108.9,154.2,107.9,154.2,106.1z M145.2,103.7c0-1.3,1.1-2.2,2.7-2.2c0.9,0,1.5,0.1,1.9,0.5
				c0,1,0,1.9,0,2.8c-0.5,0.4-1.2,0.9-2.3,0.9C146,105.7,145.2,105,145.2,103.7z"/>
			<path class="st2" d="M250.2,106.1c0-1.9,0-5.6,0-7.6c0-2.4-1.3-5.6-6.7-5.6c-2.2,0-3.9,0.5-5.1,1V98c1.3-0.9,2.8-1.3,4.5-1.3
				c1.5,0,2.9,0.5,2.9,2.2V99c-0.7-0.2-1.7-0.5-2.6-0.5c-3.8,0-6.5,1.9-6.5,5.7s3,5.2,5.5,5.2c1.6,0,2.8-0.5,3.8-1.2
				c0.1,0.5,0.2,0.9,0.4,1.1h4.9C250.7,108.9,250.2,107.9,250.2,106.1z M241.2,103.7c0-1.3,1.1-2.2,2.7-2.2c0.9,0,1.5,0.1,1.9,0.5
				c0,1,0,1.9,0,2.8c-0.5,0.4-1.2,0.9-2.3,0.9C242,105.7,241.2,105,241.2,103.7z"/>
			<path class="st2" d="M173.8,93c-1.9,0-3.3,0.5-4.6,1.8c-1-1.2-2.4-1.8-4.1-1.8c-1.5,0-2.8,0.4-4,1.5v-1.3h-4.1v16.2h4.4v-11
				c0.5-0.6,1.3-1.2,2.3-1.2c1.3,0,2.1,0.9,2.1,2.6v9.6h4.5V98.3c0.5-0.6,1.2-1.1,2.3-1.1c1.5,0,2.1,1,2.1,2.6v9.6h4.5V98.1
				C179.2,95.1,177.2,93,173.8,93z"/>
			<rect x="189.6" y="86.1" class="st2" width="4.4" height="23.3"/>
			<polygon class="st2" points="224,93.3 218.1,86.1 213.3,86.1 213.3,109.3 218.1,109.3 218.1,93.3 224,101.1 230,93.3 230,109.3 
				234.8,109.3 234.8,86.1 230,86.1 			"/>
			<rect x="182.2" y="93.2" class="st2" width="4.4" height="16.2"/>
			<path class="st2" d="M184.4,85.7c-1.6,0-2.9,1.3-2.9,2.9c0,1.6,1.3,2.9,2.9,2.9s2.9-1.3,2.9-2.9C187.2,87.1,186,85.7,184.4,85.7z
				"/>
			<path class="st2" d="M256.9,94.9v-1.7h-4.3v16.2h4.4V99.1c0.6-0.9,1.7-1.6,3.2-1.6c1.2,0,2.1,0.5,2.4,0.9v-4.9
				c-0.5-0.4-1.5-0.6-2.2-0.6C259.4,92.9,258,93.4,256.9,94.9z"/>
			<path class="st2" d="M272.3,105.2c-1.5,0-1.9-1.1-1.9-2.3v-5.5h3.8v-4.3h-3.8v-6.1l-4.4,1.8v4.3h-2.4v4.3h2.4v6.2
				c0,3.4,1.3,6,5.4,6c1.2,0,2.2-0.1,2.9-0.5v-4.5C273.9,105,273.3,105.2,272.3,105.2z"/>
			<polygon class="st2" points="199.4,113.6 204.4,113.6 211.9,93.2 207.1,93.2 204,101.9 200.6,93.2 195.6,93.2 201.7,107.9 			"/>
		</g>
	</g>
</g>
</svg>
