<?xml version="1.0" encoding="utf-8"?>
<!-- Generator: Adobe Illustrator 28.0.0, SVG Export Plug-In . SVG Version: 6.00 Build 0)  -->
<svg version="1.1" id="圖層_1" xmlns="http://www.w3.org/2000/svg" xmlns:xlink="http://www.w3.org/1999/xlink" x="0px" y="0px"
	 viewBox="0 0 500 200" style="enable-background:new 0 0 500 200;" xml:space="preserve">
<style type="text/css">
	.st0{fill:#FFFFFF;}
	.st1{fill:#D9382B;}
</style>
<g>
	<g>
		<path class="st0" d="M106.8,133.9v-10h3l1.8,6.8l1.8-6.8h3v10h-1.9v-7.8l-2,7.8h-1.9l-2-7.8v7.8H106.8z"/>
		<path class="st0" d="M118.4,133.9v-10h7.4v1.7h-5.4v2.2h5v1.7h-5v2.7h5.6v1.7L118.4,133.9L118.4,133.9z"/>
		<path class="st0" d="M127.7,124h3.7c0.8,0,1.5,0.1,1.9,0.2c0.6,0.2,1.1,0.5,1.5,0.9s0.7,1,1,1.6c0.2,0.6,0.3,1.4,0.3,2.4
			c0,0.8-0.1,1.5-0.3,2.1c-0.2,0.7-0.6,1.3-1.1,1.8c-0.4,0.3-0.8,0.6-1.4,0.8c-0.4,0.1-1,0.2-1.8,0.2h-3.8L127.7,124L127.7,124z
			 M129.7,125.7v6.6h1.5c0.6,0,1,0,1.2-0.1c0.3-0.1,0.6-0.2,0.8-0.4s0.4-0.5,0.5-1c0.1-0.4,0.2-1.1,0.2-1.8c0-0.8-0.1-1.4-0.2-1.8
			c-0.1-0.4-0.3-0.7-0.6-1c-0.2-0.2-0.6-0.4-0.9-0.5c-0.3-0.1-0.8-0.1-1.7-0.1L129.7,125.7L129.7,125.7z"/>
		<path class="st0" d="M137.7,133.9v-10h2v10H137.7z"/>
		<path class="st0" d="M150.6,133.9h-2.2l-0.9-2.3h-4l-0.8,2.3h-2.1l3.9-10h2.1L150.6,133.9z M146.9,130l-1.4-3.7l-1.3,3.7H146.9z"
			/>
		<path class="st0" d="M155,124h4c0.8,0,1.4,0,1.8,0.1c0.4,0.1,0.7,0.2,1,0.4c0.3,0.2,0.6,0.5,0.8,0.8s0.3,0.7,0.3,1.2
			s-0.1,0.9-0.4,1.3c-0.2,0.4-0.6,0.7-1,0.9c0.6,0.2,1.1,0.5,1.4,0.9s0.5,0.9,0.5,1.5c0,0.5-0.1,0.9-0.3,1.3c-0.2,0.4-0.5,0.8-0.9,1
			c-0.4,0.3-0.8,0.4-1.3,0.5c-0.3,0-1.1,0.1-2.4,0.1H155V124z M157,125.6v2.3h1.3c0.8,0,1.3,0,1.5,0c0.3,0,0.6-0.2,0.8-0.4
			c0.2-0.2,0.3-0.5,0.3-0.8s-0.1-0.6-0.3-0.8c-0.2-0.2-0.4-0.3-0.8-0.4c-0.2,0-0.8,0-1.7,0H157V125.6z M157,129.6v2.7h1.9
			c0.7,0,1.2,0,1.4-0.1c0.3-0.1,0.5-0.2,0.7-0.4s0.3-0.5,0.3-0.8s-0.1-0.6-0.2-0.8c-0.1-0.2-0.4-0.4-0.6-0.5s-0.9-0.1-1.8-0.1
			L157,129.6L157,129.6z"/>
		<path class="st0" d="M165.1,124h2v5.4c0,0.9,0,1.4,0.1,1.7c0.1,0.4,0.3,0.7,0.6,1c0.3,0.2,0.8,0.4,1.3,0.4c0.6,0,1-0.1,1.3-0.4
			c0.3-0.2,0.5-0.5,0.5-0.9c0.1-0.3,0.1-0.9,0.1-1.7V124h2v5.2c0,1.2-0.1,2-0.2,2.5c-0.1,0.5-0.3,0.9-0.6,1.2s-0.7,0.6-1.2,0.8
			s-1.1,0.3-1.9,0.3c-1,0-1.7-0.1-2.2-0.3s-0.9-0.5-1.2-0.9s-0.5-0.7-0.6-1.1c-0.1-0.6-0.2-1.4-0.2-2.5V124H165.1z"/>
		<path class="st0" d="M174.6,130.7l2-0.2c0.1,0.7,0.4,1.1,0.7,1.4c0.4,0.3,0.8,0.5,1.5,0.5c0.6,0,1.1-0.1,1.5-0.4s0.5-0.6,0.5-1
			c0-0.2-0.1-0.4-0.2-0.6c-0.1-0.2-0.4-0.3-0.7-0.4c-0.2-0.1-0.8-0.2-1.6-0.4c-1.1-0.3-1.8-0.6-2.3-1c-0.6-0.5-0.9-1.2-0.9-2
			c0-0.5,0.1-1,0.4-1.4c0.3-0.4,0.7-0.8,1.2-1s1.2-0.3,2-0.3c1.3,0,2.2,0.3,2.8,0.8s1,1.3,1,2.2l-2,0.1c-0.1-0.5-0.3-0.9-0.6-1.1
			s-0.7-0.3-1.3-0.3s-1,0.1-1.4,0.4c-0.2,0.2-0.3,0.4-0.3,0.6s0.1,0.4,0.3,0.6c0.3,0.2,0.9,0.4,1.8,0.7c1,0.2,1.7,0.5,2.2,0.7
			s0.8,0.6,1.1,1s0.4,1,0.4,1.6s-0.2,1.1-0.5,1.6s-0.8,0.9-1.3,1.1c-0.6,0.2-1.3,0.4-2.2,0.4c-1.3,0-2.2-0.3-2.9-0.9
			C175.2,132.7,174.8,131.8,174.6,130.7z"/>
		<path class="st0" d="M184.4,133.9v-10h2v10H184.4z"/>
		<path class="st0" d="M188.3,133.9v-10h2l4.1,6.7V124h1.9v10h-2l-4-6.5v6.5h-2V133.9z"/>
		<path class="st0" d="M198.3,133.9v-10h7.4v1.7h-5.4v2.2h5v1.7h-5v2.7h5.6v1.7L198.3,133.9L198.3,133.9z"/>
		<path class="st0" d="M207.1,130.7l2-0.2c0.1,0.7,0.4,1.1,0.7,1.4c0.4,0.3,0.8,0.5,1.5,0.5c0.6,0,1.1-0.1,1.5-0.4s0.5-0.6,0.5-1
			c0-0.2-0.1-0.4-0.2-0.6c-0.1-0.2-0.4-0.3-0.7-0.4c-0.2-0.1-0.8-0.2-1.6-0.4c-1.1-0.3-1.8-0.6-2.3-1c-0.6-0.5-0.9-1.2-0.9-2
			c0-0.5,0.1-1,0.4-1.4c0.3-0.4,0.7-0.8,1.2-1s1.2-0.3,2-0.3c1.3,0,2.2,0.3,2.8,0.8s1,1.3,1,2.2l-2,0.1c-0.1-0.5-0.3-0.9-0.6-1.1
			s-0.7-0.3-1.3-0.3s-1,0.1-1.4,0.4c-0.2,0.2-0.3,0.4-0.3,0.6s0.1,0.4,0.3,0.6c0.3,0.2,0.9,0.4,1.8,0.7c1,0.2,1.7,0.5,2.2,0.7
			s0.8,0.6,1.1,1s0.4,1,0.4,1.6s-0.2,1.1-0.5,1.6s-0.8,0.9-1.3,1.1c-0.6,0.2-1.3,0.4-2.2,0.4c-1.3,0-2.2-0.3-2.9-0.9
			C207.7,132.7,207.3,131.8,207.1,130.7z"/>
		<path class="st0" d="M216.4,130.7l2-0.2c0.1,0.7,0.4,1.1,0.7,1.4c0.4,0.3,0.8,0.5,1.5,0.5c0.6,0,1.1-0.1,1.5-0.4s0.5-0.6,0.5-1
			c0-0.2-0.1-0.4-0.2-0.6c-0.1-0.2-0.4-0.3-0.7-0.4c-0.2-0.1-0.8-0.2-1.6-0.4c-1.1-0.3-1.8-0.6-2.3-1c-0.6-0.5-0.9-1.2-0.9-2
			c0-0.5,0.1-1,0.4-1.4c0.3-0.4,0.7-0.8,1.2-1s1.2-0.3,2-0.3c1.3,0,2.2,0.3,2.8,0.8s1,1.3,1,2.2l-2,0.1c-0.1-0.5-0.3-0.9-0.6-1.1
			s-0.7-0.3-1.3-0.3s-1,0.1-1.4,0.4c-0.2,0.2-0.3,0.4-0.3,0.6s0.1,0.4,0.3,0.6c0.3,0.2,0.9,0.4,1.8,0.7c1,0.2,1.7,0.5,2.2,0.7
			s0.8,0.6,1.1,1s0.4,1,0.4,1.6s-0.2,1.1-0.5,1.6s-0.8,0.9-1.3,1.1c-0.6,0.2-1.3,0.4-2.2,0.4c-1.3,0-2.2-0.3-2.9-0.9
			C216.9,132.7,216.5,131.8,216.4,130.7z"/>
		<path class="st0" d="M238.6,133.9h-2.2l-0.9-2.3h-4l-0.8,2.3h-2.1l3.9-10h2.1L238.6,133.9z M234.8,130l-1.4-3.7l-1.3,3.7H234.8z"
			/>
		<path class="st0" d="M239.1,130.7l2-0.2c0.1,0.7,0.4,1.1,0.7,1.4c0.4,0.3,0.8,0.5,1.5,0.5c0.6,0,1.1-0.1,1.5-0.4s0.5-0.6,0.5-1
			c0-0.2-0.1-0.4-0.2-0.6c-0.1-0.2-0.4-0.3-0.7-0.4c-0.2-0.1-0.8-0.2-1.6-0.4c-1.1-0.3-1.8-0.6-2.3-1c-0.6-0.5-0.9-1.2-0.9-2
			c0-0.5,0.1-1,0.4-1.4c0.3-0.4,0.7-0.8,1.2-1s1.2-0.3,2-0.3c1.3,0,2.2,0.3,2.8,0.8s1,1.3,1,2.2l-2,0.1c-0.1-0.5-0.3-0.9-0.6-1.1
			s-0.7-0.3-1.3-0.3s-1,0.1-1.4,0.4c-0.2,0.2-0.3,0.4-0.3,0.6s0.1,0.4,0.3,0.6c0.3,0.2,0.9,0.4,1.8,0.7c1,0.2,1.7,0.5,2.2,0.7
			s0.8,0.6,1.1,1s0.4,1,0.4,1.6s-0.2,1.1-0.5,1.6s-0.8,0.9-1.3,1.1c-0.6,0.2-1.3,0.4-2.2,0.4c-1.3,0-2.2-0.3-2.9-0.9
			C239.6,132.7,239.2,131.8,239.1,130.7z"/>
		<path class="st0" d="M248.4,130.7l2-0.2c0.1,0.7,0.4,1.1,0.7,1.4c0.4,0.3,0.8,0.5,1.5,0.5c0.6,0,1.1-0.1,1.5-0.4s0.5-0.6,0.5-1
			c0-0.2-0.1-0.4-0.2-0.6c-0.1-0.2-0.4-0.3-0.7-0.4c-0.2-0.1-0.8-0.2-1.6-0.4c-1.1-0.3-1.8-0.6-2.3-1c-0.6-0.5-0.9-1.2-0.9-2
			c0-0.5,0.1-1,0.4-1.4c0.3-0.4,0.7-0.8,1.2-1s1.2-0.3,2-0.3c1.3,0,2.2,0.3,2.8,0.8s1,1.3,1,2.2l-2,0.1c-0.1-0.5-0.3-0.9-0.6-1.1
			s-0.7-0.3-1.3-0.3s-1,0.1-1.4,0.4c-0.2,0.2-0.3,0.4-0.3,0.6s0.1,0.4,0.3,0.6c0.3,0.2,0.9,0.4,1.8,0.7c1,0.2,1.7,0.5,2.2,0.7
			s0.8,0.6,1.1,1s0.4,1,0.4,1.6s-0.2,1.1-0.5,1.6c-0.3,0.5-0.8,0.9-1.3,1.1c-0.6,0.2-1.3,0.4-2.2,0.4c-1.3,0-2.2-0.3-2.9-0.9
			C248.9,132.7,248.5,131.8,248.4,130.7z"/>
		<path class="st0" d="M257.8,129c0-1,0.2-1.9,0.5-2.6c0.2-0.5,0.5-1,0.9-1.4s0.8-0.7,1.3-0.9c0.6-0.3,1.3-0.4,2.1-0.4
			c1.5,0,2.6,0.5,3.5,1.4s1.3,2.2,1.3,3.8c0,1.6-0.4,2.9-1.3,3.8c-0.9,0.9-2,1.4-3.5,1.4s-2.7-0.5-3.5-1.4
			C258.2,131.8,257.8,130.6,257.8,129z M259.9,128.9c0,1.1,0.3,2,0.8,2.6s1.2,0.9,2,0.9s1.5-0.3,2-0.9c0.5-0.6,0.8-1.4,0.8-2.6
			c0-1.1-0.2-2-0.8-2.6c-0.5-0.6-1.2-0.8-2-0.8s-1.5,0.3-2,0.9C260.1,126.9,259.9,127.8,259.9,128.9z"/>
		<path class="st0" d="M275.4,130.3l2,0.6c-0.3,1.1-0.8,1.9-1.5,2.4s-1.6,0.8-2.6,0.8c-1.3,0-2.4-0.5-3.3-1.4s-1.3-2.1-1.3-3.7
			c0-1.7,0.4-2.9,1.3-3.9c0.9-0.9,2-1.4,3.4-1.4c1.2,0,2.2,0.4,3,1.1c0.5,0.4,0.8,1,1,1.8l-2,0.5c-0.1-0.5-0.4-0.9-0.7-1.2
			c-0.4-0.3-0.8-0.4-1.4-0.4c-0.7,0-1.3,0.3-1.8,0.8s-0.7,1.4-0.7,2.6c0,1.3,0.2,2.2,0.7,2.7s1,0.8,1.8,0.8c0.5,0,1-0.2,1.4-0.5
			C275,131.5,275.2,131,275.4,130.3z"/>
		<path class="st0" d="M279,133.9v-10h2v10H279z"/>
		<path class="st0" d="M291.9,133.9h-2.2l-0.9-2.3h-4l-0.8,2.3h-2.1l3.9-10h2.1L291.9,133.9z M288.2,130l-1.4-3.7l-1.3,3.7H288.2z"
			/>
		<path class="st0" d="M294.2,133.9v-8.3h-3V124h7.9v1.7h-2.9v8.3h-2V133.9z"/>
		<path class="st0" d="M300.4,133.9v-10h2v10H300.4z"/>
		<path class="st0" d="M303.9,129c0-1,0.2-1.9,0.5-2.6c0.2-0.5,0.5-1,0.9-1.4s0.8-0.7,1.3-0.9c0.6-0.3,1.3-0.4,2.1-0.4
			c1.5,0,2.6,0.5,3.5,1.4s1.3,2.2,1.3,3.8c0,1.6-0.4,2.9-1.3,3.8c-0.9,0.9-2,1.4-3.5,1.4s-2.7-0.5-3.5-1.4S303.9,130.6,303.9,129z
			 M306,128.9c0,1.1,0.3,2,0.8,2.6s1.2,0.9,2,0.9s1.5-0.3,2-0.9c0.5-0.6,0.8-1.4,0.8-2.6c0-1.1-0.2-2-0.8-2.6
			c-0.5-0.6-1.2-0.8-2-0.8s-1.5,0.3-2,0.9C306.3,126.9,306,127.8,306,128.9z"/>
		<path class="st0" d="M315.2,133.9v-10h2l4.1,6.7V124h1.9v10h-2l-4-6.5v6.5h-2V133.9z"/>
		<path class="st0" d="M328.7,129c0-1,0.2-1.9,0.5-2.6c0.2-0.5,0.5-1,0.9-1.4s0.8-0.7,1.3-0.9c0.6-0.3,1.3-0.4,2.1-0.4
			c1.5,0,2.6,0.5,3.5,1.4s1.3,2.2,1.3,3.8c0,1.6-0.4,2.9-1.3,3.8c-0.9,0.9-2,1.4-3.5,1.4s-2.7-0.5-3.5-1.4
			C329.1,131.8,328.7,130.6,328.7,129z M330.8,128.9c0,1.1,0.3,2,0.8,2.6s1.2,0.9,2,0.9s1.5-0.3,2-0.9c0.5-0.6,0.8-1.4,0.8-2.6
			c0-1.1-0.2-2-0.8-2.6c-0.5-0.6-1.2-0.8-2-0.8s-1.5,0.3-2,0.9C331,126.9,330.8,127.8,330.8,128.9z"/>
		<path class="st0" d="M340,133.9v-10h6.8v1.7H342v2.4h4.2v1.7H342v4.2H340z"/>
		<path class="st0" d="M354.6,133.9v-8.3h-3V124h7.9v1.7h-2.9v8.3h-2V133.9z"/>
		<path class="st0" d="M368.8,133.9h-2.2l-0.9-2.3h-4l-0.8,2.3h-2.1l3.9-10h2.1L368.8,133.9z M365.1,130l-1.4-3.7l-1.3,3.7H365.1z"
			/>
		<path class="st0" d="M369.8,133.9v-10h2v10H369.8z"/>
		<path class="st0" d="M373.7,133.9v-10h3.2c1.2,0,2,0.1,2.4,0.1c0.6,0.1,1,0.5,1.4,1s0.6,1.1,0.6,1.9c0,0.6-0.1,1.1-0.3,1.5
			c-0.2,0.4-0.5,0.7-0.8,1c-0.3,0.2-0.7,0.4-1,0.5c-0.5,0.1-1.2,0.1-2.1,0.1h-1.3v3.8L373.7,133.9L373.7,133.9z M375.7,125.7v2.8
			h1.1c0.8,0,1.3-0.1,1.6-0.2c0.3-0.1,0.5-0.3,0.6-0.5c0.2-0.2,0.2-0.5,0.2-0.8c0-0.4-0.1-0.7-0.3-0.9c-0.2-0.2-0.5-0.4-0.8-0.4
			c-0.2,0-0.7-0.1-1.4-0.1L375.7,125.7L375.7,125.7z"/>
		<path class="st0" d="M383,133.9v-10h7.4v1.7H385v2.2h5v1.7h-5v2.7h5.6v1.7L383,133.9L383,133.9z"/>
		<path class="st0" d="M392.2,133.9v-10h2v10H392.2z"/>
	</g>
	<g>
		<path class="st1" d="M351.1,100.2c1,1.1,1.2,2.1,1.2,3.2c0,2.7-2.2,4.9-4.9,4.9c-1.3,0-2.9-0.9-3.8-1.8L287.2,39v37.3h22
			c2.7,0,4.8,2.2,4.8,4.9s-2.1,4.8-4.8,4.8h-22v17c0,2.8-2.3,5.3-5.3,5.3c-2.8,0-5.1-2.4-5.1-5.3V25.9c0-2.9,2.3-5.3,5.1-5.3
			c1.5,0,2.9,0.6,4.3,2.1L351.1,100.2z"/>
		<path class="st0" d="M360,31.3h-19.1c-2.7,0-4.9-2.2-4.9-4.9s2.2-4.8,4.9-4.8h48.6c2.7,0,4.8,2.1,4.8,4.8s-2.1,4.9-4.8,4.9h-19.1
			V103c0,2.8-2.3,5.3-5.3,5.3c-2.8,0-5.1-2.4-5.1-5.3V31.3z"/>
		<path class="st0" d="M255.8,63.6c9.1-3.3,13.1-12.2,13.1-20c0-12.7-10-23-24-23h-20.2l0,0c-0.1,0-0.2,0-0.4,0
			c-1.6,0-2.9,0.6-4.3,2.1l-37.7,44.9V25.9c0-2.9-2.3-5.3-5.1-5.3c-1.7,0-2.9,0.6-4.3,2.1L108,100.2c-1,1.1-1.2,2.1-1.2,3.2
			c0,2.7,2.2,4.9,4.9,4.9c1.3,0,2.8-0.7,3.8-1.8L171.9,39v64c0,2.8,2.3,5.3,5.3,5.3c2.8,0,5.1-2.4,5.1-5.3V82.8L219,39v64
			c0,2.8,2.3,5.3,5.3,5.3c0.1,0,0.2,0,0.4,0l0,0h20.9c14.2,0,24.5-10.5,24.5-23.5C270.1,76.2,265.2,66.9,255.8,63.6z M244.1,98.6
			h-12.6h-1.6h-0.5V30.3h0.5h1.6h11.9c8.9,0,14.7,6.1,14.7,14c0,7.7-6.1,14.8-13.8,14.8h-4c-2.7,0-4.8,2.2-4.8,4.9
			c0,2.7,2.1,4.8,4.8,4.8h4.8c8,0,14.3,7.5,14.3,15.4C259.3,92.2,253.3,98.6,244.1,98.6z"/>
	</g>
	<g>
		<path class="st0" d="M105.7,166.7c1.6-0.4,3.8-2.6,6.6-6.7l2.1,0.7c-1.7,2.3-3.4,4.3-5.1,5.9c3.5-0.1,7-0.4,10.3-0.7
			c-0.7-1-1.4-1.9-2-2.8l1.8-0.9c1.7,2.1,3.3,4.4,4.8,6.9l-1.9,1c-0.5-0.9-1-1.7-1.5-2.5c-4.3,0.4-9.2,0.7-14.5,0.9L105.7,166.7z
			 M121.7,179.4h-2v-0.9h-10.2v0.9h-2v-8.8h14.2V179.4z M119.7,176.6v-4.2h-10.2v4.2H119.7z"/>
		<path class="st0" d="M139.7,160.2v15.4c0.5-0.1,1-0.3,1.5-0.4v1.9c-2.7,0.7-5.6,1.4-8.6,1.9l-0.5-1.9c1.9-0.2,3.8-0.6,5.6-1v-8.4
			h-5.2v-1.9h5.2v-5.6H139.7z M145.2,178.6c-1.5,0-2.3-0.7-2.3-2.2v-16.2h2v5.7l5.6-0.4v1.9l-5.6,0.4v8.3c0,0.4,0.2,0.6,0.8,0.6h1.9
			c0.5,0,0.9-0.1,1.1-0.4c0.2-0.3,0.4-1.4,0.5-3.1l1.8,0.6c-0.1,2.2-0.4,3.6-0.8,4.1c-0.4,0.5-1.2,0.7-2.3,0.7L145.2,178.6
			L145.2,178.6z"/>
		<path class="st0" d="M167.4,162.4c-0.3-0.7-0.6-1.5-1-2.1l2.1-0.3c0.3,0.7,0.6,1.5,0.9,2.4h8.3v1.9h-8.3v2.3h6.8v7.7
			c0,1.3-0.7,2-2.1,2H172l-0.5-1.9l2,0.1c0.5,0,0.7-0.2,0.7-0.7v-5.4h-4.8v10.9h-2v-10.9h-4.6v8H161v-9.9h6.5v-2.3h-8.3v-1.9
			L167.4,162.4L167.4,162.4z"/>
		<path class="st0" d="M189.4,174.1c-0.6,1.6-1.3,3-2.1,4.2l-1.5-1.1c0.9-1.1,1.6-2.4,2.2-3.9L189.4,174.1z M187.4,170.1l-1.2-1.2
			c1-1.4,1.7-3.1,2.2-5l1.6,0.4c-0.1,0.6-0.3,1.2-0.5,1.7c0.6,0.6,1.1,1.2,1.5,1.8l-1.2,1.2c-0.3-0.5-0.6-1-1-1.4
			C188.4,168.7,187.9,169.5,187.4,170.1z M190.2,170.9v-1.1h1.8v1.1h3.7v1.8H192v6.5h-1.8v-6.5h-3.7v-1.8H190.2z M192.1,161.9h3.4
			v1.8h-8.8v-1.8h3.5c-0.2-0.5-0.4-1-0.7-1.5l2-0.3C191.7,160.6,191.9,161.2,192.1,161.9z M194.2,164.4c-0.1,0.7-0.3,1.3-0.5,1.9
			c0.5,0.4,0.9,0.9,1.2,1.2c1-2.2,1.8-4.6,2.2-7.2l1.8,0.3c-0.2,1-0.5,1.9-0.7,2.9h2.5c-0.4-1-0.8-2-1.2-2.9l1.9-0.5
			c0.5,1.2,0.9,2.4,1.2,3.4h2v1.8h-2.2v2.5h1.9v1.7h-1.9v2.4h1.9v1.7h-1.9v2.6h2.6v1.8h-6.6v1.1h-1.8v-11.5
			c-0.4,0.8-0.9,1.6-1.3,2.3l-0.4-1.3l-0.5,0.5c-0.3-0.5-0.7-1-1.1-1.4c-0.3,0.8-0.7,1.5-1.1,2l-1.2-1.1c0.8-1.3,1.4-2.9,1.7-4.7
			L194.2,164.4z M196.2,176.9l-1.4,1.1c-0.7-1.4-1.5-2.6-2.2-3.6l1.3-1C194.7,174.4,195.5,175.6,196.2,176.9z M198.4,165.3v2.5h2.2
			v-2.5H198.4z M198.4,172h2.2v-2.4h-2.2V172z M198.4,176.4h2.2v-2.6h-2.2V176.4z"/>
		<path class="st0" d="M215.6,162.5c-0.3-0.7-0.6-1.3-1-2l1.8-0.5c0.4,0.9,0.7,1.7,1,2.5h2v1.8H213v-1.8H215.6z M215.3,179.3h-1.8
			v-7.6h5.6v7.3h-1.8v-0.9h-2V179.3z M218.9,165.7v1.7h-5.1v-1.7H218.9z M218.9,168.6v1.7h-5.1v-1.7H218.9z M217.3,173.5h-2v2.9h2
			V173.5z M222.3,172.3c-0.4,2.1-1,3.9-1.7,5.4l-1.6-1c0.7-1.5,1.2-3,1.5-4.7L222.3,172.3z M224.9,162.6v-2.5h2v2.5h4.7v1.9h-4.7
			v2.9h4.2v1.9H221v-1.9h4v-2.9h-4.5v-1.9H224.9z M224.8,178.9c-1.3,0-1.9-0.7-1.9-2v-5.3h1.9v4.9c0,0.4,0.2,0.6,0.6,0.6h1.7
			c0.2,0,0.4-0.1,0.5-0.3s0.2-0.8,0.2-1.8l1.7,0.5c-0.1,1.6-0.4,2.6-0.7,3c-0.3,0.3-0.8,0.4-1.5,0.4L224.8,178.9L224.8,178.9z
			 M228.2,172.6l-1.4,1c-0.7-1.2-1.5-2.2-2.2-3l1.3-1C226.7,170.5,227.5,171.5,228.2,172.6z M232.2,176.8l-1.6,0.7
			c-0.6-2-1.2-3.7-1.9-5.1l1.6-0.5C231.1,173.4,231.7,175,232.2,176.8z"/>
		<path class="st0" d="M250.4,161.6h8.1v1.9H253l1.5,0.5c-0.4,0.7-0.8,1.4-1.2,2h4.5v11c0,1.4-0.7,2.1-2.1,2.1h-2.1l-0.5-1.7h-7.8
			v-5.5h8.2v5.4h1.7c0.5,0,0.7-0.3,0.7-0.8v-8.9h-3.3v1.2c0,0.4,0.2,0.6,0.6,0.6h2.1v1.6h-2.9c-1.1,0-1.6-0.5-1.6-1.4v-2H248
			c-0.2,1.2-0.5,2.1-1.1,2.8c-0.7,0.8-1.7,1.4-3.1,1.9l-0.9-1.5c1.1-0.4,1.9-0.8,2.4-1.4c0.4-0.5,0.6-1.1,0.8-1.8h-3.3V179h-1.9
			v-13.1h4.4c-0.3-0.7-0.6-1.4-1-2l1.4-0.5h-5.5v-1.9h8.1c-0.2-0.5-0.4-1-0.6-1.4l2.1-0.4C250,160.4,250.2,161,250.4,161.6z
			 M251.1,166.1c0.5-0.8,1-1.7,1.4-2.5h-6.3c0.4,0.7,0.7,1.6,1.1,2.5H251.1z M251.5,173.7h-4.4v2.1h4.4V173.7z"/>
		<path class="st0" d="M275.4,160.1v3h1.7v-3h1.9v3h1.5c0.6-0.9,1-1.8,1.5-2.7l1.8,0.7c-0.4,0.8-0.9,1.5-1.3,2h3v1.7h-5.8l1.6,0.6
			c-0.3,0.5-0.6,0.9-0.9,1.3h4.2v1.7h-7.2v1.1h6.2v1.6h-6.2v1.1h8.1v1.7h-8.1v5.2h-2v-5.2h-8.1v-1.7h8.1v-1.1h-6.2v-1.6h6.2v-1.1
			h-7.2v-1.7h4.2c-0.3-0.5-0.6-1-0.9-1.4l1.4-0.5h-5.6v-1.7h3c-0.3-0.7-0.7-1.4-1.2-2l1.9-0.7c0.5,0.7,0.9,1.7,1.3,2.7h1.4v-3
			L275.4,160.1L275.4,160.1z M273.4,175.7c-1.3,1.3-2.9,2.4-4.7,3.4l-1.2-1.6c1.8-0.8,3.4-1.8,4.6-3L273.4,175.7z M273.4,164.9
			c0.4,0.6,0.7,1.2,1,1.9h3.8c0.4-0.6,0.8-1.2,1.1-1.9H273.4z M285.2,177.7l-1.4,1.4c-1-1-2.5-2.1-4.3-3.3l1.3-1.2
			C282.4,175.6,283.9,176.7,285.2,177.7z"/>
		<path class="st0" d="M307,179.3l-0.5-2l2.6,0.1c0.5,0,0.7-0.3,0.7-0.9v-13.8h-13.1v16.6h-2v-18.5h17.1v16.1c0,1.5-0.7,2.3-2,2.3
			L307,179.3L307,179.3z M308.6,164.7v1.8H298v-1.8H308.6z M307.5,168.4v7H299v-7H307.5z M305.6,170.2H301v3.4h4.6V170.2z"/>
		<path class="st0" d="M329.3,160.1v3h1.7v-3h1.9v3h1.5c0.6-0.9,1-1.8,1.5-2.7l1.8,0.7c-0.4,0.8-0.9,1.5-1.3,2h3v1.7h-5.8l1.6,0.6
			c-0.3,0.5-0.6,0.9-0.9,1.3h4.2v1.7h-7.2v1.1h6.2v1.6h-6.2v1.1h8.1v1.7h-8.1v5.2h-2v-5.2h-8.1v-1.7h8.1v-1.1H323v-1.6h6.2v-1.1H322
			v-1.7h4.2c-0.3-0.5-0.6-1-0.9-1.4l1.4-0.5h-5.6v-1.7h3c-0.3-0.7-0.7-1.4-1.2-2l1.9-0.7c0.5,0.7,0.9,1.7,1.3,2.7h1.4v-3
			L329.3,160.1L329.3,160.1z M327.3,175.7c-1.3,1.3-2.9,2.4-4.7,3.4l-1.2-1.6c1.8-0.8,3.4-1.8,4.6-3L327.3,175.7z M327.3,164.9
			c0.4,0.6,0.7,1.2,1,1.9h3.8c0.4-0.6,0.8-1.2,1.1-1.9H327.3z M339.1,177.7l-1.4,1.4c-1-1-2.5-2.1-4.3-3.3l1.3-1.2
			C336.4,175.6,337.9,176.7,339.1,177.7z"/>
		<path class="st0" d="M355.2,161.5c-1.5,4.2-3.4,7.3-5.8,9.6l-1.6-1.4c2.5-2.2,4.3-5.2,5.5-9L355.2,161.5z M364.9,178.5l-1.9,0.8
			c-0.3-0.7-0.6-1.4-0.9-2c-3.6,0.5-7.7,1-12.1,1.2l-0.4-1.9c1.5-0.5,3.5-3.7,6.2-9.6l2,0.7c-1.7,3.5-3.4,6.5-5.1,8.8
			c3-0.2,5.8-0.5,8.6-0.9c-0.7-1.4-1.4-2.6-2.1-3.8l1.8-0.6C362.6,173.6,363.9,176,364.9,178.5z M361.7,160.7c0.7,3.7,2.4,6.6,5,8.9
			l-1.6,1.4c-2.5-2.2-4.1-5.1-5-8.4h-3.3v-1.9H361.7z"/>
		<path class="st0" d="M375.5,166.5l-1-1.6c3.3-1.4,6.3-2.9,9.1-4.7h1.2c2.7,1.8,5.7,3.3,9.1,4.7l-1,1.7c-0.4-0.2-0.8-0.4-1.1-0.5
			v5.5h-14.9V166C376.3,166.1,375.9,166.3,375.5,166.5z M388.3,164.3v0.8H380v-0.7c-1,0.5-2.1,1-3.2,1.6h14.7
			C390.3,165.4,389.3,164.8,388.3,164.3z M390.8,179.4h-1.9v-0.7h-9.6v0.7h-1.9v-7.1h13.4V179.4z M383.2,167.4h-4.8v2.6h4.8V167.4z
			 M388.9,174.8v-1h-9.6v1H388.9z M388.9,177.1v-1h-9.6v1H388.9z M382,169.6l-1.3,0.3c-0.3-0.7-0.6-1.4-1-2l1.3-0.4
			C381.4,168.1,381.7,168.8,382,169.6z M384.1,161.8c-0.9,0.6-1.9,1.2-2.9,1.8h5.8C386,163,385,162.4,384.1,161.8z M389.8,167.4H385
			v2.6h4.8V167.4z M388.5,167.8c-0.2,0.8-0.6,1.5-1,2l-1.3-0.5c0.4-0.5,0.7-1.1,1-1.9L388.5,167.8z"/>
	</g>
</g>
</svg>
