<?xml version="1.0" encoding="utf-8"?>
<!-- Generator: Adobe Illustrator 28.0.0, SVG Export Plug-In . SVG Version: 6.00 Build 0)  -->
<svg version="1.1" id="圖層_1" xmlns="http://www.w3.org/2000/svg" xmlns:xlink="http://www.w3.org/1999/xlink" x="0px" y="0px"
	 viewBox="0 0 1008.1 420" style="enable-background:new 0 0 1008.1 420;" xml:space="preserve">
<style type="text/css">
	.st0{fill:#FFFFFF;}
</style>
<g>
	<g>
		<path class="st0" d="M604.2,88.4v51h28.2V177h-28.2v47.5c0,5.7,0.5,9.5,1.6,11.3c1.7,2.9,4.6,4.3,8.9,4.3c3.8,0,12.8-3.1,19.7-5.3
			v37.5c-12.6,2.8-24.5,4.2-35.5,4.2c-12.7,0-22.2-1.6-28.3-4.9c-6.1-3.3-10.6-8.3-13.4-14.9c-2.9-6.7-4.4-17.5-4.4-32.4v-47.1
			h-18.9v-37.8h18.9v-24.6L604.2,88.4z"/>
		<g>
			<path class="st0" d="M70.9,305.1h8.2c7.3,0,10,4.2,10,8.8v1.3c0,3.7-1.4,5.1-3.9,6.4c2.7,1.1,3.9,3.2,3.9,6.8v1.9
				c0,6-3.3,9.5-10.6,9.5h-7.7L70.9,305.1L70.9,305.1z M76.5,319.2H79c3.8,0,4.8-1.7,4.8-4.9c0-3.1-1.3-4.7-5-4.7h-2.3V319.2z
				 M76.5,334.6H79c4.5,0,4.9-2.4,4.9-5.8c0-3.5-0.7-5.3-4.8-5.3h-2.5L76.5,334.6L76.5,334.6z"/>
			<path class="st0" d="M102.9,314.9l3.9,15.3h0.1l3.8-15.3h5.8l-8.1,28.9c-1.2,4.4-4.4,5.7-7.8,5.7h-1.5v-4.7h1.3
				c2.3,0,3-0.7,4.3-6.4l-7.8-23.5H102.9z"/>
			<path class="st0" d="M157.9,314.9h-5.6v-1.1c0-2.3-1.1-4.2-4-4.2c-3.1,0-3.8,2.2-3.8,4.5c0,2.7,0.3,3.6,3.2,4.6l4.3,1.5
				c5,1.7,5.9,4.4,5.9,9.5c0,5.8-2.4,10.2-9.7,10.2c-5.5,0-9.6-3.6-9.6-8.2v-1.9h5.6v1.6c0,1.8,1.1,3.6,4,3.6c3.8,0,4.1-2,4.1-5.2
				c0-3.7-0.5-4.3-3.3-5.3l-4-1.5c-4.9-1.8-6.1-4.6-6.1-8.9c0-5.3,3.2-9.5,9.7-9.5c5.6,0,9.4,4,9.4,7.8L157.9,314.9L157.9,314.9z"/>
			<path class="st0" d="M167,307.4h5.6v7.5h3.5v3.9h-3.5v13.6c0,2.3,1,2.4,3.5,2.4v4.7h-2.3c-5.1,0-6.8-3.2-6.8-5.8v-14.9h-2.8v-3.9
				h2.8V307.4z"/>
			<path class="st0" d="M194.1,337L194.1,337c-1.6,1.8-2.8,2.8-5.5,2.8c-2.6,0-6.1-1.1-6.1-6.6c0-5.6,1.8-8.4,8.9-8.4
				c0.8,0,1.5,0.1,2.7,0.1v-2.5c0-1.7-0.7-2.9-2.8-2.9c-1.4,0-2.9,0.9-3.2,2.5h-5.5c0.2-2.2,1.1-4,2.5-5.4c1.5-1.3,3.6-2.1,6.1-2.1
				c4.7,0,8.5,2.6,8.5,7.8v17.1h-5.6L194.1,337L194.1,337z M194.1,328.9c-0.6-0.1-1.1-0.1-1.6-0.1c-2.4,0-4.4,0.9-4.4,3.5
				c0,1.9,1.1,3.2,2.9,3.2c1.9,0,3-1.2,3-3.2L194.1,328.9L194.1,328.9z"/>
			<path class="st0" d="M209.1,314.9h5.6v2.6c2.3-1.8,4.2-2.9,7.5-2.9v5.3c-0.6-0.2-1.1-0.3-1.7-0.3c-2.4,0-5.8,1.3-5.8,5.4v14.6
				h-5.6V314.9z"/>
			<path class="st0" d="M229.7,307.4h5.6v7.5h3.5v3.9h-3.5v13.6c0,2.3,1,2.4,3.5,2.4v4.7h-2.3c-5.1,0-6.8-3.2-6.8-5.8v-14.9h-2.8
				v-3.9h2.8V307.4z"/>
			<path class="st0" d="M262.9,339.5h-5.6v-2.4h-0.2c-1.2,1.6-2.7,2.7-5.3,2.7c-2.8,0-5.8-1.6-5.8-6v-18.9h5.6v17
				c0,1.8,1,2.9,2.8,2.9c2.1,0,2.8-1.2,2.8-3.4v-16.5h5.6L262.9,339.5L262.9,339.5z"/>
			<path class="st0" d="M272.8,314.9h5.6v2.2c1.4-1.4,2.5-2.5,5.4-2.5c2.3,0,3.9,0.7,4.9,2.3c0.7,1.1,0.9,2.6,0.9,5.3v9.4
				c0,3.6-0.2,5-0.9,6c-0.9,1.3-2.3,2.2-5,2.2c-2.2,0-4-0.9-5.2-2.5h-0.1v12.1h-5.6L272.8,314.9L272.8,314.9z M283.9,323
				c0-2-0.8-3.4-2.8-3.4c-1.7,0-2.8,1.3-2.8,3.1v9.6c0,1.6,1.2,2.7,2.8,2.7c2.2,0,2.8-1.4,2.8-2.9V323z"/>
			<path class="st0" d="M309.6,321.9c-0.1-1.7-1.4-2.5-2.9-2.5c-1.8,0-2.8,1.2-2.8,2.5c0,0.9,0.3,1.8,2.4,2.5l3.3,1.2
				c4.2,1.4,5.5,4,5.5,7c0,4.1-3.5,7.5-8.4,7.5c-4.4,0-8.2-2.6-8.4-7.5h5.3c0.2,1.4,0.9,2.8,3,2.8c1.6,0,3.2-1,3.2-2.7
				c0-1.4-0.7-2.3-2.8-3l-2.7-0.9c-3.5-1.2-5.7-3.5-5.7-6.8c0-4.2,3.8-7.2,8.3-7.2c4.6,0,7.9,3.1,8,7.2L309.6,321.9L309.6,321.9z"/>
			<path class="st0" d="M324,334.6h5.6v5H324V334.6z"/>
			<path class="st0" d="M355.4,305.1h16.7v4.7H361v10.5h9.7v4.7H361v14.7h-5.6L355.4,305.1L355.4,305.1z"/>
			<path class="st0" d="M379.2,323.2c0-2,0.3-3.8,1.1-5c1.3-2.1,3.9-3.6,7.4-3.6c3.4,0,6,1.4,7.4,3.6c0.8,1.3,1.1,3,1.1,5v8.1
				c0,2-0.3,3.8-1.1,5c-1.3,2.1-3.9,3.6-7.4,3.6c-3.4,0-6-1.4-7.4-3.6c-0.8-1.3-1.1-3-1.1-5V323.2z M384.8,332
				c0,1.9,1.1,2.8,2.8,2.8s2.8-1,2.8-2.8v-9.7c0-1.9-1.1-2.8-2.8-2.8s-2.8,1-2.8,2.8V332z"/>
			<path class="st0" d="M405.3,314.9h5.6v2.6c2.3-1.8,4.2-2.9,7.5-2.9v5.3c-0.6-0.2-1.1-0.3-1.7-0.3c-2.4,0-5.8,1.3-5.8,5.4v14.6
				h-5.6V314.9z"/>
			<path class="st0" d="M459.8,314.9h-5.6v-1.1c0-2.3-1.1-4.2-4-4.2c-3.1,0-3.8,2.2-3.8,4.5c0,2.7,0.3,3.6,3.2,4.6l4.3,1.5
				c5,1.7,5.9,4.4,5.9,9.5c0,5.8-2.4,10.2-9.7,10.2c-5.5,0-9.6-3.6-9.6-8.2v-1.9h5.6v1.6c0,1.8,1.1,3.6,4,3.6c3.8,0,4.1-2,4.1-5.2
				c0-3.7-0.5-4.3-3.3-5.3l-4-1.5c-4.9-1.8-6.1-4.6-6.1-8.9c0-5.3,3.2-9.5,9.7-9.5c5.6,0,9.4,4,9.4,7.8L459.8,314.9L459.8,314.9z"/>
			<path class="st0" d="M468.9,307.4h5.6v7.5h3.5v3.9h-3.5v13.6c0,2.3,1,2.4,3.5,2.4v4.7h-2.3c-5.1,0-6.8-3.2-6.8-5.8v-14.9h-2.8
				v-3.9h2.8L468.9,307.4L468.9,307.4z"/>
			<path class="st0" d="M496,337L496,337c-1.6,1.8-2.8,2.8-5.5,2.8c-2.6,0-6.1-1.1-6.1-6.6c0-5.6,1.8-8.4,8.9-8.4
				c0.8,0,1.5,0.1,2.7,0.1v-2.5c0-1.7-0.7-2.9-2.8-2.9c-1.4,0-2.9,0.9-3.2,2.5h-5.5c0.2-2.2,1.1-4,2.5-5.4c1.5-1.3,3.6-2.1,6.1-2.1
				c4.7,0,8.5,2.6,8.5,7.8v17.1H496V337z M496,328.9c-0.6-0.1-1.1-0.1-1.6-0.1c-2.4,0-4.4,0.9-4.4,3.5c0,1.9,1.1,3.2,2.9,3.2
				c1.9,0,3-1.2,3-3.2L496,328.9L496,328.9z"/>
			<path class="st0" d="M511,314.9h5.6v2.6c2.3-1.8,4.2-2.9,7.5-2.9v5.3c-0.6-0.2-1.1-0.3-1.7-0.3c-2.4,0-5.8,1.3-5.8,5.4v14.6H511
				V314.9z"/>
			<path class="st0" d="M531.6,307.4h5.6v7.5h3.5v3.9h-3.5v13.6c0,2.3,1,2.4,3.5,2.4v4.7h-2.3c-5.1,0-6.8-3.2-6.8-5.8v-14.9h-2.8
				v-3.9h2.8V307.4z"/>
			<path class="st0" d="M564.8,339.5h-5.6v-2.4h-0.1c-1.2,1.6-2.7,2.7-5.3,2.7c-2.8,0-5.8-1.6-5.8-6v-18.9h5.6v17
				c0,1.8,1,2.9,2.8,2.9c2.1,0,2.8-1.2,2.8-3.4v-16.5h5.6V339.5z"/>
			<path class="st0" d="M574.7,314.9h5.6v2.2c1.4-1.4,2.5-2.5,5.4-2.5c2.3,0,3.9,0.7,4.9,2.3c0.7,1.1,0.9,2.6,0.9,5.3v9.4
				c0,3.6-0.2,5-0.9,6c-0.9,1.3-2.3,2.2-5,2.2c-2.2,0-4-0.9-5.2-2.5h-0.1v12.1h-5.6V314.9z M585.9,323c0-2-0.8-3.4-2.8-3.4
				c-1.7,0-2.8,1.3-2.8,3.1v9.6c0,1.6,1.2,2.7,2.8,2.7c2.2,0,2.8-1.4,2.8-2.9V323z"/>
			<path class="st0" d="M611.5,321.9c-0.1-1.7-1.4-2.5-2.9-2.5c-1.8,0-2.8,1.2-2.8,2.5c0,0.9,0.3,1.8,2.4,2.5l3.3,1.2
				c4.2,1.4,5.5,4,5.5,7c0,4.1-3.5,7.5-8.4,7.5c-4.4,0-8.2-2.6-8.4-7.5h5.3c0.2,1.4,0.9,2.8,3,2.8c1.6,0,3.2-1,3.2-2.7
				c0-1.4-0.7-2.3-2.8-3l-2.7-0.9c-3.5-1.2-5.7-3.5-5.7-6.8c0-4.2,3.8-7.2,8.3-7.2c4.6,0,7.9,3.1,8,7.2L611.5,321.9L611.5,321.9z"/>
			<path class="st0" d="M625.9,334.6h5.6v5h-5.6V334.6z"/>
		</g>
		<polygon class="st0" points="203.2,88.4 174.4,202.7 145.5,88.4 70.4,88.4 70.4,276.3 117.2,276.3 117.2,133 153.1,276.3 
			195.4,276.3 231.5,133 231.5,276.3 278.2,276.3 278.2,88.4 		"/>
		<path class="st0" d="M401.9,159.3h-77.1c0.7,6.4,2.4,11.1,5,14.3c3.7,4.5,8.6,6.8,14.5,6.8c3.8,0,7.4-1,10.7-2.9
			c2.1-1.3,4.3-3.4,6.7-6.6l37.9,3.6c-5.8,10.5-12.8,17.9-21,22.5s-19.9,6.8-35.2,6.8c-13.3,0-23.8-2-31.4-5.9
			c-7.7-3.9-13.9-10.1-18.9-18.5c-5-8.5-7.5-18.4-7.5-29.9c0-16.2,5-29.4,15-39.5c10.1-10.1,23.9-15.1,41.6-15.1
			c14.3,0,25.7,2.3,34,6.8c8.4,4.5,14.6,11,19,19.6c4.4,8.6,6.5,19.7,6.5,33.4L401.9,159.3L401.9,159.3z M362.8,140.3
			c-0.8-7.7-2.8-13.2-6-16.5c-3.3-3.3-7.5-5-12.8-5c-6.1,0-10.9,2.5-14.6,7.6c-2.3,3.1-3.8,7.8-4.5,14L362.8,140.3L362.8,140.3z"/>
		<path class="st0" d="M527.2,159.3h-77.1c0.7,6.4,2.4,11.1,5,14.3c3.7,4.5,8.6,6.8,14.5,6.8c3.8,0,7.4-1,10.7-2.9
			c2.1-1.3,4.3-3.4,6.7-6.6l37.9,3.6c-5.8,10.5-12.8,17.9-21,22.5c-8.2,4.6-19.9,6.8-35.2,6.8c-13.3,0-23.8-2-31.4-5.9
			c-7.7-3.9-13.9-10.1-18.9-18.5c-5-8.5-7.6-18.4-7.6-29.9c0-16.2,5-29.4,15-39.5c10.1-10.1,23.9-15.1,41.6-15.1
			c14.3,0,25.7,2.3,34,6.8c8.4,4.5,14.6,11,19,19.6c4.4,8.6,6.6,19.7,6.6,33.4L527.2,159.3L527.2,159.3z M488,140.3
			c-0.8-7.7-2.8-13.2-6-16.5c-3.3-3.3-7.5-5-12.8-5c-6.1,0-11,2.5-14.6,7.6c-2.3,3.1-3.8,7.8-4.5,14L488,140.3L488,140.3z"/>
		<path class="st0" d="M406,276.3c-69.5,0-111.9-44.1-113.7-46c-3.8-4-3.4-10.2,1-13.6c4.3-3.5,10.8-3.1,14.6,0.9
			c0.6,0.7,38.4,39.4,98,39.4c59.8,0,98.5-39.1,98.9-39.5c3.9-4,10.5-4.3,14.6-0.7c4.3,3.6,4.6,9.7,0.8,13.6
			C518.5,232.3,475.3,276.3,406,276.3z"/>
	</g>
	<g>
		<polygon class="st0" points="883.1,108.3 872.2,108.3 872.2,111.7 883.1,110.7 		"/>
		<rect x="872.2" y="101.9" class="st0" width="10.9" height="2.9"/>
		<path class="st0" d="M768.7,111.3c1.2-1.6,2.7-4,3.6-5.7h-18.8c1.3,1.8,2.5,4.2,3,5.6l-2.9,0.8H771L768.7,111.3z"/>
		<rect x="872.2" y="95.4" class="st0" width="10.9" height="2.9"/>
		<rect x="680.3" y="113.9" class="st0" width="15.9" height="3.4"/>
		<path class="st0" d="M928.1,70.6H659.6c-5.3,0-9.5,4.3-9.5,9.5v65.3c-3,8.6-10,29.6-8.2,31.4c2,2,26.7-6.5,33.3-8.8h252.9
			c5.3,0,9.5-4.3,9.5-9.5V80C937.7,74.7,933.4,70.6,928.1,70.6z M893.3,93.3h19l0.9-0.3l3.7,1.8c-1.8,4.6-4.5,8.5-7.9,11.7
			c3.6,2.3,6.8,4.5,9,6.3l-4.2,4.1c-2.2-1.9-5.4-4.3-9.2-6.7c-3.6,2.8-7.7,5-11.8,6.5c-0.8-1.2-2.2-3.1-3.3-4.2
			c3.6-1.2,7.2-2.9,10.5-5.2c-2.9-1.7-5.8-3.4-8.4-4.7l3.9-3.5c2.8,1.3,5.8,3,8.9,4.7c1.9-1.7,3.5-3.8,4.9-5.8h-15.9V93.3z
			 M703.1,148h-5.2v-2.2h-13.7v2.3h-5v-16c-0.9,4.9-2.4,9.9-4.9,13.9c-1.1-0.8-3.6-2-5.1-2.5c5-7.9,5.6-18.6,5.6-25.9v-8.1h26.8
			v19.2h-22c-0.1,0.8-0.3,1.7-0.4,2.5h23.9V148z M702.3,107.5c-3.1-2.5-8.8-6.3-13.7-9.4c-1.7,1.8-3.5,3.5-5.4,5.1h12.1v3.7h-13.1
			v-2.8c-3.1,2.5-6.5,4.7-9.8,6.5c-0.6-1.3-2.2-4.3-3.2-5.6c7.2-3.3,14.3-8.6,18.3-14.7l5.4,2c-0.3,0.6-0.7,1.1-1.1,1.7
			c4.9,2.9,10.5,6.3,13.4,8.6L702.3,107.5z M707.8,96.8h5.6v35h-5.6V96.8z M725.3,141c0,3.5-0.8,5.2-2.8,6.1c-2,1-5.3,1.2-10.5,1.2
			c-0.3-1.6-1.1-4.3-1.9-5.9c3.6,0.1,7,0.1,8,0.1c1.1,0,1.5-0.3,1.5-1.5V90.3h5.8L725.3,141L725.3,141z M738.1,146.6
			c-0.8-1.3-2.4-3.3-3.6-4.4c6.5-1,14.1-3.3,18.2-5.9l4.4,2C752.6,141.8,744.7,145.2,738.1,146.6z M786.3,146.6
			c-4-2-11.7-5.4-17.5-7.6l3.8-3c5.6,2,13.3,5.1,17.6,7.2L786.3,146.6z M790.4,133.7h-25.1v14.7h-5.8v-14.7h-24.7v-5h24.7v-3.8
			h-18.8v-4.5h18.8v-3.8h-21.9V112h12.8c-0.6-1.6-1.7-3.8-2.8-5.5l3.7-0.9h-16.2v-4.7h9.5c-1-2.5-2.9-6-4.7-8.6l5.2-1.8
			c2,2.8,4.2,6.7,5.1,9.2l-3.4,1.3h7.2V90.1h5.6V101h6.3V90.1h5.6V101h7l-2.5-0.8c1.5-2.6,3.5-6.6,4.5-9.5l6.1,1.6
			c-1.7,3.1-3.6,6.3-5.3,8.7h9.1v4.7h-16.7l5,1.3c-1.4,1.9-2.9,3.6-4.2,5.1h13.5v4.7h-22.5v3.8h19.5v4.5h-19.5v3.8h25.1L790.4,133.7
			L790.4,133.7z M796.3,131.7c5.5-6.7,9-17.6,10.4-26.1l6.7,1.2c-2.2,9.5-6,21.1-11.6,28.4C800.3,134.1,797.8,132.5,796.3,131.7z
			 M829.7,140.5c0,4-1,5.8-3.5,6.8c-2.6,1-6.7,1.2-12.7,1.2c-0.3-1.8-1.4-4.6-2.4-6.4c4.5,0.2,9,0.2,10.4,0.1
			c1.3-0.1,1.8-0.4,1.8-1.7V91h6.5V140.5z M849.9,135.4c-1.3-7.5-6.3-19.2-11.5-28.4l5.6-2.3c5.4,8.8,10.6,20.2,12.1,27.9
			L849.9,135.4z M860.8,112.7c1.8-0.1,3.9-0.3,6.1-0.5V95.4H862v-4.3h30.6v4.3h-4.2v22.4h-5.3v-3.1c-7.9,0.9-15.6,1.7-21.7,2.2
			L860.8,112.7z M880.2,143.3c-1.4-2-4-4.9-6.5-7.5c-2.6,3.9-5.8,7-9.6,9.4c-0.3-1.3-1.4-4.2-2.1-5.6c5-2.8,9.3-7.4,11.3-13.3
			l4.4,1.3c-0.5,1.5-1.1,2.9-1.7,4.3c2.9,2.6,6.1,5.9,7.7,8.1L880.2,143.3z M892.8,148.4h-5.9v-24.3c-6.4,0.6-12.8,1-18.3,1.3
			c-0.7-1.3-2.2-4.1-3.3-5.3c14-0.1,32-1.5,42.3-3.4l4.5,4c-5.4,1.1-12.2,2.1-19.3,2.9L892.8,148.4L892.8,148.4z M914.8,143.6
			c-3.3-2-6.5-5.6-8.8-9.3c-2.6,4.2-5.8,7.7-9.5,10.2c-0.3-1.3-1.5-4.2-2.2-5.5c5.1-3.2,9.3-8.6,11.2-15.2l4.4,1.2
			c-0.4,1.6-1,3.1-1.6,4.6c2.2,4,6.1,7.9,10,9.9C917.3,140.4,915.6,142.3,914.8,143.6z"/>
		<path class="st0" d="M696.2,121h-16c-0.1,1.2-0.1,2.4-0.2,3.6h16.2V121z"/>
		<rect x="684.2" y="135.5" class="st0" width="13.7" height="5.8"/>
	</g>
</g>
</svg>
