<?xml version="1.0" encoding="utf-8"?>
<!-- Generator: Adobe Illustrator 28.0.0, SVG Export Plug-In . SVG Version: 6.00 Build 0)  -->
<svg version="1.1" id="圖層_1" xmlns="http://www.w3.org/2000/svg" xmlns:xlink="http://www.w3.org/1999/xlink" x="0px" y="0px"
	 viewBox="0 0 500 200" style="enable-background:new 0 0 500 200;" xml:space="preserve">
<style type="text/css">
	.st0{fill:#FFFFFF;}
</style>
<g>
	<g>
		<polygon class="st0" points="123.4,118.6 123.1,116.8 119.4,95.7 119.1,93.9 117.2,94.4 112.1,95.5 110.5,95.8 110.7,97.6 
			114.4,118.3 114.8,120.1 116.4,119.7 121.6,118.8 		"/>
		<polygon class="st0" points="158.5,123.1 158.5,99.3 183.9,99.3 185.8,99.3 185.8,97.6 185.8,92.6 185.8,90.8 183.9,90.8 
			125.5,90.8 123.6,90.8 123.6,92.6 123.6,97.6 123.6,99.3 125.5,99.3 149.7,99.3 149.7,123.1 121.5,123.1 119.8,123.1 119.8,124.8 
			119.8,130.2 119.8,132 121.5,132 187.3,132 189.2,132 189.2,130.2 189.2,124.8 189.2,123.1 187.3,123.1 		"/>
		<path class="st0" d="M235.9,112.8l-0.7-1.5l-2-4.6l-0.7-1.5l-1.6,0.7l-11.4,4.5V79.7h11.7h1.7V78v-5.1v-1.7h-1.7h-11.6V44.1H232
			h1.7v-1.7v-5v-1.8H232h-33.5h-1.7v1.7v5V44h1.7h12.3v27h-12.3h-1.7v1.8v5.1v1.8h1.7h12.3V113l-12.9,3.8l-1.9,0.6l0.8,1.8l1.9,4.7
			l0.6,1.5l1.5-0.4c15.9-4.2,27.3-7.9,33.8-11.5L235.9,112.8z"/>
		<path class="st0" d="M116.9,89.8l0.6,1.6l1.6-0.5l4.9-1.3l1.7-0.5l-0.5-1.7c-1.1-3.6-3.4-9.8-7.4-19.7l-0.7-1.5l-1.6,0.6l-4.9,1.7
			l-1.8,0.7l0.8,1.7l2.7,6.1l-13.9,1.4c9.2-10.9,15.3-21.3,18.2-31.1l0.6-1.7l-1.7-0.5l-5-1.4l-1.6-0.5l-0.6,1.6
			c-1.6,4.9-4,10-7.2,15.4L95.3,55c4-7.2,7.1-13.4,9.1-18.6l0.6-1.6l-1.5-0.7L98.9,32L97,31.3l-0.7,1.7c-2.5,6.2-5.2,11.9-7.8,16.7
			l-4-2.6L83,46l-1,1.5l-2.7,4.4l-1,1.6l1.6,1c5.3,3.1,10.5,7.3,16.3,12.9c-3.1,4.5-6.3,8.6-9.7,12.5l-5.3,0.5l-2,0.2l0.5,1.9
			l1.3,4.9l0.4,1.5l1.5-0.2l15.7-1.5v46.4v1.7h1.7h5.2h1.7v-1.7V86.3l8.6-1L116.9,89.8z"/>
		<path class="st0" d="M420.4,123.6c-25-20.2-39.6-38.3-45.7-56.8c-2.4-7.2-4-14.1-4.3-20.9c0,0.1,0-1.1,0-1.1c0,0.1,0.2-5,0.2-5
			c0-0.1,0-7.9,0-7.9v-1.7H369h-7h-1.7V32v8.2c0,29.9-8.4,52.3-25.5,68.3c-6,6-13.4,10-22,14.4l-1.9,1l1.4,1.7l4.2,5.2l1,1.3
			l1.4-0.9c16.5-10,26.8-18.7,33.9-28.7c6.5-9.8,11.1-19.2,14-29.2c5.3,14.5,15.2,28.7,30.6,44l0.1,0.1l0.1,0.1l15.5,13.1l1.1,1
			l1.2-1l5.6-4.3l1.8-1.4L420.4,123.6z"/>
		<path class="st0" d="M182.9,49.9l-1.6-0.7l-4.7-2l-1.8-0.9l-0.6,1.9c-1.7,6.3-4.3,11.5-7.6,15.9c-1.3,1.7-1.3,3.5,0.1,4.8
			c3.2,3.6,6.6,9.2,10.1,16.7l0.9,1.8l1.7-1.1l4.5-2.7l1.5-1l-0.9-1.5c-4.2-7.2-7.4-12.4-9.7-14.9c2.6-4.1,5.2-9.1,7.5-15
			L182.9,49.9z"/>
		<path class="st0" d="M87.8,94.5L86,94.1l-0.3,1.8c-1,7.4-3.5,17-7.5,28.6l-0.7,1.8l1.8,0.5l5.1,1.4l1.6,0.5l0.6-1.5
			c4.3-11.8,6.9-21.5,7.9-29.7l0.2-1.6l-1.6-0.3L87.8,94.5z"/>
		<polygon class="st0" points="184.8,44 186.6,44 186.6,42.4 186.6,37.4 186.6,35.6 184.8,35.6 122,35.6 120.2,35.6 120.2,37.4 
			120.2,42.4 120.2,44 122,44 		"/>
		<path class="st0" d="M146,70.9c2.7,3.1,6,8.3,9.6,15.2l1,1.7l1.6-1.1l4.3-2.8l1.5-1l-1-1.5c-4.2-6.9-7.6-12-10.3-15
			c2.3-3,5.3-7.8,9.2-14.6l0.9-1.5l-1.5-1l-4.5-2.6l-1.7-1.1l-0.8,1.8c-2.8,6.5-5.9,11.7-9.7,16l0.1-0.1
			C142.1,66.2,144.9,69.6,146,70.9z"/>
		<path class="st0" d="M140.7,50.1l-1.6-0.8l-4.6-2.2l-1.8-0.9l-0.7,1.8c-2.3,6.7-5.3,12.3-8.7,16.4c-1.9,2.3,0.7,5.7,1.6,7.1
			c2.8,4.1,5.5,9.1,8,15.3l0.8,1.8l1.7-1.1l4.5-2.6l1.5-0.9l-0.8-1.5c-3.7-7.2-6.8-12.4-9.3-15.7c2.5-3.6,5.4-8.8,8.5-15.3
			L140.7,50.1z"/>
		<path class="st0" d="M301.3,27.8l-18.1,16.9l-9.2-7.8l-1.3-1.1h-36v18.7l-3.9,3.5l3.9,3.6v29.5h25.8v9.4h-26.1h-1.7v1.7v5.1v1.7
			h1.7h26.1v13.8H231h-1.7v1.7v5.4v1.7h1.7H303h1.7v-1.3v-5.4v-1.7H303h-31.7v-13.8h27.6h1.7v-1.7v-5.1V101h-1.7h-27.6v-9.7h27.5
			V57.8l-1.6-1.4l-6.5-5.5l16-18.9L301.3,27.8z M270.7,46l5.8,4.9l-5.8,5.5V46z M245.6,82.1V69.8L259,82.1H245.6L245.6,82.1z
			 M245.6,52.7v-7.9h16.9v20.6l-0.6-0.4L245.6,52.7z M289.9,82.1h-25.5l9.4-11.1l16.2-0.1L289.9,82.1L289.9,82.1z M289.9,62.5h-8.9
			l3.9-4.7l4.9,4.2L289.9,62.5L289.9,62.5z"/>
	</g>
	<g>
		<polygon class="st0" points="386.8,122.4 388.8,122.4 388.8,121.5 388.6,121.5 383.4,121.5 383.4,122.4 385.7,122.4 385.7,125.9 
			383.1,125.9 383.1,126.9 385.7,126.9 385.7,131.7 386.8,131.7 386.8,126.9 389.3,126.9 389.3,125.9 386.8,125.9 		"/>
		<path class="st0" d="M380.5,121.5h-7.8c-0.2,0-0.4,0.2-0.4,0.4v4.6c-0.1,1.4-0.5,2.8-1.3,4.5l-0.1,0.2l1,0.3l0.1-0.2
			c0.5-1,0.9-2,1.2-3.3h6.9v2.3v0.1c-0.1,0.1-0.6,0.2-2.2-0.2l-0.3-0.1v1.1l0.2,0.1c0.8,0.2,1.5,0.3,1.9,0.3c0.5,0,0.9-0.2,1.2-0.4
			c0.2-0.2,0.3-0.4,0.3-0.7v-8.8C380.9,121.5,380.7,121.5,380.5,121.5z M379.9,127.1h-6.7c0-0.2,0.1-0.4,0.1-0.4v-1.5h6.7
			L379.9,127.1L379.9,127.1z M379.9,124.3h-6.7v-1.9h6.7V124.3z"/>
		<polygon class="st0" points="390.8,121.5 390.6,121.5 389.8,121.5 389.8,129.4 390.8,129.4 		"/>
		<path class="st0" d="M393.4,121h-0.8v9.6c0,0,0,0.1-0.1,0.1c-0.3,0.2-0.9,0.2-2.2-0.2l-0.3-0.1v1l0.2,0.1c1.5,0.5,2.4,0.5,3,0.1
			c0.3-0.1,0.4-0.4,0.5-0.7v-9.7L393.4,121L393.4,121z"/>
	</g>
	<g>
		<g>
			<path class="st0" d="M83.1,164.1h2v-16.9h-2v-0.6h7l3.1,10.8l3.1-10.8h6.7v0.6h-2v16.9h2v0.6h-8.5v-0.6h2v-16.9l-5.2,17.4h-0.6
				l-5.3-17.4v16.9h2v0.6H83L83.1,164.1L83.1,164.1z"/>
			<path class="st0" d="M108.8,152.1l2.2,6.6h-4.5L108.8,152.1z M102,164.5h5.2V164h-2.5l1.7-4.8h4.9l1.6,4.8h-2.1v0.6h8.4V164h-1.5
				l-6.3-17.6h-1.1L104,164H102V164.5L102,164.5z"/>
			<path class="st0" d="M118.3,164.1h2v-16.9h-2v-0.6h6.9l7,11.5v-10.9h-2.1v-0.6h4.8v0.6h-2v17.4h-1.6l-10.1-16.6v16.2h2v0.6h-4.7
				v-0.6H118.3z"/>
			<path class="st0" d="M139.1,152.1l2.2,6.6h-4.5L139.1,152.1z M132.3,164.5h5.2V164h-2.5l1.7-4.8h4.9l1.6,4.8h-2.2v0.6h8.4V164
				h-1.5l-6.3-17.6h-1.1l-6.1,17.6h-1.9L132.3,164.5L132.3,164.5z"/>
			<path class="st0" d="M161.6,146.4h0.5l0.3,5.2h-0.6c-0.3-0.9-0.5-1.5-0.7-1.8c-0.2-0.4-0.7-1.1-1.4-1.8c-0.7-0.9-1.8-1.4-3.4-1.4
				c-0.8,0-1.5,0.2-2,0.6c-0.7,0.3-1.2,1-1.5,1.7c-0.4,0.9-0.6,3-0.6,6.7c0,1.8,0.1,3.3,0.2,4.3c0.1,1,0.3,1.9,0.7,3
				c0.4,1.1,1.4,1.5,2.8,1.5c1,0,1.5-0.3,1.9-0.8c0.5-0.6,0.6-1.4,0.6-2.5v-3.5h-2v-0.6h8.4v0.6H163v3.6c-0.2,0.3-0.5,0.6-0.6,0.8
				s-0.6,0.6-1,1.1c-0.5,0.6-1.3,1-2.1,1.4c-1,0.4-1.9,0.6-3.1,0.6c-2.7,0-4.7-1-6.3-2.9c-1.5-1.9-2.2-4.1-2.2-6.3
				c0-2.6,0.9-4.9,2.4-6.7c1.6-1.8,3.6-2.7,6-2.7c1,0,1.7,0.1,2.2,0.3c0.6,0.2,1.4,0.6,2.2,1.3L161.6,146.4z"/>
			<path class="st0" d="M164.4,164.1h2.1v-16.9h-2.1v-0.6h14l0.3,4.9h-0.6c-0.2-1.1-0.7-2-1.4-3s-1.6-1.5-2.9-1.5h-3.3v8.2h0.5
				c0.2,0,0.5,0,0.7,0c0.2,0,0.6-0.1,1-0.2c0.5-0.1,0.8-0.4,1.1-0.9c0.2-0.3,0.5-0.7,0.5-1c0.1-0.3,0.2-1,0.3-1.6h0.6v7.7h-0.6
				c-0.1-0.7-0.2-1.2-0.3-1.5c-0.1-0.3-0.3-0.8-0.7-1.4c-0.3-0.6-1.2-0.9-2.3-0.9h-0.5v8.3h3.3c0.6,0,1.3-0.2,1.8-0.6
				c0.7-0.3,1.2-0.8,1.6-1.3c0.5-0.6,0.7-1,0.9-1.4c0.2-0.5,0.4-1.1,0.6-1.9h0.5l-0.2,5.6h-14.7L164.4,164.1L164.4,164.1z"/>
			<path class="st0" d="M186,147h2.4c0.9,0,1.5,0.3,1.8,1c0.5,0.7,0.7,1.6,0.7,3c0,1.4-0.2,2.3-0.7,2.8c-0.5,0.6-1.3,1-2.3,1h-1.8
				L186,147L186,147z M179.6,164.5h8.6V164h-2.2v-8.7h1.6c0.9,0,1.5,0.3,1.9,0.9c0.5,0.6,0.8,1.4,0.8,2.3l0.2,2.2
				c0,1.4,0.4,2.3,1.1,3c0.8,0.7,1.7,1.1,3,1.1c0.5,0,0.9-0.1,1.3-0.1s0.9-0.2,1.4-0.5l-0.2-0.5c-0.3,0.2-0.7,0.3-0.9,0.3
				c-0.5,0-0.9-0.2-1-0.6c-0.2-0.5-0.3-1.2-0.3-2.1s-0.1-1.7-0.3-2.3s-0.5-1.3-0.8-1.7c-0.3-0.6-0.7-1-1.1-1.2
				c-0.4-0.3-0.8-0.5-1.3-0.6s-1.1-0.2-1.7-0.3c0.8-0.2,1.4-0.3,1.8-0.5c0.5-0.2,1-0.3,1.5-0.6c0.9-0.5,1.4-1,1.7-1.5
				c0.3-0.6,0.6-1.3,0.6-2c0-1.4-0.6-2.3-1.5-3c-1-0.7-2.4-1.1-4.3-1.1h-9.8v0.6h2.1v17h-2.1v0.5L179.6,164.5L179.6,164.5z"/>
		</g>
		<g>
			<path class="st0" d="M202.3,153.6c0.8-0.5,1.4-0.9,1.7-1.3c0.3-0.4,0.7-0.7,1-0.9c0.2-0.2,0.5-0.5,0.7-0.7
				c0.2-0.3,0.5-0.6,0.6-0.8c0.2-0.3,0.5-0.7,0.7-1.1h0.6v4.6h2.1v0.6h-2.1v7.6c0,1.1,0.3,1.6,1.1,1.6c0.7,0,1.2-0.6,1.6-1.7
				l0.5,0.2c-0.2,0.7-0.5,1.1-0.7,1.4c-0.2,0.3-0.6,0.6-1.1,0.9c-0.6,0.3-1.3,0.5-2.1,0.5c-1.9,0-2.9-0.8-2.9-2.3v-8h-1.5
				L202.3,153.6L202.3,153.6z"/>
			<path class="st0" d="M213.8,158.5c0-1.9,0.2-3.2,0.5-3.9c0.3-0.6,0.9-1,1.7-1c0.8,0,1.4,0.3,1.5,0.9c0.2,0.6,0.3,1.2,0.4,1.7
				c0.1,0.6,0.1,1.5,0.1,2.5c0,1.1-0.1,1.9-0.1,2.6c-0.1,0.7-0.2,1.4-0.3,1.8c-0.2,0.6-0.7,0.9-1.6,0.9c-0.9,0-1.5-0.3-1.6-0.9
				c-0.2-0.6-0.3-1.1-0.3-1.6c-0.1-0.6-0.1-1.5-0.1-2.8L213.8,158.5L213.8,158.5z M211.7,154.9c-1.2,1.1-1.7,2.4-1.7,4
				s0.6,2.9,1.7,4c1.2,1.2,2.5,1.6,4.2,1.6s3-0.6,4.2-1.7s1.7-2.4,1.7-4c0-1.6-0.6-2.9-1.7-4c-1.2-1.2-2.4-1.6-4.2-1.6
				C214.3,153.2,212.8,153.8,211.7,154.9z"/>
			<path class="st0" d="M230.3,161.3c-0.1,0.3-0.2,0.6-0.4,1.1c-0.2,0.5-0.5,0.8-0.9,1.1c-0.4,0.3-0.8,0.5-1.2,0.5
				c-0.5,0-0.8-0.2-1.1-0.5c-0.3-0.3-0.5-0.7-0.5-1c-0.1-0.3-0.1-0.8-0.1-1.4v-0.6v-3.4c0-0.2,0-0.3,0-0.6c0-0.2,0.1-0.6,0.1-1
				c0.1-0.5,0.3-0.8,0.7-1.1c0.3-0.3,0.6-0.5,1-0.5c0.4,0,0.8,0.2,1.2,0.6c0.4,0.5,0.7,0.9,1,1.4c0.2,0.5,0.3,1,0.3,1.4v3
				C230.4,160.7,230.4,161,230.3,161.3z M230.4,155.3c-0.6-0.8-1-1.3-1.5-1.5c-0.5-0.3-1.1-0.5-1.7-0.5c-1.4,0-2.4,0.6-3.5,1.7
				c-1,1.2-1.5,2.5-1.5,4.2c0,1.5,0.5,2.8,1.5,3.8c1,1.1,2,1.5,3.4,1.5c1.4,0,2.1-0.2,2.4-0.7c0.3-0.5,0.6-0.9,0.7-1
				c0.1-0.2,0.2-0.3,0.3-0.5v1.8h5.2v-0.6h-1.6v-17.4H229v0.6h1.7L230.4,155.3L230.4,155.3z"/>
			<path class="st0" d="M242.4,161c0,0.6-0.2,1.1-0.5,1.5c-0.3,0.5-0.7,0.7-1.2,0.7s-0.8-0.2-1-0.6c-0.2-0.5-0.3-1-0.3-1.6
				s0.1-1.1,0.4-1.5c0.2-0.3,0.5-0.6,1-0.7c0.5-0.2,1-0.3,1.6-0.3V161L242.4,161z M242.4,158.2l-0.8,0.1c-1,0.2-1.6,0.3-1.9,0.3
				c-0.5,0.1-1,0.3-1.6,0.5s-1.1,0.5-1.4,0.8c-0.3,0.3-0.6,0.6-0.7,1c-0.2,0.4-0.2,0.7-0.2,1.1c0,0.8,0.3,1.5,0.9,1.9
				c0.6,0.5,1.3,0.8,2,0.8c0.7,0,1.5-0.2,1.9-0.6c0.6-0.3,1.1-0.8,1.5-1.5c0.2,0.7,0.6,1.3,1,1.5c0.5,0.3,1,0.5,1.7,0.5
				c1,0,1.7-0.3,2.1-0.8l0.4-0.6l-0.2-0.3c-0.3,0.3-0.6,0.5-0.9,0.5s-0.5-0.2-0.5-0.6v-0.7v-6.4c0-1.6-1.5-2.4-4.5-2.4
				c-1.6,0-2.8,0.3-3.6,0.8c-1,0.5-1.4,1.3-1.4,1.9c0,0.5,0.2,0.8,0.5,1.1c0.3,0.3,0.8,0.5,1.3,0.5c0.5,0,1-0.2,1.3-0.5
				c0.3-0.3,0.6-0.7,0.6-1.2c0-0.3-0.1-0.6-0.3-0.9c-0.2-0.2-0.3-0.3-0.3-0.5c0-0.1-0.1-0.1-0.1-0.2c0-0.2,0.2-0.5,0.5-0.6
				c0.3-0.2,0.7-0.2,1.2-0.2c0.6,0,1,0.1,1.1,0.4c0.2,0.2,0.3,0.7,0.3,1.4L242.4,158.2L242.4,158.2L242.4,158.2z"/>
			<path class="st0" d="M246.3,153.6h6.9v0.6h-1.6l2.7,6.1l2.3-6.1h-2v-0.6h4.3v0.6h-1.5l-6,15.2c-0.8,1.9-1.7,2.8-2.8,2.8
				c-0.5,0-1-0.2-1.3-0.5c-0.3-0.3-0.6-0.7-0.6-1.3c0-0.5,0.2-0.9,0.6-1.3c0.4-0.4,0.8-0.6,1.3-0.6c0.3,0,0.6,0.1,0.7,0.2
				c0.2,0.1,0.3,0.3,0.5,0.5c0.2,0.2,0.3,0.4,0.3,0.5c0.1,0.1,0.1,0.1,0.2,0.1c0.2,0,0.3-0.1,0.5-0.3c0.2-0.2,0.3-0.5,0.5-0.9
				l1.6-4.3l-4.9-10.3h-1.3L246.3,153.6L246.3,153.6z"/>
		</g>
	</g>
</g>
</svg>
