<?xml version="1.0" encoding="utf-8"?>
<!-- Generator: Adobe Illustrator 28.0.0, SVG Export Plug-In . SVG Version: 6.00 Build 0)  -->
<svg version="1.1" id="圖層_1" xmlns="http://www.w3.org/2000/svg" xmlns:xlink="http://www.w3.org/1999/xlink" x="0px" y="0px"
	 viewBox="0 0 500 200" style="enable-background:new 0 0 500 200;" xml:space="preserve">
<style type="text/css">
	.st0{fill:#FFFFFF;}
</style>
<g>
	<g>
		<path class="st0" d="M73,140.5c-1-0.8-3.1-2.4-4.7-3.5c-1.2,1.8-3.1,3.6-6.4,5c-0.4-0.6-1.3-1.6-2-2.1c3.9-1.5,5.6-3.4,6.4-5.3h-6
			v-2.5h2.3c-0.6-0.4-1.7-1.1-2.4-1.4c1.7-1.7,3-4.1,3.7-6.6l2.8,0.6c-0.2,0.8-0.5,1.5-0.8,2.2h8.6v2.5h-4.6v1.7c0,0.3,0,0.7,0,1
			h5.5v2.5h-5.9l-0.1,0.3c1.4,0.7,5,2.8,5.9,3.5L73,140.5z M66.9,132.2c0-0.4,0-0.7,0-1v-1.7h-2.3c-0.6,1.1-1.2,2-1.9,2.7H66.9z
			 M64.9,141.2h20.9v13.7h-3.2v-1.1H67.9v1.2h-3.1V141.2z M67.9,143.7v2.6h14.7v-2.6H67.9z M82.6,151.3v-2.7H67.9v2.7H82.6z
			 M88.6,127v11.9h-12V127H88.6z M85.5,129.7h-6.1v6.4h6.1V129.7z"/>
		<path class="st0" d="M124.1,151.9c0,1.4-0.3,2.1-1.2,2.5c-1,0.4-2.4,0.4-4.5,0.4c-0.1-0.7-0.6-1.8-1-2.5c1.4,0.1,2.8,0.1,3.2,0
			c0.4,0,0.6-0.1,0.6-0.5v-4.4c-2,1.3-4,2.5-5.7,3.6l-0.9-2.2c-0.4,2.2-1,4.5-2.4,6.2c-0.4-0.6-1.6-1.7-2.2-2.1c1.9-2.5,2-6.1,2-8.9
			v-7.8h12V151.9z M122.1,126.8c1.5,2.3,3.4,5.5,4.2,7.4l-2.7,1.1c-0.2-0.6-0.5-1.4-1-2.2c-8.7,0.8-10,1-10.9,1.3
			c-0.2-0.6-0.6-2.1-1-2.8c0.5-0.1,1.1-0.6,1.8-1.3c0.6-0.7,2.8-3.3,4.1-6l3.2,0.9c-1.3,2.1-2.9,4.1-4.4,5.8l6-0.4
			c-0.6-1-1.2-2.1-1.8-3L122.1,126.8z M115,144c0,1.3-0.1,2.7-0.3,4.2c1.7-0.8,4.1-2,6.5-3.2v-1.2l-1.5,1.5c-1.1-1-3.2-2.5-4.7-3.6
			l1.6-1.5c1.5,0.9,3.5,2.3,4.6,3.2v-4.7H115V144z M131.2,138.8c-3.4,0-4.3-1.2-4.3-4.4v-10h3.1v4.3h8.6v2.7h-8.6v3.1
			c0,1.2,0.2,1.6,1.3,1.6h5.6c0.8,0,2.2-0.1,2.9-0.2c0.1,0.8,0.2,2,0.3,2.6c-0.6,0.2-1.9,0.2-3.1,0.2H131.2z M136.4,152
			c1.2,0,1.5-0.6,1.6-4c0.6,0.5,1.9,1,2.7,1.1c-0.4,4.4-1.2,5.5-4.1,5.5h-5.4c-3.5,0-4.4-0.9-4.4-4v-10.9h3.1v3.7h8.9v2.8h-8.9v4.4
			c0,1.1,0.3,1.3,1.7,1.3H136.4z"/>
		<path class="st0" d="M161.3,140.4h12.1v14.4h-3.1v-1.5h-6.1v1.7h-2.9V140.4z M164.3,143.3v6.9h6.1v-6.9H164.3z M184.7,137.1H166
			v-11.4h18.6V137.1z M181.5,128.7H169v5.4h12.5V128.7z M189.3,140.4v14.4h-3.1v-1.6h-6.6v1.7h-3v-14.6H189.3z M186.2,150.3v-6.9
			h-6.6v6.9H186.2z"/>
		<path class="st0" d="M217.9,124.4h2.6V136h-5.6v1.6c0,0.9,0,1.7,0,2.7h5.6V155h-2.8v-12h-2.9c-0.3,4.1-0.8,8.5-2.2,12
			c-0.7-0.3-2-0.7-2.8-1c2-4.7,2.3-11.6,2.3-16.4v-12.5h2.8v8.2h3.1V124.4z M240.5,148.4H235v6.6h-2.8v-6.6h-10.8v-2.7h3.4
			c-0.4-0.4-0.9-0.8-1.4-1.1c1.6-1,2.8-2.2,3.6-3.4h-4.5v-13.4h4.6c0.5-1.1,1.1-2.4,1.4-3.4l3.5,0.5c-0.5,1-1.1,2-1.5,2.9h8.5v13.4
			h-8.9c-0.8,1.6-2,3.1-3.6,4.5h5.7v-3.7h2.8v3.7h5.5L240.5,148.4z M225.4,133.3h4v-3h-4V133.3z M228.4,138.7c0.5-1.1,0.7-2.1,0.9-3
			h-3.9v3H228.4z M236,135.6h-3.9c-0.2,0.8-0.4,1.9-0.8,3h4.7V135.6z M236,130.3h-3.8v3h3.8V130.3z"/>
		<path class="st0" d="M265.8,136.7c0,5.3-0.4,13-3.5,18.1c-0.5-0.5-1.9-1.3-2.6-1.6c2.8-4.8,3.1-11.5,3.1-16.5V127h12.5
			c-0.2-0.7-0.5-1.5-0.7-2.1l3.2-0.6c0.4,0.8,0.8,1.9,1,2.8h11.4v2.6h-24.4V136.7z M281.7,149.6c3.1,1.1,6.4,2.4,8.5,3.3l-1.4,2.2
			c-2.1-1-5.5-2.5-8.7-3.6l1.2-1.9h-7.2l2.1,1.8c-2.8,1.3-6.6,2.7-9.2,3.7c-0.4-0.6-1.1-1.6-1.7-2.2c2.5-0.8,6.2-2.2,8.3-3.3h-5.6
			v-9.5h20.1v9.5H281.7z M290.3,137.2v1.9h-23.7v-1.9H290.3z M271.2,136.4v-2.8h-4v-1.8h4v-1.6h3v1.6h7.5v-1.6h3.1v1.6h4.2v1.8h-4.2
			v2.8H271.2z M270.9,143.9h5.8V142h-5.8V143.9z M270.9,147.7h5.8v-2h-5.8V147.7z M274.2,133.5v1.4h7.5v-1.4H274.2z M285.2,142h-5.7
			v1.9h5.7V142z M285.2,145.7h-5.7v2h5.7V145.7z"/>
		<path class="st0" d="M339.9,136.4v2.9h-29.1v-2.9h13.7v-4.6h-7.7c-1,1.6-2,3-3,4.1c-0.7-0.4-2.1-1.3-2.8-1.7
			c2.4-2.3,4.5-6,5.7-9.6l3.1,0.7c-0.4,1.2-0.9,2.4-1.5,3.6h6.2v-4.5h3.3v4.5h9.9v2.8h-9.9v4.6H339.9z M314.8,142.2h21.5v12.9h-3.2
			v-1.7h-15.2v1.8h-3.1V142.2z M317.9,145v5.5h15.2V145H317.9z"/>
		<path class="st0" d="M390.4,147.7h-7.7v4.1c0,1.5-0.3,2.3-1.5,2.7c-1.1,0.4-2.9,0.4-5.5,0.4c-0.1-0.8-0.6-1.9-1-2.7
			c1.8,0.1,3.7,0.1,4.2,0c0.5,0,0.7-0.2,0.7-0.6v-4h-11.1c1.7,1.1,3.6,2.6,4.5,3.6l-2.3,2c-1.1-1.3-3.3-3.1-5.2-4.3l1.5-1.3h-6.8
			v-2.5h19.3v-1.7c-6.7,0.2-13.1,0.3-17.9,0.4l-0.1-2.3c3.2,0,7.5,0,12.1-0.1v-1.6h-9.9v-9.2h9.9v-1.6h-12.5v-2.4h12.5v-2.3h3v2.3
			h12.3v2.4h-12.3v1.6h10.3v9.2H384c2,0.9,4,2.1,5.2,3l-1.8,1.7c-0.5-0.4-1.1-0.8-1.7-1.2l-2.9,0.1v1.8h7.7V147.7z M366.8,134.4h7
			v-1.7h-7V134.4z M373.8,138v-1.7h-7v1.7H373.8z M376.8,132.7v1.7h7.2v-1.7H376.8z M384,136.3h-7.2v1.7h7.2V136.3z M376.8,141.5
			l5.4-0.1c-0.7-0.3-1.4-0.6-2-0.9l0.8-0.6h-4.1V141.5z"/>
		<path class="st0" d="M437.2,138.3c-1.4,1.2-3.1,2.3-4.7,3.5c1.4,4.2,4.4,7.7,8.3,9.3c-0.7,0.5-1.6,1.7-2,2.5
			c-4.1-1.9-7-5.6-8.7-10.3c-0.4,0.3-0.9,0.5-1.3,0.8c1.1,4.1,0.3,8.1-1.5,9.5c-1.1,1-2,1.3-3.6,1.3c-0.8,0-1.8,0-2.8-0.1
			c-0.1-0.8-0.3-2-0.8-2.9c1.2,0.1,2.2,0.2,3,0.2c0.8,0,1.4-0.1,2-0.7c0.8-0.7,1.3-2.5,1.2-4.7c-3.8,2.8-9.3,5.4-13.9,6.8
			c-0.3-0.8-1-1.9-1.6-2.6c5.3-1.2,11.7-4.2,15-7.1c-0.2-0.6-0.4-1.2-0.7-1.9c-3.3,2.2-8.3,4.4-12.2,5.6c-0.4-0.7-1-1.8-1.6-2.4
			c4.1-0.9,9.6-3.2,12.5-5.2c-0.4-0.5-0.8-1.1-1.3-1.6c-2.9,1.6-6.3,2.9-9.4,3.7c-0.3-0.6-1.1-1.9-1.6-2.5c4-0.9,8.2-2.3,11.3-4.3
			h-6.8v-2.7h18.9v2.7h-7.9c-0.7,0.6-1.4,1.1-2.2,1.6c1.4,1.4,2.5,3,3.2,4.6c2.4-1.6,5.1-3.7,6.8-5.3L437.2,138.3z M414.5,134.3h-3
			v-7.1h12.2c-0.3-0.8-0.7-1.5-1-2.2l3.2-0.9c0.6,0.9,1.2,2.1,1.6,3.1h12v7.1h-3.2V130h-21.8V134.3z"/>
	</g>
	<g>
		<polygon class="st0" points="84.8,63.6 107.2,74.8 84.8,86.1 		"/>
		<path class="st0" d="M129.2,55.6c-2.6-4.7-6.9-7.2-12.4-8.6c-6-1.6-15.5-2.1-22.3-2.1c-6.8,0-16.3,0.6-22.3,2.1
			c-5.5,1.4-9.9,3.9-12.4,8.6c-2.6,4.7-3.7,9.5-3.7,19.3c0,9.8,1.1,14.6,3.7,19.3c2.6,4.7,6.9,7.1,12.4,8.6c6,1.6,15.5,2.1,22.3,2.1
			c6.8,0,16.3-0.6,22.3-2.1c5.5-1.4,9.9-3.9,12.4-8.6c2.6-4.7,3.7-9.5,3.7-19.3C132.9,65.1,131.8,60.2,129.2,55.6z M119.6,74.8v17.6
			c0,0-13.4,1.6-25.2,1.6c-11.7,0-25.2-1.6-25.2-1.6V74.8V57.2c0,0,13.5-1.6,25.2-1.6c11.7,0,25.2,1.6,25.2,1.6V74.8z"/>
		<polygon class="st0" points="144.6,47.1 144.6,102.2 156.4,102.2 156.4,54.8 189.2,102.2 210.1,102.2 210.1,47.4 198.2,47.4 
			198.2,94.9 165.4,47.1 		"/>
		<path class="st0" d="M339.6,47.1h-5.2h-7.5h-5.2l-28,55.1H307l6.1-12.3h35l6.1,12.3h13.4L339.6,47.1z M318.1,79.5l12.5-24.9
			l12.5,24.9H318.1z"/>
		<path class="st0" d="M432.3,49.6c-6.7-2.4-16-2.4-21.2-2.4c-5.2,0-36.3,0-36.3,0v27v27.7c0,0,34.1,0,44.1,0
			c16.4,0,25.1-3.4,25.1-27.7C444.3,57,439,52,432.3,49.6z M430.5,91.9h-43.7V57.9h43.7V91.9z"/>
		<polygon class="st0" points="238.2,91.7 238.2,79.4 278.7,79.4 278.7,69.6 238.2,69.6 238.2,57.4 286.5,57.4 286.5,47.1 
			226.4,47.1 226.4,102.2 287.3,102.2 287.3,91.7 		"/>
	</g>
</g>
</svg>
