<?xml version="1.0" encoding="utf-8"?>
<!-- Generator: Adobe Illustrator 28.0.0, SVG Export Plug-In . SVG Version: 6.00 Build 0)  -->
<svg version="1.1" id="圖層_1" xmlns="http://www.w3.org/2000/svg" xmlns:xlink="http://www.w3.org/1999/xlink" x="0px" y="0px"
	 viewBox="0 0 500 200" style="enable-background:new 0 0 500 200;" xml:space="preserve">
<style type="text/css">
	.st0{fill:#FFFFFF;}
</style>
<g>
	<g>
		<path class="st0" d="M206.4,131.3h2.9l9.6,24.7h-2.6l-2.6-7.2h-11.3l-2.6,7.2h-2.6L206.4,131.3z M212.9,146.6l-3.4-8.9l-1.7-4.3
			c-0.2,1-1,2.9-1.7,4.3l-3.4,8.9H212.9z"/>
		<path class="st0" d="M221.3,137.3h2.4v4.3l0,0c0.7-1.9,2.4-4.5,6.2-4.5c4.1,0,6,2.6,6,6.7V156h-2.4v-11.7c0-3.1-1.2-5-4.3-5
			c-3.4,0-5.3,2.4-5.3,6V156h-2.4v-18.7H221.3z"/>
		<path class="st0" d="M246.9,152.4l1.7-1.7c1.7,1.9,3.6,3.4,7.2,3.4c3.6,0,6.5-1.4,6.5-4.5c0-3.4-3.1-4.1-6.7-5
			c-3.8-1-7.9-2.2-7.9-6.9c0-4.3,3.4-6.5,8.1-6.5c4.1,0,6.5,1.7,8.1,3.4l-1.7,1.7c-1.4-1.7-3.4-2.9-6.5-2.9c-3.8,0-5.5,1.9-5.5,4.1
			c0,3.1,2.9,3.8,6.2,4.8c4.1,1,8.4,2.2,8.4,7.2c0,4.3-3.6,6.9-9.1,6.9C251.9,156.2,248.8,155,246.9,152.4z"/>
		<path class="st0" d="M275.1,131.3h2.9l9.6,24.7h-2.6l-2.6-7.2h-11.3l-2.6,7.2h-2.6L275.1,131.3z M281.4,146.6l-3.4-8.9l-1.7-4.3
			c-0.2,1-1,2.9-1.7,4.3l-3.4,8.9H281.4z"/>
		<path class="st0" d="M290.2,131.3h8.9c5.7,0,8.6,2.9,8.6,7.4c0,4.3-2.9,7.7-8.4,7.7h-6.5v9.6h-2.6V131.3z M305.1,138.7
			c0-3.1-2.2-5-6.2-5h-6V144h6C303.1,143.8,305.1,141.8,305.1,138.7z"/>
		<path class="st0" d="M317.3,143.5c0-8.4,5-12.7,12-12.7c4.3,0,7.2,1.7,9.3,3.8l-1.9,1.9c-1.4-1.9-3.8-3.4-7.4-3.4
			c-6,0-9.3,3.8-9.3,10.3s3.1,10.3,9.3,10.3c3.6,0,6-1.4,7.4-3.4l1.9,1.9c-1.9,2.4-5,3.8-9.3,3.8
			C322.3,156.2,317.3,152.1,317.3,143.5z"/>
		<path class="st0" d="M340.2,146.6c0-5.7,3.6-9.6,8.9-9.6s8.9,3.8,8.9,9.6c0,5.7-3.6,9.6-8.9,9.6S340.2,152.4,340.2,146.6z
			 M355.6,146.6c0-5-2.9-7.4-6.5-7.4s-6.5,2.6-6.5,7.4c0,5,2.9,7.4,6.5,7.4S355.6,151.7,355.6,146.6z"/>
		<path class="st0" d="M361.8,137.3h2.4v4.1l0,0c0.7-2.6,2.9-4.5,5.7-4.5c2.9,0,4.5,1.7,5.3,4.5l0,0c0.7-2.9,2.9-4.5,5.7-4.5
			c3.6,0,5.5,2.2,5.5,6.7V156H384v-11.7c0-3.1-1-5-3.8-5c-3.1,0-4.8,2.4-4.8,6V156H373v-11.7c0-3.1-1-5-3.8-5c-3.1,0-4.8,2.4-4.8,6
			V156H362v-18.7H361.8z"/>
		<path class="st0" d="M391,137.3h2.4v4.3l0,0c1-2.6,3.1-4.5,7.2-4.5c5,0,8.4,3.8,8.4,9.6c0,5.7-3.4,9.6-8.1,9.6
			c-3.6,0-6-1.9-7.2-4.5l0,0v11.5h-2.4v-25.9H391z M406.3,146.6c0-5-2.9-7.4-6.5-7.4s-6.5,2.6-6.5,7.4c0,5,2.9,7.4,6.5,7.4
			C403.4,154.3,406.3,151.7,406.3,146.6z"/>
		<path class="st0" d="M411.3,150.9c0-4.1,3.4-5.7,8.4-5.7h3.8v-1.4c0-3.1-1.4-4.5-4.3-4.5c-2.6,0-4.3,1.2-5.5,2.6l-1.7-1.7
			c1.4-1.7,3.6-3.1,7.2-3.1c4.3,0,6.5,2.6,6.5,6.7V156h-2.4v-3.8l0,0c-1.2,2.6-3.4,4.1-6.5,4.1C413.7,156.2,411.3,154.3,411.3,150.9
			z M417.8,154.3c3.8,0,5.7-2.9,5.7-5.3v-1.9H420c-3.4,0-6.2,1-6.2,3.8C413.7,153.1,415.2,154.3,417.8,154.3z"/>
		<path class="st0" d="M430.5,137.3h2.4v4.3l0,0c0.7-1.9,2.4-4.5,6.2-4.5c4.1,0,6,2.6,6,6.7V156h-2.4v-11.7c0-3.1-1.2-5-4.3-5
			c-3.4,0-5.3,2.4-5.3,6V156h-2.4v-18.7H430.5z"/>
		<path class="st0" d="M447.7,163.6v-2.2c0.5,0.2,1,0.2,1.7,0.2c2.2,0,2.9-1,3.6-2.6l1.2-3.4l-7.4-18.4h2.6l4.3,11.3
			c0.5,1.4,1.4,3.8,1.7,4.5c0.2-0.7,1.2-2.9,1.7-4.3l4.3-11.5h2.6l-8.9,22.5c-1,2.6-2.2,3.8-5.3,3.8
			C448.9,163.9,448.2,163.6,447.7,163.6z"/>
	</g>
	<g id="XMLID_00000169516672310075799060000013092427840530790313_">
		<path id="XMLID_00000093144978290722804330000003198549178450549660_" class="st0" d="M167.7,84.6v1h-35.9c0.5,8.6,6.5,12,14.6,12
			c6.9,0,12-2.4,14.6-5.7l4.5,6.5c-3.8,3.4-10.3,6.5-19.6,6.5c-13.2,0-22.5-6.9-22.5-19.9v-1.2c0-12,8.6-21.3,22.5-21.3
			C162.1,62.6,167.7,73.9,167.7,84.6z M158.6,79.4c-1-6.2-4.8-10.3-13.2-10.3c-7.4,0-12.2,3.8-13.4,10.3H158.6z"/>
		<path id="XMLID_00000045581978132345848650000013344418215458867338_" class="st0" d="M247.4,82.5V104h-9.6V82.2
			c0-7.7-3.1-11.5-10.8-11.5c-5.3,0-8.6,1.9-11.3,4.8V104h-9.6V80.8c0-6.5-2.6-10.3-10.3-10.3c-4.8,0-9.1,1.9-11.7,5.3v28h-9.6V63.1
			h8.6l0.7,6c2.4-3.4,7.4-6.7,15.3-6.7c6.5,0,11.7,2.9,13.9,7.7c3.1-3.8,8.6-7.7,15.8-7.7C241.1,62.6,247.4,69.3,247.4,82.5z"/>
		<path id="XMLID_00000130619727273616429280000003754943735710890159_" class="st0" d="M289,104c-0.5-1.4-0.7-3.4-1-5
			c-2.6,2.6-7.4,5.7-15.8,5.7c-8.9,0-17.7-3.6-17.7-12.9c0-10.3,7.9-13.4,18.2-13.4c6,0,11.3,1.4,15.3,3.1v-2.4
			c0-7.2-5.3-9.3-12.7-9.3c-6.5,0-11.5,1.9-14.4,4.3l-3.1-7.2c4.3-2.4,10.1-4.3,18.4-4.3c11.5,0,20.1,5,19.9,17.7
			c0,4.1,0,8.9,0,12.9c0,6.5,0.2,9.1,0.7,11H289V104z M287.8,93.2v-5.7c-3.6-1.4-8.4-2.4-13.2-2.4c-7.2,0-11.5,1.2-11.5,6.5
			c0,5,5,6.5,10.8,6.5C279.7,98,284.9,96.4,287.8,93.2z"/>
		<path id="XMLID_00000078766815626177557030000014425994543373240477_" class="st0" d="M332.1,64.3l-1.7,8.9
			c-1.2-1-3.1-1.4-5.5-1.4c-4.8,0-8.4,3.6-9.8,8.4v24.2H306V63.6h8.6l0.5,9.3c1.7-6.2,5.5-9.6,11.5-9.6
			C328.5,63.1,330.9,63.6,332.1,64.3z"/>
		<path id="XMLID_00000075841037865056963960000012570689500421038981_" class="st0" d="M334.7,99.9l3.1-7.7
			c3.6,3.4,10.1,5.5,16.5,5.5c7.4,0,12-1.7,12-6.2s-5.3-4.3-13.6-5.3c-10.1-1.2-16-2.9-16-10.3c0-7.4,5.7-13.4,18.4-13.4
			c6.9,0,12.9,1.2,17.7,3.4l-2.6,7.2c-3.6-2.4-8.9-3.4-14.8-3.4c-6.7,0-10.5,1.9-10.5,5.7c0,3.6,5.3,3.6,13.4,4.5
			c7.4,1,16.3,1.9,16.3,11.3s-7.4,13.6-19.6,13.6C346.7,105,339.5,103.1,334.7,99.9z"/>
		<path id="XMLID_00000042709630824546555000000015546683878574732978_" class="st0" d="M424.7,63.3c-10.3,23.2-20.1,44.3-28.7,58.2
			l-9.1-2.9c3.8-5.5,6.9-11,8.9-14.8l-18.7-40.5h10.1l13.6,33.3l13.9-33.3C414.7,63.3,424.7,63.3,424.7,63.3z"/>
		<path id="XMLID_00000127760298097977025930000010705710311099058068_" class="st0" d="M424.3,99.9l3.1-7.7
			c3.6,3.4,10.1,5.5,16.5,5.5c7.4,0,12-1.7,12-6.2s-5.3-4.3-13.6-5.3c-10.1-1.2-16-2.9-16-10.3c0-7.4,5.7-13.4,18.4-13.4
			c6.9,0,12.9,1.2,17.7,3.4l-2.6,7.2c-3.6-2.4-8.9-3.4-14.8-3.4c-6.7,0-10.5,1.9-10.5,5.7c0,3.6,5.3,3.6,13.4,4.5
			c7.4,1,16.3,1.9,16.3,11.3s-7.4,13.6-19.6,13.6C436.2,105,429.3,103.1,424.3,99.9z"/>
	</g>
	<g>
		<polygon class="st0" points="51.3,111 51.3,124.6 97,104 97,90.6 		"/>
		<g>
			<path class="st0" d="M97,36.3l-61,27l0,0l0,0l0,0V77l0,0l30.4,13.6L97,77V63.3L66.4,77l-15.3-6.7l45.7-20.3V36.3H97z M66.4,78.6
				v10.3L37.7,76.2L49.4,71L66.4,78.6z"/>
		</g>
	</g>
</g>
</svg>
