<?xml version="1.0" encoding="utf-8"?>
<!-- Generator: Adobe Illustrator 28.0.0, SVG Export Plug-In . SVG Version: 6.00 Build 0)  -->
<svg version="1.1" id="圖層_1" xmlns="http://www.w3.org/2000/svg" xmlns:xlink="http://www.w3.org/1999/xlink" x="0px" y="0px"
	 viewBox="0 0 500 200" style="enable-background:new 0 0 500 200;" xml:space="preserve">
<style type="text/css">
	.st0{fill-rule:evenodd;clip-rule:evenodd;fill:#FFFFFF;}
	.st1{fill:#FFFFFF;}
</style>
<g>
	<path class="st0" d="M59.1,100.1L59.1,100.1l14.5-13.7L56.9,70.7L40.3,86.4l0,0l-14.5,13.7l14.3,13.5l0,0l16.7,15.7l16.7-15.7
		L59.1,100.1L59.1,100.1z"/>
	<path class="st1" d="M133.8,76.5h-10.6c-1.1-2.6-2.4-5-3.8-7.4l-4.8,1.3c0.9,1.8,2,4.1,3,6.1h-13.2v4.2h29.4L133.8,76.5z
		 M115.3,90.3c-0.5-3.2-1.4-6.3-2.8-9.2l-4,0.9c1.2,3,2.2,6.9,2.5,9.3L115.3,90.3z M109.4,110.9c-1.4,4.4-3.7,9-6.4,12.1
		c1,0.5,2.7,1.8,3.5,2.5c2.5-3.4,5.4-8.6,7-13.4L109.4,110.9z M134,107.3V103h-12.2v-7h12.9v-4.2h-8.6c1.3-2.8,2.5-6.4,3.8-9.7
		l-4.6-0.9c-1,3.6-2.3,7.2-3.7,10.6h-18.6V96h13.8v7h-13.4v4.3h13.4v23.3h4.9v-23.3H134z M124.8,112.3c2,3.2,4.4,7.9,5.5,10.8l3.6-2
		c-1.2-2.9-3.5-7.3-5.7-10.6L124.8,112.3z M164,91.9h-21.4V79.2c7-1.1,14.8-2.8,20.3-4.8l-4-3.7c-4.9,2-13.4,4.1-21,5.3v23.2
		c0,9-0.5,20.5-6.2,28.5c1.1,0.5,3.1,2,3.8,3.1c6.1-8.7,7-21.9,7-31.6v-2.4h9.3v33.8h4.9v-34h7.3L164,91.9L164,91.9z"/>
	<path class="st1" d="M218.9,110.8v7.8h-16v-7.8H218.9z M223,122.3V107h-24.5v18.3h4.4v-3.1L223,122.3L223,122.3z M236.6,90.7h-15.3
		c1.8-2.4,3.6-5.4,5.2-8l-5.1-1.2c-1.1,2.7-3.1,6.4-4.9,9.2h-31.1v40.1h4.7V94.8h11.5c-0.9,5.2-3.6,7.9-11.5,9.3
		c1,1,1.8,2.2,2.5,3.5c9.3-2,12.5-5.8,13.5-12.8h7.6v4.3c0,4,0.9,5.7,4.9,5.7h7c1.4,0,3.1,0,3.9-0.3c-0.2-1.2-0.3-2.4-0.3-3.6
		c-1.2,0.2-2.4,0.3-3.7,0.3h-6c-1.1,0-1.3-0.5-1.3-2v-4.3h13.6v30.4c0,1.1-0.4,1.4-1.5,1.4c-1.1,0.1-5,0.2-9.2,0
		c0.7,1.2,1.2,2.5,1.5,3.8c5.7,0,9.1-0.1,11.1-0.7c2-0.8,2.6-1.9,2.6-4.5V90.7H236.6z M195.9,82.6c1.4,2.5,3.2,5.9,4.2,7.8l4.3-1.7
		c-0.9-2-2.8-5.1-4.2-7.5L195.9,82.6z M214.5,76.7c-0.8-2.2-2-5.2-2.9-7.6l-4.7,1.2c0.9,1.9,1.7,4.3,2.4,6.4h-27.7V81h58.7v-4.3
		H214.5L214.5,76.7z"/>
	<path class="st1" d="M278.7,118.3c-4.4,2.9-13,5.5-19.9,6.7c1.2,1.1,2.2,2.4,3.1,3.8c7-1.6,15.8-5.1,20.6-8.7L278.7,118.3z
		 M295,120.7c6.4,2.4,14.9,5.8,19.3,8l3.1-3.1c-4.7-2.2-13.2-5.4-19.5-7.5L295,120.7z M299,85.6c-1.1,2.3-2.5,4.5-4,6.7l2.4,0.8
		h-18.6l2.8-0.8c-0.9-2.4-2-4.6-3.6-6.7H299z M290.6,110.8v-5.1h21v-3.8h-21v-4.8H315V93h-15.4c1.4-1.7,3.1-4,4.7-6.2l-4.4-1.2h17.5
		v-4.2H307c1.8-2.5,4-6.3,5.9-9.7l-5.1-1.4c-1.2,3-3.3,7.5-5.2,10.2l2.7,0.9h-8.1V69.5h-4.7v11.9h-8V69.5h-4.7v11.9h-8.2l3.3-1.4
		c-0.9-2.7-3.3-6.9-5.7-9.9l-4.2,1.5c2,3,4.4,7,5.4,9.8h-10.8v4.2h17.4l-3.6,0.9c1.4,2,2.5,4.2,3.5,6.4H262V97h23.7v4.8h-20.3v3.8
		h20.3v5.1h-26.6v4.2h26.6v16h4.9v-16h27v-4.2L290.6,110.8L290.6,110.8z"/>
	<path class="st1" d="M373.5,90.4c-1.5-1.4-3.1-2.6-4.8-3.7c1.4-1.3,2.7-2.8,3.9-4.3l-3.5-1.2c-1,1.3-2.1,2.5-3.3,3.6
		c-1.7-0.9-3.5-2-5.2-2.7l-2.5,2.2c1.5,0.8,3.2,1.6,4.8,2.6c-2,1.4-4.2,2.6-6.4,3.7c1,0.8,1.9,1.7,2.8,2.6c2.4-1.3,4.6-2.7,6.7-4.4
		c2,1.4,3.7,2.7,4.8,3.9L373.5,90.4z M373.3,78.4c-1.2-0.9-2.8-2-4.7-3.1c1.3-1.3,2.6-2.7,3.7-4.1l-3.5-1c-1,1.2-2,2.3-3.1,3.3
		c-1.7-0.9-3.5-1.8-5.1-2.5l-2.5,2.2c1.6,0.7,3.2,1.5,4.7,2.5c-1.9,1.3-3.9,2.5-6,3.5c1,0.8,1.9,1.6,2.8,2.5
		c2.2-1.2,4.3-2.5,6.3-4.1c1.6,1,3.2,2.2,4.7,3.5L373.3,78.4z M342,97.2h47.3v8.3h4.9V93.4H389c0.5-6,1.2-14.7,1.4-21.3h-15.5v3.5
		h10.7l-0.2,3.7h-10.2v3.5h9.9l-0.2,3.6h-10v3.5h9.8c-0.1,1.4-0.3,2.5-0.4,3.8h-36.9l-0.3-3.8h9.3v-3.5h-9.6l-0.3-3.7h9.6v-3.5h-9.8
		l-0.3-3.3c3.5-0.7,7.5-1.5,10.4-2.6l-2.2-3.1c-3.3,1-9.1,2.6-13,3.3l1.4,20h-5.4v12.2h4.7V97.2L342,97.2z M395.6,113.6h-26.9v-1.2
		c5.4-2.2,11-5.2,15.2-8.3l-3-2.5l-1,0.3h-31.7v3.8h26.3c-3.4,2-7,3.8-10.7,5.1v2.9h-28.1v4.2h28v7.5c0,0.9-0.3,1.2-1.4,1.2
		c-1,0-4.7,0-9-0.1c0.8,1.3,1.3,2.7,1.8,4.2c5.4,0,8.7,0.1,10.9-0.7c2-0.8,2.6-1.9,2.6-4.5v-7.7h26.9V113.6z"/>
	<path class="st1" d="M473,79.3h-19.6l4.4-2c-1.1-2.4-3.3-5.7-5.7-8.2l-4.2,1.8c2.1,2.6,3.9,5.4,5.4,8.4h-17v4.7H473V79.3z
		 M457.7,88c4.3,4.2,9.3,10.3,11.5,14.3l3.7-3.1c-2.2-3.8-7.4-9.7-11.8-13.8L457.7,88z M445.3,85.7c-2.4,4.7-6.6,10.4-10.9,13.9
		c1.2,1,2.4,1.9,3.5,3c4.4-3.9,9-9.6,12-14.9L445.3,85.7z M435.1,104.2c-1.2-2-6.4-10.9-8-13.2v-2.7h7.6v-4.7h-7.6V69.5h-4.6v14.2
		h-8.7v4.7h7.8c-1.9,9.3-5.9,19.9-10,25.6c1.1,1.5,2,3.1,2.7,4.7c3.1-4.7,6-12.4,8.3-20.3v32.5h4.6V97.6c1.8,3.7,4.1,8.1,4.9,10.4
		L435.1,104.2z M460.5,97.4c-1.3,5.2-3.6,10-6.7,14.4c-3.3-4.3-5.9-9-7.7-14.1l-4.3,1.2c2.2,6.2,5.2,11.9,9,16.7
		c-4.4,4.7-10,8.6-16.8,11.5c1.2,1.1,2.3,2.4,3.1,3.8c6.7-3.1,12.3-7,16.8-11.6c4.7,5,10.6,8.7,17,11.1c0.8-1.4,2.2-3.4,3.3-4.3
		c-6.5-2.2-12.3-5.8-17.1-10.6c3.8-5.1,6.6-10.8,8.2-16.9L460.5,97.4z"/>
</g>
</svg>
