<?xml version="1.0" encoding="utf-8"?>
<!-- Generator: Adobe Illustrator 28.0.0, SVG Export Plug-In . SVG Version: 6.00 Build 0)  -->
<svg version="1.1" id="圖層_1" xmlns="http://www.w3.org/2000/svg" xmlns:xlink="http://www.w3.org/1999/xlink" x="0px" y="0px"
	 viewBox="0 0 400 136" style="enable-background:new 0 0 400 136;" xml:space="preserve">
<style type="text/css">
	.st0{fill:#FFFFFF;}
	.st1{fill:#F90000;}
	.st2{fill-rule:evenodd;clip-rule:evenodd;fill:#DE0515;}
	.st3{fill:#0083CE;}
	.st4{fill:none;stroke:#000000;stroke-width:9.805650e-02;stroke-miterlimit:10;}
</style>
<g>
	<rect x="174.1" y="92.5" class="st0" width="54.4" height="17.3"/>
	<path d="M228.1,109.5h-53.7V92.9h53.7V109.5z M175,108.9h52.6V93.5H175V108.9z"/>
	<g>
		<path d="M194.1,107.6h-14v-0.7h2.5v-8.6h3.3c0.2-0.3,0.4-0.8,0.6-1.5h-6.2v-0.7h6.4c0.3-0.7,0.4-1.3,0.5-1.6l0.8,0.2
			c-0.2,0.7-0.3,1.2-0.4,1.5h6.2v0.7h-6.4c-0.1,0.3-0.3,0.8-0.6,1.5h4.8v8.6h2.5V107.6z M190.7,100.5V99h-7.3v1.4H190.7z
			 M190.7,102.6v-1.4h-7.3v1.4H190.7z M190.7,104.7v-1.4h-7.3v1.4H190.7z M190.7,106.9v-1.4h-7.3v1.4H190.7z"/>
		<path d="M213.2,98h-1.4v2.7c0.3-0.2,0.7-0.4,1.2-0.8l0.1,0.9c-0.3,0.2-0.7,0.5-1.3,0.9v5.1c0,0.3-0.1,0.6-0.3,0.8
			c-0.2,0.2-0.6,0.3-1.1,0.3h-0.8l-0.3-0.8h1.2c0.3,0,0.5-0.1,0.5-0.4v-4.6c-0.3,0.2-0.9,0.5-1.7,0.9l-0.3-0.8
			c0.5-0.2,1.1-0.6,2-1.1V98H209v-0.8h1.9v-2.7h0.8v2.7h1.4V98z M223.1,101.3l-0.4,0.7c-1.2-0.7-2.5-1.4-4.1-1.9v2h3.3v5.9H221v-0.7
			h-5.6v0.7h-0.8v-5.9h3.2v-2.6c-1.2,1.1-2.5,1.9-4,2.5l-0.5-0.7c1.6-0.7,2.9-1.4,3.8-2.3h-3.4v-0.8h4v-2.4
			c-0.9,0.1-2.1,0.1-3.5,0.1l-0.2-0.8c2,0,3.6,0,4.7-0.1c1.1-0.1,2.2-0.3,3.2-0.6l0.4,0.7c-1,0.3-2.3,0.5-3.8,0.6v2.5h4.4V99h-4.4
			v0.3C220.4,100,221.9,100.6,223.1,101.3z M216.4,97.6l-0.7,0.4c-0.3-0.4-0.6-0.9-1.1-1.3l0.7-0.4
			C215.8,96.7,216.2,97.1,216.4,97.6z M217.7,104.2v-1.4h-2.4v1.4H217.7z M217.7,106.5V105h-2.4v1.5H217.7z M221,104.2v-1.4h-2.5
			v1.4H221z M221,106.5V105h-2.5v1.5H221z M221.9,96.4c-0.3,0.5-0.8,1.1-1.4,1.6l-0.7-0.5c0.5-0.5,1-1,1.4-1.5L221.9,96.4z"/>
	</g>
	<circle class="st1" cx="201.8" cy="101.3" r="4.4"/>
	<g id="XMLID_00000136378674167004677450000000869727936497487275_">
		<path id="XMLID_00000098188090778229174100000005635349416439206024_" class="st2" d="M50.4,36.6c0,0,4.7,14.6,23.2,14.4
			c11.7-0.8,20.9-14,32.1-23.2c4.7-3.8,15.8-9.4,26-3.4c5.2,3.4,6.3,8.3,4.8,13.7c-2.6-3.8-6.8-6.2-13-6.4c-1.4,0-1.6-0.1-3.5,0.1
			c-10.4,1.4-19.6,12.2-24.6,16.6c-4.8,4.9-22.2,20.1-37.6,6.1C54,50.8,51.2,45.4,50.4,36.6z"/>
		<path id="XMLID_00000003064319185418794280000016121585036308026553_" class="st2" d="M59.4,51.1c0,0,4.7,14.6,23.2,14.4
			c11.7-0.8,20.9-14,32.1-23.2c4.7-3.8,15.8-9.4,26-3.4c5.2,3.4,6.3,8.3,4.8,13.7c-2.6-3.8-6.8-6.2-13-6.4c-1.4,0-1.6-0.1-3.5,0.1
			c-10.4,1.4-19.6,12.2-24.6,16.6c-4.8,4.9-22.2,20.1-37.6,6.1C63,65.3,60.2,59.9,59.4,51.1z"/>
		<g id="XMLID_00000055707703332382593880000002026007217328018097_">
			<path id="XMLID_00000070076339437986423900000000526322776179442363_" d="M149.7,63.7l4.1-2.5c2.9,5.3,6.2,8,10,8
				c1.6,0,3.1-0.4,4.6-1.1c1.4-0.8,2.5-1.8,3.2-3c0.7-1.3,1.1-2.6,1.1-4c0-1.6-0.5-3.2-1.6-4.8c-1.5-2.1-4.3-4.7-8.3-7.7
				c-4-3-6.5-5.2-7.5-6.6c-1.7-2.3-2.6-4.7-2.6-7.4c0-2.1,0.5-4,1.5-5.7c1-1.7,2.4-3.1,4.3-4.1c1.8-1,3.8-1.5,6-1.5
				c2.3,0,4.4,0.6,6.4,1.7c2,1.1,4.1,3.2,6.3,6.2l-3.9,3c-1.8-2.4-3.4-4-4.6-4.8c-1.3-0.8-2.7-1.2-4.2-1.2c-1.9,0-3.5,0.6-4.8,1.8
				c-1.2,1.2-1.9,2.6-1.9,4.4c0,1.1,0.2,2.1,0.7,3.1c0.4,1,1.2,2.1,2.4,3.2c0.6,0.6,2.7,2.2,6.2,4.8c4.2,3.1,7,5.8,8.6,8.2
				c1.6,2.4,2.3,4.8,2.3,7.3c0,3.5-1.3,6.5-4,9.1c-2.7,2.6-5.9,3.9-9.7,3.9c-2.9,0-5.6-0.8-8-2.3C153.9,70,151.7,67.4,149.7,63.7z"
				/>
			<path id="XMLID_00000091016326276251474570000002953102163514668722_" d="M178.3,29.2v-4.7h26.5v4.7H194v43.6h-4.9V29.2H178.3z"
				/>
			<path id="XMLID_00000018958166869648732970000007269123096746682506_" d="M206.9,24.4h4.8v29.2c0,3.5,0.1,5.6,0.2,6.5
				c0.2,1.9,0.8,3.5,1.7,4.8c0.9,1.3,2.2,2.4,4,3.2c1.8,0.9,3.6,1.3,5.5,1.3c1.6,0,3.1-0.3,4.6-1c1.5-0.7,2.7-1.6,3.7-2.8
				c1-1.2,1.7-2.7,2.2-4.4c0.3-1.2,0.5-3.7,0.5-7.6V24.4h4.8v29.2c0,4.3-0.4,7.8-1.3,10.5c-0.8,2.7-2.5,5-5.1,6.9
				c-2.5,2-5.6,3-9.2,3c-3.9,0-7.2-0.9-10-2.8c-2.8-1.9-4.6-4.3-5.6-7.4c-0.6-1.9-0.9-5.3-0.9-10.2V24.4z"/>
			<path id="XMLID_00000097464749906628682440000016064600283294799013_" d="M245.7,72.7V24.4h10c7.2,0,12.5,0.6,15.7,1.7
				c4.7,1.6,8.3,4.5,11,8.5c2.6,4,4,8.9,4,14.5c0,4.8-1,9.1-3.1,12.8c-2.1,3.7-4.8,6.4-8.1,8.1c-3.3,1.8-8,2.6-14,2.6H245.7z
				 M250.3,68.2h5.6c6.7,0,11.3-0.4,13.9-1.2c3.6-1.2,6.5-3.3,8.6-6.4c2.1-3.1,3.1-6.8,3.1-11.3c0-4.7-1.1-8.6-3.4-11.9
				c-2.3-3.3-5.4-5.6-9.4-6.8c-3-0.9-8-1.4-14.9-1.4h-3.4V68.2z"/>
			<path id="XMLID_00000176755861668134630030000003027992372317349533_" d="M290,24.4h4.8v48.3H290V24.4z"/>
			<path id="XMLID_00000123410270298287875320000009356839557564476068_" d="M323.8,23.2c7.3,0,13.4,2.4,18.4,7.3
				c4.9,4.9,7.4,10.9,7.4,18c0,7.1-2.5,13.1-7.4,18c-4.9,4.9-10.9,7.4-18,7.4c-7.2,0-13.2-2.5-18.1-7.4c-4.9-4.9-7.4-10.8-7.4-17.8
				c0-4.6,1.1-8.9,3.4-12.9c2.2-4,5.3-7.1,9.2-9.3C315.1,24.3,319.3,23.2,323.8,23.2z M324,27.9c-3.6,0-7,0.9-10.2,2.8
				c-3.2,1.9-5.7,4.4-7.5,7.5c-1.8,3.2-2.7,6.7-2.7,10.5c0,5.7,2,10.6,6,14.5c4,4,8.8,5.9,14.4,5.9c3.7,0,7.2-0.9,10.4-2.7
				c3.2-1.8,5.7-4.3,7.5-7.5c1.8-3.2,2.7-6.7,2.7-10.5c0-3.8-0.9-7.3-2.7-10.4c-1.8-3.1-4.3-5.6-7.5-7.4
				C331.1,28.9,327.7,27.9,324,27.9z"/>
		</g>
		<polygon id="XMLID_00000122679742991544972380000004506750527763556486_" class="st3" points="312.1,31.9 312.1,65.2 344.6,48.6 
					"/>
		<path id="XMLID_00000039854568692127666910000016322769836277846942_" class="st4" d="M293.2,23"/>
		<g id="XMLID_00000091731795240729863050000015741212544999993484_">
			<path id="XMLID_00000028318793657123155830000009298840251953417384_" d="M90.8,107.8c-0.1,0.8-0.3,2-0.7,3.6
				c-0.4,1.5-0.8,2.4-1.2,2.6c-0.4,0.2-0.7,0.4-1.1,0.4c-0.6,0-1.1-0.3-1.5-0.9c-0.4-0.6-0.7-2-0.9-4.2c-0.2-2.2-0.3-4.6-0.3-7.1
				V87.3H67.2v10.1c0,6.5-1.3,12.1-4,16.9l-1.4-1.3c2.5-4.9,3.8-10.1,3.8-15.8V85.5h21v19.5c0,1.2,0.1,2.7,0.4,4.5
				c0.3,1.8,0.4,2.7,0.5,2.7c0.1,0.1,0.2,0.1,0.2,0.1c0.6,0,1.1-1.9,1.4-5.6L90.8,107.8z M84.8,113.2l-1.5,0.9
				c-0.3-0.9-0.7-1.7-1.1-2.4c-3.4,0.6-8.3,1.2-14.8,1.7l-0.6-1.6c3.9-0.2,6.8-0.4,8.6-0.7v-5.9H70v-9h5.3v-3.8h-6.6v-1.7h15v1.7H77
				v3.8h5.3v9H77v5.7c1.5-0.2,3-0.4,4.4-0.7c-0.4-0.7-0.9-1.5-1.7-2.5l1.4-0.8C83,109.4,84.2,111.6,84.8,113.2z M75.4,103.5v-5.6
				h-3.7v5.6H75.4z M80.6,103.5v-5.6H77v5.6H80.6z"/>
			<path id="XMLID_00000072992848720614208350000014402439431867708574_" d="M114.9,106.5c-0.4,2.8-1.2,5.4-2.3,7.9l-1.6-0.7
				c1-2.1,1.7-4.6,2.3-7.7L114.9,106.5z M124.2,104.1l-1.5,0.6c-0.2-0.7-0.4-1.3-0.7-1.9c-3.6,1-6.9,1.7-10.1,2.2l-0.5-1.8
				c2.4-2.1,4.6-4.8,6.6-7.9c-2.1,0.4-4.1,0.6-5.9,0.8l-0.5-1.8c2.1-2.5,4-5.7,5.8-9.6l1.5,0.8c-1.5,3.1-3.2,6-5.2,8.7
				c2-0.2,3.8-0.5,5.3-0.8c0.7-1.2,1.5-2.5,2.3-4.1l1.6,0.7c-2.6,5.4-5.5,9.7-8.7,12.9c2.2-0.4,4.6-0.9,7.1-1.5
				c-0.4-0.9-0.8-1.6-1.2-2.3l1.5-0.7C122.7,100.4,123.6,102.3,124.2,104.1z M119.6,112.7l-1.7,0.5c-0.3-2.4-0.9-4.7-1.8-6.7
				l1.6-0.5C118.7,108.3,119.3,110.5,119.6,112.7z M123.4,109.7l-1.5,0.7c-0.5-1.5-1.2-2.9-1.9-4.3l1.6-0.7
				C122.4,106.9,123,108.4,123.4,109.7z M139.2,112.7h-16.7V111h8.1V88.9h-7.1v-1.8h15.2v1.8h-6.4V111h7V112.7z"/>
			<path id="XMLID_00000067931224697826517800000009985850759363333255_" d="M268.8,107.9c-1.2,1.8-2.8,3.4-4.6,4.8l-1.2-1.3
				c1.6-1.1,3.1-2.6,4.5-4.5L268.8,107.9z M280.8,97.8h-17.7v-1.6h8.2c-0.3-0.9-0.6-1.6-0.9-2.1H265v-8.6h13.8v8.6h-6.5
				c0.2,0.5,0.5,1.2,0.8,2.1h7.7V97.8z M278.6,105.8h-5.7v6.2c0,0.8-0.2,1.4-0.7,1.8c-0.5,0.4-1.2,0.5-2.3,0.5h-1.3l-0.5-1.6
				c1.1,0,1.9,0,2.4,0c0.5,0,0.8-0.4,0.8-1v-5.9h-5.9v-5.9h13.2V105.8z M277.1,88.9v-1.8h-10.5v1.8H277.1z M277.1,92.5v-1.9h-10.5
				v1.9H277.1z M277,104.1v-2.6h-10v2.6H277z M279.1,111.5l-1.4,1c-0.7-1.6-1.7-3.1-2.8-4.6l1.4-1
				C277.3,108.1,278.2,109.6,279.1,111.5z M291.4,104.7c-2.7,3.9-6.3,7.1-10.7,9.6l-1-1.5c4.8-2.8,8.3-6,10.5-9.5L291.4,104.7z
				 M290.6,85.7c-2.4,3-5.5,5.5-9.3,7.5l-1-1.4c4.4-2.3,7.4-4.7,9.2-7.3L290.6,85.7z M290.9,94.9c-2.2,2.9-5.4,5.6-9.6,8l-1-1.5
				c4.2-2.3,7.4-4.9,9.4-7.7L290.9,94.9z"/>
			<path id="XMLID_00000126295273587044646640000003866202088420261043_" d="M319.8,85.2c-0.5,1.7-1,3.3-1.6,5l-0.9,2.3v21.8h-1.6
				V96c-1.1,1.9-2,3.3-2.7,4.2l-1.2-1.4c2.5-3.3,4.7-8.1,6.4-14.3L319.8,85.2z M340.3,111.5l-1,1.5c-1.9-1-4.1-2.7-6.4-5.1
				c0,0.7,0.1,1.3,0.1,1.7c0,1.4-0.2,2.5-0.5,3.1c-0.3,0.7-0.8,1.1-1.4,1.3c-0.6,0.2-1.7,0.3-3.4,0.3c-0.5,0-1,0-1.3,0l-0.5-1.7
				c2.7,0.1,4.2,0,4.7-0.3c0.5-0.3,0.7-1.1,0.7-2.6c0-0.7,0-1.5-0.1-2.4c-2.6,2.1-6.4,4-11.4,5.6l-1-1.4c5.2-1.5,9.2-3.5,12-5.9
				c-0.1-0.4-0.3-1.1-0.7-2.1c-2.7,2.1-6.1,3.7-10.3,4.9l-0.8-1.5c4.4-1.2,7.9-2.9,10.4-4.9c-0.3-0.5-0.7-1-1.2-1.5
				c-2.2,1.3-5.1,2.3-8.6,3.2l-0.8-1.6c3.6-0.7,6.8-2,9.7-3.8h-6.6v-5.9c-0.6,0.5-1.3,1-1.9,1.5l-0.8-1.5c3.8-2.9,6.4-5.5,7.9-8
				l1.5,0.9c-0.3,0.5-0.7,1.1-1,1.5h8v1.6c-0.8,1.1-1.8,2.2-2.9,3.5h6v6.5h-7.4c-0.6,0.5-1.1,0.9-1.6,1.2c1.1,1.2,2,2.6,2.6,4.2
				c1.9-1,3.9-2.4,5.9-4.1l1.2,1.1c-1.7,1.6-3.7,3-6.2,4.4C335.1,108.1,337.6,110.2,340.3,111.5z M333.1,88.5h-7.1
				c-1.2,1.3-2.4,2.5-3.5,3.5h7.7C331.3,90.7,332.3,89.5,333.1,88.5z M329.2,97v-3.5h-6V97H329.2z M336.8,97v-3.5h-6V97H336.8z"/>
		</g>
	</g>
</g>
</svg>
