<?xml version="1.0" encoding="utf-8"?>
<!-- Generator: Adobe Illustrator 28.0.0, SVG Export Plug-In . SVG Version: 6.00 Build 0)  -->
<svg version="1.1" id="圖層_1" xmlns="http://www.w3.org/2000/svg" xmlns:xlink="http://www.w3.org/1999/xlink" x="0px" y="0px"
	 viewBox="0 0 400 136" style="enable-background:new 0 0 400 136;" xml:space="preserve">
<style type="text/css">
	.st0{fill:#EB1162;}
	.st1{fill:#F8971C;}
	.st2{fill:#3CBA90;}
	.st3{fill:#444444;}
</style>
<g>
	<g>
		<g>
			<g>
				<path class="st0" d="M116.5,37.4l1.1,3.2L71.1,90.2c0,0-17.4-6.5-23.8-19.1l-2.2-6.9c0,0,6.7,12.2,23.2,17.3L116.5,37.4
					L116.5,37.4z"/>
				<path class="st1" d="M119.8,48l1.1,3.5l-44.7,54.3c0,0-17.6-8.7-23.8-18.8l-1.8-5.5c0,0,6.6,9.9,22.9,15.9L119.8,48L119.8,48z"
					/>
				<path class="st2" d="M38.2,43.4c7.9,24.3,27.4,30,27.4,30l48.4-43.1L38.2,43.4z M63.1,64.8c-8.7-3.5-15.9-9.9-20.1-18.3
					l65.4-13.3C108.3,33,63.1,64.8,63.1,64.8z"/>
				<path class="st3" d="M154.4,55.2c-0.8-0.5-1.7-1-2.6-1.2c-1.2-0.4-2.5-0.6-4-0.6c-0.7,0-1.4,0.1-2.2,0.2c-0.7,0-1.3,0.2-1.9,0.6
					c-0.5,0.4-1,0.7-1.3,1.2c-0.4,0.6-0.5,1.2-0.5,1.8c0,0.8,0.2,1.7,0.8,2.4s1.4,1.3,2.2,1.8c0.8,0.6,1.8,1.1,2.8,1.7
					c1,0.6,1.9,1.2,2.9,2c0.8,0.7,1.7,1.7,2.2,2.8c0.6,1.2,1,2.5,0.8,4c0,1.7-0.2,3.4-1,4.8c-0.6,1.3-1.6,2.5-2.8,3.4
					c-1.3,1-2.8,1.6-4.3,1.9c-1.8,0.4-3.7,0.6-5.5,0.6c-1.1,0-2.2-0.1-3.1-0.2c-1-0.1-1.9-0.2-2.8-0.5c-0.7-0.1-1.4-0.4-2.2-0.6
					c-0.5-0.2-1.1-0.4-1.6-0.7l3.2-5.5c0.4,0.2,0.7,0.4,1.2,0.6c0.6,0.2,1.2,0.5,1.8,0.6c0.7,0.2,1.4,0.4,2.2,0.5
					c0.7,0.1,1.6,0.2,2.3,0.2c0.8,0,1.7-0.1,2.5-0.2c0.7-0.1,1.4-0.4,2-0.7c0.6-0.4,1.1-0.7,1.4-1.3c0.2-0.6,0.4-1.3,0.4-1.9
					c0-0.8-0.2-1.6-0.8-2.2c-0.6-0.7-1.4-1.2-2.2-1.7l-2.8-1.7c-1-0.6-1.9-1.3-2.8-2c-1.2-1-1.9-1.9-2.4-3c-0.6-1.3-1-2.8-0.8-4.1
					c0-1.7,0.2-3.2,1-4.7c0.6-1.3,1.6-2.4,2.6-3.2c1.2-0.8,2.5-1.4,4-1.8c1.6-0.4,3.2-0.6,4.8-0.6c1.8,0,3.6,0.2,5.4,0.6
					c0.7,0.1,1.6,0.4,2.3,0.6c0.6,0.2,1.2,0.5,1.8,0.8C157.3,49.7,154.4,55.2,154.4,55.2z M167.3,57.9l-3.1,14.7
					c-0.1,0.7-0.2,1.6-0.2,2.4c0,0.5,0.1,1.1,0.4,1.4c0.4,0.4,0.8,0.6,1.3,0.5c0.6,0,1.1-0.1,1.7-0.4c0.6-0.2,1.1-0.6,1.6-1.1
					c1-0.8,1.8-1.8,2.5-3l3-14.6h5.9l-3,14.4c-0.1,0.7-0.4,1.4-0.4,2.2c-0.1,0.8-0.2,1.7-0.4,2.6c-0.1,1-0.1,1.8-0.2,2.6
					c0,0.8,0,1.6,0,2h-4.7l-0.2-4.3h-0.1c-0.5,0.6-1,1.2-1.6,1.8c-0.6,0.6-1.2,1.1-1.9,1.6c-0.7,0.5-1.6,0.8-2.4,1.1
					c-0.8,0.2-1.8,0.5-2.6,0.5c-1.3,0.1-2.5-0.4-3.6-1.1c-1-0.7-1.4-2.2-1.4-4.1c0-1.3,0.1-2.6,0.5-3.8l3.4-15.3L167.3,57.9
					L167.3,57.9z M191.6,57.9v4.3h0.2c0.6-1.2,1.6-2.4,2.5-3.4c1.1-1,2.4-1.4,3.8-1.3c0.8,0,1.6,0.1,2.4,0.4l-1.4,5.2l-1-0.2
					c-0.2-0.1-0.6-0.1-1-0.1c-1.3,0-2.5,0.5-3.6,1.2s-1.9,1.8-2.5,2.9L188,81.5h-5.9l5-23.8h4.4V57.9z M208.9,70.4l0.1,3.7h0.1
					l1.4-3.7l6.5-12.3h6.6L209,82.1h-3.6l-4.7-24.1h6.5L208.9,70.4z M239.8,79.5c-1.1,1-2.4,1.7-3.8,2c-1.8,0.6-3.6,0.8-5.4,0.8
					c-2.3,0.1-4.4-0.7-6.1-2.2c-1.6-1.7-2.4-4-2.2-6.4c0-2.4,0.4-4.7,1.1-6.9c0.7-1.9,1.8-3.7,3.1-5.2c1.2-1.4,2.8-2.5,4.4-3.4
					c1.6-0.7,3.1-1.2,4.8-1.2c1.2,0,2.3,0.1,3.4,0.5c0.8,0.2,1.7,0.7,2.3,1.4c0.6,0.6,1.1,1.2,1.3,2c0.2,0.8,0.5,1.6,0.5,2.4
					c0,1.2-0.4,2.4-1,3.5c-0.7,1.1-1.7,1.9-2.8,2.4c-1.3,0.7-2.8,1.2-4.3,1.4c-1.8,0.4-3.7,0.5-5.5,0.5h-1.4
					c-0.1,0.4-0.1,0.7-0.1,1.1c0,0.2,0,0.6,0,0.8c-0.1,1.2,0.4,2.4,1.1,3.2c0.8,0.7,2,1.2,3.1,1.1c1.3,0,2.5-0.2,3.7-0.6
					c0.8-0.4,1.8-0.7,2.5-1.3C238.6,75.8,239.8,79.5,239.8,79.5z M229,67.8c0.8,0,1.8,0,2.9-0.1c1,0,1.9-0.2,2.8-0.5
					c0.7-0.2,1.6-0.6,2.2-1.1s0.8-1.1,0.8-1.8c0-0.5-0.2-1-0.5-1.4c-0.6-0.6-1.4-0.8-2.2-0.7c-1.4,0-2.8,0.6-3.6,1.6
					C230.2,64.9,229.4,66.2,229,67.8z M254.3,71.4v3.7h0.2l1.3-3.7l6.5-13.3h6.2l-11.4,21.3c-1,1.8-1.8,3.5-2.6,4.9
					c-0.7,1.3-1.6,2.6-2.5,3.8c-0.7,1-1.7,1.8-2.6,2.5c-0.8,0.6-1.9,1-3,1c-1.1,0.1-2.2-0.1-3.1-0.7l1.6-4.8
					c0.2,0.1,0.4,0.1,0.6,0.2c0.2,0,0.4,0,0.6,0c0.8,0,1.7-0.5,2.3-1.1c1-1,1.8-2.2,2.4-3.5l-4.4-23.7h6.7L254.3,71.4L254.3,71.4z
					 M289.6,80.3c-2.4,1.4-5,2.2-7.8,2c-1.9,0-3.7-0.4-5.5-1.1c-1.6-0.6-2.9-1.7-3.8-2.9c-1.1-1.3-1.8-2.8-2.3-4.3
					c-0.5-1.7-0.7-3.5-0.7-5.3c-0.1-3.2,0.5-6.5,1.6-9.6c1-2.4,2.4-4.7,4.2-6.5c1.7-1.7,3.7-2.9,5.9-3.7c2.2-0.8,4.4-1.2,6.8-1.2
					c1.6,0,3.1,0.1,4.7,0.4c1.1,0.2,2,0.5,3,1l-2.4,5.5c-0.7-0.4-1.4-0.6-2.3-0.8c-1.1-0.2-2.3-0.2-3.4-0.2c-3.1,0-6.1,1.4-8.1,3.8
					c-1.1,1.3-1.9,2.9-2.4,4.6c-0.6,1.9-1,4-0.8,6c-0.1,2.3,0.6,4.6,2,6.4c1.3,1.6,3.4,2.4,5.4,2.3c1.2,0,2.4-0.1,3.6-0.5
					c1-0.2,1.8-0.6,2.6-1.1L289.6,80.3L289.6,80.3z M313.1,72.2c-0.2,1.2-0.5,2.4-0.6,3.7c-0.1,1.2-0.1,2.4-0.1,3.5v1.2
					c0,0.4,0,0.7,0.1,1.1h-4.3l-0.7-4.1h-0.2c-0.4,0.6-0.8,1.2-1.3,1.7c-0.6,0.6-1.2,1.1-1.8,1.6c-0.6,0.5-1.3,0.8-2.2,1.1
					c-0.7,0.2-1.6,0.4-2.3,0.4c-1.8,0.1-3.6-0.6-4.7-2c-1.1-1.7-1.6-3.6-1.6-5.5c0-2.3,0.2-4.4,0.8-6.6c0.6-2,1.4-4,2.8-5.6
					c1.2-1.7,2.9-3,4.7-3.8c2-1,4.4-1.6,6.7-1.4c1.2,0,2.4,0.1,3.6,0.4c1.3,0.2,2.5,0.5,3.8,0.8L313.1,72.2L313.1,72.2z M302,77.6
					c0.6,0,1.1-0.1,1.7-0.4c0.5-0.2,1-0.6,1.4-1c0.4-0.4,0.7-0.8,1.1-1.2c0.4-0.5,0.6-0.8,0.8-1.2l2.4-11.1
					c-0.4-0.1-0.8-0.2-1.2-0.4c-0.5-0.1-1-0.1-1.3-0.1c-1.1,0-2.2,0.4-3,1.1c-1,0.7-1.7,1.7-2.2,2.6c-0.6,1.2-1.1,2.4-1.4,3.7
					s-0.5,2.8-0.5,4.2c0,1,0.1,1.8,0.5,2.6C300.4,77.1,301.1,77.6,302,77.6L302,77.6z M327.7,71.8h-1.9l-2,9.8h-5.9l7.1-33.3h5.9
					L326.6,68l1.8-0.6l6.7-9.5h6.5l-7.1,9.6l-2.9,1.8l2.2,1.8l3.6,10.7h-6.2L327.7,71.8z M358.3,79.5c-1.1,1-2.4,1.7-3.8,2
					c-1.8,0.6-3.6,0.8-5.4,0.8c-2.3,0.1-4.4-0.7-6.1-2.2c-1.6-1.7-2.4-4-2.2-6.4c0-2.4,0.4-4.7,1.2-6.8c0.7-1.9,1.8-3.7,3.1-5.2
					c1.2-1.4,2.8-2.5,4.4-3.4c1.6-0.7,3.1-1.2,4.8-1.2c1.2,0,2.3,0.1,3.4,0.5c0.8,0.2,1.7,0.7,2.3,1.4c0.6,0.6,1.1,1.2,1.3,2
					c0.2,0.8,0.5,1.6,0.5,2.4c0,1.2-0.4,2.4-1,3.5c-0.7,1.1-1.7,1.9-2.8,2.4c-1.3,0.7-2.8,1.2-4.3,1.4c-1.8,0.4-3.7,0.5-5.5,0.5
					h-1.4c-0.1,0.4-0.1,0.7-0.1,1.1c0,0.2,0,0.6,0,0.8c-0.1,1.2,0.4,2.4,1.1,3.2c0.8,0.7,2,1.2,3.1,1.1c1.3,0,2.5-0.2,3.7-0.6
					c0.8-0.4,1.7-0.7,2.5-1.3C357.1,75.8,358.3,79.5,358.3,79.5z M347.5,67.8c0.8,0,1.8,0,2.9-0.1c1,0,1.9-0.2,2.8-0.5
					c0.7-0.2,1.6-0.6,2.2-1.1c0.6-0.5,0.8-1.1,0.8-1.8c0-0.5-0.2-1-0.5-1.4c-0.6-0.6-1.4-0.8-2.2-0.7c-1.4,0-2.8,0.6-3.6,1.6
					C348.7,64.9,348,66.2,347.5,67.8L347.5,67.8z"/>
			</g>
		</g>
	</g>
</g>
</svg>
