<?xml version="1.0" encoding="utf-8"?>
<!-- Generator: Adobe Illustrator 28.0.0, SVG Export Plug-In . SVG Version: 6.00 Build 0)  -->
<svg version="1.1" id="圖層_1" xmlns="http://www.w3.org/2000/svg" xmlns:xlink="http://www.w3.org/1999/xlink" x="0px" y="0px"
	 viewBox="0 0 500 200" style="enable-background:new 0 0 500 200;" xml:space="preserve">
<style type="text/css">
	.st0{fill:#F7F9FB;}
	.st1{fill:#CF1126;}
</style>
<g>
	<g>
		<g>
			<g>
				<path class="st0" d="M190.8,111.5c0.3,0,0.5,0.1,0.5,0.4c0,0.3-0.2,0.4-0.5,0.4h-4.6v11.9c0,0.3-0.1,0.5-0.4,0.5
					c-0.3,0-0.4-0.2-0.4-0.5v-11.9h-4.6c-0.3,0-0.5-0.1-0.5-0.4c0-0.3,0.2-0.4,0.5-0.4H190.8z"/>
				<path class="st0" d="M201,121.7c0,0.9,0,1.4,0.1,1.7c0.1,0.3,0.2,0.4,0.5,0.4c0.3,0,0.5,0.1,0.5,0.4c0,0.3-0.2,0.4-0.5,0.4
					c-0.6,0-1.1-0.3-1.2-0.8c-0.1-0.2-0.1-0.5-0.1-0.7c-0.2,0.3-0.4,0.5-0.6,0.7c-0.7,0.7-1.9,1-3.5,1c-0.9,0-1.6-0.3-2.1-0.8
					c-0.5-0.5-0.8-1.2-0.8-2c0-0.6,0.2-1.2,0.6-1.6c0.5-0.5,1.2-0.9,2.1-1.2c1.2-0.3,2.6-0.5,4.2-0.7v0.8c-2.5,0.3-4.1,0.7-4.8,1
					c-0.8,0.4-1.2,0.9-1.2,1.6c0,0.6,0.1,1,0.4,1.3c0.4,0.4,1.1,0.6,2.1,0.6c1.3,0,2.2-0.3,2.8-0.8c0.4-0.4,0.6-0.9,0.7-1.5
					c0,0,0,0,0-0.1v-3.5c0-0.8-0.2-1.4-0.7-1.8c-0.5-0.4-1.2-0.6-2.2-0.6c-1,0-1.7,0.2-2.2,0.5c-0.5,0.4-0.8,0.9-0.8,1.5
					c0,0.3-0.1,0.5-0.4,0.5c-0.3,0-0.4-0.2-0.4-0.5c0-0.9,0.4-1.6,1.1-2.2c0.6-0.5,1.5-0.7,2.7-0.7c1.2,0,2.1,0.3,2.8,0.8
					c0.6,0.5,1,1.4,1,2.5V121.7z"/>
				<path class="st0" d="M206.2,111.6c0.1,0.1,0.2,0.3,0.2,0.5c0,0.2-0.1,0.4-0.2,0.5c-0.1,0.1-0.3,0.2-0.5,0.2
					c-0.2,0-0.3-0.1-0.4-0.2c-0.1-0.1-0.2-0.3-0.2-0.5c0-0.2,0.1-0.4,0.2-0.5c0.1-0.1,0.3-0.2,0.4-0.2
					C205.9,111.4,206.1,111.5,206.2,111.6z M205.3,115.5c0-0.3,0.1-0.5,0.4-0.5c0.3,0,0.4,0.2,0.4,0.5v8.8c0,0.3-0.1,0.5-0.4,0.5
					c-0.3,0-0.4-0.2-0.4-0.5V115.5z"/>
				<path class="st0" d="M214,116.8c0.1-0.4,0.2-0.6,0.3-0.8c0.1-0.2,0.3-0.3,0.5-0.3c0.3,0,0.5,0.1,0.5,0.3
					c0.1,0.2,0.2,0.5,0.3,0.9l2,7l2.4-8.2c0.1-0.2,0.1-0.4,0.2-0.5c0.1-0.1,0.2-0.1,0.3-0.1c0.2,0,0.3,0.1,0.3,0.1
					c0.1,0.1,0.1,0.3,0.1,0.4l-2.4,8.2c-0.1,0.3-0.2,0.6-0.3,0.8c-0.1,0.2-0.3,0.3-0.6,0.3c-0.3,0-0.5-0.1-0.5-0.3
					c-0.1-0.2-0.2-0.5-0.3-0.8l-2-7l-2,7c-0.1,0.3-0.2,0.6-0.3,0.8c-0.1,0.2-0.3,0.3-0.5,0.3c-0.3,0-0.5-0.1-0.6-0.3
					c-0.1-0.2-0.2-0.5-0.3-0.8l-2.4-8.2c0-0.1,0-0.3,0-0.4c0.1-0.1,0.2-0.2,0.3-0.2c0.1,0,0.3,0,0.3,0.1c0.1,0.1,0.2,0.3,0.2,0.5
					l2.3,8.2L214,116.8z"/>
				<path class="st0" d="M230.2,121.7c0,0.9,0,1.4,0.1,1.7c0.1,0.3,0.2,0.4,0.5,0.4c0.3,0,0.5,0.1,0.5,0.4c0,0.3-0.2,0.4-0.5,0.4
					c-0.6,0-1.1-0.3-1.2-0.8c-0.1-0.2-0.1-0.5-0.1-0.7c-0.2,0.3-0.4,0.5-0.6,0.7c-0.7,0.7-1.9,1-3.5,1c-0.9,0-1.6-0.3-2.1-0.8
					c-0.5-0.5-0.8-1.2-0.8-2c0-0.6,0.2-1.2,0.6-1.6c0.5-0.5,1.2-0.9,2.1-1.2c1.2-0.3,2.5-0.5,4.2-0.7v0.8c-2.5,0.3-4.1,0.7-4.8,1
					c-0.8,0.4-1.2,0.9-1.2,1.6c0,0.6,0.1,1,0.4,1.3c0.4,0.4,1.1,0.6,2.1,0.6c1.3,0,2.2-0.3,2.8-0.8c0.4-0.4,0.6-0.9,0.7-1.5
					c0,0,0,0,0-0.1v-3.5c0-0.8-0.2-1.4-0.7-1.8c-0.5-0.4-1.2-0.6-2.2-0.6c-1,0-1.7,0.2-2.2,0.5c-0.5,0.4-0.8,0.9-0.8,1.5
					c0,0.3-0.1,0.5-0.4,0.5c-0.3,0-0.4-0.2-0.4-0.5c0-0.9,0.4-1.6,1.1-2.2c0.6-0.5,1.5-0.7,2.7-0.7c1.2,0,2.1,0.3,2.8,0.8
					c0.6,0.5,1,1.4,1,2.5V121.7z"/>
				<path class="st0" d="M234.6,115.5c0-0.3,0.1-0.5,0.4-0.5c0.3,0,0.4,0.2,0.4,0.5v1.3c0.4-0.6,0.7-1,1.1-1.2
					c0.6-0.4,1.4-0.6,2.3-0.6c0.7,0,1.3,0.2,1.8,0.4c0.5,0.3,0.9,0.6,1.2,1c0.3,0.5,0.5,1.3,0.5,2.4v5.5c0,0.3-0.1,0.5-0.4,0.5
					c-0.3,0-0.4-0.2-0.4-0.5v-5.5c0-1.1-0.2-1.8-0.7-2.3c-0.5-0.5-1.3-0.8-2.3-0.8c-0.7,0-1.2,0.2-1.6,0.4c-0.5,0.4-0.9,0.8-1.1,1.2
					c-0.2,0.4-0.3,0.9-0.3,1.5v5.4c0,0.3-0.1,0.5-0.4,0.5c-0.3,0-0.4-0.2-0.4-0.5v-4.9V115.5z"/>
				<path class="st0" d="M252.8,111.5h3.8c2.1,0,3.6,0.6,4.6,1.7c1,1.2,1.5,2.6,1.5,4.4c0,2.4-0.5,4.1-1.5,5.4
					c-0.9,1.2-2.5,1.8-4.7,1.8h-3.7c-0.6,0-0.9-0.3-0.9-0.8v-11.6C252.1,111.8,252.3,111.5,252.8,111.5z M252.9,123.9h3.7
					c1.9,0,3.2-0.5,4.1-1.5c0.8-1,1.3-2.6,1.3-4.8c0-1.6-0.4-2.9-1.3-3.9c-0.8-0.9-2.1-1.4-4-1.4h-3.8V123.9z"/>
				<path class="st0" d="M267.1,111.6c0.1,0.1,0.2,0.3,0.2,0.5c0,0.2-0.1,0.4-0.2,0.5c-0.1,0.1-0.3,0.2-0.5,0.2
					c-0.2,0-0.3-0.1-0.4-0.2c-0.1-0.1-0.2-0.3-0.2-0.5c0-0.2,0.1-0.4,0.2-0.5c0.1-0.1,0.3-0.2,0.4-0.2
					C266.8,111.4,267,111.5,267.1,111.6z M266.2,115.5c0-0.3,0.1-0.5,0.4-0.5c0.3,0,0.4,0.2,0.4,0.5v8.8c0,0.3-0.1,0.5-0.4,0.5
					c-0.3,0-0.4-0.2-0.4-0.5V115.5z"/>
				<path class="st0" d="M270.3,117.4c0.3-0.7,0.8-1.3,1.4-1.7c0.6-0.4,1.4-0.7,2.3-0.7c1.1,0,2,0.4,2.6,1.2
					c0.3,0.4,0.5,0.8,0.7,1.1v-1.8c0-0.3,0.1-0.5,0.4-0.5c0.3,0,0.4,0.2,0.4,0.5v7.3c0,0.5,0,1,0,1.6c0,1-0.2,1.8-0.5,2.3
					c-0.4,0.6-0.9,1.1-1.5,1.4c-0.6,0.3-1.4,0.4-2.4,0.4c-1,0-1.8-0.2-2.4-0.6c-0.7-0.4-1.2-1.1-1.4-2c-0.1-0.3,0-0.5,0.3-0.6
					c0.2,0,0.4,0.2,0.5,0.6c0.2,0.6,0.5,1,1,1.3c0.5,0.3,1.1,0.4,1.9,0.4c1.2,0,2.1-0.3,2.6-0.8c0.6-0.6,0.9-1.4,0.9-2.6
					c0-0.6,0-1.1,0-1.6v-0.3c-0.2,0.3-0.4,0.7-0.7,1.2c-0.6,0.8-1.4,1.2-2.6,1.2c-0.9,0-1.6-0.2-2.2-0.6c-0.6-0.3-1-0.8-1.4-1.5
					c-0.4-0.7-0.6-1.7-0.6-2.8C269.9,118.9,270,118,270.3,117.4z M270.7,119.9c0,1.3,0.3,2.3,1,3.1c0.6,0.7,1.4,1,2.4,1
					c1,0,1.8-0.4,2.4-1.2c0.5-0.6,0.7-1.6,0.7-2.8c0-1.4-0.3-2.5-0.9-3.3c-0.5-0.7-1.2-1-2.1-1c-1,0-1.9,0.4-2.5,1.1
					C271,117.7,270.7,118.7,270.7,119.9z"/>
				<path class="st0" d="M282.2,111.6c0.1,0.1,0.2,0.3,0.2,0.5c0,0.2-0.1,0.4-0.2,0.5c-0.1,0.1-0.3,0.2-0.5,0.2
					c-0.2,0-0.3-0.1-0.4-0.2c-0.1-0.1-0.2-0.3-0.2-0.5c0-0.2,0.1-0.4,0.2-0.5c0.1-0.1,0.3-0.2,0.4-0.2
					C282,111.4,282.1,111.5,282.2,111.6z M281.4,115.5c0-0.3,0.1-0.5,0.4-0.5c0.3,0,0.4,0.2,0.4,0.5v8.8c0,0.3-0.1,0.5-0.4,0.5
					c-0.3,0-0.4-0.2-0.4-0.5V115.5z"/>
				<path class="st0" d="M287.5,122.4c0,0.6,0.1,1.1,0.3,1.4c0.2,0.3,0.9,0.3,2.2,0.2c0.4-0.1,0.6,0,0.6,0.3c0.1,0.3,0,0.5-0.3,0.6
					c-0.5,0.1-1.1,0.1-1.7,0.1c-0.6,0-1.1-0.2-1.4-0.5c-0.3-0.4-0.5-1.1-0.5-1.9v-6h-1.4c-0.3,0-0.5-0.1-0.5-0.4
					c0-0.3,0.2-0.4,0.5-0.4h1.4v-2.3c0-0.3,0.1-0.5,0.4-0.5c0.3,0,0.4,0.2,0.4,0.5v2.3h2.4c0.3,0,0.5,0.1,0.5,0.4
					c0,0.3-0.2,0.4-0.5,0.4h-2.4V122.4z"/>
				<path class="st0" d="M300.2,121.7c0,0.9,0,1.4,0.1,1.7c0.1,0.3,0.3,0.4,0.5,0.4c0.3,0,0.5,0.1,0.5,0.4c0,0.3-0.2,0.4-0.5,0.4
					c-0.6,0-1.1-0.3-1.2-0.8c-0.1-0.2-0.1-0.5-0.1-0.7c-0.2,0.3-0.4,0.5-0.6,0.7c-0.7,0.7-1.9,1-3.5,1c-0.9,0-1.6-0.3-2.1-0.8
					c-0.5-0.5-0.8-1.2-0.8-2c0-0.6,0.2-1.2,0.6-1.6c0.5-0.5,1.2-0.9,2.1-1.2c1.2-0.3,2.5-0.5,4.2-0.7v0.8c-2.5,0.3-4.1,0.7-4.8,1
					c-0.8,0.4-1.2,0.9-1.2,1.6c0,0.6,0.1,1,0.4,1.3c0.4,0.4,1.1,0.6,2.1,0.6c1.3,0,2.2-0.3,2.8-0.8c0.4-0.4,0.6-0.9,0.7-1.5
					c0,0,0,0,0-0.1v-3.5c0-0.8-0.2-1.4-0.7-1.8c-0.5-0.4-1.2-0.6-2.2-0.6c-1,0-1.7,0.2-2.2,0.5c-0.5,0.4-0.8,0.9-0.8,1.5
					c0,0.3-0.1,0.5-0.4,0.5c-0.3,0-0.4-0.2-0.4-0.5c0-0.9,0.4-1.6,1.1-2.2c0.6-0.5,1.5-0.7,2.7-0.7c1.2,0,2.1,0.3,2.8,0.8
					c0.6,0.5,1,1.4,1,2.5V121.7z"/>
				<path class="st0" d="M304.5,111.9c0-0.3,0.1-0.5,0.4-0.5c0.3,0,0.4,0.2,0.4,0.5v12.5c0,0.3-0.1,0.5-0.4,0.5
					c-0.3,0-0.4-0.2-0.4-0.5V111.9z"/>
				<path class="st0" d="M315.2,112.3c0-0.5,0.3-0.8,0.8-0.8h8.1c0.3,0,0.5,0.1,0.5,0.4c0,0.3-0.2,0.4-0.5,0.4H316v5.3h7.6
					c0.3,0,0.5,0.1,0.5,0.4c0,0.3-0.2,0.4-0.5,0.4H316v5.5h8.1c0.3,0,0.5,0.1,0.5,0.4c0,0.3-0.2,0.4-0.5,0.4H316
					c-0.5,0-0.8-0.3-0.8-0.8V112.3z"/>
				<path class="st0" d="M328.1,115.5c0-0.3,0.1-0.5,0.4-0.5c0.3,0,0.4,0.2,0.4,0.5v1.3c0.4-0.6,0.7-1,1.1-1.2
					c0.6-0.4,1.4-0.6,2.3-0.6c0.7,0,1.3,0.2,1.8,0.4c0.5,0.3,0.9,0.6,1.2,1c0.3,0.5,0.5,1.3,0.5,2.4v5.5c0,0.3-0.1,0.5-0.4,0.5
					c-0.3,0-0.4-0.2-0.4-0.5v-5.5c0-1.1-0.2-1.8-0.7-2.3c-0.5-0.5-1.3-0.8-2.3-0.8c-0.7,0-1.2,0.2-1.6,0.4c-0.5,0.4-0.9,0.8-1.1,1.2
					c-0.2,0.4-0.3,0.9-0.3,1.5v5.4c0,0.3-0.1,0.5-0.4,0.5c-0.3,0-0.4-0.2-0.4-0.5v-4.9V115.5z"/>
				<path class="st0" d="M341,122.4c0,0.6,0.1,1.1,0.3,1.4c0.2,0.3,0.9,0.3,2.2,0.2c0.4-0.1,0.6,0,0.6,0.3c0.1,0.3,0,0.5-0.3,0.6
					c-0.5,0.1-1.1,0.1-1.7,0.1c-0.6,0-1.1-0.2-1.4-0.5c-0.3-0.4-0.5-1.1-0.5-1.9v-6h-1.4c-0.3,0-0.5-0.1-0.5-0.4
					c0-0.3,0.2-0.4,0.5-0.4h1.4v-2.3c0-0.3,0.1-0.5,0.4-0.5s0.4,0.2,0.4,0.5v2.3h2.4c0.3,0,0.5,0.1,0.5,0.4c0,0.3-0.2,0.4-0.5,0.4
					H341V122.4z"/>
				<path class="st0" d="M348.1,123.1c0.6,0.7,1.5,1,2.7,1c0.7,0,1.3-0.2,1.7-0.6c0.4-0.3,0.7-0.7,0.8-1.2c0.1-0.4,0.3-0.6,0.4-0.6
					c0.2,0,0.3,0,0.4,0.1c0.1,0.1,0.1,0.3,0.1,0.5c-0.2,0.8-0.6,1.4-1.2,1.9c-0.6,0.5-1.4,0.7-2.3,0.7c-1.5,0-2.7-0.4-3.4-1.3
					c-0.8-0.9-1.2-2.1-1.2-3.5c0-1.7,0.4-2.9,1.2-3.8c0.8-0.9,1.8-1.3,3-1.3c1.3,0,2.4,0.5,3.1,1.5c0.7,0.9,1,1.8,1,2.9
					c0,0.6-0.3,0.9-0.9,0.9h-6.7C347.1,121.4,347.5,122.4,348.1,123.1z M353.8,119.4c0-0.9-0.3-1.7-0.8-2.4
					c-0.6-0.8-1.5-1.2-2.5-1.2c-1,0-1.8,0.3-2.4,1c-0.6,0.6-0.9,1.5-1,2.6H353.8z"/>
				<path class="st0" d="M357.5,115.5c0-0.3,0.1-0.5,0.4-0.5c0.3,0,0.4,0.2,0.4,0.5v1.9c0.1-0.2,0.3-0.5,0.4-0.7
					c0.8-1.2,1.9-1.8,3.1-1.8c0.9,0,1.6,0.3,2.2,0.9c0.3,0.3,0.3,0.5,0.2,0.7c-0.2,0.2-0.5,0.2-0.7-0.1c-0.5-0.5-1.1-0.7-1.8-0.7
					c-0.8,0-1.6,0.4-2.3,1.3c-0.6,0.7-1,1.4-1.1,2v5.3c0,0.3-0.1,0.5-0.4,0.5c-0.3,0-0.4-0.2-0.4-0.5v-5.1V115.5z"/>
				<path class="st0" d="M366.6,115c0.3,0,0.4,0.2,0.4,0.5v1.5c0.1-0.2,0.3-0.4,0.5-0.7c0.7-0.9,1.8-1.3,3.1-1.3
					c1,0,1.9,0.4,2.7,1.3c0.8,0.8,1.1,2,1.1,3.5c0,1.9-0.4,3.2-1.3,4c-0.7,0.7-1.7,1.1-2.8,1.1c-1.2,0-2.1-0.4-2.8-1.1
					c-0.2-0.2-0.4-0.5-0.5-0.8v4.8c0,0.3-0.1,0.5-0.4,0.5c-0.3,0-0.4-0.2-0.4-0.5v-12.3C366.2,115.2,366.3,115,366.6,115z
					 M368.1,116.7c-0.6,0.8-1,1.8-1,3.2c0,1.4,0.3,2.5,1,3.2c0.5,0.6,1.3,0.9,2.1,0.9c0.9,0,1.7-0.3,2.4-1c0.7-0.7,1-1.9,1-3.4
					c0-1.2-0.3-2.2-1-3c-0.6-0.7-1.4-1-2.4-1C369.4,115.8,368.7,116.1,368.1,116.7z"/>
				<path class="st0" d="M377.3,115.5c0-0.3,0.1-0.5,0.4-0.5c0.3,0,0.4,0.2,0.4,0.5v1.9c0.1-0.2,0.3-0.5,0.4-0.7
					c0.8-1.2,1.9-1.8,3.1-1.8c0.9,0,1.6,0.3,2.2,0.9c0.3,0.3,0.3,0.5,0.2,0.7c-0.2,0.2-0.4,0.2-0.7-0.1c-0.5-0.5-1.1-0.7-1.8-0.7
					c-0.8,0-1.6,0.4-2.3,1.3c-0.6,0.7-1,1.4-1.1,2v5.3c0,0.3-0.1,0.5-0.4,0.5c-0.3,0-0.4-0.2-0.4-0.5v-5.1V115.5z"/>
				<path class="st0" d="M386.9,111.6c0.1,0.1,0.2,0.3,0.2,0.5c0,0.2-0.1,0.4-0.2,0.5c-0.1,0.1-0.3,0.2-0.5,0.2
					c-0.2,0-0.3-0.1-0.4-0.2c-0.1-0.1-0.2-0.3-0.2-0.5c0-0.2,0.1-0.4,0.2-0.5c0.1-0.1,0.3-0.2,0.4-0.2
					C386.6,111.4,386.7,111.5,386.9,111.6z M386,115.5c0-0.3,0.1-0.5,0.4-0.5c0.3,0,0.4,0.2,0.4,0.5v8.8c0,0.3-0.1,0.5-0.4,0.5
					c-0.3,0-0.4-0.2-0.4-0.5V115.5z"/>
				<path class="st0" d="M393.6,115c0.6,0,1.2,0.1,1.7,0.3c0.5,0.2,0.9,0.4,1.2,0.8c0.3,0.3,0.4,0.8,0.4,1.3c0,0.3-0.1,0.5-0.4,0.5
					c-0.3,0-0.4-0.2-0.4-0.5c0-0.5-0.2-0.8-0.7-1.1c-0.5-0.3-1.1-0.5-1.8-0.5c-0.9,0-1.6,0.2-2.1,0.5c-0.5,0.3-0.7,0.8-0.7,1.3
					c0,0.5,0.4,0.9,1.1,1.1c1.3,0.5,2.3,0.8,3.2,1.1c0.9,0.3,1.5,0.6,1.8,0.9c0.4,0.4,0.5,0.8,0.5,1.4c0,0.6-0.2,1-0.5,1.4
					c-0.3,0.4-0.7,0.7-1.3,0.9c-0.5,0.3-1.2,0.4-2.1,0.4c-0.9,0-1.6-0.1-2.2-0.3c-0.6-0.2-1-0.6-1.3-1.1c-0.3-0.5-0.5-1-0.5-1.5
					c0-0.3,0.1-0.5,0.4-0.5s0.4,0.2,0.4,0.5c0,0.6,0.3,1.1,0.8,1.5c0.5,0.4,1.3,0.6,2.3,0.6c1,0,1.8-0.2,2.4-0.7
					c0.5-0.4,0.7-0.8,0.7-1.3c0-0.6-0.5-1-1.4-1.3c-1.2-0.4-2.2-0.8-3.1-1.1c-0.8-0.3-1.4-0.5-1.7-0.8c-0.4-0.3-0.6-0.8-0.6-1.3
					c0-0.6,0.2-1,0.5-1.4c0.4-0.4,0.8-0.7,1.2-0.9C392.1,115.1,392.8,115,393.6,115z"/>
				<path class="st0" d="M401.6,123.1c0.6,0.7,1.5,1,2.7,1c0.7,0,1.3-0.2,1.7-0.6c0.4-0.3,0.7-0.7,0.8-1.2c0.1-0.4,0.3-0.6,0.4-0.6
					c0.2,0,0.3,0,0.4,0.1c0.1,0.1,0.1,0.3,0.1,0.5c-0.2,0.8-0.6,1.4-1.2,1.9c-0.6,0.5-1.4,0.7-2.3,0.7c-1.5,0-2.7-0.4-3.4-1.3
					c-0.8-0.9-1.2-2.1-1.2-3.5c0-1.7,0.4-2.9,1.2-3.8c0.8-0.9,1.8-1.3,3-1.3c1.3,0,2.4,0.5,3.1,1.5c0.7,0.9,1,1.8,1,2.9
					c0,0.6-0.3,0.9-0.9,0.9h-6.7C400.6,121.4,400.9,122.4,401.6,123.1z M407.3,119.4c0-0.9-0.3-1.7-0.8-2.4
					c-0.6-0.8-1.5-1.2-2.5-1.2c-1,0-1.8,0.3-2.4,1c-0.6,0.6-0.9,1.5-1,2.6H407.3z"/>
				<path class="st0" d="M427.6,124.7c-0.1,0.1-0.2,0.1-0.3,0.2c-0.1,0-0.2,0-0.3-0.1c-0.1-0.1-0.1-0.3-0.2-0.4l-1.4-3.6h-6.7
					l-1.4,3.6c-0.1,0.2-0.2,0.4-0.2,0.5c-0.1,0.1-0.2,0.1-0.3,0.1c-0.2,0-0.3-0.1-0.3-0.2c-0.1-0.1-0.1-0.3,0-0.4l4.8-12
					c0.1-0.2,0.2-0.4,0.2-0.6c0.1-0.3,0.3-0.4,0.6-0.4c0.3,0,0.4,0.1,0.5,0.3c0.1,0.2,0.2,0.4,0.3,0.6l4.8,12
					C427.7,124.5,427.7,124.6,427.6,124.7z M419,119.9h6l-3-7.6L419,119.9z"/>
				<path class="st0" d="M429.7,111.9c0-0.3,0.1-0.5,0.4-0.5c0.3,0,0.4,0.2,0.4,0.5v12.5c0,0.3-0.1,0.5-0.4,0.5
					c-0.3,0-0.4-0.2-0.4-0.5V111.9z"/>
				<path class="st0" d="M433.9,111.9c0-0.3,0.1-0.5,0.4-0.5c0.3,0,0.4,0.2,0.4,0.5v12.5c0,0.3-0.1,0.5-0.4,0.5
					c-0.3,0-0.4-0.2-0.4-0.5V111.9z"/>
				<path class="st0" d="M439,111.6c0.1,0.1,0.2,0.3,0.2,0.5c0,0.2-0.1,0.4-0.2,0.5c-0.1,0.1-0.3,0.2-0.5,0.2
					c-0.2,0-0.3-0.1-0.4-0.2c-0.1-0.1-0.2-0.3-0.2-0.5c0-0.2,0.1-0.4,0.2-0.5c0.1-0.1,0.3-0.2,0.4-0.2
					C438.7,111.4,438.9,111.5,439,111.6z M438.1,115.5c0-0.3,0.1-0.5,0.4-0.5c0.3,0,0.4,0.2,0.4,0.5v8.8c0,0.3-0.1,0.5-0.4,0.5
					c-0.3,0-0.4-0.2-0.4-0.5V115.5z"/>
				<path class="st0" d="M449.3,121.7c0,0.9,0,1.4,0.1,1.7c0.1,0.3,0.2,0.4,0.5,0.4c0.3,0,0.5,0.1,0.5,0.4c0,0.3-0.2,0.4-0.5,0.4
					c-0.6,0-1.1-0.3-1.2-0.8c-0.1-0.2-0.1-0.5-0.1-0.7c-0.2,0.3-0.4,0.5-0.6,0.7c-0.7,0.7-1.9,1-3.5,1c-0.9,0-1.6-0.3-2.1-0.8
					c-0.5-0.5-0.8-1.2-0.8-2c0-0.6,0.2-1.2,0.6-1.6c0.5-0.5,1.2-0.9,2.1-1.2c1.2-0.3,2.5-0.5,4.2-0.7v0.8c-2.5,0.3-4.1,0.7-4.8,1
					c-0.8,0.4-1.2,0.9-1.2,1.6c0,0.6,0.1,1,0.4,1.3c0.4,0.4,1.1,0.6,2.1,0.6c1.3,0,2.2-0.3,2.8-0.8c0.4-0.4,0.6-0.9,0.7-1.5
					c0,0,0,0,0-0.1v-3.5c0-0.8-0.2-1.4-0.7-1.8c-0.5-0.4-1.2-0.6-2.2-0.6c-1,0-1.7,0.2-2.2,0.5c-0.5,0.4-0.8,0.9-0.8,1.5
					c0,0.3-0.1,0.5-0.4,0.5c-0.3,0-0.4-0.2-0.4-0.5c0-0.9,0.4-1.6,1.1-2.2c0.6-0.5,1.5-0.7,2.7-0.7c1.2,0,2.1,0.3,2.8,0.8
					c0.6,0.5,1,1.4,1,2.5V121.7z"/>
				<path class="st0" d="M453.6,115.5c0-0.3,0.1-0.5,0.4-0.5c0.3,0,0.4,0.2,0.4,0.5v1.3c0.4-0.6,0.7-1,1.1-1.2
					c0.6-0.4,1.4-0.6,2.3-0.6c0.7,0,1.3,0.2,1.8,0.4c0.5,0.3,0.9,0.6,1.2,1c0.3,0.5,0.5,1.3,0.5,2.4v5.5c0,0.3-0.1,0.5-0.4,0.5
					c-0.3,0-0.4-0.2-0.4-0.5v-5.5c0-1.1-0.2-1.8-0.7-2.3c-0.5-0.5-1.3-0.8-2.3-0.8c-0.7,0-1.2,0.2-1.6,0.4c-0.5,0.4-0.9,0.8-1.1,1.2
					c-0.2,0.4-0.3,0.9-0.3,1.5v5.4c0,0.3-0.1,0.5-0.4,0.5c-0.3,0-0.4-0.2-0.4-0.5v-4.9V115.5z"/>
				<path class="st0" d="M465.4,116.2c0.8-0.9,1.9-1.3,3.1-1.3c1.3,0,2.3,0.3,3,1c0.6,0.6,0.9,1.2,1,2c0.1,0.4-0.1,0.6-0.4,0.6
					c-0.2,0-0.4-0.2-0.5-0.6c-0.1-0.5-0.3-0.9-0.6-1.3c-0.6-0.6-1.4-0.9-2.5-0.9c-1,0-1.9,0.3-2.5,1c-0.7,0.7-1.1,1.9-1,3.3
					c0,1.2,0.3,2.1,0.8,2.7c0.7,0.8,1.6,1.2,2.8,1.2c0.9,0,1.6-0.2,2.1-0.7c0.6-0.5,0.9-1,1-1.6c0-0.3,0.1-0.5,0.3-0.5
					c0.2-0.1,0.3,0,0.5,0.1c0.1,0.1,0.1,0.2,0.1,0.5c-0.2,1-0.7,1.7-1.4,2.3c-0.7,0.5-1.5,0.8-2.6,0.8c-1.5,0-2.6-0.5-3.3-1.3
					c-0.7-0.9-1.1-2-1.1-3.4C464.1,118.4,464.5,117.2,465.4,116.2z"/>
				<path class="st0" d="M476.7,123.1c0.6,0.7,1.5,1,2.7,1c0.7,0,1.3-0.2,1.7-0.6c0.4-0.3,0.7-0.7,0.8-1.2c0.1-0.4,0.3-0.6,0.4-0.6
					c0.2,0,0.3,0,0.4,0.1c0.1,0.1,0.1,0.3,0.1,0.5c-0.2,0.8-0.6,1.4-1.2,1.9c-0.6,0.5-1.4,0.7-2.3,0.7c-1.5,0-2.7-0.4-3.4-1.3
					c-0.8-0.9-1.2-2.1-1.2-3.5c0-1.7,0.4-2.9,1.2-3.8c0.8-0.9,1.8-1.3,3-1.3c1.3,0,2.4,0.5,3.1,1.5c0.7,0.9,1,1.8,1,2.9
					c0,0.6-0.3,0.9-0.9,0.9h-6.7C475.7,121.4,476,122.4,476.7,123.1z M482.3,119.4c0-0.9-0.3-1.7-0.8-2.4c-0.6-0.8-1.5-1.2-2.5-1.2
					c-1,0-1.8,0.3-2.4,1c-0.6,0.6-0.9,1.5-1,2.6H482.3z"/>
			</g>
		</g>
	</g>
	<g>
		<path class="st0" d="M195.3,76.2h11.9v2.2h-11.9v1h9.4v2.1h-22.2v-2.1h9.1v-1H180v-2.2h11.6v-1.5h3.7V76.2z M195.3,99.3v1H207v2.5
			h-26.8v-2.5h11.4v-1h-8.4v-2.2h8.4v-0.9c-0.7,0-2.1,0-4.3,0c-2.2,0-3.8,0-4.8,0l-0.1-2.2c0.9,0,2.4,0,4.5,0c0.4-0.5,0.6-0.8,0.7-1
			h-4v-0.5h-3.2V88h26.4v4.6h-3.4v-2.3h-19.8v0.9h19.7v1.9h-2.2c1.6,0.9,2.9,1.7,3.8,2.4l-1.9,1.6h1.3v2.2H195.3z M183.6,82.5h20.1
			v4.6h-20.1V82.5z M200.2,85.3v-1.1H187v1.1H200.2z M196.6,93.1h-5c-0.1,0.1-0.2,0.2-0.3,0.3c-0.1,0.2-0.2,0.3-0.3,0.4
			c-0.1,0.1-0.2,0.2-0.3,0.3c3.2,0,5.6,0,7.3,0c-0.5-0.3-1-0.6-1.6-0.8L196.6,93.1z M195.3,96.1v1h7.3c-0.4-0.4-0.9-0.7-1.5-1.1
			c-0.6,0-1.6,0-2.9,0.1C196.9,96.1,195.9,96.1,195.3,96.1z"/>
		<path class="st0" d="M225.3,86l-2.2,2.8c-0.9-1-2.4-2-4.4-3.1l2-2.5C222.7,84.1,224.3,85,225.3,86z M225.9,78.1l-2.2,2.8
			c-0.9-1-2.3-2.2-4.3-3.4l2.1-2.5C223.6,76.2,225,77.3,225.9,78.1z M222.7,103l-3.2-1.8c1.5-3.2,2.7-6.5,3.8-9.8l2.9,1.8
			C225,96.9,223.8,100.2,222.7,103z M228.2,90.2v-4.2c-0.4,1.6-0.9,2.9-1.5,3.9c-0.6-0.4-1.3-0.7-1.9-1c0.6-0.9,1.1-2.3,1.4-4l2,0.4
			v-1.2c-0.5,0-1.5,0.1-2.8,0.2l-0.2-2.2l1.9-0.1c0.5-0.6,0.8-0.9,0.9-1.1c-0.8-0.9-1.6-1.6-2.4-2.2l1.1-1.8c0.1,0,0.1,0.1,0.2,0.1
			c0.1,0.1,0.2,0.1,0.2,0.1c0.6-1.1,1.1-2.1,1.4-2.8l2.1,1c-0.3,0.4-0.6,1-1.1,1.8c-0.5,0.8-0.8,1.2-0.8,1.2
			c0.1,0.1,0.2,0.2,0.3,0.3c0.2,0.1,0.3,0.2,0.3,0.3c0.1-0.2,0.3-0.4,0.4-0.7c0.2-0.3,0.3-0.5,0.5-0.7c0.1-0.2,0.3-0.4,0.4-0.6
			l1.8,1v-0.5h7.3v0.5l0.8-1l0.4,0.3c0.7-1.3,1.2-2.3,1.4-2.8l2.1,1c-0.2,0.3-0.5,0.8-1,1.5c-0.5,0.7-0.8,1.3-1.1,1.6
			c0.3,0.2,0.5,0.4,0.7,0.7c0.9-1.2,1.4-2,1.6-2.3l2,1.1c-1.4,1.8-2.5,3.1-3.3,3.9l1.7,0c-0.2-0.4-0.3-0.8-0.4-1l1.7-0.7
			c0.7,1.3,1.2,2.5,1.4,3.6l-1.8,0.8c0-0.1-0.1-0.4-0.1-0.7l-1.2,0.1v6h-2.3v-4.2c-0.3,1.4-0.8,2.7-1.4,3.8
			c-0.4-0.3-0.9-0.6-1.6-0.9v1h-5.9v-4.6h5.9v3c0.4-0.9,0.8-2,1-3.4l2,0.4v-1.1l-2.6,0.1l-0.2-2.2l1.4,0c0.1-0.1,0.2-0.2,0.4-0.4
			c0.2-0.2,0.3-0.4,0.4-0.5c-0.6-0.8-1.2-1.4-1.9-2v0.4h-7.3v-1.1c-1.2,1.5-2.1,2.7-2.8,3.5l1.3,0c-0.1-0.4-0.2-0.6-0.3-0.8l1.5-0.6
			c0.6,1.3,0.9,2.5,1.1,3.5l-1.6,0.6c-0.1-0.4-0.1-0.7-0.1-0.8l-1,0.1v6.1H228.2z M231,96.7h15.3c0,0.6-0.1,1-0.2,1.3
			c-0.5,2.3-1.1,3.8-1.9,4.5c-0.7,0.5-1.6,0.7-2.9,0.8c-1,0-2.6,0-4.7-0.1c-0.1-0.9-0.4-1.7-1-2.7c1.4,0.1,3,0.2,4.6,0.2
			c0.6,0,1.1-0.1,1.3-0.2c0.3-0.2,0.6-0.8,0.9-1.6h-12.1c-0.1,0.4-0.2,0.7-0.3,0.9l-3.3-0.4c0.6-1.7,1.1-3.6,1.5-5.7h13.1v-1h-14
			v-2.1h17.4v5.1h-13.6L231,96.7z M233.2,88.3l-1.8,0.5c-0.1-0.8-0.4-2-0.7-3.4l1.7-0.4C232.8,86.3,233,87.4,233.2,88.3z
			 M239.2,80.4v1.6h-5.8v-1.6H239.2z M233.3,84.4v-1.6h5.8v1.6H233.3z M238.9,75.2v1.7h-5.3v-1.7H238.9z M236.9,88.2v-1.3h-1.5v1.3
			H236.9z M244.6,85.5l1.8-0.5c0.7,1.7,1.1,2.9,1.3,3.9l-1.9,0.6C245.7,88.3,245.3,87,244.6,85.5z"/>
		<path class="st0" d="M287.3,83.7h-1.6c-0.6,4.9-1.6,8.8-3,11.7c1.3,2.3,2.9,4,4.8,5.1c-1,0.8-1.7,1.8-2.4,2.9
			c-1.7-1.2-3.2-2.7-4.5-4.6c-1.4,1.9-3.1,3.4-5.2,4.7c-0.2-0.5-0.7-1.4-1.6-2.5l-2.1,2.1c-0.8-0.6-1.9-1.2-3.2-2
			c-1.8,1.1-4.4,1.9-7.8,2.4c-0.2-0.9-0.6-1.9-1.3-2.8c2.5-0.2,4.4-0.6,5.8-1.2c-0.2-0.1-0.5-0.2-0.8-0.3c-0.4-0.2-0.6-0.3-0.8-0.3
			l-0.3,0.4l-2.9-0.7c0.9-1.4,1.5-2.3,1.7-2.7l-3.3,0l-0.1-2.7c2.1,0,3.7,0,4.9,0c0.1-0.2,0.2-0.4,0.4-0.7c0.2-0.3,0.2-0.5,0.3-0.5
			H260v-5.7h5.4v-1h-4.8V82h-1.9v-2.6h1.9v-3.2h4.8v-1.5h3.1v1.5h5.1v3.2h2V82h-2v3.3h-5.1v1h5.7v1c1.6-3,2.7-7.1,3.3-12.5l3.4,0.4
			c-0.2,1.6-0.5,3.3-0.8,5.1h7.2V83.7z M262.9,88.4v1.3h2.4v-1.3H262.9z M265.4,78.5h-1.8v1.1h1.8V78.5z M263.6,82.9h1.8v-1.1h-1.8
			V82.9z M265.5,95.7l-0.5,0.9c0.6,0.2,1.6,0.6,3,1.2c0.6-0.6,1-1.3,1.4-2.1L265.5,95.7z M275.5,95.5l-2.8,0.1
			c-0.4,1.4-1,2.5-1.8,3.5c0.7,0.4,1.6,0.8,2.6,1.4c2.3-1.2,4.1-2.9,5.4-5.1c-0.7-1.8-1.4-3.7-1.9-6c-0.3,0.7-0.7,1.4-1.2,2
			c-0.3-0.4-0.8-1-1.6-1.8v2.3h-6.8l0.3,0.1l-0.6,1.1c0.9,0,2.3,0,4.2,0c1.9,0,3.4-0.1,4.3-0.1L275.5,95.5z M270.4,78.5h-1.9v1.1
			h1.9V78.5z M268.5,82.9h1.9v-1.1h-1.9V82.9z M271,88.4h-2.5v1.3h2.5V88.4z M282.2,83.7h-3l-0.1,0.2c0.4,2.8,1,5.2,1.6,7.2
			C281.4,89,281.9,86.5,282.2,83.7z"/>
		<path class="st0" d="M305.2,74.8l3.4,1.1c-0.8,2-1.8,4-2.9,5.9v21.5h-3.5V87c-0.9,1.2-1.8,2.1-2.5,2.9c-0.2-0.5-0.4-1.1-0.9-1.9
			c-0.4-0.8-0.8-1.4-1.1-1.9c1.5-1.4,2.9-3.1,4.2-5.1C303.3,79,304.3,76.9,305.2,74.8z M320.9,98.6h6.2v3.4h-19.8v-3.4h10.1
			c1.4-4.5,2.4-9.1,2.9-13.7l4,0.6C323.3,90.3,322.2,94.7,320.9,98.6z M307.9,80.2h7.2v-5.1h3.7v5.1h7.7v3.5h-18.6V80.2z
			 M315.5,96.9l-3.6,0.8c0-1.5-0.2-3.4-0.6-5.7c-0.4-2.3-0.8-4.4-1.2-6.3l3.3-0.6C314.5,89.5,315.2,93.4,315.5,96.9z"/>
		<path class="st0" d="M350.2,74.6h3.7c1.6,2.4,3.6,4.6,6,6.5c2.4,2,4.8,3.5,7.3,4.6c-0.7,0.7-1.5,1.8-2.5,3.3c-2.4-1.3-4.7-3-7.1-5
			c-2.3-2-4.1-4-5.5-5.8c-1.3,1.9-3,3.8-5.2,5.8c-2.2,2-4.6,3.7-7.1,5.1c-0.5-1-1.3-2-2.3-2.9c2.6-1.3,5-3.1,7.3-5.2
			C347.2,78.7,348.9,76.6,350.2,74.6z M354.4,93.1v6.1h11v3.3h-26.1v-3.3h3.3V88.6h3.6v10.6h4.4V83.3h3.8v6.6h8.2v3.2H354.4z"/>
		<path class="st0" d="M405.7,96.4h-8.9c2.7,1.6,5.9,2.7,9.7,3.3c-0.9,0.9-1.7,2-2.5,3.3c-4-1-7.5-2.7-10.3-5.2v5.5h-3.6V98
			c-2.9,2.3-6.3,3.9-10.3,5c-0.7-1.2-1.5-2.2-2.3-3.1c3.8-0.8,7.1-2,9.7-3.6h-8.8v-3h11.7V92h-8.8v-2.6h8.8V88h-10.4v-2.8h5.8
			c-0.2-0.7-0.6-1.5-1-2.4l0.4-0.1h-6.4v-3h4.1c-0.3-0.9-1-2.2-1.9-3.8l3.1-1.1c1.1,1.6,1.9,3,2.3,4.3l-1.5,0.6h2.8v-5h3.4v5h2.3v-5
			h3.4v5h2.7l-1.1-0.4c0.8-1.3,1.4-2.7,1.9-4.4l3.8,0.9c-0.1,0.2-0.5,0.8-1.1,1.8c-0.6,1-1,1.6-1.3,2.1h4v3h-5.8
			c-0.2,0.4-0.7,1.2-1.4,2.5h6V88h-10.7v1.4h9.2V92h-9.2v1.3h12V96.4z M395.8,82.7h-7.3c0.5,1,0.9,1.8,1,2.4l-0.5,0.1h5.7
			C395.2,84.3,395.5,83.4,395.8,82.7z"/>
		<path class="st0" d="M418.5,92.6l2.8,0.4c-0.3,3.2-0.9,5.8-1.9,7.9c-0.8-0.5-1.7-0.9-2.5-1.2C417.6,98.2,418.2,95.9,418.5,92.6z
			 M426.2,90.5l-1.6,0.1v12.7h-3.1V90.9l-4,0.3l-0.4-3.2c0.2,0,0.6,0,1.1,0c0.5,0,1-0.1,1.3-0.1c0.5-0.7,0.9-1.3,1.2-1.8
			c-0.7-1.3-1.9-2.8-3.5-4.5l1.7-2.4c0.2,0.1,0.4,0.4,0.7,0.7c0.9-1.7,1.6-3.5,2.2-5.3l3.1,1.1c-1.5,3-2.7,5-3.4,6.2
			c0.4,0.5,0.7,0.9,1,1.3c0.9-1.4,1.7-3.1,2.6-5l2.9,1.3c-1.2,2-2.5,4-3.8,5.8l2.4-1c1.3,2.6,2.1,4.8,2.5,6.7l-2.5,1.1
			C426.5,91.7,426.4,91.1,426.2,90.5z M422.7,87.8l2.5-0.1c-0.2-0.6-0.5-1.3-0.9-2.1C423.8,86.2,423.3,87,422.7,87.8z M424.8,93.2
			l2.4-0.7c0.9,1.9,1.4,3.7,1.6,5.5l-2.5,0.8C426.1,97.1,425.6,95.2,424.8,93.2z M430.1,102.4l-2.6-1.4c1.2-1.3,2-3.3,2.3-6.1
			l2.8,0.7C432.1,98.9,431.3,101.2,430.1,102.4z M436.8,100.3h1.8c0.3,0,0.5-0.1,0.6-0.4c0.1-0.3,0.2-0.9,0.2-1.8
			c0.6,0.5,1.5,0.9,2.8,1.2c-0.2,1.5-0.5,2.6-0.9,3.1c-0.5,0.5-1.2,0.8-2.2,0.8h-2.6c-1.3,0-2.2-0.3-2.7-0.8
			c-0.4-0.5-0.7-1.5-0.7-2.9v-4.9h2.9c-1.1-0.8-1.9-1.3-2.5-1.6l1.3-1h-5.4V77.5h5.8c0.3-1,0.6-2,0.7-2.9l4,0.5
			c-0.3,0.8-0.7,1.6-1.1,2.4h6.4v14.4h-8.2c1.7,1,2.9,1.9,3.5,2.7l-2.3,2c-0.6-0.7-1.3-1.3-2.1-1.8v4.7c0,0.4,0,0.6,0.1,0.7
			C436.3,100.2,436.5,100.3,436.8,100.3z M432,80.2v9h2.5c-0.4-0.5-0.7-0.9-1-1.2c1.2-0.5,2.3-1.1,3.2-2l-1.3-0.8
			c-0.6,0.7-1.2,1.2-1.7,1.6c-0.5-0.6-1-1.1-1.6-1.4c0.6-0.5,1.1-0.9,1.4-1.3c0,0-0.5-0.2-1.4-0.7l1.6-1.5c0.2,0.1,0.6,0.3,1.1,0.6
			c0.6-0.9,1-1.6,1.2-2.4H432z M442.1,89.2v-9H437l1.3,0.2c-0.2,0.6-0.4,0.9-0.4,1h1.9l0.4-0.1l1.5,0.6c-0.4,1.3-1,2.6-1.8,3.8
			c0.7,0.5,1.3,0.9,1.8,1.3l-1.6,1.7c-0.5-0.4-1-0.8-1.6-1.3c-0.8,0.8-1.6,1.4-2.5,1.9H442.1z M439,83.1H437l-0.1,0.2
			c-0.1,0.1-0.1,0.2-0.2,0.3c0.6,0.4,1.1,0.6,1.4,0.8C438.4,84,438.7,83.5,439,83.1z M440.5,95.7l2.6-1.3c1.6,2.2,2.7,4.4,3.3,6.6
			l-2.8,1.3c-0.2-0.9-0.6-2-1.2-3.3C441.9,97.8,441.2,96.7,440.5,95.7z"/>
		<path class="st0" d="M469.4,74.7h3.4c1.7,1.6,3.7,3,6,4.1c2.3,1.2,4.7,2.1,7.1,2.7c-0.6,0.6-1.2,1.6-2.1,3
			c-0.9-0.3-1.5-0.5-1.8-0.6v8h-21.3v-8c-0.5,0.2-1.1,0.4-2.1,0.7c-0.6-1.2-1.3-2.2-1.9-2.8c2.5-0.7,4.9-1.7,7.2-3
			C466.3,77.4,468.1,76.1,469.4,74.7z M461.5,83.6h19.7c-1.5-0.6-3-1.3-4.5-2.2v1h-10.8v-1.2C464.9,82,463.4,82.8,461.5,83.6z
			 M462.5,103.3V92.9h18v10.4h-3.7v-0.7h-10.7v0.8H462.5z M463.8,89.6h2.1c-0.2-1-0.5-2.1-1-3.2l2.4-0.7h-3.4V89.6z M476.8,95.3
			h-10.7v1.2h10.7V95.3z M466.1,100.1h10.7v-1.2h-10.7V100.1z M469.8,89.6v-3.9h-2.4c0.6,1.2,1,2.3,1.2,3.3l-2,0.6H469.8z M468,80.1
			h6.7c-1.4-0.9-2.5-1.7-3.4-2.6C470.5,78.3,469.4,79.1,468,80.1z M475,85.8h-2.2v3.9h2.8l-1.8-0.5C474.3,87.9,474.7,86.8,475,85.8z
			 M478.9,89.6v-3.9h-3.3l2.4,0.6c-0.6,1.3-1.2,2.4-1.7,3.3H478.9z"/>
	</g>
	<g>
		<g>
			<path class="st0" d="M49.4,83.2H36.5v41.3h-9.6V83.2H14v-8.7h35.4V83.2z"/>
			<path class="st0" d="M126.5,124.5H94.1v-50h32.5v8.7h-22.8V95h19.5v8.7h-19.5v12.2h22.8V124.5z"/>
			<path class="st0" d="M142.2,115.7 M139.2,124.5h-10l17.9-50h7.5l18,50h-10l-2.9-8.9H146l2.6-8.2h8.5l-6-18.2L139.2,124.5z"/>
		</g>
		<g>
			<path class="st1" d="M76.3,107.7h0.6V90.4c0-0.1-0.1-0.2-0.2-0.3l-16.6-7.1c-0.1,0-0.2,0-0.3,0c-0.1,0.1-0.1,0.1-0.1,0.2v43.3
				h0.6V83.8l16.1,6.8V107.7z"/>
			<path class="st1" d="M78,108.4h0.6V88.9c0-0.1-0.1-0.2-0.2-0.3c-20-8.5-20-8.5-20.1-8.5c-0.2,0-0.3,0.1-0.3,0.3V126h0.6V80.8
				c2.6,1.1,17.6,7.5,19.4,8.2V108.4z"/>
			<path class="st1" d="M79.6,109.2l0.6,0V87.3c0-0.1-0.1-0.2-0.2-0.3c-23.3-9.9-23.3-9.9-23.4-9.9c-0.2,0-0.3,0.1-0.3,0.3v47.8h0.6
				V77.9c2.9,1.2,20.8,8.8,22.7,9.6C79.6,89.6,79.6,109,79.6,109.2z"/>
			<path class="st1" d="M88.5,82.9C88.5,82.9,88.5,82.9,88.5,82.9c0,0,0-0.1,0-0.1c0,0,0,0,0,0c0-0.1-0.1-0.1-0.1-0.1L61.7,71.4
				c-0.1,0-0.2,0-0.2,0l-6.7,2.8c-0.1,0-0.1,0.1-0.1,0.1c0,0,0,0,0,0c0,0,0,0.1,0,0.1c0,0,0,0,0,0c0,0,0,0,0,0v50.1h0.6V74.9
				L81.3,86l0,22.4l0,1.3l-12.7,5.4V89.6l6.1,2.6V107h0.6V92c0-0.1-0.1-0.2-0.2-0.3l-6.6-2.8c0,0,0,0,0,0l-6.7-2.8c0,0-0.1,0-0.1,0
				c0,0-0.1,0-0.1,0c-0.1,0.1-0.1,0.1-0.1,0.2v41c0,0.1,0,0.2,0.1,0.2c0,0,0.1,0,0.2,0c0,0,0.1,0,0.1,0l26.6-11.3
				c0.1,0,0.2-0.1,0.2-0.3L88.5,82.9C88.5,82.9,88.5,82.9,88.5,82.9z"/>
		</g>
	</g>
</g>
</svg>
