<?xml version="1.0" encoding="utf-8"?>
<!-- Generator: Adobe Illustrator 28.0.0, SVG Export Plug-In . SVG Version: 6.00 Build 0)  -->
<svg version="1.1" id="圖層_1" xmlns="http://www.w3.org/2000/svg" xmlns:xlink="http://www.w3.org/1999/xlink" x="0px" y="0px"
	 viewBox="0 0 500 200" style="enable-background:new 0 0 500 200;" xml:space="preserve">
<style type="text/css">
	.st0{fill:#FFFFFF;}
	.st1{fill-rule:evenodd;clip-rule:evenodd;fill:#FFFFFF;}
	.st2{clip-path:url(#SVGID_00000078006453724247077960000004382907928066552466_);fill:#E32D21;}
	.st3{fill:none;}
	.st4{opacity:0.9;clip-path:url(#SVGID_00000071554211472913590400000005508003633080884876_);}
	.st5{opacity:0.9;fill:#FFFFFF;}
</style>
<g>
	<g>
		<path class="st0" d="M191.5,46.1V22.9h-69.1v23.3h26.2v83.6h26.2V46.1H191.5z"/>
	</g>
	<path class="st0" d="M224.2,47.3V23h-24.5v24.3L224.2,47.3L224.2,47.3z"/>
	<path class="st1" d="M191.5,46.1h-16.8v31.1c-7.6,4.9-16.6,8-26.2,8.6V46.1h-26.2V22.8h69.1V46.1z"/>
	<g>
		<g>
			<g>
				<g>
					<defs>
						<circle id="SVGID_1_" cx="253.5" cy="140.8" r="55.2"/>
					</defs>
					<clipPath id="SVGID_00000079459570488626973790000011501225669697085581_">
						<use xlink:href="#SVGID_1_"  style="overflow:visible;"/>
					</clipPath>
					
						<rect x="199.7" y="23" style="clip-path:url(#SVGID_00000079459570488626973790000011501225669697085581_);fill:#E32D21;" width="24.5" height="24.3"/>
				</g>
			</g>
		</g>
	</g>
	<circle class="st3" cx="253.5" cy="140.8" r="55.2"/>
	<g>
		<defs>
			<circle id="SVGID_00000063632148614197491170000003446431733861806260_" cx="253.5" cy="140.8" r="55.2"/>
		</defs>
		<clipPath id="SVGID_00000087400019823398668560000002911051305089549479_">
			<use xlink:href="#SVGID_00000063632148614197491170000003446431733861806260_"  style="overflow:visible;"/>
		</clipPath>
		<g style="opacity:0.9;clip-path:url(#SVGID_00000087400019823398668560000002911051305089549479_);">
			<polygon class="st0" points="257.6,105.8 257.6,87.8 283.1,87.8 283.3,87.1 283.4,87.1 284.6,84.3 294,62.7 257.6,62.7 
				257.6,46.1 299.4,46.1 308.8,22.8 231.5,22.8 231.5,129.6 269.6,129.6 277.4,105.6 			"/>
		</g>
	</g>
	<path class="st0" d="M266.7,87.1h16.9l9.2-23.3h-35V46.1h41.7l9.4-23.3h-77.4v67.3C242.6,85.3,255,84.3,266.7,87.1z"/>
	<g>
		<path class="st0" d="M124.9,143.4h2.2v9.3h1.9v-9.3h2.2v-1.6h-6.3V143.4z"/>
		<path class="st0" d="M133.9,147c0-0.5,0.1-0.7,0.2-0.9c0.1-0.2,0.4-0.2,0.7-0.2s0.6,0.1,0.7,0.2c0.1,0.1,0.2,0.3,0.2,0.6
			s-0.1,0.6-0.3,0.7c-0.2,0.2-0.6,0.3-0.9,0.5c-0.8,0.4-1.4,0.7-1.7,1.1c-0.4,0.4-0.6,0.9-0.6,1.7c0,1.6,0.7,2.4,2.1,2.4
			c0.3,0,0.6-0.1,0.8-0.2c0.3-0.2,0.6-0.5,0.7-0.9c0,0.1,0,0.2,0,0.3c0,0.2,0.1,0.5,0.1,0.7h1.7c-0.1-0.4-0.1-0.7-0.1-1.1v-5
			c0-0.8-0.2-1.4-0.6-1.8s-1-0.6-1.9-0.6s-1.6,0.2-2.1,0.6c-0.4,0.4-0.7,1.1-0.7,2.1L133.9,147L133.9,147L133.9,147z M135.6,150.3
			c0,0.8-0.3,1.2-0.9,1.2c-0.6,0-0.8-0.4-0.8-1.1c0-0.4,0.1-0.6,0.1-0.7c0.1-0.2,0.3-0.4,0.6-0.6l1.1-0.7L135.6,150.3L135.6,150.3z"
			/>
		<path class="st0" d="M139.4,152.7h1.8v-8.1h-1.8V152.7z M139.4,143.5h1.8v-1.7h-1.8V143.5z"/>
		<path class="st0" d="M143.8,152.7h2l0.7-4.8l0.7,4.8h1.9l1.6-8.1H149l-0.8,6.3l-1-6.3h-1.5l-0.9,6.3l-0.8-6.3h-1.9l0,0l0,0l0,0
			L143.8,152.7z"/>
		<path class="st0" d="M153.5,147c0-0.5,0.1-0.7,0.2-0.9c0.1-0.2,0.4-0.2,0.7-0.2c0.3,0,0.6,0.1,0.7,0.2c0.1,0.1,0.2,0.3,0.2,0.6
			s-0.1,0.6-0.3,0.7c-0.2,0.2-0.6,0.3-0.9,0.5c-0.8,0.4-1.4,0.7-1.7,1.1c-0.4,0.4-0.6,0.9-0.6,1.7c0,1.6,0.7,2.4,2.1,2.4
			c0.3,0,0.6-0.1,0.8-0.2c0.3-0.2,0.6-0.5,0.7-0.9c0,0.1,0,0.2,0,0.3c0,0.2,0.1,0.5,0.1,0.7h1.7c-0.1-0.4-0.1-0.7-0.1-1.1v-5
			c0-0.8-0.2-1.4-0.6-1.8s-1-0.6-1.9-0.6s-1.6,0.2-2.1,0.6c-0.4,0.4-0.7,1.1-0.7,2.1L153.5,147L153.5,147L153.5,147z M155.3,150.3
			c0,0.8-0.3,1.2-0.9,1.2c-0.6,0-0.8-0.4-0.8-1.1c0-0.4,0.1-0.6,0.1-0.7c0.1-0.2,0.3-0.4,0.6-0.6l1-0.7L155.3,150.3L155.3,150.3
			L155.3,150.3z"/>
		<path class="st0" d="M160.5,152.7v-5.5c0-0.9,0.3-1.5,0.9-1.5c0.3,0,0.5,0.1,0.6,0.3s0.2,0.6,0.2,1v5.6h1.8v-6.3
			c0-0.7-0.2-1.2-0.5-1.6c-0.3-0.4-0.7-0.6-1.2-0.6c-0.7,0-1.3,0.4-1.6,1.1v-0.9h-1.8v8.1h1.7C160.5,152.6,160.5,152.7,160.5,152.7z
			"/>
		<path class="st0" d="M169.2,152.7h1.9v-10.9h-1.9V152.7z"/>
		<path class="st0" d="M174.6,152.7v-5.5c0-0.9,0.3-1.5,0.9-1.5c0.3,0,0.5,0.1,0.6,0.3s0.2,0.6,0.2,1v5.6h1.8v-6.3
			c0-0.7-0.2-1.2-0.5-1.6c-0.3-0.4-0.7-0.6-1.2-0.6c-0.7,0-1.3,0.4-1.6,1.1v-0.9h-1.8v8.1h1.7V152.7L174.6,152.7z"/>
		<path class="st0" d="M179.7,146v5.5c0,0.6,0.1,0.9,0.4,1.1s0.7,0.4,1.2,0.4c0.3,0,0.7,0,0.9-0.1v-1.6c-0.1,0-0.2,0-0.2,0
			c-0.2,0-0.4-0.1-0.4-0.2c-0.1-0.1-0.1-0.2-0.1-0.4v-4.8h0.7v-1.4h-0.7v-2.2h-1.7v2.2h-0.7v1.4L179.7,146L179.7,146z"/>
		<path class="st0" d="M188.6,149.1v-1.3c0-1.4-0.2-2.4-0.7-2.8c-0.5-0.4-1.1-0.7-2.1-0.7c-1.7,0-2.6,1-2.6,3v2.2
			c0,1.2,0.2,2.1,0.7,2.5c0.5,0.6,1.2,0.7,2.2,0.7c1.6,0,2.4-1,2.4-3h-1.8v0.4c0,0.7-0.3,1.1-0.8,1.1c-0.3,0-0.6-0.1-0.7-0.3
			c-0.1-0.2-0.2-0.6-0.2-0.9v-1.2l0,0l0,0h3.6L188.6,149.1L188.6,149.1z M185.1,147.1c0-0.5,0.1-0.7,0.2-1c0.1-0.2,0.4-0.3,0.7-0.3
			s0.6,0.1,0.7,0.2c0.1,0.1,0.2,0.4,0.2,0.7v0.7h-1.7l0,0L185.1,147.1L185.1,147.1z"/>
		<path class="st0" d="M192,152.7v-4.8c0-0.9,0.5-1.4,1.4-1.4c0.1,0,0.2,0,0.4,0v-2.2c-0.5,0-0.8,0.1-1.1,0.4s-0.6,0.7-0.7,1.2v-1.4
			h-1.7v8.1l0,0L192,152.7L192,152.7L192,152.7z"/>
		<path class="st0" d="M196.5,152.7v-5.5c0-0.9,0.3-1.5,0.9-1.5c0.3,0,0.5,0.1,0.6,0.3c0.1,0.2,0.2,0.6,0.2,1v5.6h1.8v-6.3
			c0-0.7-0.2-1.2-0.5-1.6c-0.3-0.4-0.7-0.6-1.2-0.6c-0.7,0-1.3,0.4-1.6,1.1v-0.9h-1.8v8.1h1.7L196.5,152.7L196.5,152.7z"/>
		<path class="st0" d="M206.7,149.1v-1.3c0-1.4-0.2-2.4-0.7-2.8c-0.5-0.4-1.1-0.7-2.1-0.7c-1.7,0-2.6,1-2.6,3v2.2
			c0,1.2,0.2,2.1,0.7,2.5c0.5,0.6,1.2,0.7,2.2,0.7c1.6,0,2.4-1,2.4-3h-1.8v0.4c0,0.7-0.3,1.1-0.8,1.1c-0.3,0-0.6-0.1-0.7-0.3
			c-0.1-0.2-0.2-0.6-0.2-0.9v-1.2l0,0l0,0h3.6L206.7,149.1L206.7,149.1z M203.2,147.1c0-0.5,0.1-0.7,0.2-1c0.1-0.2,0.4-0.3,0.7-0.3
			c0.4,0,0.6,0.1,0.7,0.2c0.1,0.1,0.2,0.4,0.2,0.7v0.7h-1.7l0,0L203.2,147.1L203.2,147.1z"/>
		<path class="st0" d="M208.4,146v5.5c0,0.6,0.1,0.9,0.4,1.1c0.3,0.2,0.7,0.4,1.2,0.4c0.3,0,0.7,0,0.9-0.1v-1.6c-0.1,0-0.2,0-0.2,0
			c-0.2,0-0.4-0.1-0.4-0.2c-0.1-0.1-0.1-0.2-0.1-0.4v-4.8h0.7v-1.4h-0.7v-2.2h-1.8v2.2h-0.7v1.4L208.4,146L208.4,146z"/>
		<path class="st0" d="M216.9,147c0-0.5,0.1-0.7,0.2-0.9c0.1-0.2,0.4-0.2,0.7-0.2s0.6,0.1,0.7,0.2c0.1,0.1,0.2,0.3,0.2,0.6
			s-0.1,0.6-0.3,0.7c-0.2,0.2-0.6,0.3-0.9,0.5c-0.8,0.4-1.4,0.7-1.7,1.1c-0.4,0.4-0.6,0.9-0.6,1.7c0,1.6,0.7,2.4,2.1,2.4
			c0.3,0,0.6-0.1,0.8-0.2c0.3-0.2,0.6-0.5,0.7-0.9c0,0.1,0,0.2,0,0.3c0,0.2,0.1,0.5,0.1,0.7h1.7c-0.1-0.4-0.1-0.7-0.1-1.1v-5
			c0-0.8-0.2-1.4-0.6-1.8s-1-0.6-1.9-0.6c-0.9,0-1.6,0.2-2.1,0.6c-0.4,0.4-0.7,1.1-0.7,2.1L216.9,147L216.9,147L216.9,147z
			 M218.7,150.3c0,0.8-0.3,1.2-0.9,1.2s-0.8-0.4-0.8-1.1c0-0.4,0.1-0.6,0.1-0.7c0.1-0.2,0.3-0.4,0.6-0.6l1.1-0.7L218.7,150.3
			L218.7,150.3z"/>
		<path class="st0" d="M224,152.7v-5.5c0-0.9,0.3-1.5,0.9-1.5c0.3,0,0.5,0.1,0.6,0.3s0.2,0.6,0.2,1v5.6h1.8v-6.3
			c0-0.7-0.2-1.2-0.5-1.6c-0.3-0.4-0.7-0.6-1.2-0.6c-0.7,0-1.3,0.4-1.6,1.1v-0.9h-1.8v8.1h1.7L224,152.7L224,152.7z"/>
		<path class="st0" d="M230.8,144.4c-0.6,0-1,0.2-1.4,0.7c-0.3,0.4-0.5,1.2-0.5,2.3v2.8c0,1.1,0.2,1.8,0.5,2.2
			c0.4,0.4,0.7,0.6,1.4,0.6c0.7,0,1.2-0.4,1.5-1.1v0.9h1.8v-10.9h-1.8v3.5C232.1,144.7,231.5,144.4,230.8,144.4L230.8,144.4z
			 M230.7,146.9c0-0.7,0.2-1.1,0.7-1.1c0.6,0,0.8,0.5,0.8,1.5v2.6c0,1.1-0.3,1.6-0.9,1.6c-0.5,0-0.7-0.4-0.7-1.3v-3L230.7,146.9
			L230.7,146.9L230.7,146.9z"/>
		<path class="st0" d="M244.7,152.7v-1.6h-3.5v-3.4h3.2v-1.6h-3.2v-2.7h3.5v-1.6h-5.4v10.9L244.7,152.7L244.7,152.7z"/>
		<path class="st0" d="M245.9,149.1h3.2v-1.7h-3.2V149.1z"/>
		<path class="st0" d="M254.6,150.8c-0.2,0.4-0.4,0.6-0.7,0.6c-0.4,0-0.7-0.2-1-0.6s-0.4-0.9-0.4-1.7v-3.5c0-1.5,0.5-2.2,1.4-2.2
			c0.4,0,0.6,0.2,0.7,0.5s0.2,0.8,0.2,1.5h1.9c0-1.2-0.2-2.2-0.7-2.7c-0.5-0.6-1.2-0.9-2.2-0.9c-1.1,0-1.9,0.4-2.4,1
			c-0.5,0.7-0.7,1.9-0.7,3.6v2.3c0,1.6,0.2,2.7,0.7,3.5c0.5,0.7,1.4,1,2.6,1c1.1,0,1.8-0.4,2.2-1.1c0.4-0.7,0.7-1.7,0.7-3h-1.9
			C254.8,149.8,254.8,150.4,254.6,150.8L254.6,150.8z"/>
		<path class="st0" d="M258.6,152.1c0.4,0.6,1.1,0.7,2.2,0.7c1,0,1.7-0.2,2.1-0.7c0.4-0.6,0.6-1.6,0.6-3.2V148
			c0-1.4-0.2-2.4-0.6-2.9s-1.1-0.7-2.1-0.7c-0.9,0-1.6,0.2-2.1,0.7c-0.5,0.5-0.7,1.6-0.7,3.2v0.9
			C258.1,150.6,258.3,151.6,258.6,152.1L258.6,152.1z M260.1,146.1c0.2-0.2,0.4-0.3,0.7-0.3c0.6,0,0.9,0.4,0.9,1.3v3
			c0,0.6-0.1,0.9-0.2,1.1c-0.1,0.2-0.4,0.3-0.7,0.3s-0.6-0.1-0.7-0.2c-0.1-0.2-0.2-0.6-0.2-1.1v-3
			C259.9,146.6,259.9,146.3,260.1,146.1L260.1,146.1z"/>
		<path class="st0" d="M265,152.7h1.8v-5.5c0-0.6,0.1-1,0.2-1.2c0.1-0.2,0.4-0.3,0.7-0.3c0.4,0,0.6,0.1,0.7,0.3s0.2,0.6,0.2,1v5.6
			h1.8v-5.3c0-0.6,0.1-0.9,0.2-1.2c0.1-0.2,0.4-0.4,0.7-0.4c0.3,0,0.5,0.1,0.6,0.4c0.1,0.2,0.2,0.6,0.2,1.1v5.5h1.8v-6.6
			c0-0.6-0.2-0.9-0.6-1.3c-0.4-0.3-0.7-0.5-1.4-0.5c-0.5,0-0.9,0.1-1.2,0.4c-0.3,0.2-0.5,0.5-0.6,0.7c-0.1-0.3-0.2-0.6-0.5-0.7
			c-0.3-0.2-0.7-0.4-1.1-0.4c-0.8,0-1.4,0.4-1.8,1.1v-0.9h-1.8L265,152.7L265,152.7z"/>
		<path class="st0" d="M275.7,152.7h1.8v-5.5c0-0.6,0.1-1,0.2-1.2c0.1-0.2,0.4-0.3,0.7-0.3c0.4,0,0.6,0.1,0.7,0.3s0.2,0.6,0.2,1v5.6
			h1.8v-5.3c0-0.6,0.1-0.9,0.2-1.2c0.1-0.2,0.4-0.4,0.7-0.4c0.3,0,0.5,0.1,0.6,0.4c0.1,0.2,0.2,0.6,0.2,1.1v5.5h1.8v-6.6
			c0-0.6-0.2-0.9-0.6-1.3c-0.4-0.3-0.7-0.5-1.4-0.5c-0.5,0-0.9,0.1-1.2,0.4c-0.3,0.2-0.5,0.5-0.6,0.7c-0.1-0.3-0.2-0.6-0.5-0.7
			c-0.3-0.2-0.7-0.4-1.1-0.4c-0.8,0-1.4,0.4-1.8,1.1v-0.9h-1.8L275.7,152.7L275.7,152.7z"/>
		<path class="st0" d="M291.3,149.1v-1.3c0-1.4-0.2-2.4-0.7-2.8c-0.5-0.4-1.1-0.7-2.1-0.7c-1.7,0-2.6,1-2.6,3v2.2
			c0,1.2,0.2,2.1,0.7,2.5c0.5,0.6,1.2,0.7,2.2,0.7c1.6,0,2.4-1,2.4-3h-1.8v0.4c0,0.7-0.3,1.1-0.8,1.1c-0.3,0-0.6-0.1-0.7-0.3
			c-0.1-0.2-0.2-0.6-0.2-0.9v-1.2l0,0l0,0h3.6L291.3,149.1L291.3,149.1z M287.8,147.1c0-0.5,0.1-0.7,0.2-1c0.1-0.2,0.4-0.3,0.7-0.3
			s0.6,0.1,0.7,0.2c0.1,0.1,0.2,0.4,0.2,0.7v0.7h-1.9l0,0V147.1z"/>
		<path class="st0" d="M294.7,152.7v-4.8c0-0.9,0.5-1.4,1.4-1.4c0.1,0,0.2,0,0.4,0v-2.2c-0.5,0-0.8,0.1-1.1,0.4
			c-0.3,0.3-0.6,0.7-0.7,1.2v-1.4h-1.7v8.1l0,0L294.7,152.7L294.7,152.7z"/>
		<path class="st0" d="M300.4,150.2c0,0.8-0.2,1.3-0.6,1.3c-0.5,0-0.7-0.4-0.7-1.3v-2.8v-0.3c0-0.9,0.2-1.3,0.7-1.3s0.7,0.2,0.7,0.7
			v0.9h1.8v-0.7c0-0.7-0.2-1.3-0.6-1.7s-1-0.7-1.9-0.7c-1.6,0-2.4,0.9-2.4,2.9v2.7c0,2,0.8,3,2.4,3s2.4-0.9,2.4-2.6v-0.8h-1.8l0,0
			l0,0V150.2L300.4,150.2z"/>
		<path class="st0" d="M308.7,149.1v-1.3c0-1.4-0.2-2.4-0.7-2.8c-0.5-0.4-1.1-0.7-2.1-0.7c-1.7,0-2.6,1-2.6,3v2.2
			c0,1.2,0.2,2.1,0.7,2.5c0.5,0.6,1.2,0.7,2.2,0.7c1.6,0,2.4-1,2.4-3h-1.8v0.4c0,0.7-0.3,1.1-0.8,1.1c-0.3,0-0.6-0.1-0.7-0.3
			c-0.1-0.2-0.2-0.6-0.2-0.9v-1.2l0,0l0,0h3.6L308.7,149.1L308.7,149.1z M305.2,147.1c0-0.5,0.1-0.7,0.2-1c0.1-0.2,0.4-0.3,0.7-0.3
			c0.4,0,0.6,0.1,0.7,0.2c0.1,0.1,0.2,0.4,0.2,0.7v0.7h-1.7l0,0L305.2,147.1L305.2,147.1z"/>
		<path class="st0" d="M315,152.7l0.6-2.8h2.2l0.5,2.8h2.1l-2.3-10.9h-2.5l-2.4,10.9l0,0l0,0H315z M316.7,143.9l0.7,4.5h-1.6l0,0
			l0,0l0,0L316.7,143.9z"/>
		<path class="st0" d="M320.8,150.4c0,1.7,0.8,2.5,2.5,2.5c1.7,0,2.5-0.7,2.5-2.4c0-0.8-0.4-1.6-1.2-2.2l-1.3-0.9
			c-0.3-0.2-0.5-0.4-0.6-0.6c-0.1-0.1-0.2-0.3-0.2-0.6c0-0.5,0.2-0.7,0.7-0.7c0.2,0,0.4,0.1,0.6,0.2c0.1,0.1,0.2,0.5,0.2,1.1h1.8
			c0-0.9-0.2-1.6-0.6-2.1c-0.4-0.4-1-0.7-1.9-0.7c-1.7,0-2.5,0.7-2.5,2c0,1,0.4,1.9,1.3,2.5l1,0.7c0.3,0.2,0.6,0.4,0.7,0.6
			c0.2,0.2,0.3,0.4,0.3,0.7c0,0.5-0.2,0.7-0.7,0.7c-0.5,0-0.7-0.4-0.7-1c0-0.2,0-0.3,0-0.5h-1.8l0,0l0,0
			C320.8,150.1,320.8,150.2,320.8,150.4L320.8,150.4z"/>
		<path class="st0" d="M326.9,150.4c0,1.7,0.8,2.5,2.5,2.5c1.7,0,2.5-0.7,2.5-2.4c0-0.8-0.4-1.6-1.2-2.2l-1.3-0.9
			c-0.3-0.2-0.5-0.4-0.6-0.6c-0.1-0.1-0.2-0.3-0.2-0.6c0-0.5,0.2-0.7,0.7-0.7c0.2,0,0.4,0.1,0.6,0.2c0.1,0.1,0.2,0.5,0.2,1.1h1.8
			c0-0.9-0.2-1.6-0.6-2.1c-0.4-0.4-1-0.7-1.9-0.7c-1.7,0-2.5,0.7-2.5,2c0,1,0.4,1.9,1.3,2.5l1,0.7c0.3,0.2,0.6,0.4,0.7,0.6
			c0.2,0.2,0.3,0.4,0.3,0.7c0,0.5-0.2,0.7-0.7,0.7c-0.5,0-0.7-0.4-0.7-1c0-0.2,0-0.3,0-0.5h-1.9l0,0l0,0
			C326.9,150.1,326.9,150.2,326.9,150.4L326.9,150.4z"/>
		<path class="st0" d="M333.8,152.1c0.4,0.6,1.1,0.7,2.2,0.7c1,0,1.7-0.2,2.1-0.7c0.4-0.6,0.6-1.6,0.6-3.2V148
			c0-1.4-0.2-2.4-0.6-2.9c-0.4-0.6-1.1-0.7-2.1-0.7c-0.9,0-1.6,0.2-2.1,0.7c-0.5,0.5-0.7,1.6-0.7,3.2v0.9
			C333.3,150.6,333.4,151.6,333.8,152.1L333.8,152.1z M335.2,146.1c0.2-0.2,0.4-0.3,0.7-0.3c0.6,0,0.9,0.4,0.9,1.3v3
			c0,0.6-0.1,0.9-0.2,1.1c-0.1,0.2-0.4,0.3-0.7,0.3s-0.6-0.1-0.7-0.2c-0.1-0.2-0.2-0.6-0.2-1.1v-3
			C335.1,146.6,335.1,146.3,335.2,146.1L335.2,146.1z"/>
		<path class="st0" d="M343.1,150.2c0,0.8-0.2,1.3-0.6,1.3c-0.5,0-0.7-0.4-0.7-1.3v-2.8v-0.3c0-0.9,0.2-1.3,0.7-1.3s0.7,0.2,0.7,0.7
			v0.9h1.8v-0.7c0-0.7-0.2-1.3-0.6-1.7c-0.4-0.4-1-0.7-1.9-0.7c-1.6,0-2.4,0.9-2.4,2.9v2.7c0,2,0.8,3,2.4,3c1.6,0,2.4-0.9,2.4-2.6
			v-0.8h-1.8l0,0l0,0V150.2L343.1,150.2z"/>
		<path class="st0" d="M346.4,152.7h1.8v-8.1h-1.8V152.7z M346.4,143.5h1.8v-1.7h-1.8V143.5z"/>
		<path class="st0" d="M351.5,147c0-0.5,0.1-0.7,0.2-0.9c0.1-0.2,0.4-0.2,0.7-0.2s0.6,0.1,0.7,0.2c0.1,0.1,0.2,0.3,0.2,0.6
			s-0.1,0.6-0.3,0.7c-0.2,0.2-0.6,0.3-0.9,0.5c-0.8,0.4-1.4,0.7-1.7,1.1c-0.4,0.4-0.6,0.9-0.6,1.7c0,1.6,0.7,2.4,2.1,2.4
			c0.3,0,0.6-0.1,0.8-0.2c0.3-0.2,0.6-0.5,0.7-0.9c0,0.1,0,0.2,0,0.3c0,0.2,0.1,0.5,0.1,0.7h1.7c-0.1-0.4-0.1-0.7-0.1-1.1v-5
			c0-0.8-0.2-1.4-0.6-1.8c-0.4-0.4-1-0.6-1.9-0.6c-0.9,0-1.6,0.2-2.1,0.6c-0.4,0.4-0.7,1.1-0.7,2.1L351.5,147L351.5,147L351.5,147z
			 M353.3,150.3c0,0.8-0.3,1.2-0.9,1.2s-0.8-0.4-0.8-1.1c0-0.4,0.1-0.6,0.1-0.7c0.1-0.2,0.3-0.4,0.6-0.6l1.1-0.7L353.3,150.3
			L353.3,150.3z"/>
		<path class="st0" d="M356.9,146v5.5c0,0.6,0.1,0.9,0.4,1.1s0.7,0.4,1.2,0.4c0.3,0,0.7,0,0.9-0.1v-1.6c-0.1,0-0.2,0-0.2,0
			c-0.2,0-0.4-0.1-0.4-0.2s-0.1-0.2-0.1-0.4v-4.8h0.7v-1.4h-0.7v-2.2h-1.8v2.2h-0.7v1.4L356.9,146L356.9,146z"/>
		<path class="st0" d="M360.8,152.7h1.8v-8.1h-1.8V152.7z M360.8,143.5h1.8v-1.7h-1.8V143.5z"/>
		<path class="st0" d="M364.8,152.1c0.4,0.6,1.1,0.7,2.2,0.7c1,0,1.7-0.2,2.1-0.7c0.4-0.6,0.6-1.6,0.6-3.2V148
			c0-1.4-0.2-2.4-0.6-2.9s-1.1-0.7-2.1-0.7c-0.9,0-1.6,0.2-2.1,0.7c-0.5,0.5-0.7,1.6-0.7,3.2v0.9
			C364.2,150.6,364.4,151.6,364.8,152.1L364.8,152.1z M366.2,146.1c0.2-0.2,0.4-0.3,0.7-0.3c0.6,0,0.9,0.4,0.9,1.3v3
			c0,0.6-0.1,0.9-0.2,1.1c-0.1,0.2-0.4,0.3-0.7,0.3s-0.6-0.1-0.7-0.2c-0.1-0.2-0.2-0.6-0.2-1.1v-3
			C366,146.6,366.1,146.3,366.2,146.1L366.2,146.1z"/>
		<path class="st0" d="M372.9,152.7v-5.5c0-0.9,0.3-1.5,0.9-1.5c0.3,0,0.5,0.1,0.6,0.3s0.2,0.6,0.2,1v5.6h1.8v-6.3
			c0-0.7-0.2-1.2-0.5-1.6c-0.3-0.4-0.7-0.6-1.2-0.6c-0.7,0-1.3,0.4-1.6,1.1v-0.9h-1.8v8.1h1.7V152.7L372.9,152.7z"/>
	</g>
	<g>
		<path class="st0" d="M130,160.2l2.2,0.7c-0.5,0.9-1.1,1.8-2,2.7c-0.5,0.6-0.9,1.1-1.4,1.5c2.3-0.1,4.4-0.2,6.3-0.4
			c-0.4-0.6-0.9-1-1.4-1.6l1.7-1.1c1.4,1.3,2.6,2.7,3.5,4.2l-1.9,1.1c-0.2-0.4-0.5-0.7-0.7-1.1c-3.5,0.4-7.3,0.7-11.4,0.9l-0.3-2
			c0.7,0,1.3-0.1,1.9-0.1c0.7-0.7,1.2-1.3,1.8-2.1C128.9,162.2,129.5,161.2,130,160.2z M137.6,167.9v7.8h-1.9v-0.7h-8v0.7h-1.9v-7.8
			H137.6z M127.7,173.1h8v-3.4h-8V173.1z"/>
		<path class="st0" d="M142.3,164.5c0.6,0.4,1.1,0.7,1.7,1.2l-1.3,1.7c-0.6-0.6-1.1-1.1-1.7-1.4L142.3,164.5z M142.5,169.1l1.7,0.6
			c-0.4,2.4-0.7,4.4-1.2,6l-1.9-1C141.8,172.8,142.2,170.9,142.5,169.1z M142.8,160.4c0.6,0.4,1.1,0.7,1.6,1.2l-1.4,1.7
			c-0.6-0.6-1.1-1.1-1.7-1.5L142.8,160.4z M145.8,160.4l1.2,0.6c-0.4,0.7-0.8,1.4-1.2,2c0.1,0.1,0.1,0.1,0.2,0.2
			c0.4-0.6,0.7-1,0.9-1.6l1.2,0.6c-0.3,0.5-0.6,0.9-0.9,1.4l0.7-0.3c0.2,0.7,0.4,1.4,0.6,2.2l-1.1,0.5c0-0.1,0-0.2-0.1-0.3
			c-0.1,0.1-0.2,0.1-0.4,0.1v3.1h-1.3v-2.9c-0.4,0.1-0.8,0.1-1.2,0.2l-0.2-1.2c0.2,0,0.4-0.1,0.6-0.1c0.2-0.2,0.4-0.4,0.5-0.6
			c-0.5-0.4-0.9-0.8-1.5-1.2l0.7-0.9c0.1,0.1,0.2,0.2,0.2,0.2C145.1,161.6,145.5,160.9,145.8,160.4z M144.4,166.2l1.1,0.2
			c-0.1,0.8-0.2,1.6-0.5,2.2l-1.1-0.4C144.1,167.7,144.3,166.9,144.4,166.2z M144.9,169h10.6v3.1h-8.9l-0.1,0.4h9.5
			c-0.1,1.6-0.4,2.5-0.8,2.9c-0.4,0.4-0.9,0.5-1.6,0.5c-0.4,0-0.8-0.1-1.3-0.1l-0.2-1.3c0.6,0.1,1,0.1,1.4,0.1
			c0.2,0,0.3-0.1,0.4-0.1c0.1-0.1,0.2-0.3,0.2-0.6h-7.8l-0.1,0.7l-1.7-0.3l0.6-3.5h8.6v-0.4h-8.8V169z M147.1,164.4
			c-0.1-0.2-0.1-0.4-0.1-0.6c-0.2,0.2-0.4,0.4-0.5,0.7C146.7,164.4,146.9,164.4,147.1,164.4z M148,166c0.2,0.6,0.3,1.2,0.4,1.8
			l-1.1,0.2c-0.1-0.7-0.1-1.2-0.2-1.9L148,166z M153.3,160.4l1.2,0.6c-0.4,0.7-0.7,1.2-1.1,1.7c0.1,0.1,0.2,0.1,0.2,0.2
			c0.4-0.5,0.7-0.9,0.9-1.5l1.2,0.6c-0.4,0.6-0.7,1.1-1.1,1.6l0.7-0.3c0.4,0.7,0.6,1.4,0.8,2.2l-1.1,0.5c0-0.1-0.1-0.2-0.1-0.4
			c-0.2,0.1-0.3,0.1-0.4,0.1v0.7l1.1-0.2c0.3,0.7,0.5,1.3,0.6,2l-1.2,0.3c-0.1-0.7-0.2-1.2-0.4-1.8v2.2h-1.3v-2.9
			c-0.5,0.1-0.9,0.1-1.5,0.2l-0.2-1.2c0.2,0,0.4-0.1,0.6-0.1c0.2-0.3,0.5-0.6,0.7-0.8c-0.4-0.4-0.9-0.7-1.3-1.1v0.3h-3.4v-1.2h3.4
			v0.5l0.6-0.7c0.1,0.1,0.2,0.1,0.2,0.2C152.9,161.4,153.1,160.9,153.3,160.4z M148.5,166h3.2v2.6h-3.2V166z M148.6,160.6h3.1v1.1
			h-3.1V160.6z M148.6,163.4h3v1.1h-3V163.4z M148.6,164.7h3v1.1h-3V164.7z M149.8,167.6h0.7v-0.5h-0.7V167.6z M152.1,166.2l1.1,0.2
			c-0.1,0.7-0.2,1.3-0.4,1.9l-1.1-0.4C152,167.4,152.1,166.8,152.1,166.2z M154.8,164.4c-0.1-0.2-0.2-0.4-0.2-0.6
			c-0.2,0.2-0.4,0.5-0.6,0.7C154.4,164.5,154.6,164.4,154.8,164.4z"/>
		<path class="st0" d="M173.3,160.7v12.4c0,1.6-0.7,2.3-2.1,2.3H170l-0.4-2c0.6,0.1,1.1,0.1,1.6,0.1c0.2,0,0.3-0.3,0.3-0.9v-10.3
			H166v13.2h-1.7v-2.4l-1.6,0.6c-0.1-1.2-0.3-2.2-0.6-3.3l1.5-0.5c0.2,0.9,0.5,1.9,0.6,2.9v-3.9l-1.6,0.6c-0.1-0.2-0.1-0.6-0.1-0.7
			c-0.2,0.1-0.4,0.1-0.6,0.1v6.9h-1.6v-6.5c-0.6,0.1-1.2,0.2-1.9,0.4l-0.4-1.9c0.4-0.1,0.7-0.1,1.1-0.1c0.4-0.5,0.7-1,0.9-1.5
			c-0.7-0.6-1.4-1.2-2.2-1.8l1.1-1.3c0.1,0.1,0.1,0.1,0.2,0.1c0.6-0.9,0.9-1.8,1.4-2.7l1.7,0.7c-0.6,1.1-1.1,2.2-1.6,2.9
			c0.2,0.1,0.3,0.2,0.5,0.4c0.4-0.7,0.7-1.3,0.9-2l1.8,0.7c-0.6,1-1.1,1.9-1.6,2.7l1.2-0.4c0.4,0.9,0.7,2,0.9,3v-8L173.3,160.7
			L173.3,160.7z M158.5,170.1l1.7,0.4c-0.2,1.6-0.4,2.8-0.7,3.9l-1.6-0.5C158.2,172.7,158.4,171.4,158.5,170.1z M162.2,167.2
			c-0.1-0.2-0.1-0.5-0.2-0.7c-0.2,0.3-0.4,0.6-0.6,0.8C161.7,167.3,162,167.2,162.2,167.2z M167.7,162.9c0.4,0.6,0.7,1.1,0.9,1.7
			l-0.9,0.6h0.9c0.4-0.7,0.6-1.6,0.7-2.3l1.7,0.4c-0.1,0.7-0.3,1.3-0.6,2h0.7v1.6h-1.7v1.2h1.7v1.6h-2.7v1.2c0,0.4,0.1,0.6,0.4,0.7
			c0.2,0.1,0.5,0.1,0.8,0.1c0.4,0,0.8-0.1,1.2-0.2v1.7c-0.4,0.1-0.7,0.2-1.2,0.2s-0.9,0-1.5-0.1c-1-0.1-1.5-0.7-1.5-2v-1.7h-0.6
			v-1.6h1.6v-1.2h-1.5v-1.6h0.7c-0.2-0.4-0.4-0.9-0.7-1.2L167.7,162.9z"/>
		<path class="st0" d="M175.6,160.8h6v3.6c0.6-0.6,1-1.2,1.3-1.9c0.4-0.7,0.7-1.5,1-2.2l2,0.5c-0.1,0.3-0.2,0.6-0.4,0.8h4.2v1.8
			c-0.6,1.2-1.2,2.2-2.1,3c0.9,0.6,2,0.9,3,1.2l-0.8,1.9c-0.1-0.1-0.2-0.1-0.2-0.1v6.3h-1.9V175h-3.6v0.6h-1.9v-6.2
			c-0.1,0.1-0.2,0.1-0.3,0.1l-0.6-1.2v1.6h-1.5v2.7c0.6-0.1,1.2-0.2,1.7-0.4l0.3,1.7c-1.9,0.6-4,1-6.3,1.4l-0.7-1.9
			c0.2-0.1,0.5-0.1,0.7-0.1v-5.5h1.9v5.2c0.2-0.1,0.4-0.1,0.6-0.1v-6.3h-2.4L175.6,160.8L175.6,160.8z M177.5,164.9h2.2v-2.3h-2.2
			V164.9z M181.3,168.2l-0.1-0.2c1.3-0.5,2.4-0.9,3.3-1.6c-0.4-0.4-0.7-0.9-1.1-1.4c-0.2,0.2-0.5,0.6-0.7,0.7l-1.1-1.2v2.1h-1.7v1.6
			H181.3z M183,169.3h6.2c-1.1-0.4-2.2-0.9-3.2-1.6C185.1,168.2,184.1,168.8,183,169.3z M184.1,173.3h3.6v-2.2h-3.6V173.3z
			 M184.6,163.5c0.5,0.7,0.9,1.2,1.6,1.7c0.7-0.6,1.1-1.2,1.5-1.9h-3C184.6,163.4,184.6,163.4,184.6,163.5z"/>
		<path class="st0" d="M199,160.6v5.2h-1.1c0.6,0.7,1,1.5,1.4,2.3l-1.4,0.7h2.2l-0.7-1.3c1.2-0.6,2.2-1.2,2.7-2
			c0.1-0.1,0.1-0.3,0.2-0.4h-1.1c-0.1,0.4-0.2,0.7-0.4,0.9l-1.6-0.7c0.4-0.9,0.7-1.9,0.7-2.9l1.6,0.4c0,0.2-0.1,0.5-0.1,0.7h1.1
			c0.1-0.4,0.1-0.8,0.1-1.3h-2.8v-1.6h6.9v1.6h-2.5c0,0.5-0.1,0.9-0.1,1.3h2.9v1.6h-3.1c-0.1,0.1-0.1,0.2-0.1,0.4h1.2v0.9
			c0,0.5,0.1,0.7,0.4,0.7c0.4,0,0.6-0.1,0.6-0.2s0.1-0.4,0.1-0.7l1.2,0.4c0,0.4-0.1,0.7-0.1,0.9c0,0.4-0.2,0.7-0.6,0.8
			c-0.2,0.1-0.7,0.2-1.3,0.2c-0.2,0-0.5-0.1-0.9-0.1c-0.7-0.1-1.1-0.7-1.1-1.7v-0.4c-0.1,0.1-0.2,0.3-0.2,0.4
			c-0.7,0.8-1.5,1.6-2.5,2.1h4.8v4.7h-11.6V169h3.7c-0.1-0.3-0.2-0.6-0.4-0.8c-1.4,0.3-2.9,0.6-4.6,0.8l-0.7-1.6
			c0.2,0,0.6-0.1,0.7-0.1v-6.6L199,160.6L199,160.6L199,160.6z M192.5,174.1H207v1.4h-14.5V174.1z M194.6,162.5h2.7v-0.4h-2.7V162.5
			z M194.6,164.4h2.7v-0.4h-2.7V164.4z M196.6,166.8c-0.1-0.2-0.2-0.3-0.3-0.4l0.8-0.6h-2.5v1.2C195.2,167,195.9,166.8,196.6,166.8z
			 M195.6,170.7h8.3v-0.3h-8.3V170.7z M195.6,172.2h8.3v-0.4h-8.3V172.2z"/>
		<path class="st0" d="M210.4,160.4H223v1.6h-5.4v0.3h6.6v3.3h-1.8v-1.6h-4.8v3.4h-1.9v-3.4H211v1.6h-1.8v-3.3h6.5v-0.3h-5.3V160.4
			L210.4,160.4z M222.8,167.9v5.5h-5.3c0.1,0.3,0.1,0.5,0.3,0.5c0.1,0.1,0.4,0.1,0.7,0.1c1.9,0,2.8,0,2.8-0.1c0.4,0,0.7-0.1,1.1-0.1
			c0.4,0,0.7-0.4,0.7-1.1l1.7,0.7c-0.2,0.9-0.6,1.5-0.9,1.8c-0.3,0.1-0.7,0.2-1.3,0.2c-1.3,0.1-2.7,0.1-4,0.1h-0.7
			c-0.5,0-0.8-0.1-1.1-0.2c-0.7-0.1-1.2-0.7-1.2-1.8v-0.3h-3.5v0.7h-1.9v-6.3H222.8L222.8,167.9z M211.2,164.5h4v1.4h-4V164.5z
			 M211.2,166.2h4v1.4h-4V166.2z M212.1,170h3.5v-0.5h-3.5V170z M212.1,171.8h3.5v-0.5h-3.5V171.8z M217.4,169.5v0.5h3.5v-0.5H217.4
			z M217.4,171.4v0.5h3.5v-0.5H217.4z M217.9,164.5h4.2v1.4h-4.2V164.5z M217.9,166.2h4.2v1.4h-4.2V166.2z"/>
		<path class="st0" d="M227.8,160.9h12.7v1.8c-1.6,1.5-3.6,2.8-5.8,3.9v0.5h6.5v1.9h-6.5v4.5c0,0.9-0.2,1.5-0.6,1.8
			c-0.4,0.4-1,0.5-1.9,0.5c-0.7,0-1.3-0.1-1.9-0.1l-0.3-2.2c0.7,0.2,1.4,0.3,2.2,0.3c0.1,0,0.2-0.1,0.4-0.1c0.1-0.1,0.1-0.4,0.1-0.7
			v-3.9h-6.4v-1.9h6.4v-2.2l0.9,0.1c1.3-0.6,2.5-1.2,3.6-2.1h-9.5L227.8,160.9L227.8,160.9z"/>
		<path class="st0" d="M249.8,160.4h2.1v1.2h6.4v1.8h-3.6c-0.1,0.5-0.3,0.9-0.4,1.3h3.5v8.7c0,1.6-0.8,2.3-2.5,2.3
			c-0.4,0-0.9-0.1-1.5-0.1l-0.4-2c0.7,0.2,1.3,0.2,1.9,0.2c0.4,0,0.7-0.3,0.7-0.9v-6.4h-2.8v0.2c0,0.4,0.1,0.6,0.1,0.6
			c0.1,0.1,0.2,0.1,0.4,0.1s0.2,0,0.2,0s0.1-0.1,0.1-0.1c0.1-0.1,0.1-0.3,0.1-0.7l1.7,0.7c-0.1,0.4-0.1,0.7-0.2,1.1
			c-0.1,0.2-0.2,0.4-0.6,0.4s-0.7,0.1-1.4,0.1c-0.7,0-1.2-0.1-1.3-0.2c-0.7-0.1-0.9-0.6-0.9-1.6v-0.8h-1.5c-0.1,0.9-0.4,1.6-0.8,2.1
			c-0.3,0.2-0.6,0.5-0.9,0.7h6.4v4.1h-5.3v0.9h-1.9v-4.7c-0.2,0.1-0.5,0.2-0.7,0.2l-0.6-1.2v7H244v-10.9h3.1
			c-0.1-0.5-0.2-0.9-0.3-1.3h-3.5v-1.8h6.5L249.8,160.4L249.8,160.4L249.8,160.4z M245.7,168.2c0.7-0.2,1.2-0.5,1.6-0.7
			c0.2-0.2,0.4-0.6,0.5-0.9h-2.1V168.2z M249,164.7h3.2c0.1-0.4,0.2-0.9,0.4-1.3h-3.7C248.8,163.8,248.9,164.2,249,164.7z
			 M248.8,171.8h3.5V171h-3.5V171.8z"/>
		<path class="st0" d="M260.4,160.8h7v1.7c-0.6,0.8-1.3,1.6-2.1,2.2c0.2,0.2,0.4,0.3,0.6,0.4l-0.4,0.6h2.2v1.4
			c0,0.1-0.1,0.1-0.1,0.2c0.8-0.3,1.6-0.7,2.2-1.1c-0.5-0.4-0.9-0.9-1.2-1.5c-0.2,0.2-0.4,0.5-0.7,0.7l-1.2-1.3
			c0.6-0.6,1-1.1,1.3-1.7c0.4-0.7,0.7-1.3,0.9-2l1.8,0.4c-0.1,0.3-0.2,0.6-0.4,0.8h5.1v1.8h-1.4c-0.2,1-0.7,1.9-1.2,2.5
			c0.9,0.5,1.8,0.8,2.8,1.1l-0.8,1.8c-1.2-0.4-2.4-0.8-3.5-1.5c-0.4,0.2-0.7,0.6-1.2,0.7h1.1c0,0.5-0.1,0.9-0.1,1.2h3.7
			c0,2.4-0.2,4.2-0.5,5.5c-0.1,0.3-0.3,0.5-0.6,0.7c-0.4,0.2-0.7,0.2-1.2,0.2c-0.4,0-0.9-0.1-1.5-0.2l-0.2-1.9
			c0.7,0.2,1.2,0.3,1.7,0.3c0.1,0,0.1,0,0.2-0.1c0.1-0.1,0.1-0.2,0.1-0.4c0.1-0.7,0.1-1.5,0.1-2.3h-2.1c-0.2,0.7-0.4,1.4-0.7,1.9
			c-0.7,1.1-1.7,2.1-3,2.7l-1.1-1.7c1.1-0.6,1.9-1.2,2.4-2.2c0.1-0.2,0.2-0.5,0.4-0.7h-1.9v-1.8h2.2c0-0.3,0-0.6,0.1-0.8
			c-0.4,0.2-0.7,0.4-1.2,0.5l-0.8-1.1c-0.3,0.7-0.6,1.3-0.9,1.8l-1.4-0.8c0.2-0.5,0.4-0.9,0.6-1.5h-0.7v5.8c0,0.9-0.1,1.6-0.4,1.9
			c-0.3,0.4-0.7,0.6-1.5,0.6c-0.6,0-1.1-0.1-1.6-0.2l-0.3-1.9c0.6,0.2,1.1,0.2,1.6,0.2c0.1,0,0.2-0.1,0.2-0.2
			c0.1-0.2,0.1-0.5,0.1-0.8v-2.2c-0.6,0.8-1.1,1.6-1.8,2.3l-1.4-1.4c1.3-1.2,2.2-2.5,2.9-4h-2.7v-1.7h3.1c-0.7-0.6-1.5-1-2.2-1.4
			l1.2-1.3c0.5,0.2,0.9,0.4,1.4,0.7c0.4-0.3,0.8-0.7,1.2-0.9h-4.4v-2.2H260.4z M269.6,163.4c0.4,0.6,0.9,1.1,1.5,1.6
			c0.4-0.4,0.7-0.9,0.9-1.6H269.6z"/>
		<path class="st0" d="M284.2,160.3h2.1v0.9h5.7v1.6h-2.2l0.4,0.8c-0.6,0.2-1.2,0.4-1.8,0.6c0.7,0.2,1.2,0.4,1.9,0.6l-0.7,0.9h2.2
			v1.7h-11.1v2.1c0,1.1-0.2,2.2-0.6,3.5c-0.2,0.9-0.7,1.9-1.1,2.7l-1.7-1.2c0.4-0.7,0.7-1.4,1.1-2.3c0.2-0.8,0.4-1.7,0.4-2.5v-3.7
			h1.7l-0.4-1.1c0.8-0.1,1.6-0.2,2.4-0.4c-0.7-0.2-1.5-0.4-2.2-0.5l0.5-0.9h-1.9v-1.6h5.3L284.2,160.3L284.2,160.3z M282.4,167.7
			l1.6,0.6c-0.1,0.2-0.1,0.4-0.2,0.6h1.9V168h1.9v0.9h3.7v1.7h-3.7v0.8h3.4v1.6h-3.4v0.8h4.2v1.7h-11.1v-1.7h5V173H282v-1.6h3.8
			v-0.9H283c-0.1,0.2-0.3,0.5-0.5,0.7l-1.6-0.9C281.6,169.5,282.1,168.6,282.4,167.7z M285.5,165c-1.1,0.3-2.3,0.6-3.5,0.7h6
			C287.3,165.5,286.4,165.3,285.5,165z M285.7,163.5c0.7-0.2,1.6-0.5,2.3-0.7h-5.1C283.9,163.1,284.8,163.3,285.7,163.5z"/>
		<path class="st0" d="M297.8,165.6l-0.4-1.1h-3v-1.7h1.7c-0.2-0.4-0.5-0.7-0.7-1.1l1.6-0.9c0.5,0.6,0.8,1.1,1.1,1.7l-0.7,0.4h1.6
			v-2.4h1.9v2.4h1.5v-2.4h1.9v2.4h0.8c0.3-0.7,0.6-1.3,0.7-2l2.1,0.6c-0.2,0.6-0.5,1-0.7,1.4h2v1.7H306l-0.4,1.1h3.2v1.8h-6.1v0.6
			h5.2v1.7h-5.2v0.6h6.5v1.8H305c0.3,0.1,0.6,0.2,0.8,0.4c0.9,0.4,2.1,0.7,3.4,0.9l-1.1,2.1c-1.4-0.4-2.6-0.9-3.8-1.7
			c-0.7-0.4-1.2-0.7-1.8-1.2v3.2h-2v-3.1c-0.6,0.4-1.1,0.8-1.6,1.2c-1.5,0.8-2.8,1.4-3.9,1.7l-1-1.8c1.1-0.2,2.2-0.7,3.4-1.1
			c0.4-0.1,0.7-0.3,0.9-0.4h-4v-1.8h6.3V170h-4.9v-1.9h4.9v-0.6h-5.6v-1.8L297.8,165.6L297.8,165.6z M303.8,164.5h-4.3l0.4,1.1h3.6
			L303.8,164.5z"/>
		<path class="st0" d="M313.9,162.8c0.4,0.3,0.8,0.7,1.2,1.1c0.7-0.5,1.2-0.9,1.8-1.6h-5v-1.7h7.5v0.7c0.3,0.2,0.6,0.5,0.9,0.7
			c0.7-0.4,1.5-0.9,2.2-1.5l1.4,1.1c-0.6,0.6-1.2,1-1.9,1.4c0.3,0.2,0.6,0.3,0.8,0.5c0.7-0.4,1.2-0.9,1.9-1.5l1.6,1.2
			c-0.5,0.5-0.9,0.9-1.5,1.2c0.7,0.3,1.3,0.6,2,0.7l-0.9,1.8c-0.7-0.2-1.4-0.6-2-0.9v0.6c0,0.4,0.1,0.7,0.1,0.7
			c0.1,0,0.1,0.1,0.2,0.1c0.1,0,0.1,0,0.2,0c0.1,0,0.1,0,0.1-0.1c0.1-0.1,0.1-0.2,0.1-0.6l1.8,0.9c-0.1,0.7-0.3,1.1-0.7,1.3
			c-0.2,0.1-0.4,0.1-0.7,0.2c-0.4,0-0.7,0.1-0.9,0.1c-0.8,0-1.3-0.1-1.5-0.2c-0.5-0.1-0.7-0.7-0.7-1.8v-0.4h-1.2
			c-0.1,0.8-0.3,1.4-0.6,1.9c-0.3,0.4-0.7,0.7-1.3,0.9h6.8v1.3c-0.6,1-1.1,1.8-1.9,2.4c0.7,0.3,1.6,0.5,2.6,0.6l-0.7,2
			c-1.4-0.2-2.7-0.7-3.7-1.2c-1.1,0.6-2.2,1-3.6,1.3l-0.9-1.7c1.1-0.2,2.1-0.5,2.9-0.7c-0.6-0.6-1.1-1.3-1.6-2.2h-0.7v-1.7h0.3
			l-0.7-1.4v1.6h-3.6l-0.1,0.8h3.9c-0.2,2.4-0.5,3.9-0.9,4.4s-1.1,0.7-1.9,0.7c-0.6,0-1.1-0.1-1.8-0.2l-0.3-1.9
			c0.7,0.1,1.4,0.2,1.9,0.2c0.4,0,0.7-0.1,0.8-0.2c0.2-0.2,0.4-0.6,0.6-1.2h-2.2l-0.1,0.3h-1.9l0.6-4.7h3.5v-1.2h-1.7v-0.4
			c-0.8,0.4-1.7,0.7-2.5,0.8l-0.6-1.5c0.7-0.2,1.6-0.6,2.2-0.8c-0.3-0.4-0.7-0.7-1-1L313.9,162.8z M317.5,167.7
			c0.4-0.2,0.7-0.4,0.8-0.7c0.2-0.4,0.4-1.1,0.4-2.2h2.9c-1-0.6-1.9-1.2-2.8-1.9c-0.8,0.9-1.6,1.6-2.4,2.2h1.2V167.7L317.5,167.7z
			 M320.8,171.1c0.4,0.5,0.7,0.8,1.2,1.2c0.5-0.4,0.9-0.7,1.2-1.2H320.8z"/>
		<path class="st0" d="M340,168.9h3.4v1.8h-1.6l0.7,1.2c-0.6,0.4-1.2,0.7-1.9,0.9c0.7,0.4,1.7,0.7,2.9,0.9l-1,2
			c-1.6-0.5-3-1.2-4.2-2.2c-0.9-0.7-1.7-1.8-2.3-2.9h-1.2v2.5c0.7-0.1,1.4-0.2,2-0.3l0.6,1.7c-1.6,0.4-3.4,0.7-5.3,1l-0.8-1.9
			c0.6-0.1,1.2-0.1,1.7-0.2v-2.9h-1.8c-0.1,0.5-0.1,0.9-0.2,1.4c-0.2,1.1-0.6,2.2-1.1,3.5l-1.7-1c0.6-1.5,0.9-2.7,1.1-3.7
			c0.2-1.3,0.3-2.6,0.3-3.9v-6.3h13v4.3h-2.5v1.1h2.5v1.8h-2.5L340,168.9L340,168.9L340,168.9z M331.2,164.9v2.9
			c0,0.4,0,0.8-0.1,1.2h2.5v-1.2h-2.2v-1.8h2.2v-1.1H331.2z M340.7,162.3h-9.4v0.7h9.4L340.7,162.3L340.7,162.3z M338,165.9v-1.1
			h-2.4v1.1H338z M335.6,168.9h2.4v-1.2h-2.4V168.9z M338.8,171.7c0.7-0.3,1.2-0.6,1.8-1h-2.7C338.2,171.1,338.5,171.4,338.8,171.7z
			"/>
		<path class="st0" d="M344.9,163.9h1.5v-3.5h1.9v3.5h1.3v1.9h-1.3v7.9c0.6-0.6,1.1-1.2,1.4-1.9c0.2-0.6,0.4-1.2,0.5-1.9h-1.3v-1.8
			h1.3v-0.9h1.9v0.9h2.5c0,2.8-0.1,4.7-0.2,5.6c0.6-0.6,0.9-1.2,1.2-1.9c0.2-0.6,0.4-1.2,0.4-1.9h-1.2V168h1.2v-0.9h1.9v0.9h2.6
			c0,2.8-0.2,4.9-0.5,6.3c-0.1,0.3-0.3,0.6-0.6,0.7c-0.4,0.2-0.7,0.2-1.2,0.2c-0.4,0-0.7-0.1-1.1-0.1l-0.2-1.8
			c-0.5,0.9-1.1,1.6-1.8,2.2l-0.9-1.6c-0.1,0.5-0.4,0.8-0.7,0.9c-0.4,0.2-0.7,0.3-1.4,0.3c-0.3,0-0.6-0.1-0.9-0.1l-0.4-1.8
			c-0.6,0.8-1.1,1.6-1.8,2.1l-0.7-1.3v1.5h-1.9v-9.8H345L344.9,163.9L344.9,163.9L344.9,163.9z M350.3,161.4h3.2
			c0.1-0.4,0.1-0.7,0.1-1.1h2c0,0.4,0,0.7-0.1,1.1h4.4c-0.1,2.5-0.4,4-0.7,4.7c-0.4,0.6-0.8,0.7-1.5,0.7c-0.7,0-1.4-0.1-2.2-0.2
			l-0.4-1.9c0.9,0.1,1.7,0.2,2.2,0.2c0.2,0,0.3-0.1,0.4-0.2c0.1-0.2,0.2-0.7,0.2-1.5h-2.6c-0.2,0.8-0.5,1.4-0.9,1.9
			c-0.7,0.7-1.7,1.4-3.1,1.9l-1.1-1.7c1.1-0.4,1.9-0.9,2.5-1.4c0.2-0.2,0.3-0.4,0.4-0.7h-2.7L350.3,161.4L350.3,161.4z M352,169.9
			c-0.1,1.2-0.4,2.2-0.8,3.2c-0.1,0.1-0.1,0.1-0.1,0.2c0.4,0.2,0.8,0.2,1.2,0.2c0.2,0,0.3-0.1,0.4-0.2s0.1-0.3,0.1-0.7
			c0.1-0.7,0.1-1.6,0.1-2.9H352z M357.9,170c-0.1,1.2-0.3,2.2-0.7,3.2c0,0.1,0,0.1-0.1,0.1c0.5,0.2,0.9,0.2,1.2,0.2
			c0.1,0,0.1-0.1,0.2-0.1c0.1-0.1,0.1-0.2,0.1-0.5c0.1-0.9,0.1-1.9,0.1-2.9H357.9z"/>
		<path class="st0" d="M369.7,160.1l1.1,0.9c1,0.4,2,0.8,3,1.2c1.3,0.4,2.5,0.7,3.8,1.1l-0.9,1.8c-0.2-0.1-0.4-0.1-0.6-0.2v4.8
			h-12.7V165c-0.2,0.1-0.3,0.1-0.5,0.2l-0.9-1.7C364.7,162.6,367.3,161.5,369.7,160.1z M375.5,170v5.7h-1.9v-0.4h-7.7v0.4H364V170
			H375.5z M364.2,164.7h11.2c-0.9-0.3-1.7-0.6-2.5-0.9v0.6h-6.7v-0.5C365.6,164.1,364.9,164.4,364.2,164.7z M365.2,168h1.2
			c-0.2-0.4-0.4-0.7-0.7-1.1l0.9-0.6h-1.5L365.2,168L365.2,168z M366,172.1h7.7v-0.4H366V172.1z M366,173.8h7.7v-0.4H366V173.8z
			 M367.4,166.4c0.2,0.4,0.5,0.7,0.7,1.2l-0.8,0.5h1.4v-1.7L367.4,166.4L367.4,166.4z M368.4,162.8h2.4c-0.4-0.2-0.8-0.4-1.2-0.7
			C369.2,162.4,368.8,162.6,368.4,162.8z M370.5,166.4v1.7h1.3l-0.7-0.4c0.3-0.4,0.5-0.9,0.7-1.3H370.5L370.5,166.4z M372.5,166.4
			l1.1,0.4c-0.2,0.5-0.4,0.9-0.6,1.2h1.2v-1.7L372.5,166.4L372.5,166.4z"/>
	</g>
	<path class="st5" d="M331.1,82.4l2.9,9h-7.5c-2.3,5.8-3.6,12.2-3.6,18.8c0,1,0,2,0.1,3h17.9l5.2,16.4h27.4l-23.6-64.5
		C342.2,69.2,335.8,75.2,331.1,82.4z"/>
	<path class="st0" d="M322.9,113.2c-0.1-1-0.1-2-0.1-3c0-6.6,1.3-12.9,3.5-18.7h-10.8l9.5-28.2l6,19c4.7-7.2,11.1-13.1,18.7-17.2
		l-15.3-42h-20.1l-38.7,106.5h27.2l5.3-16.3L322.9,113.2z"/>
	<path class="st0" d="M214.4,101.7c3-3,6.3-5.6,9.7-7.8V64h-24.5v64.3C201.9,118.5,206.8,109.3,214.4,101.7z"/>
	<path class="st3" d="M224.2,94c-3.5,2.2-6.7,4.7-9.7,7.8c-7.6,7.6-12.5,16.8-14.7,26.5v1.3h24.5V94z"/>
	<path class="st5" d="M224.2,94.2c-3.5,2.2-6.7,4.7-9.7,7.8c-7.6,7.6-12.5,16.8-14.7,26.5v1.3h24.5V94.2z"/>
</g>
</svg>
