<?xml version="1.0" encoding="utf-8"?>
<!-- Generator: Adobe Illustrator 28.0.0, SVG Export Plug-In . SVG Version: 6.00 Build 0)  -->
<svg version="1.1" id="圖層_1" xmlns="http://www.w3.org/2000/svg" xmlns:xlink="http://www.w3.org/1999/xlink" x="0px" y="0px"
	 viewBox="0 0 500 200" style="enable-background:new 0 0 500 200;" xml:space="preserve">
<style type="text/css">
	.st0{fill:#FFFFFF;}
	.st1{opacity:0.8;fill:#FFFFFF;}
</style>
<g>
	<path class="st0" d="M262.4,187.8c1.5,0,2.9-0.2,4.2-0.5c1.3-0.3,2.4-0.8,3.3-1.5c0.9-0.7,1.6-1.6,2.2-2.8c0.5-1.2,0.8-2.6,0.8-4.2
		c0-2.1-0.5-3.9-1.6-5.3c-1.1-1.4-2.7-2.3-5-2.6v-0.1c0.7-0.1,1.3-0.3,1.9-0.6c0.6-0.3,1.1-0.7,1.6-1.3c0.5-0.5,0.9-1.2,1.2-2
		c0.3-0.8,0.4-1.8,0.4-2.9c0-1.2-0.2-2.3-0.6-3.3c-0.4-1-1-1.8-1.8-2.6c-0.8-0.7-1.9-1.3-3.3-1.6c-1.3-0.4-2.9-0.6-4.8-0.6h-11.6v32
		H262.4z M252.4,158.4h7c1.7,0,3.1,0.1,4.2,0.3c1.1,0.2,2.1,0.5,2.8,0.9c0.7,0.4,1.2,1,1.6,1.7c0.3,0.7,0.5,1.5,0.5,2.6
		c0,1-0.1,1.8-0.4,2.6c-0.3,0.8-0.7,1.4-1.4,1.9c-0.7,0.5-1.5,0.9-2.6,1.2c-1.1,0.3-2.4,0.4-4,0.4h-7.6V158.4z M252.4,172.5h8
		c1.4,0,2.7,0.1,3.9,0.2c1.2,0.2,2.1,0.5,3,0.9c0.8,0.4,1.5,1.1,1.9,1.9c0.4,0.8,0.7,1.9,0.7,3.2c0,1.4-0.2,2.5-0.6,3.4
		c-0.4,0.8-1,1.5-1.8,2c-0.8,0.5-1.8,0.8-3,0.9c-1.2,0.1-2.7,0.2-4.3,0.2h-7.7V172.5z M246.1,187.8v-2.6h-18.7v-12.7h16.5v-2.6
		h-16.5v-11.6h18.3v-2.6h-21.3v32H246.1z M204.9,155.8h-3.4l-7.4,27.7h-0.1l-6.9-27.7h-3l8.3,32h3.3l7.4-28.3h0.1l7.4,28.3h3.3
		l8.4-32h-3.1l-7,27.7h-0.1L204.9,155.8z"/>
	<path class="st0" d="M275,177.5c0.1,2.5,0.7,4.5,1.8,6c2.1,2.9,5.8,4.3,11.1,4.3c4.3,0,7.6-1,9.8-3c2.2-2,3.3-4.3,3.3-6.9
		c0-2.5-0.9-4.5-2.8-5.9c-1.3-1-2.2-1.4-2.9-1.4c0.9-0.3,1.8-0.8,2.6-1.6c1.3-1.3,2-2.8,2-4.6c0-2.6-1.1-4.6-3.3-6.2
		c-2.2-1.5-5.1-2.3-8.7-2.3c-1.9,0-3.6,0.2-4.9,0.6c-1.3,0.4-2.5,0.9-3.4,1.7c-1.3,1-2.2,2.2-2.9,3.4c-0.6,1.4-0.9,2.8-1,4.4h6.9
		c0-1.5,0.4-2.8,1.2-3.7c0.8-0.9,2.1-1.4,3.8-1.4c1.5,0,2.7,0.4,3.5,1.1c0.8,0.7,1.3,1.7,1.3,2.9c0,1.8-0.8,3-2.5,3.6
		c-0.9,0.4-2.6,0.6-5,0.6v4.4c2.4,0,4.2,0.2,5.4,0.6c2,0.7,3,2,3,4.1c0,1.5-0.5,2.7-1.6,3.5c-1.1,0.8-2.3,1.2-3.8,1.2
		c-2.4,0-4-0.7-4.9-2.3c-0.5-0.8-0.7-1.8-0.7-3.1H275z"/>
	<polygon class="st0" points="307.5,159.6 300.9,159.6 300.9,161.3 307.5,161.3 307.5,167.8 309.3,167.8 309.3,161.3 315.8,161.3 
		315.8,159.6 309.3,159.6 309.3,153.1 307.5,153.1 	"/>
	<polyline class="st0" points="271.9,100 271.9,12.2 359.7,56.1 	"/>
	<rect x="184.2" y="56.1" class="st1" width="87.8" height="87.8"/>
	<path class="st0" d="M184.2,100c24.2,0,43.9-19.7,43.9-43.9c0-24.2-19.7-43.9-43.9-43.9c-24.2,0-43.9,19.7-43.9,43.9
		C140.3,80.3,159.9,100,184.2,100"/>
</g>
</svg>
