<?xml version="1.0" encoding="utf-8"?>
<!-- Generator: Adobe Illustrator 28.0.0, SVG Export Plug-In . SVG Version: 6.00 Build 0)  -->
<svg version="1.1" id="圖層_1" xmlns="http://www.w3.org/2000/svg" xmlns:xlink="http://www.w3.org/1999/xlink" x="0px" y="0px"
	 viewBox="0 0 730 50.2" style="enable-background:new 0 0 730 50.2;" xml:space="preserve">
<style type="text/css">
	.st0{fill:none;stroke:#5366C4;stroke-linejoin:round;stroke-miterlimit:10;}
</style>
<g>
	<g>
		<path class="st0" d="M216,48.4V18.8h-0.2l-7.6,23.3H201l-7.7-23.2h-0.1v29.5h-9.7V1.9h12.9l8.2,24.1l8-24.1h13v46.4L216,48.4
			L216,48.4z"/>
		<path class="st0" d="M259.8,48.4l-2.5-8.7h-14.9l-2.6,8.7h-10l14.8-46.5h11.2l14.6,46.5H259.8z M249.8,13.8h-0.2l-4.9,16.8h9.8
			L249.8,13.8z"/>
		<path class="st0" d="M297.9,48.4L289.6,32h-4.7v16.4h-10.5V1.9h18.3c4.2,0,7.4,1,10,3.1c3.2,2.6,4.9,6.9,4.9,11.5
			c0,5.7-2.5,11.2-7.9,13.7l9.6,18.1L297.9,48.4L297.9,48.4z M291.4,11.1h-6.5v12.3h6.5c3.7,0,6.1-2.4,6.1-6.2
			C297.5,12.9,294.9,11.1,291.4,11.1z"/>
		<path class="st0" d="M334.4,11.2v37.1h-10.5v-37H312V1.9h34.2v9.3H334.4z"/>
		<path class="st0" d="M351.1,48.4V1.9h30.8v9.4h-20.3v8.9h17.1v9.4h-17.1v9.2H382v9.5h-30.9V48.4z"/>
		<path class="st0" d="M405.4,49.1c-9.2,0-17.8-5.1-17.8-16.7V18.3c0-11.4,8.3-17.1,17.5-17.1c8.1,0,17,4.6,17,15.3v2.2h-9.9v-1.1
			c0-4.8-3.7-6.9-6.9-6.9c-3.7,0-7.3,2.1-7.3,7.4v14.1c0,4.8,3.1,7.5,7.4,7.5c3.2,0,6.8-2,6.8-6.9v-1.1h9.8V34
			C422,44.6,413.4,49.1,405.4,49.1z"/>
		<path class="st0" d="M451.9,48.4V29.9h-13.6v18.5h-10.4V1.9h10.4v17.8h13.6V1.9h10.5v46.4L451.9,48.4L451.9,48.4z"/>
		<path class="st0" d="M499.1,49.1c-7.3,0-13.7-2.2-17.7-8.3l6.6-6.6c2.1,3.4,6.2,5.9,10.6,5.9c3.1,0,6.6-1.2,6.6-4.4
			c0-2.5-1.7-3.4-3.8-4.3c-1.1-0.5-5.9-1.9-7.3-2.3c-5.8-1.6-10.8-5.1-10.8-13c0-8.7,6.5-15,15.8-15c7.3,0,12.4,2.3,15.7,7.2
			l-6.8,6.3c-1.9-2.9-5.4-4.4-8.7-4.4c-3,0-5.7,1.4-5.7,4.5c0,2.9,2.5,3.4,5.6,4.4c1,0.3,5.1,1.5,6.2,1.8c6.2,1.9,10.5,5.5,10.5,13
			C515.9,44.1,507.8,49.1,499.1,49.1z"/>
		<path class="st0" d="M538.3,49.1c-10.6,0-17.3-5.5-17.3-17.2v-30h10.5v29.2c0,5.2,2.5,8.5,7.1,8.5c4.4,0,7-2.9,7-8.4V1.9h10.3
			v29.5C555.8,43,548.2,49.1,538.3,49.1z"/>
		<path class="st0" d="M595.2,48.4V18.8H595l-7.6,23.3h-7.2l-7.7-23.2h-0.1v29.5h-9.7V1.9h12.9l8.2,24.1l8-24.1h13v46.4L595.2,48.4
			L595.2,48.4z"/>
		<path class="st0" d="M644.4,48.4V18.8h-0.2l-7.6,23.3h-7.2l-7.7-23.2h-0.1v29.5h-9.7V1.9h12.9l8.3,24.1l8-24.1h13v46.4L644.4,48.4
			L644.4,48.4z"/>
		<path class="st0" d="M661.2,48.4V1.9h10.5v46.4L661.2,48.4L661.2,48.4z"/>
		<path class="st0" d="M699.1,11.2v37.1h-10.5v-37h-11.9V1.9h34.2v9.3H699.1z"/>
	</g>
	<g>
		<path class="st0" d="M19.9,48.4v-8.6l17.7-17.6c1.8-1.8,2.7-3.9,2.7-6.5c0-1.7-0.5-3.2-1.6-4.3c-1-1.2-2.4-1.7-4.1-1.7
			s-3.2,0.6-4.2,1.8c-1.1,1.2-1.6,2.7-1.6,4.6h-9.7c0-3,0.7-5.6,2-7.8s3.2-4,5.6-5.3s5.1-1.9,8.2-1.9c3,0,5.7,0.6,7.9,1.8
			c2.3,1.2,4,2.8,5.3,4.9c1.3,2.1,1.9,4.5,1.9,7.3c0,2.5-0.5,4.9-1.6,7.2s-2.8,4.6-5.2,6.9L32.1,39.8h18.4v8.6H19.9z"/>
		<path class="st0" d="M73.2,49c-3.1,0-5.8-0.6-8.1-1.8c-2.3-1.2-4.1-2.8-5.3-4.9c-1.3-2.1-1.9-4.6-1.9-7.4V15.2
			c0-2.8,0.6-5.3,1.9-7.4c1.3-2.1,3-3.7,5.3-4.9c2.3-1.2,5-1.8,8.1-1.8s5.9,0.6,8.1,1.8c2.3,1.2,4,2.8,5.3,4.9s1.9,4.6,1.9,7.4V35
			c0,2.8-0.6,5.3-1.9,7.4c-1.3,2.1-3,3.7-5.3,4.9C79,48.5,76.3,49,73.2,49z M66.8,15.2v13.1l12.6-14.8c-0.7-2.7-2.7-4-6.2-4
			c-2,0-3.6,0.5-4.7,1.5S66.8,13.4,66.8,15.2z M73.2,40.7c2,0,3.6-0.5,4.7-1.5c1.1-1,1.7-2.4,1.7-4.2V21.9L67,36.7
			c0.3,1.3,1,2.3,2.1,3S71.5,40.7,73.2,40.7z"/>
		<path class="st0" d="M96.5,48.4v-8.6l17.7-17.6c1.8-1.8,2.7-3.9,2.7-6.5c0-1.7-0.5-3.2-1.6-4.3c-1-1.2-2.4-1.7-4.1-1.7
			s-3.2,0.6-4.2,1.8c-1.1,1.2-1.6,2.7-1.6,4.6h-9.6c0-3,0.7-5.6,2-7.8s3.2-4,5.6-5.3s5.1-1.9,8.2-1.9c3,0,5.7,0.6,7.9,1.8
			c2.3,1.2,4,2.8,5.3,4.9s1.9,4.5,1.9,7.3c0,2.5-0.5,4.9-1.6,7.2s-2.8,4.6-5.2,6.9l-11.2,10.6h18.4v8.6H96.5z"/>
		<path class="st0" d="M154.3,48.4v-8.6H134V26.5l17.4-24.7h10.5l-19,27.4v2.4h11.4v-10h9.6v26.8C163.9,48.4,154.3,48.4,154.3,48.4z
			"/>
	</g>
</g>
</svg>
