<?xml version="1.0" encoding="utf-8"?>
<!-- Generator: Adobe Illustrator 28.0.0, SVG Export Plug-In . SVG Version: 6.00 Build 0)  -->
<svg version="1.1" id="圖層_1" xmlns="http://www.w3.org/2000/svg" xmlns:xlink="http://www.w3.org/1999/xlink" x="0px" y="0px"
	 viewBox="0 0 150.5 96" style="enable-background:new 0 0 150.5 96;" xml:space="preserve">
<style type="text/css">
	.st0{fill:#FFFFFF;}
</style>
<g>
	<path class="st0" d="M5.1,79.5l-1.6-3.2H1.7v3.2h-1v-7.6h2.4c1.7,0,2.8,0.7,2.8,2.2c0,1.1-0.5,1.7-1.5,2l1.7,3.4H5.1z M3.1,75.4
		C4.4,75.4,5,75,5,74.1s-0.5-1.3-1.8-1.3H1.7v2.7L3.1,75.4L3.1,75.4z"/>
	<path class="st0" d="M11.7,78.6c-0.4,0.7-1,0.9-1.9,0.9c-1.5,0-2.4-1-2.4-2.5v-0.7c0-1.6,0.7-2.5,2.2-2.5s2.2,0.9,2.2,2.5v0.6H8.3
		v0.2c0,0.9,0.5,1.7,1.4,1.7c0.7,0,1.1-0.2,1.3-0.6L11.7,78.6z M8.3,76.1h2.6c0-0.9-0.5-1.5-1.3-1.5C8.7,74.7,8.3,75.2,8.3,76.1z"/>
	<path class="st0" d="M17,71.9h0.9v7.6H17V79c-0.3,0.4-0.8,0.6-1.5,0.6c-1.5,0-2.2-1.1-2.2-2.5v-0.7c0-1.6,0.8-2.5,2.2-2.5
		c0.7,0,1.2,0.2,1.5,0.6V71.9z M17,77.1v-0.8c0-1-0.5-1.7-1.4-1.7s-1.4,0.6-1.4,1.7V77c0,0.9,0.5,1.7,1.4,1.7
		C16.6,78.8,17,78.1,17,77.1z"/>
	<path class="st0" d="M23.9,78.6c-0.4,0.7-1,0.9-1.9,0.9c-1.5,0-2.4-1-2.4-2.5v-0.7c0-1.6,0.7-2.5,2.2-2.5s2.2,0.9,2.2,2.5v0.6h-3.5
		v0.2c0,0.9,0.5,1.7,1.4,1.7c0.7,0,1.1-0.2,1.3-0.6L23.9,78.6z M20.5,76.1H23c0-0.9-0.5-1.5-1.3-1.5C20.9,74.7,20.5,75.2,20.5,76.1z
		"/>
	<path class="st0" d="M26,74v-0.4c0-1.1,0.4-1.7,1.7-1.7H28v0.8h-0.2c-0.7,0-0.8,0.3-0.8,1.1V74h2.6v5.5h-0.9v-4.7H27v4.7h-1v-4.7
		h-0.7V74H26z"/>
	<path class="st0" d="M31.4,74h0.9v0.5c0.3-0.4,0.7-0.6,1.5-0.6c1.2,0,2,0.6,2,2.2v3.4h-0.9V76c0-1.1-0.6-1.4-1.3-1.4
		c-0.8,0-1.3,0.6-1.3,1.3v3.4h-0.9V74z"/>
	<path class="st0" d="M37.9,71.9h1v1h-1V71.9z M37.9,74h0.9v5.5h-0.9V74z"/>
	<path class="st0" d="M41,74h0.9v0.5c0.3-0.4,0.7-0.6,1.5-0.6c1.2,0,2,0.6,2,2.2v3.4h-0.9V76c0-1.1-0.6-1.4-1.3-1.4
		c-0.8,0-1.3,0.6-1.3,1.3v3.4H41V74z"/>
	<path class="st0" d="M50.7,74h0.9v5.4c0,1.5-0.9,2.3-2.4,2.3c-1,0-1.5-0.3-1.9-0.9l0.7-0.5c0.2,0.4,0.6,0.6,1.3,0.6
		c1,0,1.4-0.5,1.4-1.5V79c-0.3,0.4-0.8,0.6-1.5,0.6c-1.5,0-2.2-1.1-2.2-2.5v-0.7c0-1.6,0.8-2.5,2.2-2.5c0.7,0,1.2,0.2,1.5,0.6V74z
		 M50.7,77.1v-0.7c0-1-0.5-1.7-1.4-1.7s-1.4,0.6-1.4,1.7v0.7c0,0.9,0.5,1.7,1.4,1.7C50.3,78.8,50.7,78,50.7,77.1z"/>
	<path class="st0" d="M56.9,74h0.9v0.5c0.2-0.4,0.7-0.6,1.4-0.6s1.3,0.3,1.6,0.9c0.4-0.6,1-0.9,1.7-0.9c1.2,0,1.9,0.7,1.9,2.2v3.4
		h-0.9V76c0-1-0.5-1.4-1.1-1.4c-0.7,0-1.2,0.6-1.2,1.3v3.4h-0.9V76c0-1-0.5-1.4-1.1-1.4c-0.7,0-1.2,0.6-1.2,1.3v3.4h-0.9V74H56.9z"
		/>
	<path class="st0" d="M68,76.3h1.3v-0.6c0-0.8-0.4-1-1.2-1c-0.7,0-1,0.1-1.3,0.6l-0.7-0.5c0.4-0.6,0.9-0.9,2-0.9
		c1.4,0,2.1,0.5,2.1,1.8v3.8h-0.9V79c-0.3,0.5-0.7,0.6-1.4,0.6c-1.3,0-2-0.6-2-1.7C66,76.7,66.8,76.3,68,76.3z M69.3,77H68
		c-0.9,0-1.2,0.3-1.2,0.8c0,0.6,0.4,0.9,1.1,0.9c0.8,0,1.4-0.2,1.4-1.4V77z"/>
	<path class="st0" d="M75.2,75.2c-0.2-0.3-0.5-0.5-0.9-0.5c-0.7,0-1.2,0.5-1.2,1.3v3.4h-0.9V74h0.9v0.5c0.2-0.4,0.6-0.6,1.3-0.6
		c0.7,0,1.2,0.3,1.6,0.7L75.2,75.2z"/>
	<path class="st0" d="M81.3,74L79,76.4l2.7,3.1h-1.1l-2.2-2.4L78,77.4v2h-0.9v-7.6H78v4.3l2.2-2.2L81.3,74L81.3,74z"/>
	<path class="st0" d="M86.7,78.6c-0.4,0.7-1,0.9-1.9,0.9c-1.5,0-2.4-1-2.4-2.5v-0.7c0-1.6,0.7-2.5,2.2-2.5s2.2,0.9,2.2,2.5v0.6h-3.5
		v0.2c0,0.9,0.5,1.7,1.4,1.7c0.7,0,1.1-0.2,1.3-0.6L86.7,78.6z M83.3,76.1h2.6c0-0.9-0.5-1.5-1.3-1.5C83.7,74.7,83.3,75.2,83.3,76.1
		z"/>
	<path class="st0" d="M88.1,74h0.7v-1.2h0.9V74H91v0.8h-1.3v2.8c0,0.8,0.1,1.1,0.8,1.1h0.4v0.8h-0.5c-1.3,0-1.7-0.5-1.7-1.7v-3H88
		L88.1,74L88.1,74z"/>
	<path class="st0" d="M92.7,71.9h1v1h-1V71.9z M92.8,74h0.9v5.5h-0.9V74z"/>
	<path class="st0" d="M95.8,74h0.9v0.5c0.3-0.4,0.7-0.6,1.5-0.6c1.2,0,2,0.6,2,2.2v3.4h-0.9V76c0-1.1-0.6-1.4-1.3-1.4
		c-0.8,0-1.3,0.6-1.3,1.3v3.4h-0.9C95.8,79.3,95.8,74,95.8,74z"/>
	<path class="st0" d="M105.5,74h0.9v5.4c0,1.5-0.9,2.3-2.4,2.3c-1,0-1.5-0.3-1.9-0.9l0.7-0.5c0.2,0.4,0.6,0.6,1.3,0.6
		c1,0,1.4-0.5,1.4-1.5V79c-0.3,0.4-0.8,0.6-1.5,0.6c-1.5,0-2.2-1.1-2.2-2.5v-0.7c0-1.6,0.8-2.5,2.2-2.5c0.7,0,1.2,0.2,1.5,0.6V74z
		 M105.5,77.1v-0.7c0-1-0.5-1.7-1.4-1.7s-1.4,0.6-1.4,1.7v0.7c0,0.9,0.5,1.7,1.4,1.7C105.1,78.8,105.5,78,105.5,77.1z"/>
	<path class="st0" d="M111.2,74h0.7v-1.2h0.9V74h1.3v0.8h-1.3v2.8c0,0.8,0.1,1.1,0.8,1.1h0.4v0.8h-0.5c-1.3,0-1.7-0.5-1.7-1.7v-3
		h-0.7L111.2,74L111.2,74z"/>
	<path class="st0" d="M115.7,71.9h0.9v2.6c0.3-0.4,0.7-0.6,1.5-0.6c1.2,0,2,0.6,2,2.2v3.4h-0.9V76c0-1.1-0.6-1.4-1.3-1.4
		c-0.8,0-1.3,0.6-1.3,1.3v3.4h-0.9C115.7,79.3,115.7,71.9,115.7,71.9z"/>
	<path class="st0" d="M125,75.2c-0.2-0.3-0.5-0.5-0.9-0.5c-0.7,0-1.2,0.5-1.2,1.3v3.4H122V74h0.9v0.5c0.2-0.4,0.6-0.6,1.3-0.6
		c0.7,0,1.2,0.3,1.6,0.7L125,75.2z"/>
	<path class="st0" d="M131.2,77.1c0,1.4-0.7,2.5-2.3,2.5c-1.5,0-2.3-1-2.3-2.5v-0.7c0-1.6,0.8-2.5,2.3-2.5s2.3,0.9,2.3,2.5V77.1z
		 M130.4,77.1v-0.7c0-1-0.5-1.7-1.4-1.7s-1.4,0.6-1.4,1.7v0.7c0,0.9,0.4,1.7,1.4,1.7C129.9,78.8,130.4,78,130.4,77.1z"/>
	<path class="st0" d="M137.3,79.5h-0.9V79c-0.3,0.4-0.7,0.6-1.5,0.6c-1.2,0-2-0.6-2-2.2V74h0.9v3.4c0,1.1,0.6,1.4,1.3,1.4
		c0.8,0,1.3-0.6,1.3-1.3V74h0.9V79.5z"/>
	<path class="st0" d="M142.7,74h0.9v5.4c0,1.5-0.9,2.3-2.4,2.3c-1,0-1.5-0.3-1.9-0.9l0.7-0.5c0.2,0.4,0.6,0.6,1.3,0.6
		c1,0,1.4-0.5,1.4-1.5V79c-0.3,0.4-0.8,0.6-1.5,0.6c-1.5,0-2.2-1.1-2.2-2.5v-0.7c0-1.6,0.8-2.5,2.2-2.5c0.7,0,1.2,0.2,1.5,0.6V74z
		 M142.7,77.1v-0.7c0-1-0.5-1.7-1.4-1.7s-1.4,0.6-1.4,1.7v0.7c0,0.9,0.5,1.7,1.4,1.7C142.3,78.8,142.7,78,142.7,77.1z"/>
	<path class="st0" d="M145.6,71.9h0.9v2.6c0.3-0.4,0.7-0.6,1.5-0.6c1.2,0,2,0.6,2,2.2v3.4h-1V76c0-1.1-0.6-1.4-1.3-1.4
		c-0.8,0-1.3,0.6-1.3,1.3v3.4h-0.9v-7.4H145.6z"/>
	<path class="st0" d="M1.7,89.5H5v-3.2h0.9v7.6h-1v-3.5H1.7v3.5h-1v-7.6h0.9v3.2H1.7z"/>
	<path class="st0" d="M12.4,93.8h-0.9v-0.5c-0.3,0.4-0.7,0.6-1.5,0.6c-1.2,0-2-0.6-2-2.2v-3.4h1v3.4c0,1.1,0.6,1.4,1.3,1.4
		c0.8,0,1.3-0.6,1.3-1.3v-3.4h0.9v5.4H12.4z"/>
	<path class="st0" d="M14.4,88.3h0.9v0.5c0.2-0.4,0.7-0.6,1.4-0.6c0.7,0,1.3,0.3,1.6,0.9c0.4-0.6,1-0.9,1.7-0.9
		c1.2,0,1.9,0.7,1.9,2.2v3.4H21v-3.4c0-1-0.5-1.4-1.1-1.4c-0.7,0-1.2,0.6-1.2,1.3v3.4h-0.9v-3.4c0-1-0.5-1.4-1.1-1.4
		c-0.7,0-1.2,0.6-1.2,1.3v3.4h-0.9v-5.3H14.4z"/>
	<path class="st0" d="M25.6,90.7h1.3V90c0-0.8-0.4-1-1.2-1c-0.7,0-1,0.1-1.3,0.6l-0.7-0.5c0.4-0.6,0.9-0.9,2-0.9
		c1.4,0,2.1,0.5,2.1,1.8v3.8h-0.9v-0.5c-0.3,0.5-0.7,0.6-1.4,0.6c-1.3,0-2-0.6-2-1.7C23.5,91,24.4,90.7,25.6,90.7z M26.9,91.4h-1.3
		c-0.9,0-1.2,0.3-1.2,0.8c0,0.6,0.4,0.9,1.1,0.9c0.8,0,1.4-0.2,1.4-1.4V91.4z"/>
	<path class="st0" d="M29.7,88.3h0.9v0.5c0.3-0.4,0.7-0.6,1.5-0.6c1.2,0,2,0.6,2,2.2v3.4h-0.9v-3.4c0-1.1-0.6-1.4-1.3-1.4
		c-0.8,0-1.3,0.6-1.3,1.3v3.4h-0.9C29.7,93.7,29.7,88.3,29.7,88.3z"/>
	<path class="st0" d="M36.2,86.2h1v1h-1V86.2z M36.2,88.3h0.9v5.5h-0.9V88.3z"/>
	<path class="st0" d="M41.9,89.1H39v-0.8h4.1V89l-2.9,4h2.9v0.8H39v-0.7L41.9,89.1z"/>
	<path class="st0" d="M48.7,93c-0.4,0.7-1,0.9-1.9,0.9c-1.5,0-2.4-1-2.4-2.5v-0.7c0-1.6,0.7-2.5,2.2-2.5s2.2,0.9,2.2,2.5v0.6h-3.5
		v0.2c0,0.9,0.5,1.7,1.4,1.7c0.7,0,1.1-0.2,1.3-0.6L48.7,93z M45.3,90.5h2.6c0-0.9-0.5-1.5-1.3-1.5S45.4,89.6,45.3,90.5z"/>
	<path class="st0" d="M54.1,86.2H55v7.6h-0.9v-0.5c-0.3,0.4-0.8,0.6-1.5,0.6c-1.5,0-2.2-1.1-2.2-2.5v-0.7c0-1.6,0.8-2.5,2.2-2.5
		c0.7,0,1.2,0.2,1.5,0.6V86.2z M54.1,91.5v-0.8c0-1-0.5-1.7-1.4-1.7s-1.4,0.6-1.4,1.7v0.7c0,0.9,0.5,1.7,1.4,1.7
		C53.6,93.1,54.1,92.4,54.1,91.5z"/>
	<path class="st0" d="M59.7,88.3h0.7v-1.2h0.9v1.2h1.3v0.8h-1.3v2.8c0,0.8,0.1,1.1,0.8,1.1h0.4v0.8H62c-1.3,0-1.7-0.5-1.7-1.7v-3
		h-0.7L59.7,88.3L59.7,88.3z"/>
	<path class="st0" d="M68.2,93c-0.4,0.7-1,0.9-1.9,0.9c-1.5,0-2.4-1-2.4-2.5v-0.7c0-1.6,0.7-2.5,2.2-2.5s2.2,0.9,2.2,2.5v0.6h-3.5
		v0.2c0,0.9,0.5,1.7,1.4,1.7c0.7,0,1.1-0.2,1.3-0.6L68.2,93z M64.8,90.5h2.6c0-0.9-0.5-1.5-1.3-1.5C65.3,89,64.9,89.6,64.8,90.5z"/>
	<path class="st0" d="M74.2,93c-0.3,0.6-1,0.9-1.9,0.9c-1.5,0-2.4-1-2.4-2.5v-0.7c0-1.6,0.9-2.5,2.4-2.5c0.8,0,1.5,0.3,1.9,0.9
		l-0.7,0.5c-0.2-0.4-0.7-0.5-1.2-0.5c-0.9,0-1.5,0.6-1.5,1.7v0.7c0,0.9,0.4,1.7,1.5,1.7c0.5,0,1-0.2,1.2-0.6L74.2,93z"/>
	<path class="st0" d="M75.6,86.2h0.9v2.6c0.3-0.4,0.7-0.6,1.5-0.6c1.2,0,2,0.6,2,2.2v3.4h-0.9v-3.4c0-1.1-0.6-1.4-1.3-1.4
		c-0.8,0-1.3,0.6-1.3,1.3v3.4h-0.9C75.6,93.7,75.6,86.2,75.6,86.2z"/>
	<path class="st0" d="M81.9,88.3h0.9v0.5c0.3-0.4,0.7-0.6,1.5-0.6c1.2,0,2,0.6,2,2.2v3.4h-0.9v-3.4c0-1.1-0.6-1.4-1.3-1.4
		c-0.8,0-1.3,0.6-1.3,1.3v3.4h-0.9C81.9,93.7,81.9,88.3,81.9,88.3z"/>
	<path class="st0" d="M92.6,91.4c0,1.4-0.7,2.5-2.3,2.5c-1.5,0-2.3-1-2.3-2.5v-0.7c0-1.6,0.8-2.5,2.3-2.5s2.3,0.9,2.3,2.5V91.4z
		 M91.7,91.4v-0.7c0-1-0.5-1.7-1.4-1.7s-1.4,0.6-1.4,1.7v0.7c0,0.9,0.4,1.7,1.4,1.7C91.2,93.1,91.7,92.4,91.7,91.4z"/>
	<path class="st0" d="M94.3,86.2h0.9v5.7c0,0.6,0,1.1,0.9,1.1v0.8c-1.4,0-1.8-0.5-1.8-1.7V86.2z"/>
	<path class="st0" d="M102.1,91.4c0,1.4-0.7,2.5-2.3,2.5c-1.5,0-2.3-1-2.3-2.5v-0.7c0-1.6,0.8-2.5,2.3-2.5s2.3,0.9,2.3,2.5V91.4z
		 M101.2,91.4v-0.7c0-1-0.5-1.7-1.4-1.7s-1.4,0.6-1.4,1.7v0.7c0,0.9,0.4,1.7,1.4,1.7C100.8,93.1,101.2,92.4,101.2,91.4z"/>
	<path class="st0" d="M107.3,88.3h0.9v5.4c0,1.5-0.9,2.3-2.4,2.3c-1,0-1.5-0.3-1.9-0.9l0.7-0.5c0.2,0.4,0.6,0.6,1.3,0.6
		c1,0,1.4-0.5,1.4-1.5v-0.4c-0.3,0.4-0.8,0.6-1.5,0.6c-1.5,0-2.2-1.1-2.2-2.5v-0.7c0-1.6,0.8-2.5,2.2-2.5c0.7,0,1.2,0.2,1.5,0.6
		V88.3z M107.3,91.4v-0.7c0-1-0.5-1.7-1.4-1.7s-1.4,0.6-1.4,1.7v0.7c0,0.9,0.5,1.7,1.4,1.7C106.9,93.1,107.3,92.4,107.3,91.4z"/>
	<path class="st0" d="M111.6,93.9l-2.2-5.6h0.9l1.6,4.3l1.4-4.3h0.9l-1.9,5.7c-0.5,1.3-0.7,1.9-2.3,1.9V95
		C110.9,95.1,111.3,94.9,111.6,93.9L111.6,93.9z"/>
</g>
<g>
	<path class="st0" d="M7.9,17.7c1.2,0.3,2.6,0.4,4.3,0.4c2.1,0,7.8,0,10.3-0.1c-0.5,0.8-1.1,2.3-1.3,3.3h-9c-4,0-6.7-0.5-8.6-2.8
		c-0.2,1.3-0.5,2.4-0.9,3.3c-0.6-0.4-2-1.1-2.7-1.4c1.1-2.3,1.3-6,1.3-9.9l2.9,0.2c0,1.1,0,2.1-0.1,3.1c0.3,0.7,0.6,1.3,0.9,1.8v-6
		H0.7V6.7h3.7V5H1.3V2.1h3.2V0h3.1v2.1h3.1V5H7.5v1.7H11V7c1.2-0.8,2-2,2.3-3.4h-2V0.8h10.2c0,0,0,0.7,0,1.1
		c-0.1,3.7-0.3,5.4-0.9,6.1c-0.5,0.6-1,0.8-1.7,0.9C18.3,9,17.4,9,16.3,9c0-0.9-0.4-2-0.8-2.8c-0.6,1.3-1.6,2.4-2.7,3.2
		c-0.4-0.4-1.1-1-1.8-1.4v1.7H7.9v2.1h2.7v2.9H7.9V17.7z M11.8,9.6h9.2V17h-9.2V9.6z M14.9,14.3h2.8v-2.1h-2.8V14.3z M16.4,3.6
		c-0.2,1-0.5,1.8-0.9,2.6c0.7,0.1,1.3,0.1,1.7,0.1c0.3,0,0.5,0,0.7-0.2c0.2-0.3,0.3-0.9,0.4-2.5H16.4z"/>
	<path class="st0" d="M47.3,7.5c-0.7,2.3-1.7,4.5-2.9,6.3c0.2,0.6,0.4,0.9,0.6,0.9c0.2,0,0.4-0.8,0.4-2.4c0.6,0.6,1.4,1.3,2.1,1.6
		c-0.4,3-1.2,3.7-2.9,3.7c-0.8,0-1.5-0.5-2-1.4c-0.7,0.7-1.4,1.4-2.2,1.9c2.4,0,5.7,0,7.4-0.1c-0.5,0.8-1.1,2.3-1.3,3.3h-8.3
		c-4.3,0-7.3-0.6-9.4-3.4c-0.3,1.4-0.8,2.7-1.5,3.9c-0.4-0.7-1.5-1.7-2.2-2c1.4-2.6,1.5-6,1.4-9.1l2.8,0.2c0,0.8,0,1.7,0,2.5
		c0.2,0.7,0.5,1.2,0.8,1.7V9.5h-4.3V6.6h3.7V5.2h-3V2.3h3V0h3.1v2.2h2.9v2.9h-2.9v1.4h3.3v2.9h-2.8v2.1h2.3v1.9c0.5-0.3,1-0.9,1-1.8
		V3.5h4c0-1.1-0.1-2.3-0.1-3.5h3c0,0.4,0,0.8,0,1.2l2.2-1.1C46,0.9,46.8,2,47.3,2.7l-1.5,0.8h1.5v2.8h-3.9c0.1,1.2,0.2,2.3,0.3,3.3
		c0.4-0.9,0.7-1.8,1-2.7L47.3,7.5z M33.2,17.5c1.4,0.5,3.1,0.6,5.1,0.6h1.3c-0.5-0.7-1.2-1.5-1.7-2c1.4-0.7,2.6-1.8,3.6-3
		c-0.5-1.9-0.8-4.3-0.9-6.9h-1.1v5.2l1.1-0.6c0.1,0.8,0.5,2,0.8,2.6c-3.5,2.2-4.2,2.8-4.6,3.2c-0.2-0.7-0.7-2-1.1-2.7v0.7h-2.3V17.5
		z M44.6,3.5c-0.4-0.6-0.9-1.5-1.4-2.1c0,0.7,0,1.4,0,2.1H44.6z"/>
	<path class="st0" d="M58.5,15.3c-0.2-0.5-0.6-1.2-1-1.9v8.5h-3.2v-7.1c-0.6,1.4-1.3,2.7-2,3.6c-0.3-1-1-2.4-1.5-3.2
		c1.2-1.4,2.3-3.6,3.1-5.6H51V6.5h3.3V4.3c-0.8,0.1-1.5,0.2-2.3,0.3c-0.1-0.7-0.5-1.9-0.9-2.6c2.6-0.4,5.5-1.1,7.5-1.9l1.8,2.7
		c-0.9,0.3-1.9,0.6-2.9,0.8v2.8h2.8v3.1h-2.8v0.1c0.6,0.5,2.4,2.5,2.9,3L58.5,15.3z M70.4,16.1v5.7h-3.3v-5.1L60.4,18l-0.5-3.2
		l7.2-1.3V0h3.3v12.9l2.1-0.4l0.5,3.2L70.4,16.1z M62.5,7.3c1.2,1,2.9,2.4,3.6,3.4l-2.3,2.1c-0.7-1-2.2-2.6-3.4-3.6L62.5,7.3z
		 M64.5,6.8c-0.6-1-2.1-2.6-3.3-3.6l2.2-1.9c1.2,1,2.8,2.4,3.4,3.4L64.5,6.8z"/>
	<path class="st0" d="M84.6,12.8c-0.8,0.2-1.5,0.4-2.3,0.6v4.9c0,1.5-0.3,2.3-1.1,2.8c-0.9,0.5-2.1,0.6-3.7,0.6
		c-0.1-0.9-0.5-2.2-0.9-3c0.8,0,1.7,0,2,0c0.3,0,0.4-0.1,0.4-0.4v-4.1l-2,0.5l-0.8-3.2c0.8-0.1,1.7-0.3,2.8-0.6V7.3h-2.5V4.3H79V0
		h3.3v4.2h2.1v3.1h-2.1v2.8l1.9-0.4L84.6,12.8z M97.7,9.3c-0.8,3.2-2.2,5.7-4.1,7.7c1.4,0.9,3.1,1.6,5,2c-0.7,0.7-1.7,2-2.1,2.9
		c-2.2-0.6-4-1.5-5.5-2.7c-1.7,1.1-3.6,2-5.8,2.6c-0.3-0.9-1.1-2.3-1.8-3c1.9-0.4,3.6-1.1,5.1-1.9c-1.2-1.4-2.2-3.1-3-5l1.1-0.3H85
		v-3h4.3V6.2h-4.7V3.1h4.7V0h3.3v3.1h5v3.1h-5v2.4h2.3l0.6-0.1L97.7,9.3z M88.7,11.6c0.6,1.2,1.4,2.4,2.3,3.4c1-1,1.8-2.1,2.5-3.4
		H88.7z"/>
	<path class="st0" d="M122.9,3.5c0,0,0,1.1,0,1.4c-0.3,10.2-0.5,14-1.5,15.2c-0.7,1-1.4,1.3-2.4,1.5c-0.9,0.2-2.3,0.1-3.7,0.1
		c0-0.9-0.5-2.3-1.1-3.2c1.5,0.1,2.9,0.1,3.5,0.1c0.5,0,0.7-0.1,1-0.4c0.7-0.7,0.9-4.1,1.1-11.7h-4.4c-0.6,1.3-1.3,2.5-2,3.4
		c-0.4-0.4-1.2-1-1.9-1.4v10.9h-6v1.6h-3V3.8h2.6c0.2-1.2,0.4-2.6,0.5-3.7l3.7,0.5c-0.4,1.1-0.8,2.3-1.1,3.2h3.4v3.1
		c1.1-1.9,2.1-4.3,2.7-6.7l3.2,0.8c-0.3,0.9-0.6,1.8-0.9,2.7H122.9z M108.5,6.7h-3v3.1h3V6.7z M108.5,16.6v-4h-3v4H108.5z
		 M116.1,15.9c-0.6-1.4-2-3.7-3-5.4l2.6-1.5c1,1.6,2.5,3.7,3.2,5.1L116.1,15.9z"/>
	<path class="st0" d="M4.1,44.9c-0.8-0.8-2.6-2.1-3.9-2.9l2-2.3c1.2,0.7,3.1,1.8,4,2.6L4.1,44.9z M7,47.1c-1,2.4-2.1,4.9-3.3,7.2
		l-3-2c1-1.7,2.5-4.5,3.7-7.2L7,47.1z M5.2,38.7c-0.8-0.8-2.6-2.1-3.8-3l2.1-2.2c1.1,0.7,2.8,1.8,3.8,2.6V34h14.3v4.9h-3.2v-2.1
		h-8.1V39h-3v-2.6L5.2,38.7z M17.7,47.4c1.2,1.4,2.9,2.7,4.5,3.5c-0.7,0.6-1.7,1.8-2.3,2.6c-1.5-0.9-3-2.4-4.2-4v5.2h-3.3v-5.2
		c-1.3,1.7-2.9,3.1-4.7,4.1c-0.5-0.8-1.5-2-2.2-2.6c1.9-0.8,3.7-2.1,4.9-3.6H7v-3h5.5v-2.2h3.3v2.2h5.6v3H17.7z M14.1,37.4
		c-0.2,3.3-1,5.1-6.1,6c-0.2-0.8-1-2-1.6-2.6c4.2-0.5,4.6-1.4,4.7-3.4H14.1z M20.3,40.1c0.5,0,1.2-0.1,1.6-0.2c0,0.8,0.1,2,0.2,2.8
		c-0.4,0.2-1.1,0.2-1.8,0.2h-1.9c-2.8,0-3.5-0.9-3.5-3.5v-2h2.9v2c0,0.5,0.1,0.7,0.5,0.7H20.3z"/>
	<path class="st0" d="M30.8,40.9c0,4-0.3,10-2.2,13.9c-0.7-0.5-2.2-1.2-3.1-1.4c1.8-3.6,2-8.9,2-12.4v-6.1H36
		c-0.1-0.5-0.3-0.9-0.4-1.3l3.4-0.7c0.3,0.6,0.6,1.4,0.7,2h7.4v3.1H30.8V40.9z M46.1,47.3c-0.9,1.7-2.1,3-3.6,4.1
		c1.6,0.3,3.3,0.5,5.1,0.6c-0.7,0.7-1.5,2-1.9,2.9c-2.8-0.3-5.2-0.8-7.2-1.5c-2.1,0.7-4.4,1.1-6.9,1.4c-0.3-0.8-0.9-2.1-1.4-2.8
		c1.6-0.1,3.2-0.3,4.6-0.6c-0.8-0.6-1.6-1.3-2.3-2l1-0.4h-2.1v-2.6h12.1l0.6-0.1L46.1,47.3z M34,45.8v-3.5h-2.8v-2.6H34v-1.2h3.2
		v1.2h3.4v-1.2h3.3v1.2h3.1v2.6h-3.1v3.5H34z M36.1,48.9c0.7,0.5,1.5,0.9,2.4,1.3c0.9-0.4,1.7-0.8,2.3-1.3H36.1z M37.1,42.3v1h3.4
		v-1H37.1z"/>
	<path class="st0" d="M63.5,33c0,1.1-0.1,2.4-0.2,3.8c0.3,3.3,1.8,11.4,9.8,14.9c-1,0.8-2,2-2.5,2.9c-4.8-2.3-7.4-6.4-8.8-10.1
		c-1.3,3.8-3.7,7.6-8.1,10.3c-0.6-0.9-1.7-2-2.8-2.7c9.2-5.1,8.6-14.9,8.8-19.1H63.5z"/>
	<path class="st0" d="M98,51v3.2H83.5V51h6v-4h-4.2v-3.1h4.2v-3.2h-2c-0.3,1.1-0.7,2.1-1.2,3c-0.7-0.5-2.2-1.2-3-1.5
		c0.2-0.3,0.4-0.7,0.6-1.1l-1.3,0.6c-0.1-0.4-0.2-0.9-0.4-1.4v14.6h-3.4V42.2c-0.1,0.8-0.3,1.6-0.5,2.2l-2.4-0.9
		c0.5-1.6,0.9-4.2,1.1-6.1l1.8,0.3V33h3.4v4.4l1.3-0.6c0.4,0.7,0.7,1.5,1,2.3c0.4-1.6,0.7-3.4,0.9-5.1l3.2,0.5c-0.1,1-0.3,2-0.4,3
		h1.3v-4.4h3.3v4.4h4.4v3.2h-4.4v3.2h3.9V47h-3.9v4H98z"/>
	<path class="st0" d="M110.7,39.3c-0.7,1.1-1.5,2.3-2.4,3.5v12.1h-3.4v-8.3c-0.5,0.5-1,0.9-1.5,1.3c-0.5-0.7-1.6-2.2-2.3-2.9
		c2.3-1.6,4.8-4.3,6.3-6.9L110.7,39.3z M109.9,34.4c-1.7,2.3-4.3,4.7-6.6,6.3c-0.4-0.8-1.3-2.1-1.8-2.8c1.9-1.2,4.1-3.3,5.2-4.9
		L109.9,34.4z M123.2,43.9h-3v7.3c0,1.7-0.3,2.6-1.4,3.1c-1.1,0.5-2.6,0.6-4.6,0.6c-0.1-1-0.6-2.5-1-3.4c1.1,0.1,2.6,0.1,3.1,0.1
		c0.4,0,0.6-0.1,0.6-0.4v-7.2h-6.3v-3.2h12.7V43.9z M122.6,37.5h-11.2v-3.2h11.2V37.5z"/>
	<path class="st0" d="M148,51.4c0,1.4-0.3,2.3-1.2,2.8c-0.9,0.5-2.2,0.6-3.8,0.6c-0.1-0.9-0.5-2.3-0.9-3.1c0.9,0.1,2,0.1,2.4,0
		c0.3,0,0.4-0.1,0.4-0.4v-2.2c-1.7,0.5-3.5,0.9-5,1.3l-0.5-1.5c-0.1,2.2-0.4,4.6-1.4,6.1c-0.6-0.5-1.9-1.5-2.6-1.8
		c0.2-0.3,0.3-0.6,0.4-0.9c-2.9,0.7-5.8,1.3-8.2,1.9l-0.7-3c0.9-0.1,2.1-0.3,3.4-0.5v-5.2h-3v-2.8h3v-1.2h-1.6v-0.4
		c-0.2,0.2-0.5,0.5-0.7,0.7c-0.2-0.8-0.9-2.6-1.4-3.5c1.6-1.3,3.2-3.4,4.2-5.5l2.9,1c-0.1,0.2-0.2,0.5-0.3,0.7
		c1.2,1,2.7,2.2,3.4,2.9l-1.9,2.6c-0.1-0.2-0.3-0.3-0.5-0.5v2h-1.2v1.2h2.3v2.8h-2.3v4c0.3-1,0.6-2.5,0.7-3.5l2.5,0.6
		c-0.4,1.2-0.8,2.6-1.1,3.5l0.5-0.1l0.2,2.2c0.5-1.6,0.5-3.6,0.5-5.3v-7.5h4.3V33h3.2v6.3h4.2V51.4z M129.4,46.2
		c0.3,1.2,0.7,2.8,0.9,3.8l-2.3,0.6c-0.1-1.1-0.4-2.6-0.7-3.9L129.4,46.2z M133.6,38.7c-0.6-0.5-1.2-1.1-1.7-1.6
		c-0.3,0.6-0.7,1.1-1.1,1.6H133.6z M133.1,50.3l1.5-0.2l-1.5-0.4V50.3z M137.4,39.2c-0.2-1.1-1-2.9-1.8-4.3l2.7-1.3
		c0.9,1.3,1.7,2.9,2,4.1L137.4,39.2z M139.4,42.2v2.3l1.2-1.7c1.4,0.3,3.3,1,4.3,1.6v-2.2H139.4z M139.4,47.7
		c1.5-0.3,3.5-0.7,5.5-1.2v-2l-1.4,2.2c-0.9-0.6-2.6-1.4-4-1.8V47.7z M148.8,34.5c-0.7,1.7-1.4,3.3-2,4.4l-2.8-1
		c0.6-1.2,1.3-3,1.7-4.4L148.8,34.5z"/>
</g>
</svg>
