<?xml version="1.0" encoding="utf-8"?>
<!-- Generator: Adobe Illustrator 28.0.0, SVG Export Plug-In . SVG Version: 6.00 Build 0)  -->
<svg version="1.1" id="圖層_1" xmlns="http://www.w3.org/2000/svg" xmlns:xlink="http://www.w3.org/1999/xlink" x="0px" y="0px"
	 viewBox="0 0 691.7 48.3" style="enable-background:new 0 0 691.7 48.3;" xml:space="preserve">
<style type="text/css">
	.st0{fill:#FFFFFF;}
</style>
<g>
	<g>
		<path class="st0" d="M196.9,47.4V17.8h-0.2l-7.6,23.3h-7.2l-7.7-23.2h-0.1v29.5h-9.7V0.9h12.9l8.2,24.1l8-24.1h13v46.4H196.9z"/>
		<path class="st0" d="M240.6,47.4l-2.5-8.7h-14.9l-2.6,8.7h-10l14.8-46.5h11.2l14.6,46.5H240.6z M230.7,12.8h-0.2l-4.9,16.8h9.8
			L230.7,12.8z"/>
		<path class="st0" d="M278.8,47.4l-8.3-16.4h-4.7v16.4h-10.5V0.9h18.3c4.2,0,7.4,1,10,3.1c3.2,2.6,4.9,6.9,4.9,11.5
			c0,5.7-2.5,11.2-7.9,13.7l9.6,18.1H278.8z M272.3,10.1h-6.5v12.3h6.5c3.7,0,6.1-2.4,6.1-6.2C278.4,11.9,275.8,10.1,272.3,10.1z"/>
		<path class="st0" d="M315.2,10.2v37.1h-10.5v-37h-11.9V0.9h34.2v9.3H315.2z"/>
		<path class="st0" d="M332,47.4V0.9h30.8v9.4h-20.3v8.9h17.1v9.4h-17.1v9.2h20.4v9.5H332z"/>
		<path class="st0" d="M386.2,48.1c-9.2,0-17.8-5.1-17.8-16.7V17.3c0-11.4,8.3-17.1,17.5-17.1c8.1,0,17,4.6,17,15.3v2.2H393v-1.1
			c0-4.8-3.7-6.9-6.9-6.9c-3.7,0-7.3,2.1-7.3,7.4v14.1c0,4.8,3.1,7.5,7.4,7.5c3.2,0,6.8-2,6.8-6.9v-1.1h9.8v2.3
			C402.9,43.6,394.2,48.1,386.2,48.1z"/>
		<path class="st0" d="M432.8,47.4V28.9h-13.6v18.5h-10.4V0.9h10.4v17.8h13.6V0.9h10.5v46.4H432.8z"/>
		<path class="st0" d="M480,48.1c-7.3,0-13.7-2.2-17.7-8.3l6.6-6.6c2.1,3.4,6.2,5.9,10.6,5.9c3.1,0,6.6-1.2,6.6-4.4
			c0-2.5-1.7-3.4-3.8-4.3c-1.1-0.5-5.9-1.9-7.3-2.3c-5.8-1.6-10.8-5.1-10.8-13c0-8.7,6.5-15,15.8-15c7.3,0,12.4,2.3,15.7,7.2
			l-6.8,6.3c-1.9-2.9-5.4-4.4-8.7-4.4c-3,0-5.7,1.4-5.7,4.5c0,2.9,2.5,3.4,5.6,4.4c1,0.3,5.1,1.5,6.2,1.8c6.2,1.9,10.5,5.5,10.5,13
			C496.8,43.1,488.6,48.1,480,48.1z"/>
		<path class="st0" d="M519.2,48.1c-10.6,0-17.3-5.5-17.3-17.2v-30h10.5v29.2c0,5.2,2.5,8.5,7.1,8.5c4.4,0,7-2.9,7-8.4V0.9h10.3
			v29.5C536.7,42,529,48.1,519.2,48.1z"/>
		<path class="st0" d="M576.1,47.4V17.8h-0.2l-7.6,23.3h-7.2l-7.7-23.2h-0.1v29.5h-9.7V0.9h12.9l8.2,24.1l8-24.1h13v46.4H576.1z"/>
		<path class="st0" d="M625.3,47.4V17.8h-0.2l-7.6,23.3h-7.2l-7.7-23.2h-0.1v29.5h-9.7V0.9h12.9L614,25l8-24.1h13v46.4H625.3z"/>
		<path class="st0" d="M642.1,47.4V0.9h10.5v46.4H642.1z"/>
		<path class="st0" d="M679.9,10.2v37.1h-10.5v-37h-11.9V0.9h34.2v9.3H679.9z"/>
	</g>
	<g>
		<path class="st0" d="M0.8,47.4v-8.6l17.7-17.6c1.8-1.8,2.7-3.9,2.7-6.5c0-1.7-0.5-3.2-1.6-4.3c-1-1.2-2.4-1.7-4.1-1.7
			c-1.7,0-3.2,0.6-4.2,1.8c-1.1,1.2-1.6,2.7-1.6,4.6H0c0-3,0.7-5.6,2-7.8c1.3-2.2,3.2-4,5.6-5.3c2.4-1.3,5.1-1.9,8.2-1.9
			c3,0,5.7,0.6,7.9,1.8c2.3,1.2,4,2.8,5.3,4.9c1.3,2.1,1.9,4.5,1.9,7.3c0,2.5-0.5,4.9-1.6,7.2c-1.1,2.3-2.8,4.6-5.2,6.9L13,38.8
			h18.4v8.6H0.8z"/>
		<path class="st0" d="M54.1,48c-3.1,0-5.8-0.6-8.1-1.8c-2.3-1.2-4.1-2.8-5.3-4.9c-1.3-2.1-1.9-4.6-1.9-7.4V14.2
			c0-2.8,0.6-5.3,1.9-7.4c1.3-2.1,3-3.7,5.3-4.9c2.3-1.2,5-1.8,8.1-1.8c3.1,0,5.9,0.6,8.1,1.8c2.3,1.2,4,2.8,5.3,4.9
			s1.9,4.6,1.9,7.4V34c0,2.8-0.6,5.3-1.9,7.4c-1.3,2.1-3,3.7-5.3,4.9C59.9,47.5,57.2,48,54.1,48z M47.7,14.2v13.1l12.6-14.8
			c-0.7-2.7-2.7-4-6.2-4c-2,0-3.6,0.5-4.7,1.5C48.3,11,47.7,12.4,47.7,14.2z M54.1,39.7c2,0,3.6-0.5,4.7-1.5c1.1-1,1.7-2.4,1.7-4.2
			V20.9L47.9,35.7c0.3,1.3,1,2.3,2.1,3C51.1,39.4,52.4,39.7,54.1,39.7z"/>
		<path class="st0" d="M77.4,47.4v-8.6l17.7-17.6c1.8-1.8,2.7-3.9,2.7-6.5c0-1.7-0.5-3.2-1.6-4.3c-1-1.2-2.4-1.7-4.1-1.7
			c-1.7,0-3.2,0.6-4.2,1.8c-1.1,1.2-1.6,2.7-1.6,4.6h-9.6c0-3,0.7-5.6,2-7.8c1.3-2.2,3.2-4,5.6-5.3c2.4-1.3,5.1-1.9,8.2-1.9
			c3,0,5.7,0.6,7.9,1.8c2.3,1.2,4,2.8,5.3,4.9c1.3,2.1,1.9,4.5,1.9,7.3c0,2.5-0.5,4.9-1.6,7.2c-1.1,2.3-2.8,4.6-5.2,6.9L89.6,38.8
			H108v8.6H77.4z"/>
		<path class="st0" d="M135.2,47.4v-8.6h-20.3V25.5l17.4-24.7h10.5l-19,27.4v2.4h11.4v-10h9.6v26.8H135.2z"/>
	</g>
</g>
</svg>
